<?xml version="1.0" encoding="UTF-8"?>
<!-- Generated by jsxcad -->
<!DOCTYPE svg PUBLIC "-//W3C//DTD SVG 1.1 Tiny//EN" "http://www.w3.org/Graphics/SVG/1.1/DTD/svg11-tiny.dtd">
<svg viewBox="-250 -250 500 500" width="500" height="500" xmlns="http://www.w3.org/2000/svg"><path d="M-3.6402841788407914,-73.60265625813531L-12.407701695424285,-70.21393032653626L-21.059190209642534,-66.47611188092269zM14.149162176323873,-79.2918364689573L5.219857565832136,-76.63192953967582L-3.6402841788407914,-73.60265625813531zM32.118984577175205,-83.46609560207936L14.149162176323873,-79.2918364689573L-3.6402841788407914,-73.60265625813531zM32.118984577175205,-83.46609560207936L23.123671198328516,-81.57290278527815L14.149162176323873,-79.2918364689573zM50.07203101471427,-86.05512877161713L41.11023150040565,-84.96285750487561L32.118984577175205,-83.46609560207936zM-21.059190209642534,-66.47611188092269L-25.577011101336467,-64.31283226735161L-26.860292292897224,-15.303425644461383zM-3.6402841788407914,-73.60265625813531L-21.059190209642534,-66.47611188092269L-26.860292292897224,-15.303425644461383zM32.118984577175205,-83.46609560207936L-3.6402841788407914,-73.60265625813531L-26.860292292897224,-15.303425644461383zM57.59602493348893,-37.50856855723493L50.07203101471427,-86.05512877161713L32.118984577175205,-83.46609560207936z" style="fill:rgb(83,212,212)"/><path d="M56.76330256321289,-81.78898888262422L54.789309796090116,-86.4154487947085L57.59602493348893,-37.50856855723493z" style="fill:rgb(247,158,158)"/><path d="M57.59602493348893,-37.50856855723493L54.789309796090116,-86.4154487947085L50.07203101471427,-86.05512877161713zM58.480378527425,-33.140225054997345L32.118984577175205,-83.46609560207936L-26.860292292897224,-15.303425644461383z" style="fill:rgb(83,212,212)"/><path d="M57.59602493348893,-37.50856855723493L59.658604953053384,-32.85696204938774L56.76330256321289,-81.78898888262422z" style="fill:rgb(247,158,158)"/><path d="M-127.21850604000714,34.02030005012417L-128.9925637142048,38.05628732213737L-131.8276135787894,45.705096144178704zM58.480378527425,-33.140225054997345L57.59602493348893,-37.50856855723493L32.118984577175205,-83.46609560207936zM-127.21850604000714,34.02030005012417L-131.8276135787894,45.705096144178704L-135.92725387511928,61.096896597069104zM-58.962565049068864,16.47400705668445L-127.21850604000714,34.02030005012417L-100.24188196775916,49.51908356825135zM-131.8276135787894,45.705096144178704L-134.14507943995787,53.393621714415744L-135.92725387511928,61.096896597069104zM68.20288283659082,-23.38435483327965L-26.860292292897224,-15.303425644461383L-27.57763156830339,-10.610421488411705zM-105.98280374186935,53.25193194526105L-100.24188196775916,49.51908356825135L-127.21850604000714,34.02030005012417zM-109.93738477182553,58.31937896023417L-105.98280374186935,53.25193194526105L-127.21850604000714,34.02030005012417zM60.593585974292836,-29.22831433028154L58.480378527425,-33.140225054997345L-26.860292292897224,-15.303425644461383zM-52.83620209025285,14.439786584852047L-58.962565049068864,16.47400705668445L-100.24188196775916,49.51908356825135zM-41.37277656270315,7.925843047008447L-46.89130536480281,11.550882577542215L-100.24188196775916,49.51908356825135zM-46.89130536480281,11.550882577542215L-52.83620209025285,14.439786584852047L-100.24188196775916,49.51908356825135zM-36.50640642843989,3.7152790737253305L-41.37277656270315,7.925843047008447L-88.64069799745005,48.90252943922652zM-111.20164380950682,63.592475416677466L-109.93738477182553,58.31937896023417L-127.21850604000714,34.02030005012417z" style="fill:rgb(83,212,212)"/><path d="M59.658604953053384,-32.85696204938774L57.59602493348893,-37.50856855723493L58.480378527425,-33.140225054997345zM58.480378527425,-33.140225054997345L60.548715726908554,-28.48591448147614L59.658604953053384,-32.85696204938774z" style="fill:rgb(246,167,149)"/><path d="M63.87168645382431,-25.930405260461185L60.593585974292836,-29.22831433028154L-26.860292292897224,-15.303425644461383zM-127.21850604000714,34.02030005012417L-135.92725387511928,61.096896597069104L-137.38482969159944,91.52025902394799zM-41.37277656270315,7.925843047008447L-100.24188196775916,49.51908356825135L-93.99640140164189,47.94908256389106z" style="fill:rgb(83,212,212)"/><path d="M-105.98280374186935,53.25193194526105L-103.19753920703126,57.53925496832845L-97.48357872816098,53.81939364680839z" style="fill:rgb(183,62,221)"/><path d="M-100.24188196775916,49.51908356825135L-97.48357872816098,53.81939364680839L-91.26086850523336,52.26298570550962z" style="fill:rgb(127,37,217)"/><path d="M-109.45446978074625,67.87292335362157L-111.20164380950682,63.592475416677466L-127.21850604000714,34.02030005012417zM-41.37277656270315,7.925843047008447L-93.99640140164189,47.94908256389106L-88.64069799745005,48.90252943922652zM68.20288283659082,-23.38435483327965L63.87168645382431,-25.930405260461185L-26.860292292897224,-15.303425644461383z" style="fill:rgb(83,212,212)"/><path d="M-97.48357872816098,53.81939364680839L-100.24188196775916,49.51908356825135L-105.98280374186935,53.25193194526105z" style="fill:rgb(183,62,221)"/><path d="M-0.1281252376503903,8.12572576445249L5.8687128046277195,4.987569231155395L-27.57763156830339,-10.610421488411705zM5.8687128046277195,4.987569231155395L12.146748146441059,2.56730950324502L-27.57763156830339,-10.610421488411705zM-5.685833791669715,11.89925953353983L-0.1281252376503903,8.12572576445249L-27.57763156830339,-10.610421488411705z" style="fill:rgb(83,212,212)"/><path d="M-91.26086850523336,52.26298570550962L-93.99640140164189,47.94908256389106L-100.24188196775916,49.51908356825135z" style="fill:rgb(127,37,217)"/><path d="M-109.93738477182553,58.31937896023417L-107.1268196935717,62.59710214215933L-103.19753920703126,57.53925496832845z" style="fill:rgb(226,101,204)"/><path d="M-93.99640140164189,47.94908256389106L-91.26086850523336,52.26298570550962L-85.91879147321517,53.227589759492936z" style="fill:rgb(71,33,193)"/><path d="M12.146748146441059,2.56730950324502L18.54096728591671,0.9304616454918044L-27.57763156830339,-10.610421488411705z" style="fill:rgb(83,212,212)"/><path d="M-103.19753920703126,57.53925496832845L-105.98280374186935,53.25193194526105L-109.93738477182553,58.31937896023417z" style="fill:rgb(226,101,204)"/><path d="M-135.92725387511928,61.096896597069104L-137.1573592301685,68.78887216655362L-137.81969229463658,76.44239423748054zM-10.656555894593208,16.2101984693546L-5.685833791669715,11.89925953353983L-27.57763156830339,-10.610421488411705zM-36.50640642843989,3.7152790737253305L-88.64069799745005,48.90252943922652L-85.39323773170379,52.18911351862768zM18.54096728591671,0.9304616454918044L24.882362528169676,0.12410562882222514L-27.57763156830339,-10.610421488411705zM-14.905468173439335,20.946815207148838L-10.656555894593208,16.2101984693546L-27.57763156830339,-10.610421488411705zM-109.45446978074625,67.87292335362157L-127.21850604000714,34.02030005012417L-137.38482969159944,91.52025902394799z" style="fill:rgb(83,212,212)"/><path d="M-85.91879147321517,53.227589759492936L-88.64069799745005,48.90252943922652L-93.99640140164189,47.94908256389106z" style="fill:rgb(71,33,193)"/><path d="M24.882362528169676,0.12410562882222514L31.001184261608692,0.1755634109517483L-27.57763156830339,-10.610421488411705zM-27.57763156830339,-10.610421488411705L-18.313749264809342,25.985542001431188L-14.905468173439335,20.946815207148838z" style="fill:rgb(83,212,212)"/><path d="M-107.1268196935717,62.59710214215933L-109.93738477182553,58.31937896023417L-111.20164380950682,63.592475416677466zM-111.20164380950682,63.592475416677466L-108.37315070617426,67.86603336525847L-107.1268196935717,62.59710214215933z" style="fill:rgb(246,147,168)"/><path d="M-88.64069799745005,48.90252943922652L-85.91879147321517,53.227589759492936L-82.6726741622574,56.520228098225665z" style="fill:rgb(28,50,153)"/><path d="M-36.50640642843989,3.7152790737253305L-85.39323773170379,52.18911351862768L-85.02513357026399,57.08747332519596zM-27.57763156830339,-10.610421488411705L-29.474512479961675,-5.746596442764544L-56.33066097086203,84.2517448042233zM-27.57763156830339,-10.610421488411705L-20.78157683524772,31.19315075759717L-18.313749264809342,25.985542001431188z" style="fill:rgb(83,212,212)"/><path d="M-0.1281252376503903,8.12572576445249L2.2187652844148555,12.64897109874374L8.189240993837988,9.52432720701921z" style="fill:rgb(167,52,222)"/><path d="M-82.6726741622574,56.520228098225665L-85.39323773170379,52.18911351862768L-88.64069799745005,48.90252943922652z" style="fill:rgb(28,50,153)"/><path d="M-36.50640642843989,3.7152790737253305L-85.02513357026399,57.08747332519596L-87.66060075940237,62.483126997187036z" style="fill:rgb(83,212,212)"/><path d="M5.8687128046277195,4.987569231155395L8.189240993837988,9.52432720701921L14.44156379506882,7.118159687664951z" style="fill:rgb(147,43,221)"/><path d="M-29.474512479961675,-5.746596442764544L-32.48800802871241,-0.905750012907966L-56.33066097086203,84.2517448042233z" style="fill:rgb(83,212,212)"/><path d="M-5.685833791669715,11.89925953353983L-3.3125626590267534,16.40989249018529L2.2187652844148555,12.64897109874374z" style="fill:rgb(185,63,221)"/><path d="M-135.92725387511928,61.096896597069104L-137.81969229463658,76.44239423748054L-137.38482969159944,91.52025902394799z" style="fill:rgb(83,212,212)"/><path d="M12.146748146441059,2.56730950324502L14.44156379506882,7.118159687664951L20.81133183179483,5.49563082972915z" style="fill:rgb(127,37,217)"/><path d="M8.189240993837988,9.52432720701921L5.8687128046277195,4.987569231155395L-0.1281252376503903,8.12572576445249z" style="fill:rgb(167,52,222)"/><path d="M-108.37315070617426,67.86603336525847L-111.20164380950682,63.592475416677466L-109.45446978074625,67.87292335362157zM-109.45446978074625,67.87292335362157L-106.61973285541366,72.14872342253848L-108.37315070617426,67.86603336525847z" style="fill:rgb(239,188,124)"/><path d="M2.2187652844148555,12.64897109874374L-0.1281252376503903,8.12572576445249L-5.685833791669715,11.89925953353983z" style="fill:rgb(185,63,221)"/><path d="M-27.57763156830339,-10.610421488411705L-22.23110711792893,36.42930322859916L-20.78157683524772,31.19315075759717z" style="fill:rgb(83,212,212)"/><path d="M14.44156379506882,7.118159687664951L12.146748146441059,2.56730950324502L5.8687128046277195,4.987569231155395z" style="fill:rgb(147,43,221)"/><path d="M-10.656555894593208,16.2101984693546L-8.257529700999529,20.709410964689535L-3.3125626590267534,16.40989249018529z" style="fill:rgb(202,76,217)"/><path d="M-32.48800802871241,-0.905750012907966L-36.50640642843989,3.7152790737253305L-56.33066097086203,84.2517448042233z" style="fill:rgb(83,212,212)"/><path d="M-3.3125626590267534,16.40989249018529L-5.685833791669715,11.89925953353983L-10.656555894593208,16.2101984693546z" style="fill:rgb(202,76,217)"/><path d="M18.54096728591671,0.9304616454918044L20.81133183179483,5.49563082972915L27.130122407880506,4.70344197136518z" style="fill:rgb(107,33,211)"/><path d="M20.81133183179483,5.49563082972915L18.54096728591671,0.9304616454918044L12.146748146441059,2.56730950324502z" style="fill:rgb(127,37,217)"/><path d="M-14.905468173439335,20.946815207148838L-12.4819624299805,25.436050370823992L-8.257529700999529,20.709410964689535z" style="fill:rgb(217,91,210)"/><path d="M-27.57763156830339,-10.610421488411705L-22.609385360601518,41.549498396636835L-22.23110711792893,36.42930322859916z" style="fill:rgb(83,212,212)"/><path d="M-8.257529700999529,20.709410964689535L-10.656555894593208,16.2101984693546L-14.905468173439335,20.946815207148838z" style="fill:rgb(217,91,210)"/><path d="M27.130122407880506,4.70344197136518L24.882362528169676,0.12410562882222514L18.54096728591671,0.9304616454918044z" style="fill:rgb(107,33,211)"/><path d="M24.882362528169676,0.12410562882222514L27.130122407880506,4.70344197136518L33.228752197292394,4.768517076769614z" style="fill:rgb(87,32,202)"/><path d="M-18.313749264809342,25.985542001431188L-15.867688895792552,30.466467443674052L-12.4819624299805,25.436050370823992zM-12.4819624299805,25.436050370823992L-14.905468173439335,20.946815207148838L-18.313749264809342,25.985542001431188z" style="fill:rgb(229,106,201)"/><path d="M-137.81969229463658,76.44239423748054L-137.89983740030578,84.02926898626544L-137.38482969159944,91.52025902394799z" style="fill:rgb(83,212,212)"/><path d="M33.228752197292394,4.768517076769614L31.001184261608692,0.1755634109517483L24.882362528169676,0.12410562882222514z" style="fill:rgb(87,32,202)"/><path d="M31.001184261608692,0.1755634109517483L33.228752197292394,4.768517076769614L38.94074679271795,5.696829189668148z" style="fill:rgb(69,33,191)"/><path d="M-20.78157683524772,31.19315075759717L-18.315520396622624,35.66762089045623L-15.867688895792552,30.466467443674052z" style="fill:rgb(238,122,189)"/><path d="M-105.05781420198592,70.1588099054447L-109.45446978074625,67.87292335362157L-137.38482969159944,91.52025902394799z" style="fill:rgb(83,212,212)"/><path d="M-15.867688895792552,30.466467443674052L-18.313749264809342,25.985542001431188L-20.78157683524772,31.19315075759717z" style="fill:rgb(238,122,189)"/><path d="M38.94074679271795,5.696829189668148L36.7304316877515,1.0912152645980173L31.001184261608692,0.1755634109517483z" style="fill:rgb(69,33,191)"/><path d="M36.7304316877515,1.0912152645980173L38.94074679271795,5.696829189668148L44.10610534503318,7.47243059105354z" style="fill:rgb(52,37,178)"/><path d="M-99.00705053414838,69.89213793479465L-105.05781420198592,70.1588099054447L-137.38482969159944,91.52025902394799zM-36.50640642843989,3.7152790737253305L-87.66060075940237,62.483126997187036L-56.33066097086203,84.2517448042233zM-92.71383487046901,67.11661023849791L-99.00705053414838,69.89213793479465L-137.38482969159944,91.52025902394799zM-27.57763156830339,-10.610421488411705L-56.33066097086203,84.2517448042233L-22.609385360601518,41.549498396636835z" style="fill:rgb(83,212,212)"/><path d="M-22.23110711792893,36.42930322859916L-19.74822143185685,40.89932713894497L-18.315520396622624,35.66762089045623z" style="fill:rgb(244,138,176)"/><path d="M124.9360920378839,9.906315167560688L68.20288283659082,-23.38435483327965L-27.57763156830339,-10.610421488411705z" style="fill:rgb(83,212,212)"/><path d="M-18.315520396622624,35.66762089045623L-20.78157683524772,31.19315075759717L-22.23110711792893,36.42930322859916z" style="fill:rgb(244,138,176)"/><path d="M44.10610534503318,7.47243059105354L41.90962732908641,2.8555163629241114L36.7304316877515,1.0912152645980173z" style="fill:rgb(52,37,178)"/><path d="M41.90962732908641,2.8555163629241114L44.10610534503318,7.47243059105354L48.57535086866926,10.05677814378642z" style="fill:rgb(37,44,163)"/><path d="M31.001184261608692,0.1755634109517483L130.669130628792,12.06344807898348L-27.57763156830339,-10.610421488411705z" style="fill:rgb(83,212,212)"/><path d="M-19.74822143185685,40.89932713894497L-22.23110711792893,36.42930322859916L-22.609385360601518,41.549498396636835zM-22.609385360601518,41.549498396636835L-20.113389691559505,46.01720606956262L-19.74822143185685,40.89932713894497z" style="fill:rgb(247,154,162)"/><path d="M48.57535086866926,10.05677814378642L46.38885887806743,5.43031036549622L41.90962732908641,2.8555163629241114z" style="fill:rgb(37,44,163)"/><path d="M-137.38482969159944,91.52025902394799L-136.2633835470809,98.88516087469044L-135.3447814346012,102.6963096020548z" style="fill:rgb(83,212,212)"/><path d="M46.38885887806743,5.43031036549622L48.57535086866926,10.05677814378642L52.21380681662029,13.38848828723814z" style="fill:rgb(25,53,148)"/><path d="M-20.113389691559505,46.01720606956262L-22.609385360601518,41.549498396636835L-21.891019543496963,46.40847932614154zM-21.891019543496963,46.40847932614154L-19.386118363844933,50.87608581949659L-20.113389691559505,46.01720606956262z" style="fill:rgb(246,169,146)"/><path d="M-87.66060075940237,62.483126997187036L-92.71383487046901,67.11661023849791L-56.33066097086203,84.2517448042233z" style="fill:rgb(83,212,212)"/><path d="M52.21380681662029,13.38848828723814L50.0330920260185,8.754561855582555L46.38885887806743,5.43031036549622z" style="fill:rgb(25,53,148)"/><path d="M-92.71383487046901,67.11661023849791L-137.38482969159944,91.52025902394799L-56.33066097086203,84.2517448042233z" style="fill:rgb(83,212,212)"/><path d="M50.0330920260185,8.754561855582555L52.21380681662029,13.38848828723814L54.90606774794405,17.38365142041359z" style="fill:rgb(16,65,132)"/><path d="M124.9360920378839,9.906315167560688L73.42958874666492,-21.70137245842198L68.20288283659082,-23.38435483327965z" style="fill:rgb(83,212,212)"/><path d="M-19.386118363844933,50.87608581949659L-21.891019543496963,46.40847932614154L-20.080475287374192,50.864085157808745zM-20.080475287374192,50.864085157808745L-17.571259633140617,55.3338512822336L-19.386118363844933,50.87608581949659z" style="fill:rgb(242,183,130)"/><path d="M-137.38482969159944,91.52025902394799L-135.3447814346012,102.6963096020548L-62.798748233759916,85.28227001171395z" style="fill:rgb(83,212,212)"/><path d="M-135.3447814346012,102.6963096020548L-132.3363939230765,106.90300733205096L-60.06588131044319,89.64610819632834z" style="fill:rgb(127,37,217)"/><path d="M54.90606774794405,17.38365142041359L52.72664780438149,12.744660878234129L50.0330920260185,8.754561855582555z" style="fill:rgb(16,65,132)"/><path d="M124.9360920378839,9.906315167560688L79.35297884325512,-20.95969727873102L73.42958874666492,-21.70137245842198zM31.001184261608692,0.1755634109517483L36.7304316877515,1.0912152645980173L130.669130628792,12.06344807898348zM124.9360920378839,9.906315167560688L85.74015367659582,-21.19944387243195L79.35297884325512,-20.95969727873102zM-56.33066097086203,84.2517448042233L-21.891019543496963,46.40847932614154L-22.609385360601518,41.549498396636835zM124.9360920378839,9.906315167560688L92.33380547198804,-22.41916894742739L85.74015367659582,-21.19944387243195zM36.7304316877515,1.0912152645980173L41.90962732908641,2.8555163629241114L130.669130628792,12.06344807898348zM130.669130628792,12.06344807898348L124.9360920378839,9.906315167560688L-27.57763156830339,-10.610421488411705zM168.5254762767884,-42.00546954145895L92.33380547198804,-22.41916894742739L131.4806647327751,-8.731651467369192zM-137.38482969159944,91.52025902394799L-62.798748233759916,85.28227001171395L-56.33066097086203,84.2517448042233zM-56.33066097086203,84.2517448042233L-20.080475287374192,50.864085157808745L-21.891019543496963,46.40847932614154zM41.90962732908641,2.8555163629241114L46.38885887806743,5.43031036549622L130.669130628792,12.06344807898348z" style="fill:rgb(83,212,212)"/><path d="M-60.06588131044319,89.64610819632834L-62.798748233759916,85.28227001171395L-135.3447814346012,102.6963096020548z" style="fill:rgb(127,37,217)"/><path d="M-56.33066097086203,84.2517448042233L-17.213757044207227,54.78151162947307L-20.080475287374192,50.864085157808745zM125.58609946026513,-4.825620801855339L131.4806647327751,-8.731651467369192L92.33380547198804,-22.41916894742739zM122.11346136020752,0.3612040958340193L125.58609946026513,-4.825620801855339L92.33380547198804,-22.41916894742739z" style="fill:rgb(83,212,212)"/><path d="M-62.798748233759916,85.28227001171395L-60.06588131044319,89.64610819632834L-53.621657824504545,88.62942147012204z" style="fill:rgb(115,34,214)"/><path d="M174.21424379037273,-32.14703806017054L170.69656884550835,-38.70978428601497L168.5254762767884,-42.00546954145895zM-56.33066097086203,84.2517448042233L-13.35922378660481,58.0378541779597L-17.213757044207227,54.78151162947307zM121.86379854358879,5.674483340442087L122.11346136020752,0.3612040958340193L92.33380547198804,-22.41916894742739z" style="fill:rgb(83,212,212)"/><path d="M-53.621657824504545,88.62942147012204L-56.33066097086203,84.2517448042233L-62.798748233759916,85.28227001171395z" style="fill:rgb(115,34,214)"/><path d="M-56.33066097086203,84.2517448042233L-53.621657824504545,88.62942147012204L-47.44407599092499,88.70661169281314z" style="fill:rgb(92,32,204)"/><path d="M174.21424379037273,-32.14703806017054L168.5254762767884,-42.00546954145895L131.4806647327751,-8.731651467369192zM-56.33066097086203,84.2517448042233L-8.617323451933535,60.52673374009728L-13.35922378660481,58.0378541779597z" style="fill:rgb(83,212,212)"/><path d="M-47.44407599092499,88.70661169281314L-50.13265645781066,84.3162958561026L-56.33066097086203,84.2517448042233z" style="fill:rgb(92,32,204)"/><path d="M124.9360920378839,9.906315167560688L121.86379854358879,5.674483340442087L92.33380547198804,-22.41916894742739z" style="fill:rgb(83,212,212)"/><path d="M125.58609946026513,-4.825620801855339L127.47094428799439,-0.02081713943558794L133.3369772118767,-3.912714828028267z" style="fill:rgb(183,62,221)"/><path d="M131.4806647327751,-8.731651467369192L133.3369772118767,-3.912714828028267L140.3090363599481,-5.656542120814294z" style="fill:rgb(127,37,217)"/><path d="M-50.13265645781066,84.3162958561026L-47.44407599092499,88.70661169281314L-41.75921636215768,89.88448955032142z" style="fill:rgb(71,33,192)"/><path d="M-56.33066097086203,84.2517448042233L-3.1190221938532883,62.162802359793375L-8.617323451933535,60.52673374009728z" style="fill:rgb(83,212,212)"/><path d="M133.3369772118767,-3.912714828028267L131.4806647327751,-8.731651467369192L125.58609946026513,-4.825620801855339z" style="fill:rgb(183,62,221)"/><path d="M140.3090363599481,-5.656542120814294L138.48179540730732,-10.491605541786843L131.4806647327751,-8.731651467369192z" style="fill:rgb(127,37,217)"/><path d="M122.11346136020752,0.3612040958340193L124.02010391201853,5.156885454144159L127.47094428799439,-0.02081713943558794z" style="fill:rgb(226,101,204)"/><path d="M138.48179540730732,-10.491605541786843L140.3090363599481,-5.656542120814294L146.83527762426277,-4.852912375492919z" style="fill:rgb(71,33,193)"/><path d="M174.21424379037273,-32.14703806017054L131.4806647327751,-8.731651467369192L138.48179540730732,-10.491605541786843z" style="fill:rgb(83,212,212)"/><path d="M127.47094428799439,-0.02081713943558794L125.58609946026513,-4.825620801855339L122.11346136020752,0.3612040958340193z" style="fill:rgb(226,101,204)"/><path d="M-41.75921636215768,89.88448955032142L-44.43153254084036,85.48324700758951L-50.13265645781066,84.3162958561026z" style="fill:rgb(71,33,192)"/><path d="M-56.33066097086203,84.2517448042233L2.9772061291375476,62.88582712722779L-3.1190221938532883,62.162802359793375z" style="fill:rgb(83,212,212)"/><path d="M-44.43153254084036,85.48324700758951L-41.75921636215768,89.88448955032142L-36.780772836266834,92.13206842001172z" style="fill:rgb(51,38,177)"/><path d="M174.21424379037273,-32.14703806017054L138.48179540730732,-10.491605541786843L145.03138480496085,-9.702505297696867zM-56.33066097086203,84.2517448042233L-50.13265645781066,84.3162958561026L16.22026022685287,61.49625791984414z" style="fill:rgb(83,212,212)"/><path d="M146.83527762426277,-4.852912375492919L145.03138480496085,-9.702505297696867L138.48179540730732,-10.491605541786843z" style="fill:rgb(71,33,193)"/><path d="M-56.33066097086203,84.2517448042233L9.489856713366123,62.664005507731645L2.9772061291375476,62.88582712722779z" style="fill:rgb(83,212,212)"/><path d="M124.02010391201853,5.156885454144159L122.11346136020752,0.3612040958340193L121.86379854358879,5.674483340442087zM121.86379854358879,5.674483340442087L123.78050656120028,10.467988489677202L124.02010391201853,5.156885454144159z" style="fill:rgb(246,147,168)"/><path d="M145.03138480496085,-9.702505297696867L146.83527762426277,-4.852912375492919L151.43818017194732,-1.656530813415446z" style="fill:rgb(28,50,153)"/><path d="M-50.13265645781066,84.3162958561026L-44.43153254084036,85.48324700758951L16.22026022685287,61.49625791984414z" style="fill:rgb(83,212,212)"/><path d="M-36.780772836266834,92.13206842001172L-39.441602816979604,87.72209724142145L-44.43153254084036,85.48324700758951z" style="fill:rgb(51,38,177)"/><path d="M-56.33066097086203,84.2517448042233L16.22026022685287,61.49625791984414L9.489856713366123,62.664005507731645zM174.21424379037273,-32.14703806017054L145.03138480496085,-9.702505297696867L149.6466556704301,-6.515623419910682z" style="fill:rgb(83,212,212)"/><path d="M-39.441602816979604,87.72209724142145L-36.780772836266834,92.13206842001172L-32.70266266618634,95.379702856952z" style="fill:rgb(34,46,160)"/><path d="M179.4631461734854,-17.97610727544162L177.14510490667013,-25.228765597229287L174.21424379037273,-32.14703806017054zM-44.43153254084036,85.48324700758951L-39.441602816979604,87.72209724142145L16.22026022685287,61.49625791984414z" style="fill:rgb(83,212,212)"/><path d="M151.43818017194732,-1.656530813415446L149.6466556704301,-6.515623419910682L145.03138480496085,-9.702505297696867z" style="fill:rgb(28,50,153)"/><path d="M178.80234273029134,-20.303110935108716L177.14510490667013,-25.228765597229287L179.4631461734854,-17.97610727544162z" style="fill:rgb(246,166,149)"/><path d="M174.21424379037273,-32.14703806017054L149.6466556704301,-6.515623419910682L151.24427651260135,-1.6267204349896625z" style="fill:rgb(83,212,212)"/><path d="M179.4631461734854,-17.97610727544162L181.12218372757138,-13.046790231885554L178.80234273029134,-20.303110935108716z" style="fill:rgb(246,166,149)"/><path d="M-32.70266266618634,95.379702856952L-35.357284893327254,90.96363162998529L-39.441602816979604,87.72209724142145z" style="fill:rgb(34,46,160)"/><path d="M-35.357284893327254,90.96363162998529L-32.70266266618634,95.379702856952L-29.691331006904868,99.51937160337064z" style="fill:rgb(21,57,142)"/><path d="M182.16625707017155,-2.5653528137704686L179.4631461734854,-17.97610727544162L174.21424379037273,-32.14703806017054z" style="fill:rgb(83,212,212)"/><path d="M-29.691331006904868,99.51937160337064L-32.34537906201611,95.10017507445959L-35.357284893327254,90.96363162998529z" style="fill:rgb(21,57,142)"/><path d="M181.12218372757138,-13.046790231885554L179.4631461734854,-17.97610727544162L181.1441933216927,-10.412825039787126zM181.1441933216927,-10.412825039787126L182.80782762114023,-5.481890947559177L181.12218372757138,-13.046790231885554z" style="fill:rgb(247,161,155)"/><path d="M46.38885887806743,5.43031036549622L50.0330920260185,8.754561855582555L146.45361150603642,92.88264453008358zM50.0330920260185,8.754561855582555L52.72664780438149,12.744660878234129L146.45361150603642,92.88264453008358zM182.16625707017155,-2.5653528137704686L181.1441933216927,-10.412825039787126L179.4631461734854,-17.97610727544162z" style="fill:rgb(83,212,212)"/><path d="M182.80782762114023,-5.481890947559177L181.1441933216927,-10.412825039787126L182.16625707017155,-2.5653528137704686z" style="fill:rgb(247,155,161)"/><path d="M52.72664780438149,12.744660878234129L54.377616793668516,17.295429009248092L146.45361150603642,92.88264453008358z" style="fill:rgb(83,212,212)"/><path d="M182.16625707017155,-2.5653528137704686L183.837400712003,2.3650870891561286L182.80782762114023,-5.481890947559177z" style="fill:rgb(247,155,161)"/><path d="M54.377616793668516,17.295429009248092L54.92211195381026,22.281985482625256L146.45361150603642,92.88264453008358zM179.3213497336977,31.044817392508246L182.16625707017155,-2.5653528137704686L174.21424379037273,-32.14703806017054zM54.92211195381026,22.281985482625256L54.32795521418231,27.56254441179476L146.45361150603642,92.88264453008358z" style="fill:rgb(83,212,212)"/><path d="M183.837400712003,2.3650870891561286L182.16625707017155,-2.5653528137704686L182.50990931857731,5.537199211972864z" style="fill:rgb(246,149,166)"/><path d="M46.38885887806743,5.43031036549622L146.45361150603642,92.88264453008358L130.669130628792,12.06344807898348z" style="fill:rgb(83,212,212)"/><path d="M182.50990931857731,5.537199211972864L184.19158002797334,10.464979545793172L183.837400712003,2.3650870891561286z" style="fill:rgb(246,149,166)"/><path d="M54.32795521418231,27.56254441179476L52.59754410074835,32.98219502038274L146.45361150603642,92.88264453008358z" style="fill:rgb(83,212,212)"/><path d="M47.103135120352896,41.98224366259973L49.36139797953709,46.59872709742303L148.41798581134975,97.66572232714135z" style="fill:rgb(42,41,169)"/><path d="M52.59754410074835,32.98219502038274L49.76957704780013,38.37760958555736L146.45361150603642,92.88264453008358zM182.15860130369757,13.863067239559973L182.50990931857731,5.537199211972864L182.16625707017155,-2.5653528137704686zM49.76957704780013,38.37760958555736L47.103135120352896,41.98224366259973L146.45361150603642,92.88264453008358z" style="fill:rgb(83,212,212)"/><path d="M184.19158002797334,10.464979545793172L182.50990931857731,5.537199211972864L182.15860130369757,13.863067239559973z" style="fill:rgb(245,143,172)"/><path d="M146.45361150603642,92.88264453008358L174.21424379037273,-32.14703806017054L151.24427651260135,-1.6267204349896625z" style="fill:rgb(83,212,212)"/><path d="M182.15860130369757,13.863067239559973L183.85390593406072,18.785982991758072L184.19158002797334,10.464979545793172z" style="fill:rgb(245,143,172)"/><path d="M179.3213497336977,31.044817392508246L182.15860130369757,13.863067239559973L182.16625707017155,-2.5653528137704686zM-39.441602816979604,87.72209724142145L84.20752629576467,143.84610027992653L16.22026022685287,61.49625791984414zM146.45361150603642,92.88264453008358L151.24427651260135,-1.6267204349896625L149.41025748999076,3.8536627188320245z" style="fill:rgb(83,212,212)"/><path d="M183.85390593406072,18.785982991758072L182.15860130369757,13.863067239559973L181.09898731172845,22.377888794584763z" style="fill:rgb(244,137,177)"/><path d="M-39.441602816979604,87.72209724142145L-35.357284893327254,90.96363162998529L84.20752629576467,143.84610027992653z" style="fill:rgb(83,212,212)"/><path d="M181.09898731172845,22.377888794584763L182.81110714188796,27.293723501111458L183.85390593406072,18.785982991758072z" style="fill:rgb(244,137,177)"/><path d="M84.20752629576467,143.84610027992653L40.8531699574667,48.672870147494535L35.62650908006824,52.77800865440203zM84.20752629576467,143.84610027992653L22.959607562737997,59.41321972641663L16.22026022685287,61.49625791984414zM84.20752629576467,143.84610027992653L35.62650908006824,52.77800865440203L29.496778720418455,56.47676526880671zM84.20752629576467,143.84610027992653L29.496778720418455,56.47676526880671L22.959607562737997,59.41321972641663zM146.45361150603642,92.88264453008358L137.75581097753482,11.614920856673333L130.669130628792,12.06344807898348zM146.45361150603642,92.88264453008358L149.41025748999076,3.8536627188320245L144.53639276591196,8.645835704480763zM146.45361150603642,92.88264453008358L144.53639276591196,8.645835704480763L137.75581097753482,11.614920856673333zM-35.357284893327254,90.96363162998529L-32.34537906201611,95.10017507445959L84.20752629576467,143.84610027992653zM-30.537360457843473,99.98715433860217L-30.022052384123104,105.44639462368256L-4.567244805596964,172.76476419595795zM179.3213497336977,31.044817392508246L181.09898731172845,22.377888794584763L182.15860130369757,13.863067239559973z" style="fill:rgb(83,212,212)"/><path d="M182.81110714188796,27.293723501111458L181.09898731172845,22.377888794584763L179.3213497336977,31.044817392508246z" style="fill:rgb(242,131,182)"/><path d="M146.45361150603642,92.88264453008358L179.3213497336977,31.044817392508246L174.21424379037273,-32.14703806017054zM-32.34537906201611,95.10017507445959L-30.537360457843473,99.98715433860217L84.20752629576467,143.84610027992653z" style="fill:rgb(83,212,212)"/><path d="M179.3213497336977,31.044817392508246L181.05352009529236,35.95135398729499L182.81110714188796,27.293723501111458z" style="fill:rgb(242,131,182)"/><path d="M181.05352009529236,35.95135398729499L179.3213497336977,31.044817392508246L176.8198317099846,39.824649346723845zM176.8198317099846,39.824649346723845L178.5753169368,44.71969457801516L181.05352009529236,35.95135398729499z" style="fill:rgb(240,125,187)"/><path d="M173.59281794476323,48.67603296298528L176.8198317099846,39.824649346723845L179.3213497336977,31.044817392508246z" style="fill:rgb(83,212,212)"/><path d="M178.5753169368,44.71969457801516L176.8198317099846,39.824649346723845L173.59281794476323,48.67603296298528zM173.59281794476323,48.67603296298528L175.3748867462283,53.55744359206664L178.5753169368,44.71969457801516z" style="fill:rgb(237,120,191)"/><path d="M148.41798581134975,97.66572232714135L146.45361150603642,92.88264453008358L47.103135120352896,41.98224366259973z" style="fill:rgb(42,41,169)"/><path d="M-30.022052384123104,105.44639462368256L-31.80568963094933,173.56473850349738L-26.250722849859393,173.7932606261839zM164.97836798917615,66.41870039729046L173.59281794476323,48.67603296298528L179.3213497336977,31.044817392508246zM139.4928460483636,100.76834725575864L139.8850920110817,100.32398550392807L40.8531699574667,48.672870147494535z" style="fill:rgb(83,212,212)"/><path d="M175.3748867462283,53.55744359206664L173.59281794476323,48.67603296298528L169.64315233684852,57.55568649154329zM169.64315233684852,57.55568649154329L171.45502895951333,62.42139713651829L175.3748867462283,53.55744359206664z" style="fill:rgb(234,114,195)"/><path d="M-30.022052384123104,105.44639462368256L-26.250722849859393,173.7932606261839L-4.567244805596964,172.76476419595795zM123.02276875263759,116.61690932255135L139.4928460483636,100.76834725575864L40.8531699574667,48.672870147494535zM164.97836798917615,66.41870039729046L169.64315233684852,57.55568649154329L173.59281794476323,48.67603296298528z" style="fill:rgb(83,212,212)"/><path d="M171.45502895951333,62.42139713651829L169.64315233684852,57.55568649154329L164.97836798917615,66.41870039729046zM164.97836798917615,66.41870039729046L166.82327007303613,71.26672665469451L171.45502895951333,62.42139713651829z" style="fill:rgb(230,108,199)"/><path d="M84.20752629576467,143.84610027992653L123.02276875263759,116.61690932255135L40.8531699574667,48.672870147494535zM-30.537360457843473,99.98715433860217L-4.567244805596964,172.76476419595795L84.20752629576467,143.84610027992653zM146.45361150603642,92.88264453008358L164.97836798917615,66.41870039729046L179.3213497336977,31.044817392508246z" style="fill:rgb(83,212,212)"/><path d="M166.82327007303613,71.26672665469451L164.97836798917615,66.41870039729046L159.61093233281468,75.21885825119233zM159.61093233281468,75.21885825119233L161.49195887663586,80.047335972609L166.82327007303613,71.26672665469451z" style="fill:rgb(226,102,203)"/><path d="M-31.80568963094933,173.56473850349738L-28.968604129096136,177.90119072345604L-23.434188207733204,178.13968545448958z" style="fill:rgb(94,32,205)"/><path d="M153.55831879171677,83.90899751416397L155.47843428658493,88.7161938034256L161.49195887663586,80.047335972609z" style="fill:rgb(222,96,207)"/><path d="M153.55831879171677,83.90899751416397L159.61093233281468,75.21885825119233L164.97836798917615,66.41870039729046z" style="fill:rgb(83,212,212)"/><path d="M161.49195887663586,80.047335972609L159.61093233281468,75.21885825119233L153.55831879171677,83.90899751416397z" style="fill:rgb(222,96,207)"/><path d="M-23.434188207733204,178.13968545448958L-26.250722849859393,173.7932606261839L-31.80568963094933,173.56473850349738z" style="fill:rgb(94,32,205)"/><path d="M-26.250722849859393,173.7932606261839L-23.434188207733204,178.13968545448958L-12.748498427749318,177.9626657240391z" style="fill:rgb(101,32,208)"/><path d="M146.45361150603642,92.88264453008358L153.55831879171677,83.90899751416397L164.97836798917615,66.41870039729046z" style="fill:rgb(83,212,212)"/><path d="M-12.748498427749318,177.9626657240391L-15.523484272752755,173.59608406393846L-26.250722849859393,173.7932606261839z" style="fill:rgb(101,32,208)"/><path d="M146.84308125084644,92.44141777979702L148.8051031430011,97.22577236087507L155.47843428658493,88.7161938034256zM155.47843428658493,88.7161938034256L153.55831879171677,83.90899751416397L146.84308125084644,92.44141777979702z" style="fill:rgb(217,91,210)"/><path d="M-15.523484272752755,173.59608406393846L-12.748498427749318,177.9626657240391L-1.8365984345921105,177.1528527477295z" style="fill:rgb(108,33,211)"/><path d="M146.45361150603642,92.88264453008358L148.41798581134975,97.66572232714135L148.8051031430011,97.22577236087507z" style="fill:rgb(212,85,213)"/><path d="M-26.250722849859393,173.7932606261839L-15.523484272752755,173.59608406393846L-4.567244805596964,172.76476419595795z" style="fill:rgb(83,212,212)"/><path d="M148.8051031430011,97.22577236087507L146.84308125084644,92.44141777979702L146.45361150603642,92.88264453008358z" style="fill:rgb(212,85,213)"/><path d="M146.45361150603642,92.88264453008358L146.84308125084644,92.44141777979702L153.55831879171677,83.90899751416397z" style="fill:rgb(83,212,212)"/><path d="M-1.8365984345921105,177.1528527477295L-4.567244805596964,172.76476419595795L-15.523484272752755,173.59608406393846z" style="fill:rgb(108,33,211)"/><path d="M-4.567244805596964,172.76476419595795L-1.8365984345921105,177.1528527477295L9.245451667425645,175.70706647664815z" style="fill:rgb(116,34,214)"/><path d="M139.4928460483636,100.76834725575864L141.49939481051626,105.52845752211833L141.8892576059697,105.08539749834534zM141.8892576059697,105.08539749834534L139.8850920110817,100.32398550392807L139.4928460483636,100.76834725575864z" style="fill:rgb(212,85,213)"/><path d="M131.54025503012573,108.84237023632606L133.5937221103344,113.57702831384955L141.49939481051626,105.52845752211833z" style="fill:rgb(206,80,215)"/><path d="M9.245451667425645,175.70706647664815L6.561661600741263,171.2962060632199L-4.567244805596964,172.76476419595795z" style="fill:rgb(116,34,214)"/><path d="M6.561661600741263,171.2962060632199L9.245451667425645,175.70706647664815L20.43925851737511,173.6264849661007z" style="fill:rgb(123,36,216)"/><path d="M141.49939481051626,105.52845752211833L139.4928460483636,100.76834725575864L131.54025503012573,108.84237023632606z" style="fill:rgb(206,80,215)"/><path d="M-4.567244805596964,172.76476419595795L6.561661600741263,171.2962060632199L17.804539356562113,169.19161489892147z" style="fill:rgb(83,212,212)"/><path d="M123.02276875263759,116.61690932255135L125.1252722516843,121.32510913382663L133.5937221103344,113.57702831384955z" style="fill:rgb(200,75,217)"/><path d="M20.43925851737511,173.6264849661007L17.804539356562113,169.19161489892147L6.561661600741263,171.2962060632199z" style="fill:rgb(123,36,216)"/><path d="M17.804539356562113,169.19161489892147L20.43925851737511,173.6264849661007L31.684605245294513,170.9167206601757z" style="fill:rgb(131,38,218)"/><path d="M133.5937221103344,113.57702831384955L131.54025503012573,108.84237023632606L123.02276875263759,116.61690932255135z" style="fill:rgb(200,75,217)"/><path d="M123.02276875263759,116.61690932255135L131.54025503012573,108.84237023632606L139.4928460483636,100.76834725575864zM-4.567244805596964,172.76476419595795L17.804539356562113,169.19161489892147L40.388718922989575,163.10197574761455z" style="fill:rgb(83,212,212)"/><path d="M113.98247009289237,124.04675912772247L116.13585375130842,128.72770544523107L125.1252722516843,121.32510913382663z" style="fill:rgb(194,70,219)"/><path d="M29.100841695010224,166.45678142805022L31.684605245294513,170.9167206601757L42.919996508833904,167.587957018204z" style="fill:rgb(138,40,220)"/><path d="M31.684605245294513,170.9167206601757L29.100841695010224,166.45678142805022L17.804539356562113,169.19161489892147z" style="fill:rgb(131,38,218)"/><path d="M125.1252722516843,121.32510913382663L123.02276875263759,116.61690932255135L113.98247009289237,124.04675912772247z" style="fill:rgb(194,70,219)"/><path d="M104.4657221385912,131.08851965601013L106.67150694298206,135.7416341497965L116.13585375130842,128.72770544523107z" style="fill:rgb(188,65,220)"/><path d="M40.388718922989575,163.10197574761455L42.919996508833904,167.587957018204L54.083263476364664,163.6548758899095z" style="fill:rgb(146,43,221)"/><path d="M-4.567244805596964,172.76476419595795L40.388718922989575,163.10197574761455L84.20752629576467,143.84610027992653z" style="fill:rgb(83,212,212)"/><path d="M42.919996508833904,167.587957018204L40.388718922989575,163.10197574761455L29.100841695010224,166.45678142805022z" style="fill:rgb(138,40,220)"/><path d="M17.804539356562113,169.19161489892147L29.100841695010224,166.45678142805022L40.388718922989575,163.10197574761455z" style="fill:rgb(83,212,212)"/><path d="M116.13585375130842,128.72770544523107L113.98247009289237,124.04675912772247L104.4657221385912,131.08851965601013z" style="fill:rgb(188,65,220)"/><path d="M94.52282624048503,137.70107837018313L96.7821653223671,142.3260020044784L106.67150694298206,135.7416341497965z" style="fill:rgb(181,61,221)"/><path d="M51.605622789017694,159.14203623110674L54.083263476364664,163.6548758899095L65.11215130399354,159.13664272647037z" style="fill:rgb(153,46,222)"/><path d="M104.4657221385912,131.08851965601013L113.98247009289237,124.04675912772247L123.02276875263759,116.61690932255135z" style="fill:rgb(83,212,212)"/><path d="M84.20752629576467,143.84610027992653L86.5212104014767,148.44269203452527L96.7821653223671,142.3260020044784z" style="fill:rgb(175,57,222)"/><path d="M62.68891962645615,154.5962927233921L65.11215130399354,159.13664272647037L75.94497128276947,154.05671969529993z" style="fill:rgb(160,49,222)"/><path d="M54.083263476364664,163.6548758899095L51.605622789017694,159.14203623110674L40.388718922989575,163.10197574761455z" style="fill:rgb(146,43,221)"/><path d="M73.57651872906897,149.4883875812545L75.94497128276947,154.05671969529993L86.5212104014767,148.44269203452527z" style="fill:rgb(168,53,222)"/><path d="M106.67150694298206,135.7416341497965L104.4657221385912,131.08851965601013L94.52282624048503,137.70107837018313z" style="fill:rgb(181,61,221)"/><path d="M84.20752629576467,143.84610027992653L104.4657221385912,131.08851965601013L123.02276875263759,116.61690932255135z" style="fill:rgb(83,212,212)"/><path d="M65.11215130399354,159.13664272647037L62.68891962645615,154.5962927233921L51.605622789017694,159.14203623110674z" style="fill:rgb(153,46,222)"/><path d="M96.7821653223671,142.3260020044784L94.52282624048503,137.70107837018313L84.20752629576467,143.84610027992653z" style="fill:rgb(175,57,222)"/><path d="M75.94497128276947,154.05671969529993L73.57651872906897,149.4883875812545L62.68891962645615,154.5962927233921z" style="fill:rgb(160,49,222)"/><path d="M86.5212104014767,148.44269203452527L84.20752629576467,143.84610027992653L73.57651872906897,149.4883875812545z" style="fill:rgb(168,53,222)"/><path d="M40.388718922989575,163.10197574761455L51.605622789017694,159.14203623110674L62.68891962645615,154.5962927233921zM40.388718922989575,163.10197574761455L62.68891962645615,154.5962927233921L84.20752629576467,143.84610027992653zM84.20752629576467,143.84610027992653L94.52282624048503,137.70107837018313L104.4657221385912,131.08851965601013zM62.68891962645615,154.5962927233921L73.57651872906897,149.4883875812545L84.20752629576467,143.84610027992653z" style="fill:rgb(83,212,212)"/></svg>
