<?xml version="1.0" encoding="UTF-8"?>
<!-- Generated by jsxcad -->
<!DOCTYPE svg PUBLIC "-//W3C//DTD SVG 1.1 Tiny//EN" "http://www.w3.org/Graphics/SVG/1.1/DTD/svg11-tiny.dtd">
<svg viewBox="-250 -250 500 500" width="500" height="500" xmlns="http://www.w3.org/2000/svg"><path d="M-10.635868973619852,-88.05711778511986L-19.508550924720915,-84.60748944536486L-28.266631815036366,-80.81049946983502zM7.359563197089943,-93.87287753753787L-1.6719310382173818,-91.14893366495069L-10.635868973619852,-88.05711778511986zM25.52838017132703,-98.17907723713888L16.4345146270589,-96.2193268907219L7.359563197089943,-93.87287753753787zM43.67225563925406,-100.90398497863114L34.6161422216414,-99.74338263416334L25.52838017132703,-98.17907723713888zM-28.266631815036366,-80.81049946983502L-32.841665148417285,-78.61679776048149L-34.51183536963281,-29.668656621174534zM-10.635868973619852,-88.05711778511986L-28.266631815036366,-80.81049946983502L-34.51183536963281,-29.668656621174534zM3.7088829493026156,-40.46260782771611L7.359563197089943,-93.87287753753787L-10.635868973619852,-88.05711778511986zM25.52838017132703,-98.17907723713888L7.359563197089943,-93.87287753753787L10.24238719199665,-45.64774544579759zM50.95392560847348,-52.48807574214028L43.67225563925406,-100.90398497863114L25.52838017132703,-98.17907723713888z" style="fill:rgb(83,212,212)"/><path d="M50.46444649065706,-96.5516483308692L48.43811881486778,-101.30076586794776L50.95392560847348,-52.48807574214028z" style="fill:rgb(247,158,158)"/><path d="M50.95392560847348,-52.48807574214028L48.43811881486778,-101.30076586794776L43.67225563925406,-100.90398497863114zM3.7088829493026156,-40.46260782771611L-10.635868973619852,-88.05711778511986L-34.51183536963281,-29.668656621174534zM7.359563197089943,-93.87287753753787L5.239614392267479,-44.30703204491547L10.24238719199665,-45.64774544579759zM3.7088829493026156,-40.46260782771611L5.239614392267479,-44.30703204491547L7.359563197089943,-93.87287753753787zM25.52838017132703,-98.17907723713888L10.24238719199665,-45.64774544579759L11.831475096067646,-42.63252745578914zM51.819174503627195,-48.1297022264962L25.52838017132703,-98.17907723713888L11.831475096067646,-42.63252745578914z" style="fill:rgb(83,212,212)"/><path d="M50.95392560847348,-52.48807574214028L53.074042672188675,-47.706707393901034L50.46444649065706,-96.5516483308692z" style="fill:rgb(247,158,158)"/><path d="M-136.21315353356135,20.357450164862488L-138.0395438256351,24.405506297596503L-140.96945560974783,32.07444303639437zM51.819174503627195,-48.1297022264962L50.95392560847348,-52.48807574214028L25.52838017132703,-98.17907723713888z" style="fill:rgb(83,212,212)"/><path d="M5.239614392267479,-44.30703204491547L7.524592220490882,-39.63287557826793L12.508613080561576,-40.96206416828582z" style="fill:rgb(127,37,217)"/><path d="M3.7088829493026156,-40.46260782771611L6.00742788505729,-35.79081830996202L7.524592220490882,-39.63287557826793z" style="fill:rgb(241,128,184)"/><path d="M12.508613080561576,-40.96206416828582L10.24238719199665,-45.64774544579759L5.239614392267479,-44.30703204491547z" style="fill:rgb(127,37,217)"/><path d="M7.524592220490882,-39.63287557826793L5.239614392267479,-44.30703204491547L3.7088829493026156,-40.46260782771611z" style="fill:rgb(241,128,184)"/><path d="M7.782675018217313,-39.41447892782945L-34.51183536963281,-29.668656621174534L-35.272103377058215,-24.97379911538427z" style="fill:rgb(83,212,212)"/><path d="M10.24238719199665,-45.64774544579759L12.508613080561576,-40.96206416828582L14.099468722621273,-37.94202159140643z" style="fill:rgb(13,70,126)"/><path d="M7.782675018217313,-39.41447892782945L3.7088829493026156,-40.46260782771611L-34.51183536963281,-29.668656621174534z" style="fill:rgb(83,212,212)"/><path d="M14.099468722621273,-37.94202159140643L11.831475096067646,-42.63252745578914L10.24238719199665,-45.64774544579759z" style="fill:rgb(13,70,126)"/><path d="M7.782675018217313,-39.41447892782945L-35.272103377058215,-24.97379911538427L-37.224817989605974,-20.09901389446955zM-67.17406586621395,2.3277841970406956L-136.21315353356135,20.357450164862488L-106.56924639247393,25.742609038767604zM7.782675018217313,-39.41447892782945L-37.224817989605974,-20.09901389446955L-40.30508093530496,-15.238526882118572zM-132.35615584464563,52.25650685976887L-136.21315353356135,20.357450164862488L-140.96945560974783,32.07444303639437zM-107.75296821818687,28.30811425243981L-106.56924639247393,25.742609038767604L-136.21315353356135,20.357450164862488zM7.782675018217313,-39.41447892782945L-40.30508093530496,-15.238526882118572L-44.398637911465585,-10.590044465881787zM-105.40160568657934,29.106083066625295L-107.75296821818687,28.30811425243981L-136.21315353356135,20.357450164862488zM-140.96945560974783,32.07444303639437L-143.37792726100193,39.780797158331595L-145.24676364510736,47.499573951084336zM-105.40160568657934,29.106083066625295L-136.21315353356135,20.357450164862488L-102.57229313075361,31.0493398834217zM-114.71244306944426,35.89508203908418L-108.76520866994115,32.63604549858936L-136.21315353356135,20.357450164862488zM-136.21315353356135,20.357450164862488L-108.76520866994115,32.63604549858936L-102.57229313075361,31.0493398834217z" style="fill:rgb(83,212,212)"/><path d="M-103.76851203920845,30.169689783591586L-100.70267213156829,29.383257419059515L-103.49215444008715,24.94927393378382z" style="fill:rgb(127,37,217)"/><path d="M-104.94167464410815,32.73251274285631L-103.76851203920845,30.169689783591586L-106.56924639247393,25.742609038767604z" style="fill:rgb(241,128,184)"/><path d="M-119.64034118613442,40.40349961226325L-114.71244306944426,35.89508203908418L-136.21315353356135,20.357450164862488zM-60.97213076671902,0.2498377306722172L-67.17406586621395,2.3277841970406956L-106.56924639247393,25.742609038767604zM-54.946457802358985,-2.681374406478889L-60.97213076671902,0.2498377306722172L-106.56924639247393,25.742609038767604z" style="fill:rgb(83,212,212)"/><path d="M-103.49215444008715,24.94927393378382L-106.56924639247393,25.742609038767604L-103.76851203920845,30.169689783591586z" style="fill:rgb(127,37,217)"/><path d="M-122.89865782082407,45.57856354210073L-119.64034118613442,40.40349961226325L-136.21315353356135,20.357450164862488zM53.92947408894816,-44.236167784631675L11.831475096067646,-42.63252745578914L7.782675018217313,-39.41447892782945zM-54.946457802358985,-2.681374406478889L-106.56924639247393,25.742609038767604L-103.49215444008715,24.94927393378382z" style="fill:rgb(83,212,212)"/><path d="M-106.56924639247393,25.742609038767604L-107.75296821818687,28.30811425243981L-104.94167464410815,32.73251274285631z" style="fill:rgb(241,128,184)"/><path d="M-136.21315353356135,20.357450164862488L-131.1112904856303,49.61578783245003L-128.01936977721982,48.83248738219883zM-132.35615584464563,52.25650685976887L-131.1112904856303,49.61578783245003L-136.21315353356135,20.357450164862488zM-136.21315353356135,20.357450164862488L-128.01936977721982,48.83248738219883L-127.342679463283,50.98937941952547zM-140.96945560974783,32.07444303639437L-145.24676364510736,47.499573951084336L-147.29739391764232,62.86893177462018zM-124.04044787220421,50.743151796197466L-122.89865782082407,45.57856354210073L-136.21315353356135,20.357450164862488z" style="fill:rgb(83,212,212)"/><path d="M-114.71244306944426,35.89508203908418L-111.85959350422918,40.30361991560164L-105.9389784350681,37.058015623970405z" style="fill:rgb(170,54,222)"/><path d="M53.074042672188675,-47.706707393901034L50.95392560847348,-52.48807574214028L51.819174503627195,-48.1297022264962zM51.819174503627195,-48.1297022264962L53.945483479713886,-43.34493903542954L53.074042672188675,-47.706707393901034z" style="fill:rgb(246,167,149)"/><path d="M-116.7603443392464,44.80073847877838L-111.85959350422918,40.30361991560164L-114.71244306944426,35.89508203908418z" style="fill:rgb(208,81,214)"/><path d="M-105.9389784350681,37.058015623970405L-99.7688146862641,35.485197157438215L-102.57229313075361,31.0493398834217z" style="fill:rgb(127,37,217)"/><path d="M53.92947408894816,-44.236167784631675L51.819174503627195,-48.1297022264962L11.831475096067646,-42.63252745578914z" style="fill:rgb(83,212,212)"/><path d="M-105.9389784350681,37.058015623970405L-108.76520866994115,32.63604549858936L-114.71244306944426,35.89508203908418z" style="fill:rgb(170,54,222)"/><path d="M-102.57229313075361,31.0493398834217L-108.76520866994115,32.63604549858936L-105.9389784350681,37.058015623970405z" style="fill:rgb(127,37,217)"/><path d="M-102.76358184373571,27.0246158476571L-105.40160568657934,29.106083066625295L-102.57229313075361,31.0493398834217zM-122.88564430973254,55.205924486938116L-136.21315353356135,20.357450164862488L-127.342679463283,50.98937941952547z" style="fill:rgb(83,212,212)"/><path d="M-102.57229313075361,31.0493398834217L-99.7688146862641,35.485197157438215L-94.1538522872033,35.798115120854106z" style="fill:rgb(84,32,200)"/><path d="M-122.88564430973254,55.205924486938116L-124.04044787220421,50.743151796197466L-136.21315353356135,20.357450164862488z" style="fill:rgb(83,212,212)"/><path d="M-114.71244306944426,35.89508203908418L-119.64034118613442,40.40349961226325L-116.7603443392464,44.80073847877838z" style="fill:rgb(208,81,214)"/><path d="M-132.35615584464563,52.25650685976887L-140.96945560974783,32.07444303639437L-147.29739391764232,62.86893177462018zM-44.398637911465585,-10.590044465881787L-49.34550231700403,-6.345456580212028L-68.7612616809341,32.7974664273527zM7.782675018217313,-39.41447892782945L-44.398637911465585,-10.590044465881787L-67.42601481994534,36.23883510827096zM-102.76358184373571,27.0246158476571L-102.57229313075361,31.0493398834217L-96.94129225522799,31.349723232279114z" style="fill:rgb(83,212,212)"/><path d="M-122.89865782082407,45.57856354210073L-119.99445799143207,49.96800908899886L-116.7603443392464,44.80073847877838z" style="fill:rgb(234,114,195)"/><path d="M-49.34550231700403,-6.345456580212028L-54.946457802358985,-2.681374406478889L-68.7612616809341,32.7974664273527z" style="fill:rgb(83,212,212)"/><path d="M-116.7603443392464,44.80073847877838L-119.64034118613442,40.40349961226325L-122.89865782082407,45.57856354210073z" style="fill:rgb(234,114,195)"/><path d="M-94.1538522872033,35.798115120854106L-96.94129225522799,31.349723232279114L-102.57229313075361,31.0493398834217z" style="fill:rgb(84,32,200)"/><path d="M-54.946457802358985,-2.681374406478889L-103.49215444008715,24.94927393378382L-68.7612616809341,32.7974664273527z" style="fill:rgb(83,212,212)"/><path d="M-131.1112904856303,49.61578783245003L-128.17143780257368,53.98663369931487L-125.09084092061285,53.21021951338255z" style="fill:rgb(127,37,217)"/><path d="M-129.40508627969956,56.62419923037289L-128.17143780257368,53.98663369931487L-131.1112904856303,49.61578783245003z" style="fill:rgb(241,128,184)"/><path d="M-145.24676364510736,47.499573951084336L-146.55865911542523,55.2046815568513L-147.29739391764232,62.86893177462018zM-85.38055490301103,38.03042560686301L-103.49215444008715,24.94927393378382L-102.76358184373571,27.0246158476571zM-102.76358184373571,27.0246158476571L-96.94129225522799,31.349723232279114L-92.61936306568172,33.5146488251942z" style="fill:rgb(83,212,212)"/><path d="M-121.11826307609194,55.1292773878595L-119.99445799143207,49.96800908899886L-122.89865782082407,45.57856354210073z" style="fill:rgb(246,149,166)"/><path d="M-125.09084092061285,53.21021951338255L-128.01936977721982,48.83248738219883L-131.1112904856303,49.61578783245003z" style="fill:rgb(127,37,217)"/><path d="M7.782675018217313,-39.41447892782945L-7.687900806441361,-6.4444952162999165L-1.606138635286841,-9.626166925888763z" style="fill:rgb(83,212,212)"/><path d="M-94.1538522872033,35.798115120854106L-89.83912423959906,37.972476644740986L-92.61936306568172,33.5146488251942zM-92.61936306568172,33.5146488251942L-96.94129225522799,31.349723232279114L-94.1538522872033,35.798115120854106z" style="fill:rgb(46,40,173)"/><path d="M-1.606138635286841,-9.626166925888763L4.754618296047242,-12.092030202708768L7.782675018217313,-39.41447892782945zM7.782675018217313,-39.41447892782945L-13.330709878988293,-2.630569699753971L-7.687900806441361,-6.4444952162999165z" style="fill:rgb(83,212,212)"/><path d="M-131.1112904856303,49.61578783245003L-132.35615584464563,52.25650685976887L-129.40508627969956,56.62419923037289z" style="fill:rgb(241,128,184)"/><path d="M4.754618296047242,-12.092030202708768L11.227390556766903,-13.775431819214477L7.782675018217313,-39.41447892782945zM7.782675018217313,-39.41447892782945L-18.38463611467807,1.7167131999042418L-13.330709878988293,-2.630569699753971zM11.227390556766903,-13.775431819214477L17.641282346925017,-14.628062886252442L7.782675018217313,-39.41447892782945z" style="fill:rgb(83,212,212)"/><path d="M-122.89865782082407,45.57856354210073L-124.04044787220421,50.743151796197466L-121.11826307609194,55.1292773878595z" style="fill:rgb(246,149,166)"/><path d="M7.782675018217313,-39.41447892782945L-22.71275581787065,6.484817386166131L-18.38463611467807,1.7167131999042418z" style="fill:rgb(83,212,212)"/><path d="M-92.61936306568172,33.5146488251942L-89.83912423959906,37.972476644740986L-87.41642338368015,41.74102302900604z" style="fill:rgb(20,59,140)"/><path d="M-85.38055490301103,38.03042560686301L-102.76358184373571,27.0246158476571L-92.61936306568172,33.5146488251942z" style="fill:rgb(83,212,212)"/><path d="M-119.95428561145692,59.593677741696204L-121.11826307609194,55.1292773878595L-124.04044787220421,50.743151796197466z" style="fill:rgb(242,181,132)"/><path d="M17.641282346925017,-14.628062886252442L23.824747177741017,-14.621306971183682L7.782675018217313,-39.41447892782945zM-130.0278405878179,53.11133412517564L-132.35615584464563,52.25650685976887L-147.29739391764232,62.86893177462018zM7.782675018217313,-39.41447892782945L-26.194151042093726,11.549477677323518L-22.71275581787065,6.484817386166131z" style="fill:rgb(83,212,212)"/><path d="M-7.687900806441361,-6.4444952162999165L-5.274513766492679,-1.793090153290618L0.7801357511992224,-4.960872132750245z" style="fill:rgb(167,52,222)"/><path d="M-1.606138635286841,-9.626166925888763L0.7801357511992224,-4.960872132750245L7.114502013237319,-7.412142662034029z" style="fill:rgb(147,43,221)"/><path d="M-103.49215444008715,24.94927393378382L-85.38055490301103,38.03042560686301L-82.21595788865883,37.22871353974756z" style="fill:rgb(83,212,212)"/><path d="M-13.330709878988293,-2.630569699753971L-10.890134983021873,2.007979510139947L-5.274513766492679,-1.793090153290618z" style="fill:rgb(185,63,221)"/><path d="M-87.41642338368015,41.74102302900604L-90.19939972273356,37.278270810703845L-92.61936306568172,33.5146488251942z" style="fill:rgb(20,59,140)"/><path d="M4.754618296047242,-12.092030202708768L7.114502013237319,-7.412142662034029L13.562232642820302,-9.080611327724746z" style="fill:rgb(127,37,217)"/><path d="M-122.88564430973254,55.205924486938116L-127.342679463283,50.98937941952547L-130.0278405878179,53.11133412517564zM23.824747177741017,-14.621306971183682L29.60909961288464,-13.747452164477208L7.782675018217313,-39.41447892782945z" style="fill:rgb(83,212,212)"/><path d="M0.7801357511992224,-4.960872132750245L-1.606138635286841,-9.626166925888763L-7.687900806441361,-6.4444952162999165z" style="fill:rgb(167,52,222)"/><path d="M7.782675018217313,-39.41447892782945L-67.42601481994534,36.23883510827096L-26.194151042093726,11.549477677323518z" style="fill:rgb(83,212,212)"/><path d="M-5.274513766492679,-1.793090153290618L-7.687900806441361,-6.4444952162999165L-13.330709878988293,-2.630569699753971z" style="fill:rgb(185,63,221)"/><path d="M-103.49215444008715,24.94927393378382L-73.85157674539218,34.088348019649196L-68.7612616809341,32.7974664273527zM-44.398637911465585,-10.590044465881787L-68.7612616809341,32.7974664273527L-67.42601481994534,36.23883510827096z" style="fill:rgb(83,212,212)"/><path d="M7.114502013237319,-7.412142662034029L4.754618296047242,-12.092030202708768L-1.606138635286841,-9.626166925888763z" style="fill:rgb(147,43,221)"/><path d="M-18.38463611467807,1.7167131999042418L-15.917459448474842,6.3437340966827875L-10.890134983021873,2.007979510139947z" style="fill:rgb(202,76,217)"/><path d="M-75.69123132706949,38.3270069666208L-103.49215444008715,24.94927393378382L-82.21595788865883,37.22871353974756z" style="fill:rgb(83,212,212)"/><path d="M-124.04044787220421,50.743151796197466L-122.88564430973254,55.205924486938116L-119.95428561145692,59.593677741696204z" style="fill:rgb(242,181,132)"/><path d="M-75.69123132706949,38.3270069666208L-73.85157674539218,34.088348019649196L-103.49215444008715,24.94927393378382z" style="fill:rgb(83,212,212)"/><path d="M-10.890134983021873,2.007979510139947L-13.330709878988293,-2.630569699753971L-18.38463611467807,1.7167131999042418z" style="fill:rgb(202,76,217)"/><path d="M11.227390556766903,-13.775431819214477L13.562232642820302,-9.080611327724746L19.953030945111514,-9.918362730060236z" style="fill:rgb(107,33,211)"/><path d="M13.562232642820302,-9.080611327724746L11.227390556766903,-13.775431819214477L4.754618296047242,-12.092030202708768z" style="fill:rgb(127,37,217)"/><path d="M-22.71275581787065,6.484817386166131L-20.220233044793325,11.101893645665482L-15.917459448474842,6.3437340966827875z" style="fill:rgb(217,91,210)"/><path d="M-86.5495594894811,40.67914391611559L-92.61936306568172,33.5146488251942L-90.19939972273356,37.278270810703845z" style="fill:rgb(83,212,212)"/><path d="M-82.61038121702677,42.50373838754149L-79.45769897297566,41.70916082022811L-82.21595788865883,37.22871353974756z" style="fill:rgb(127,37,217)"/><path d="M-15.917459448474842,6.3437340966827875L-18.38463611467807,1.7167131999042418L-22.71275581787065,6.484817386166131z" style="fill:rgb(217,91,210)"/><path d="M-119.5584847308953,58.351143939425974L-122.88564430973254,55.205924486938116L-130.0278405878179,53.11133412517564z" style="fill:rgb(83,212,212)"/><path d="M-83.76870218594793,45.14943246778777L-82.61038121702677,42.50373838754149L-85.38055490301103,38.03042560686301z" style="fill:rgb(241,128,184)"/><path d="M-86.5495594894811,40.67914391611559L-85.38055490301103,38.03042560686301L-92.61936306568172,33.5146488251942z" style="fill:rgb(83,212,212)"/><path d="M19.953030945111514,-9.918362730060236L17.641282346925017,-14.628062886252442L11.227390556766903,-13.775431819214477z" style="fill:rgb(107,33,211)"/><path d="M17.641282346925017,-14.628062886252442L19.953030945111514,-9.918362730060236L26.115925245423497,-9.897197339655717z" style="fill:rgb(87,32,202)"/><path d="M-23.678212391520805,16.15841264322814L-20.220233044793325,11.101893645665482L-22.71275581787065,6.484817386166131z" style="fill:rgb(229,106,201)"/><path d="M-82.21595788865883,37.22871353974756L-85.38055490301103,38.03042560686301L-82.61038121702677,42.50373838754149zM-73.85157674539218,34.088348019649196L-71.12758392740388,38.587837188030356L-66.0565576554265,37.30846570703447z" style="fill:rgb(127,37,217)"/><path d="M-111.48267309182158,65.3246252733194L-130.0278405878179,53.11133412517564L-147.29739391764232,62.86893177462018z" style="fill:rgb(83,212,212)"/><path d="M-85.38055490301103,38.03042560686301L-86.5495594894811,40.67914391611559L-83.76870218594793,45.14943246778777z" style="fill:rgb(241,128,184)"/><path d="M-86.5495594894811,40.67914391611559L-90.19939972273356,37.278270810703845L-90.03559804641895,42.15371778256021zM-147.29739391764232,62.86893177462018L-147.4479717580359,70.46404797334561L-146.99686630140883,77.96072196015484z" style="fill:rgb(83,212,212)"/><path d="M26.115925245423497,-9.897197339655717L23.824747177741017,-14.621306971183682L17.641282346925017,-14.628062886252442z" style="fill:rgb(87,32,202)"/><path d="M-75.69123132706949,38.3270069666208L-72.95038514709002,42.82171962075588L-71.12758392740388,38.587837188030356z" style="fill:rgb(241,128,184)"/><path d="M-66.0565576554265,37.30846570703447L-68.7612616809341,32.7974664273527L-73.85157674539218,34.088348019649196z" style="fill:rgb(127,37,217)"/><path d="M-22.71275581787065,6.484817386166131L-26.194151042093726,11.549477677323518L-23.678212391520805,16.15841264322814z" style="fill:rgb(229,106,201)"/><path d="M-71.12758392740388,38.587837188030356L-73.85157674539218,34.088348019649196L-75.69123132706949,38.3270069666208z" style="fill:rgb(241,128,184)"/><path d="M23.824747177741017,-14.621306971183682L26.115925245423497,-9.897197339655717L31.88276510313385,-9.00983077695844z" style="fill:rgb(69,33,191)"/><path d="M86.80206201538729,-2.7262300294621733L53.92947408894816,-44.236167784631675L7.782675018217313,-39.41447892782945zM-84.10113279541503,41.52053850965218L-86.5495594894811,40.67914391611559L-90.03559804641895,42.15371778256021zM-111.48267309182158,65.3246252733194L-119.5584847308953,58.351143939425974L-130.0278405878179,53.11133412517564z" style="fill:rgb(83,212,212)"/><path d="M-28.726946709776744,16.776884718047846L-26.190174651763716,21.379663835996706L-23.678212391520805,16.15841264322814zM-23.678212391520805,16.15841264322814L-26.194151042093726,11.549477677323518L-28.726946709776744,16.776884718047846z" style="fill:rgb(238,122,189)"/><path d="M-84.10113279541503,41.52053850965218L-90.03559804641895,42.15371778256021L-92.18162439711325,47.487466022002224zM-71.72134778343585,39.671437993897094L-82.21595788865883,37.22871353974756L-81.41797503441013,39.38216524586224z" style="fill:rgb(83,212,212)"/><path d="M31.88276510313385,-9.00983077695844L29.60909961288464,-13.747452164477208L23.824747177741017,-14.621306971183682z" style="fill:rgb(69,33,191)"/><path d="M-71.72134778343585,39.671437993897094L-75.69123132706949,38.3270069666208L-82.21595788865883,37.22871353974756zM-71.72134778343585,39.671437993897094L-81.41797503441013,39.38216524586224L-84.10113279541503,41.52053850965218z" style="fill:rgb(83,212,212)"/><path d="M29.60909961288464,-13.747452164477208L31.88276510313385,-9.00983077695844L37.092019010601234,-7.270909844451128z" style="fill:rgb(52,37,178)"/><path d="M-71.72134778343585,39.671437993897094L-84.10113279541503,41.52053850965218L-92.18162439711325,47.487466022002224zM-67.42601481994534,36.23883510827096L-28.726946709776744,16.776884718047846L-26.194151042093726,11.549477677323518zM-147.29739391764232,62.86893177462018L-146.99686630140883,77.96072196015484L-145.039613288318,89.13978586159658zM-109.05739785428406,66.22612537098438L-111.48267309182158,65.3246252733194L-147.29739391764232,62.86893177462018z" style="fill:rgb(83,212,212)"/><path d="M-30.2313375080376,22.026222323233355L-27.67694328421225,26.624981418334606L-26.190174651763716,21.379663835996706z" style="fill:rgb(244,138,176)"/><path d="M-111.48267309182158,65.3246252733194L-114.48732994103051,59.72829328172966L-119.5584847308953,58.351143939425974zM-71.72134778343585,39.671437993897094L-92.18162439711325,47.487466022002224L-96.36671019381342,52.54464461883223z" style="fill:rgb(83,212,212)"/><path d="M-26.190174651763716,21.379663835996706L-28.726946709776744,16.776884718047846L-30.2313375080376,22.026222323233355z" style="fill:rgb(244,138,176)"/><path d="M29.60909961288464,-13.747452164477208L86.80206201538729,-2.7262300294621733L7.782675018217313,-39.41447892782945z" style="fill:rgb(83,212,212)"/><path d="M37.092019010601234,-7.270909844451128L34.83231713513102,-12.020717942359829L29.60909961288464,-13.747452164477208z" style="fill:rgb(52,37,178)"/><path d="M-107.33697197688124,67.00978944080445L-104.16848724621772,66.22592578905711L-107.07011617473866,61.80562801962717z" style="fill:rgb(127,37,217)"/><path d="M-67.42601481994534,36.23883510827096L-30.2313375080376,22.026222323233355L-28.726946709776744,16.776884718047846zM-108.35817197115264,59.12635016507762L-114.48732994103051,59.72829328172966L-110.25061594181652,62.59661017144555z" style="fill:rgb(83,212,212)"/><path d="M-111.48267309182158,65.3246252733194L-108.55766293484542,69.73426811343394L-107.33697197688124,67.00978944080445z" style="fill:rgb(241,128,184)"/><path d="M-96.36671019381342,52.54464461883223L-102.02179056718853,56.615700372513885L-110.25061594181652,62.59661017144555z" style="fill:rgb(83,212,212)"/><path d="M34.83231713513102,-12.020717942359829L37.092019010601234,-7.270909844451128L41.592839356509224,-4.717730573263187z" style="fill:rgb(37,44,163)"/><path d="M-102.02179056718853,56.615700372513885L-108.35817197115264,59.12635016507762L-110.25061594181652,62.59661017144555z" style="fill:rgb(83,212,212)"/><path d="M-107.07011617473866,61.80562801962717L-110.25061594181652,62.59661017144555L-107.33697197688124,67.00978944080445z" style="fill:rgb(127,37,217)"/><path d="M86.80206201538729,-2.7262300294621733L57.22144104004114,-40.96454699478363L53.92947408894816,-44.236167784631675zM-111.48267309182158,65.3246252733194L-110.25061594181652,62.59661017144555L-114.48732994103051,59.72829328172966z" style="fill:rgb(83,212,212)"/><path d="M-107.33697197688124,67.00978944080445L-110.25061594181652,62.59661017144555L-111.48267309182158,65.3246252733194z" style="fill:rgb(241,128,184)"/><path d="M-96.36671019381342,52.54464461883223L-110.25061594181652,62.59661017144555L-107.07011617473866,61.80562801962717zM-96.36671019381342,52.54464461883223L-107.07011617473866,61.80562801962717L-106.32524869407251,64.04515796994627z" style="fill:rgb(83,212,212)"/><path d="M-27.67694328421225,26.624981418334606L-30.2313375080376,22.026222323233355L-30.652553564948906,27.152631798418337zM-30.652553564948906,27.152631798418337L-28.084335525632213,31.74961389568845L-27.67694328421225,26.624981418334606z" style="fill:rgb(247,154,162)"/><path d="M41.592839356509224,-4.717730573263187L39.34311702754483,-9.477988621254811L34.83231713513102,-12.020717942359829z" style="fill:rgb(37,44,163)"/><path d="M86.80206201538729,-2.7262300294621733L61.58319082955558,-38.451938750396415L57.22144104004114,-40.96454699478363zM-146.99686630140883,77.96072196015484L-145.93220518166393,85.32867146904067L-145.039613288318,89.13978586159658z" style="fill:rgb(83,212,212)"/><path d="M43.005327834118226,-6.179137680368643L39.34311702754483,-9.477988621254811L41.592839356509224,-4.717730573263187z" style="fill:rgb(25,53,148)"/><path d="M86.80206201538729,-2.7262300294621733L66.85627944715203,-36.80851977620463L61.58319082955558,-38.451938750396415z" style="fill:rgb(83,212,212)"/><path d="M41.592839356509224,-4.717730573263187L45.249417959950975,-1.4105417095566015L43.005327834118226,-6.179137680368643z" style="fill:rgb(25,53,148)"/><path d="M-109.05739785428406,66.22612537098438L-147.29739391764232,62.86893177462018L-65.06413166526492,70.13869921226222z" style="fill:rgb(83,212,212)"/><path d="M-28.084335525632213,31.74961389568845L-30.652553564948906,27.152631798418337L-29.96362857451851,32.01061278479716zM-29.96362857451851,32.01061278479716L-27.385886626747237,36.60813412528221L-28.084335525632213,31.74961389568845z" style="fill:rgb(246,169,146)"/><path d="M-147.29739391764232,62.86893177462018L-145.039613288318,89.13978586159658L-71.60879556554757,71.21440251803142zM86.80206201538729,-2.7262300294621733L72.84023620543682,-36.11120294322665L66.85627944715203,-36.80851977620463zM-67.42601481994534,36.23883510827096L-71.72134778343585,39.671437993897094L-65.06413166526492,70.13869921226222zM-71.72134778343585,39.671437993897094L-96.36671019381342,52.54464461883223L-65.06413166526492,70.13869921226222z" style="fill:rgb(83,212,212)"/><path d="M43.005327834118226,-6.179137680368643L45.249417959950975,-1.4105417095566015L47.94546680300946,2.567715038239911z" style="fill:rgb(16,65,132)"/><path d="M-67.42601481994534,36.23883510827096L-65.06413166526492,70.13869921226222L-30.2313375080376,22.026222323233355zM86.80206201538729,-2.7262300294621733L79.2997759203727,-36.3985196544499L72.84023620543682,-36.11120294322665zM-96.36671019381342,52.54464461883223L-106.32524869407251,64.04515796994627L-65.06413166526492,70.13869921226222zM85.97457820021434,-37.667222676485835L79.2997759203727,-36.3985196544499L88.18168805801277,-7.002591000279393z" style="fill:rgb(83,212,212)"/><path d="M-27.385886626747237,36.60813412528221L-29.96362857451851,32.01061278479716L-28.167752523186618,36.45789161995396zM-28.167752523186618,36.45789161995396L-25.585199418511525,41.05829644192921L-27.385886626747237,36.60813412528221z" style="fill:rgb(242,183,130)"/><path d="M29.60909961288464,-13.747452164477208L34.83231713513102,-12.020717942359829L91.4857163548714,-1.4657460025806084z" style="fill:rgb(83,212,212)"/><path d="M-145.039613288318,89.13978586159658L-141.94392719787805,93.46856731711827L-68.79511704257729,75.70728056171806z" style="fill:rgb(127,37,217)"/><path d="M47.94546680300946,2.567715038239911L45.702386258864905,-2.2067807004022533L43.005327834118226,-6.179137680368643z" style="fill:rgb(16,65,132)"/><path d="M-65.06413166526492,70.13869921226222L-30.652553564948906,27.152631798418337L-30.2313375080376,22.026222323233355zM-106.32524869407251,64.04515796994627L-109.05739785428406,66.22612537098438L-65.06413166526492,70.13869921226222zM-147.29739391764232,62.86893177462018L-71.60879556554757,71.21440251803142L-65.06413166526492,70.13869921226222zM34.83231713513102,-12.020717942359829L39.34311702754483,-9.477988621254811L91.4857163548714,-1.4657460025806084zM163.1598106649366,-57.82426712276358L85.97457820021434,-37.667222676485835L126.10631523348862,-34.24576687838071zM-65.06413166526492,70.13869921226222L-29.96362857451851,32.01061278479716L-30.652553564948906,27.152631798418337zM125.32893445952531,-31.651268446887286L126.10631523348862,-34.24576687838071L85.97457820021434,-37.667222676485835zM128.30872975492366,-30.93177130544434L125.32893445952531,-31.651268446887286L85.97457820021434,-37.667222676485835zM-65.06413166526492,70.13869921226222L-28.167752523186618,36.45789161995396L-29.96362857451851,32.01061278479716z" style="fill:rgb(83,212,212)"/><path d="M-68.79511704257729,75.70728056171806L-71.60879556554757,71.21440251803142L-145.039613288318,89.13978586159658z" style="fill:rgb(127,37,217)"/><path d="M118.93125523401059,-23.86435433703356L125.18365575634083,-27.30469624408647L85.97457820021434,-37.667222676485835zM85.97457820021434,-37.667222676485835L125.18365575634083,-27.30469624408647L132.13494945685795,-29.085708210775817zM114.18951265004269,-19.210142254315876L118.93125523401059,-23.86435433703356L85.97457820021434,-37.667222676485835z" style="fill:rgb(83,212,212)"/><path d="M127.99801537163133,-29.28163392832268L131.4350568640823,-30.163282402413646L129.5577387557436,-35.135612069842665z" style="fill:rgb(127,37,217)"/><path d="M128.30872975492366,-30.93177130544434L85.97457820021434,-37.667222676485835L138.88260912935766,-28.967345054369563z" style="fill:rgb(83,212,212)"/><path d="M127.2280843340449,-26.689015310849438L127.99801537163133,-29.28163392832268L126.10631523348862,-34.24576687838071z" style="fill:rgb(241,128,184)"/><path d="M86.80206201538729,-2.7262300294621733L88.18168805801277,-7.002591000279393L79.2997759203727,-36.3985196544499zM85.97457820021434,-37.667222676485835L88.18168805801277,-7.002591000279393L93.69599975087785,-8.400996294825372z" style="fill:rgb(83,212,212)"/><path d="M129.5577387557436,-35.135612069842665L131.4350568640823,-30.163282402413646L132.80249239936884,-28.115728060630165z" style="fill:rgb(13,70,126)"/><path d="M129.5577387557436,-35.135612069842665L126.10631523348862,-34.24576687838071L127.99801537163133,-29.28163392832268z" style="fill:rgb(127,37,217)"/><path d="M85.97457820021434,-37.667222676485835L132.13494945685795,-29.085708210775817L138.88260912935766,-28.967345054369563zM29.60909961288464,-13.747452164477208L91.4857163548714,-1.4657460025806084L86.80206201538729,-2.7262300294621733zM111.58635645365419,-13.942479409484278L114.18951265004269,-19.210142254315876L85.97457820021434,-37.667222676485835z" style="fill:rgb(83,212,212)"/><path d="M126.10631523348862,-34.24576687838071L125.32893445952531,-31.651268446887286L127.2280843340449,-26.689015310849438z" style="fill:rgb(241,128,184)"/><path d="M102.00220617980591,-6.976282171436381L85.97457820021434,-37.667222676485835L93.69599975087785,-8.400996294825372zM85.97457820021434,-37.667222676485835L102.83696207195072,-9.652336806040621L106.30957611908472,-10.532083733300219z" style="fill:rgb(83,212,212)"/><path d="M132.80249239936884,-28.115728060630165L130.9267239837103,-33.091276046107126L129.5577387557436,-35.135612069842665z" style="fill:rgb(13,70,126)"/><path d="M102.00220617980591,-6.976282171436381L102.83696207195072,-9.652336806040621L85.97457820021434,-37.667222676485835z" style="fill:rgb(83,212,212)"/><path d="M-71.60879556554757,71.21440251803142L-68.79511704257729,75.70728056171806L-62.274850887685005,74.64610214830633z" style="fill:rgb(115,34,214)"/><path d="M168.86850549003037,-48.009215671180016L165.3406215042584,-54.545502326731224L163.1598106649366,-57.82426712276358zM168.86850549003037,-48.009215671180016L163.1598106649366,-57.82426712276358L126.10631523348862,-34.24576687838071zM-65.06413166526492,70.13869921226222L-58.800783966005575,70.16169134236277L-28.167752523186618,36.45789161995396zM111.48761394358196,-8.749942207087662L111.58635645365419,-13.942479409484278L85.97457820021434,-37.667222676485835zM168.86850549003037,-48.009215671180016L126.10631523348862,-34.24576687838071L129.5577387557436,-35.135612069842665z" style="fill:rgb(83,212,212)"/><path d="M118.93125523401059,-23.86435433703356L120.86801134661671,-18.91758804661552L127.09098977005617,-22.342974500553602z" style="fill:rgb(170,54,222)"/><path d="M-62.274850887685005,74.64610214830633L-65.06413166526492,70.13869921226222L-71.60879556554757,71.21440251803142z" style="fill:rgb(115,34,214)"/><path d="M125.18365575634083,-27.30469624408647L127.09098977005617,-22.342974500553602L134.0131335768323,-24.10747800713135z" style="fill:rgb(127,37,217)"/><path d="M-65.06413166526492,70.13869921226222L-62.274850887685005,74.64610214830633L-56.032285290856024,74.68250195354962z" style="fill:rgb(92,32,204)"/><path d="M116.15228727286616,-14.274923332023352L120.86801134661671,-18.91758804661552L118.93125523401059,-23.86435433703356z" style="fill:rgb(208,81,214)"/><path d="M113.94068636616738,-4.328130572405607L85.97457820021434,-37.667222676485835L106.30957611908472,-10.532083733300219zM-58.800783966005575,70.16169134236277L-53.047845720525004,71.29238884163877L-28.167752523186618,36.45789161995396z" style="fill:rgb(83,212,212)"/><path d="M88.18168805801277,-7.002591000279393L90.2632148498447,-2.1294628752335787L95.75462760083538,-3.5148915997488026z" style="fill:rgb(127,37,217)"/><path d="M127.09098977005617,-22.342974500553602L125.18365575634083,-27.30469624408647L118.93125523401059,-23.86435433703356z" style="fill:rgb(170,54,222)"/><path d="M113.94068636616738,-4.328130572405607L111.48761394358196,-8.749942207087662L85.97457820021434,-37.667222676485835z" style="fill:rgb(83,212,212)"/><path d="M134.0131335768323,-24.10747800713135L132.13494945685795,-29.085708210775817L125.18365575634083,-27.30469624408647z" style="fill:rgb(127,37,217)"/><path d="M132.13494945685795,-29.085708210775817L134.0131335768323,-24.10747800713135L140.73552046684742,-23.97318877936669z" style="fill:rgb(84,32,200)"/><path d="M-56.032285290856024,74.68250195354962L-58.800783966005575,70.16169134236277L-65.06413166526492,70.13869921226222z" style="fill:rgb(92,32,204)"/><path d="M118.93125523401059,-23.86435433703356L114.18951265004269,-19.210142254315876L116.15228727286616,-14.274923332023352z" style="fill:rgb(208,81,214)"/><path d="M130.9267239837103,-33.091276046107126L128.30872975492366,-30.93177130544434L138.88260912935766,-28.967345054369563z" style="fill:rgb(83,212,212)"/><path d="M86.80206201538729,-2.7262300294621733L88.89685706241961,2.14298232081123L90.2632148498447,-2.1294628752335787z" style="fill:rgb(241,128,184)"/><path d="M95.75462760083538,-3.5148915997488026L93.69599975087785,-8.400996294825372L88.18168805801277,-7.002591000279393z" style="fill:rgb(127,37,217)"/><path d="M-58.800783966005575,70.16169134236277L-56.032285290856024,74.68250195354962L-50.29579261390438,75.8249485836458z" style="fill:rgb(71,33,192)"/><path d="M90.2632148498447,-2.1294628752335787L88.18168805801277,-7.002591000279393L86.80206201538729,-2.7262300294621733z" style="fill:rgb(241,128,184)"/><path d="M93.69599975087785,-8.400996294825372L95.75462760083538,-3.5148915997488026L97.81579768771465,-0.09870746604656012z" style="fill:rgb(13,70,126)"/><path d="M111.58635645365419,-13.942479409484278L113.56839633128519,-9.014003525052821L116.15228727286616,-14.274923332023352zM116.15228727286616,-14.274923332023352L114.18951265004269,-19.210142254315876L111.58635645365419,-13.942479409484278z" style="fill:rgb(234,114,195)"/><path d="M140.73552046684742,-23.97318877936669L138.88260912935766,-28.967345054369563L132.13494945685795,-29.085708210775817z" style="fill:rgb(84,32,200)"/><path d="M104.859461245569,-4.744852892018519L108.31753454984508,-5.616401350919894L106.30957611908472,-10.532083733300219z" style="fill:rgb(127,37,217)"/><path d="M154.23175235057863,-22.672621615083784L129.5577387557436,-35.135612069842665L130.9267239837103,-33.091276046107126z" style="fill:rgb(83,212,212)"/><path d="M-50.29579261390438,75.8249485836458L-53.047845720525004,71.29238884163877L-58.800783966005575,70.16169134236277z" style="fill:rgb(71,33,192)"/><path d="M97.81579768771465,-0.09870746604656012L95.75833646889343,-4.988994716165149L93.69599975087785,-8.400996294825372z" style="fill:rgb(13,70,126)"/><path d="M102.00220617980591,-6.976282171436381L104.03278067897442,-2.0711989169804537L104.859461245569,-4.744852892018519z" style="fill:rgb(241,128,184)"/><path d="M130.9267239837103,-33.091276046107126L138.88260912935766,-28.967345054369563L144.53673806977233,-26.947002774076296z" style="fill:rgb(83,212,212)"/><path d="M106.30957611908472,-10.532083733300219L108.31753454984508,-5.616401350919894L109.64138474641817,-3.4814206133769203z" style="fill:rgb(13,70,126)"/><path d="M113.47946906507563,-3.822572451046927L113.56839633128519,-9.014003525052821L111.58635645365419,-13.942479409484278z" style="fill:rgb(246,149,166)"/><path d="M106.30957611908472,-10.532083733300219L102.83696207195072,-9.652336806040621L104.859461245569,-4.744852892018519z" style="fill:rgb(127,37,217)"/><path d="M-53.047845720525004,71.29238884163877L-50.29579261390438,75.8249485836458L-45.28103570608879,78.044019778145z" style="fill:rgb(51,38,177)"/><path d="M104.859461245569,-4.744852892018519L102.83696207195072,-9.652336806040621L102.00220617980591,-6.976282171436381z" style="fill:rgb(241,128,184)"/><path d="M140.73552046684742,-23.97318877936669L146.37155245731407,-21.93969813729377L144.53673806977233,-26.947002774076296zM144.53673806977233,-26.947002774076296L138.88260912935766,-28.967345054369563L140.73552046684742,-23.97318877936669z" style="fill:rgb(46,40,173)"/><path d="M168.86850549003037,-48.009215671180016L129.5577387557436,-35.135612069842665L157.79096162528828,-23.574306453420085zM39.34311702754483,-9.477988621254811L133.0326658548508,6.260156738914681L91.4857163548714,-1.4657460025806084zM104.96771060512154,-6.195900468408881L93.69599975087785,-8.400996294825372L95.75833646889343,-4.988994716165149z" style="fill:rgb(83,212,212)"/><path d="M109.64138474641817,-3.4814206133769203L107.63445044564435,-8.399800971743808L106.30957611908472,-10.532083733300219z" style="fill:rgb(13,70,126)"/><path d="M104.96771060512154,-6.195900468408881L102.00220617980591,-6.976282171436381L93.69599975087785,-8.400996294825372z" style="fill:rgb(83,212,212)"/><path d="M111.58635645365419,-13.942479409484278L111.48761394358196,-8.749942207087662L113.47946906507563,-3.822572451046927z" style="fill:rgb(246,149,166)"/><path d="M4.170925052964354,84.19604637885163L-25.300045704634233,40.35969921027464L-28.167752523186618,36.45789161995396z" style="fill:rgb(83,212,212)"/><path d="M-45.28103570608879,78.044019778145L-48.02160795071064,73.50188644293405L-53.047845720525004,71.29238884163877z" style="fill:rgb(51,38,177)"/><path d="M104.96771060512154,-6.195900468408881L95.75833646889343,-4.988994716165149L91.4857163548714,-1.4657460025806084zM154.23175235057863,-22.672621615083784L130.9267239837103,-33.091276046107126L144.53673806977233,-26.947002774076296z" style="fill:rgb(83,212,212)"/><path d="M-48.02160795071064,73.50188644293405L-45.28103570608879,78.044019778145L-41.183506765794284,81.27148162360383z" style="fill:rgb(34,46,160)"/><path d="M174.11285110260667,-33.872927005829624L171.80140846079473,-41.11142141732923L168.86850549003037,-48.009215671180016z" style="fill:rgb(83,212,212)"/><path d="M148.32910175951434,-23.26915773148625L144.53673806977233,-26.947002774076296L146.37155245731407,-21.93969813729377zM146.37155245731407,-21.93969813729377L150.15549652576075,-18.253403317704105L148.32910175951434,-23.26915773148625z" style="fill:rgb(20,59,140)"/><path d="M173.50824448161728,-36.03834619112005L171.80140846079473,-41.11142141732923L174.11285110260667,-33.872927005829624z" style="fill:rgb(246,166,149)"/><path d="M113.94068636616738,-4.328130572405607L106.30957611908472,-10.532083733300219L107.63445044564435,-8.399800971743808zM129.5577387557436,-35.135612069842665L154.23175235057863,-22.672621615083784L157.79096162528828,-23.574306453420085zM4.170925052964354,84.19604637885163L-21.428456862163745,43.593324360195155L-25.300045704634233,40.35969921027464z" style="fill:rgb(83,212,212)"/><path d="M174.11285110260667,-33.872927005829624L175.82192708226808,-28.794936379635786L173.50824448161728,-36.03834619112005z" style="fill:rgb(246,166,149)"/><path d="M113.94068636616738,-4.328130572405607L107.63445044564435,-8.399800971743808L104.96771060512154,-6.195900468408881z" style="fill:rgb(83,212,212)"/><path d="M-41.183506765794284,81.27148162360383L-43.91807641078593,76.72241466488809L-48.02160795071064,73.50188644293405z" style="fill:rgb(34,46,160)"/><path d="M-53.047845720525004,71.29238884163877L4.170925052964354,84.19604637885163L-28.167752523186618,36.45789161995396zM4.170925052964354,84.19604637885163L-16.65354723310775,46.05277088876691L-21.428456862163745,43.593324360195155zM168.86850549003037,-48.009215671180016L157.79096162528828,-23.574306453420085L159.26745309751152,-21.449758336642226z" style="fill:rgb(83,212,212)"/><path d="M-43.91807641078593,76.72241466488809L-41.183506765794284,81.27148162360383L-38.170782199865926,85.40043093198675z" style="fill:rgb(21,57,142)"/><path d="M153.4944257887647,-19.990658613521195L144.53673806977233,-26.947002774076296L148.32910175951434,-23.26915773148625z" style="fill:rgb(83,212,212)"/><path d="M156.03628871809914,-17.643103458019485L159.58017501330374,-18.53628199774087L157.79096162528828,-23.574306453420085z" style="fill:rgb(127,37,217)"/><path d="M118.65080694162415,-1.2890392367631027L113.94068636616738,-4.328130572405607L104.96771060512154,-6.195900468408881z" style="fill:rgb(83,212,212)"/><path d="M155.306221009766,-14.963344783130319L156.03628871809914,-17.643103458019485L154.23175235057863,-22.672621615083784z" style="fill:rgb(241,128,184)"/><path d="M153.4944257887647,-19.990658613521195L154.23175235057863,-22.672621615083784L144.53673806977233,-26.947002774076296zM129.93314830489024,5.43350335288736L104.96771060512154,-6.195900468408881L91.4857163548714,-1.4657460025806084zM4.170925052964354,84.19604637885163L-11.106981817077926,47.653297029769256L-16.65354723310775,46.05277088876691z" style="fill:rgb(83,212,212)"/><path d="M157.79096162528828,-23.574306453420085L154.23175235057863,-22.672621615083784L156.03628871809914,-17.643103458019485z" style="fill:rgb(127,37,217)"/><path d="M176.77532470189294,-18.470503047521607L174.11285110260667,-33.872927005829624L168.86850549003037,-48.009215671180016z" style="fill:rgb(83,212,212)"/><path d="M159.58017501330374,-18.53628199774087L161.05433914129335,-16.408647377202843L159.26745309751152,-21.449758336642226z" style="fill:rgb(13,70,126)"/><path d="M-38.170782199865926,85.40043093198675L-40.905179120069384,80.84745145739635L-43.91807641078593,76.72241466488809z" style="fill:rgb(21,57,142)"/><path d="M154.23175235057863,-22.672621615083784L153.4944257887647,-19.990658613521195L155.306221009766,-14.963344783130319z" style="fill:rgb(241,128,184)"/><path d="M175.82192708226808,-28.794936379635786L174.11285110260667,-33.872927005829624L175.7782776496701,-26.317224806749415z" style="fill:rgb(247,161,155)"/><path d="M159.26745309751152,-21.449758336642226L157.79096162528828,-23.574306453420085L159.58017501330374,-18.53628199774087z" style="fill:rgb(13,70,126)"/><path d="M153.4944257887647,-19.990658613521195L148.32910175951434,-23.26915773148625L149.71868915826806,-18.406900259484008z" style="fill:rgb(83,212,212)"/><path d="M175.7782776496701,-26.317224806749415L177.4924566172262,-21.236421204703905L175.82192708226808,-28.794936379635786z" style="fill:rgb(247,161,155)"/><path d="M4.170925052964354,84.19604637885163L-4.948523893935347,48.335464826675896L-11.106981817077926,47.653297029769256zM39.34311702754483,-9.477988621254811L43.005327834118226,-6.179137680368643L140.10811919361055,77.43188893829668zM129.93314830489024,5.43350335288736L118.65080694162415,-1.2890392367631027L104.96771060512154,-6.195900468408881zM4.170925052964354,84.19604637885163L1.6384589552662923,48.06852489222528L-4.948523893935347,48.335464826675896zM8.452923134317937,46.85265187417618L1.6384589552662923,48.06852489222528L5.890113586862478,79.44709117041066zM-53.047845720525004,71.29238884163877L-48.02160795071064,73.50188644293405L8.755640066123618,85.81512189510366zM15.283265506859411,44.719913269967L8.452923134317937,46.85265187417618L5.890113586862478,79.44709117041066zM43.005327834118226,-6.179137680368643L45.702386258864905,-2.2067807004022533L140.10811919361055,77.43188893829668zM28.140464043278147,37.98699720953185L21.915274169005016,41.73376574150006L5.890113586862478,79.44709117041066zM21.915274169005016,41.73376574150006L15.283265506859411,44.719913269967L5.890113586862478,79.44709117041066zM176.77532470189294,-18.470503047521607L175.7782776496701,-26.317224806749415L174.11285110260667,-33.872927005829624zM133.0326658548508,6.260156738914681L129.93314830489024,5.43350335288736L91.4857163548714,-1.4657460025806084z" style="fill:rgb(83,212,212)"/><path d="M177.4924566172262,-21.236421204703905L175.7782776496701,-26.317224806749415L176.77532470189294,-18.470503047521607z" style="fill:rgb(247,155,161)"/><path d="M129.93314830489024,5.43350335288736L125.00163880146806,-0.0710684030171909L118.65080694162415,-1.2890392367631027zM45.702386258864905,-2.2067807004022533L47.34186592159215,2.33467341193817L140.10811919361055,77.43188893829668z" style="fill:rgb(83,212,212)"/><path d="M176.77532470189294,-18.470503047521607L178.49764646148964,-13.389070902645466L177.4924566172262,-21.236421204703905z" style="fill:rgb(247,155,161)"/><path d="M132.66788092114118,7.634043761755526L136.23441137307242,6.751706002718147L134.31129770520633,1.774496635464531z" style="fill:rgb(127,37,217)"/><path d="M132.12763575952064,-0.8652173889771636L125.00163880146806,-0.0710684030171909L130.7292749289506,2.66533894090167z" style="fill:rgb(83,212,212)"/><path d="M129.93314830489024,5.43350335288736L131.87966533587664,10.39943662012207L132.66788092114118,7.634043761755526z" style="fill:rgb(241,128,184)"/><path d="M144.7509137784051,-7.82369390389199L139.03462371937803,-3.5750446345760127L130.7292749289506,2.66533894090167z" style="fill:rgb(83,212,212)"/><path d="M134.31129770520633,1.774496635464531L136.23441137307242,6.751706002718147L137.66460160795205,8.971837829373015z" style="fill:rgb(13,70,126)"/><path d="M139.03462371937803,-3.5750446345760127L132.12763575952064,-0.8652173889771636L130.7292749289506,2.66533894090167z" style="fill:rgb(83,212,212)"/><path d="M134.31129770520633,1.774496635464531L130.7292749289506,2.66533894090167L132.66788092114118,7.634043761755526z" style="fill:rgb(127,37,217)"/><path d="M129.93314830489024,5.43350335288736L130.7292749289506,2.66533894090167L125.00163880146806,-0.0710684030171909z" style="fill:rgb(83,212,212)"/><path d="M132.66788092114118,7.634043761755526L130.7292749289506,2.66533894090167L129.93314830489024,5.43350335288736z" style="fill:rgb(241,128,184)"/><path d="M144.7509137784051,-7.82369390389199L130.7292749289506,2.66533894090167L134.31129770520633,1.774496635464531zM47.34186592159215,2.33467341193817L47.85974853558922,7.320831800028115L140.10811919361055,77.43188893829668zM144.7509137784051,-7.82369390389199L134.31129770520633,1.774496635464531L135.74327561022042,3.9921109180701224z" style="fill:rgb(83,212,212)"/><path d="M137.66460160795205,8.971837829373015L135.74327561022042,3.9921109180701224L134.31129770520633,1.774496635464531z" style="fill:rgb(13,70,126)"/><path d="M173.73036524753616,15.207805523069174L176.77532470189294,-18.470503047521607L168.86850549003037,-48.009215671180016zM4.170925052964354,84.19604637885163L5.890113586862478,79.44709117041066L1.6384589552662923,48.06852489222528zM47.85974853558922,7.320831800028115L47.224172118382846,12.610076963260708L140.10811919361055,77.43188893829668zM28.140464043278147,37.98699720953185L5.890113586862478,79.44709117041066L11.515746912775516,78.11149584859639z" style="fill:rgb(83,212,212)"/><path d="M178.49764646148964,-13.389070902645466L176.77532470189294,-18.470503047521607L177.08422807841484,-10.361688093960861z" style="fill:rgb(246,149,166)"/><path d="M-53.047845720525004,71.29238884163877L8.755640066123618,85.81512189510366L4.170925052964354,84.19604637885163z" style="fill:rgb(83,212,212)"/><path d="M177.08422807841484,-10.361688093960861L178.81778277698666,-5.2818710932179025L178.49764646148964,-13.389070902645466z" style="fill:rgb(246,149,166)"/><path d="M47.224172118382846,12.610076963260708L45.438359463947165,18.04731499822774L140.10811919361055,77.43188893829668zM39.34311702754483,-9.477988621254811L140.10811919361055,77.43188893829668L133.0326658548508,6.260156738914681zM45.438359463947165,18.04731499822774L42.54236726712506,23.468686099630776L140.10811919361055,77.43188893829668z" style="fill:rgb(83,212,212)"/><path d="M5.890113586862478,79.44709117041066L8.454253754180703,84.1002040676443L14.056184171108844,82.77750535720716z" style="fill:rgb(127,37,217)"/><path d="M178.43611654972398,3.053499113134341L178.81778277698666,-5.2818710932179025L177.08422807841484,-10.361688093960861z" style="fill:rgb(245,143,172)"/><path d="M140.10811919361055,77.43188893829668L39.82140400424944,27.096438307368658L42.14726536808515,31.851120503536453z" style="fill:rgb(42,41,169)"/><path d="M176.68812507746608,-2.0224124984038783L177.08422807841484,-10.361688093960861L176.77532470189294,-18.470503047521607zM42.54236726712506,23.468686099630776L39.82140400424944,27.096438307368658L140.10811919361055,77.43188893829668z" style="fill:rgb(83,212,212)"/><path d="M4.170925052964354,84.19604637885163L6.752184233969651,88.84203693441198L8.454253754180703,84.1002040676443z" style="fill:rgb(241,128,184)"/><path d="M14.056184171108844,82.77750535720716L11.515746912775516,78.11149584859639L5.890113586862478,79.44709117041066z" style="fill:rgb(127,37,217)"/><path d="M8.454253754180703,84.1002040676443L5.890113586862478,79.44709117041066L4.170925052964354,84.19604637885163z" style="fill:rgb(241,128,184)"/><path d="M140.10811919361055,77.43188893829668L168.86850549003037,-48.009215671180016L159.26745309751152,-21.449758336642226z" style="fill:rgb(83,212,212)"/><path d="M177.08422807841484,-10.361688093960861L176.68812507746608,-2.0224124984038783L178.43611654972398,3.053499113134341z" style="fill:rgb(245,143,172)"/><path d="M173.73036524753616,15.207805523069174L176.68812507746608,-2.0224124984038783L176.77532470189294,-18.470503047521607zM140.10811919361055,77.43188893829668L153.4944257887647,-19.990658613521195L149.71868915826806,-18.406900259484008z" style="fill:rgb(83,212,212)"/><path d="M178.43611654972398,3.053499113134341L176.68812507746608,-2.0224124984038783L175.57349321209165,6.513034817916196z" style="fill:rgb(244,137,177)"/><path d="M140.10811919361055,77.43188893829668L156.607483176841,-19.228539788937486L153.4944257887647,-19.990658613521195zM-48.02160795071064,73.50188644293405L-43.91807641078593,76.72241466488809L76.73114355661825,128.99279706692536zM140.10811919361055,77.43188893829668L159.26745309751152,-21.449758336642226L156.607483176841,-19.228539788937486z" style="fill:rgb(83,212,212)"/><path d="M175.57349321209165,6.513034817916196L177.33918014227353,11.58272709480084L178.43611654972398,3.053499113134341z" style="fill:rgb(244,137,177)"/><path d="M140.10811919361055,77.43188893829668L149.71868915826806,-18.406900259484008L148.479430734234,-13.010574553780545zM76.73114355661825,128.99279706692536L33.454877470416235,33.83962556064585L28.140464043278147,37.98699720953185zM140.10811919361055,77.43188893829668L148.479430734234,-13.010574553780545L144.7509137784051,-7.82369390389199zM-43.91807641078593,76.72241466488809L-40.905179120069384,80.84745145739635L76.73114355661825,128.99279706692536zM-39.11493873248049,85.73323237717622L-38.636086828351154,91.20193796979252L-13.3883732512972,158.58944949737588zM140.10811919361055,77.43188893829668L144.7509137784051,-7.82369390389199L135.74327561022042,3.9921109180701224zM173.73036524753616,15.207805523069174L175.57349321209165,6.513034817916196L176.68812507746608,-2.0224124984038783z" style="fill:rgb(83,212,212)"/><path d="M177.33918014227353,11.58272709480084L175.57349321209165,6.513034817916196L173.73036524753616,15.207805523069174z" style="fill:rgb(242,131,182)"/><path d="M140.10811919361055,77.43188893829668L173.73036524753616,15.207805523069174L168.86850549003037,-48.009215671180016zM-40.905179120069384,80.84745145739635L-39.11493873248049,85.73323237717622L76.73114355661825,128.99279706692536z" style="fill:rgb(83,212,212)"/><path d="M173.73036524753616,15.207805523069174L175.5171204170237,20.26895884847135L177.33918014227353,11.58272709480084z" style="fill:rgb(242,131,182)"/><path d="M140.10811919361055,77.43188893829668L135.74327561022042,3.9921109180701224L133.0326658548508,6.260156738914681zM76.73114355661825,128.99279706692536L28.140464043278147,37.98699720953185L11.515746912775516,78.11149584859639zM-48.02160795071064,73.50188644293405L76.73114355661825,128.99279706692536L8.755640066123618,85.81512189510366z" style="fill:rgb(83,212,212)"/><path d="M175.5171204170237,20.26895884847135L173.73036524753616,15.207805523069174L171.1528635715698,24.022633514294338zM171.1528635715698,24.022633514294338L172.9640316835795,29.072949364406966L175.5171204170237,20.26895884847135z" style="fill:rgb(240,125,187)"/><path d="M42.14726536808515,31.851120503536453L142.13683576440243,82.37163468322069L140.10811919361055,77.43188893829668z" style="fill:rgb(42,41,169)"/><path d="M167.83930448311995,32.916023536522744L171.1528635715698,24.022633514294338L173.73036524753616,15.207805523069174z" style="fill:rgb(83,212,212)"/><path d="M172.9640316835795,29.072949364406966L171.1528635715698,24.022633514294338L167.83930448311995,32.916023536522744z" style="fill:rgb(237,120,191)"/><path d="M167.83930448311995,32.916023536522744L169.6782336837482,37.95324509272321L172.9640316835795,29.072949364406966z" style="fill:rgb(237,119,191)"/><path d="M76.73114355661825,128.99279706692536L11.515746912775516,78.11149584859639L13.30873172628351,82.0364091961707zM76.73114355661825,128.99279706692536L13.30873172628351,82.0364091961707L8.755640066123618,85.81512189510366zM-38.636086828351154,91.20193796979252L-40.96852944140973,159.55949564089022L-35.34768304918344,159.75503516109453zM159.02055292512506,50.76282210292442L167.83930448311995,32.916023536522744L173.73036524753616,15.207805523069174zM133.01062593021894,85.39062166201805L133.4105984959843,84.94211526020085L33.454877470416235,33.83962556064585z" style="fill:rgb(83,212,212)"/><path d="M169.6782336837482,37.95324509272321L167.83930448311995,32.916023536522744L163.79261308443668,41.84448751293057zM163.79261308443668,41.84448751293057L165.66268487685886,46.86642154531943L169.6782336837482,37.95324509272321z" style="fill:rgb(234,114,195)"/><path d="M-38.636086828351154,91.20193796979252L-35.34768304918344,159.75503516109453L-13.3883732512972,158.58944949737588zM116.22964716971606,101.40490477085572L133.01062593021894,85.39062166201805L33.454877470416235,33.83962556064585zM159.02055292512506,50.76282210292442L163.79261308443668,41.84448751293057L167.83930448311995,32.916023536522744z" style="fill:rgb(83,212,212)"/><path d="M165.66268487685886,46.86642154531943L163.79261308443668,41.84448751293057L159.02055292512506,50.76282210292442zM159.02055292512506,50.76282210292442L160.92502001969473,55.7673728325042L165.66268487685886,46.86642154531943z" style="fill:rgb(230,108,199)"/><path d="M76.73114355661825,128.99279706692536L116.22964716971606,101.40490477085572L33.454877470416235,33.83962556064585zM-39.11493873248049,85.73323237717622L-13.3883732512972,158.58944949737588L76.73114355661825,128.99279706692536zM140.10811919361055,77.43188893829668L159.02055292512506,50.76282210292442L173.73036524753616,15.207805523069174z" style="fill:rgb(83,212,212)"/><path d="M160.92502001969473,55.7673728325042L159.02055292512506,50.76282210292442L153.5358455061884,59.62444870023424zM153.5358455061884,59.62444870023424L155.4779173831435,64.60962618882752L160.92502001969473,55.7673728325042z" style="fill:rgb(226,102,203)"/><path d="M-40.96852944140973,159.55949564089022L-38.039382300517275,164.03664876293348L-32.439515562019935,164.242855788872z" style="fill:rgb(94,32,205)"/><path d="M147.35637458178638,68.38177063716628L149.33910091076223,73.34572314825978L155.4779173831435,64.60962618882752z" style="fill:rgb(222,96,207)"/><path d="M147.35637458178638,68.38177063716628L153.5358455061884,59.62444870023424L159.02055292512506,50.76282210292442z" style="fill:rgb(83,212,212)"/><path d="M155.4779173831435,64.60962618882752L153.5358455061884,59.62444870023424L147.35637458178638,68.38177063716628z" style="fill:rgb(222,96,207)"/><path d="M-32.439515562019935,164.242855788872L-35.34768304918344,159.75503516109453L-40.96852944140973,159.55949564089022z" style="fill:rgb(94,32,205)"/><path d="M-35.34768304918344,159.75503516109453L-32.439515562019935,164.242855788872L-21.62141063912274,164.00071111346378z" style="fill:rgb(101,32,208)"/><path d="M140.10811919361055,77.43188893829668L147.35637458178638,68.38177063716628L159.02055292512506,50.76282210292442z" style="fill:rgb(83,212,212)"/><path d="M-21.62141063912274,164.00071111346378L-24.487087737144883,159.49143550156143L-35.34768304918344,159.75503516109453z" style="fill:rgb(101,32,208)"/><path d="M140.50521483528976,76.98660855672541L142.53147865757623,81.92764099984333L149.33910091076223,73.34572314825978zM149.33910091076223,73.34572314825978L147.35637458178638,68.38177063716628L140.50521483528976,76.98660855672541z" style="fill:rgb(217,91,210)"/><path d="M-24.487087737144883,159.49143550156143L-21.62141063912274,164.00071111346378L-10.568122413840829,163.1215194812095z" style="fill:rgb(108,33,211)"/><path d="M140.10811919361055,77.43188893829668L142.13683576440243,82.37163468322069L142.53147865757623,81.92764099984333z" style="fill:rgb(212,85,213)"/><path d="M-35.34768304918344,159.75503516109453L-24.487087737144883,159.49143550156143L-13.3883732512972,158.58944949737588z" style="fill:rgb(83,212,212)"/><path d="M142.53147865757623,81.92764099984333L140.50521483528976,76.98660855672541L140.10811919361055,77.43188893829668z" style="fill:rgb(212,85,213)"/><path d="M140.10811919361055,77.43188893829668L140.50521483528976,76.98660855672541L147.35637458178638,68.38177063716628z" style="fill:rgb(83,212,212)"/><path d="M-10.568122413840829,163.1215194812095L-13.3883732512972,158.58944949737588L-24.487087737144883,159.49143550156143z" style="fill:rgb(108,33,211)"/><path d="M-13.3883732512972,158.58944949737588L-10.568122413840829,163.1215194812095L0.6634214696571165,161.60230260949345z" style="fill:rgb(116,34,214)"/><path d="M133.01062593021894,85.39062166201805L135.08313735066108,90.30721449781619L135.48063495380987,89.86002580783642zM135.48063495380987,89.86002580783642L133.4105984959843,84.94211526020085L133.01062593021894,85.39062166201805z" style="fill:rgb(212,85,213)"/><path d="M124.90599766655014,93.54579495177452L127.02718579870675,98.4366206591595L135.08313735066108,90.30721449781619z" style="fill:rgb(206,80,215)"/><path d="M0.6634214696571165,161.60230260949345L-2.1087512304930236,157.0461725588251L-13.3883732512972,158.58944949737588z" style="fill:rgb(116,34,214)"/><path d="M-2.1087512304930236,157.0461725588251L0.6634214696571165,161.60230260949345L12.013860140044743,159.44452264833092z" style="fill:rgb(123,36,216)"/><path d="M135.08313735066108,90.30721449781619L133.01062593021894,85.39062166201805L124.90599766655014,93.54579495177452z" style="fill:rgb(206,80,215)"/><path d="M-13.3883732512972,158.58944949737588L-2.1087512304930236,157.0461725588251L9.29210532020864,154.86315958545202z" style="fill:rgb(83,212,212)"/><path d="M116.22964716971606,101.40490477085572L118.40169696093183,106.2688415028856L127.02718579870675,98.4366206591595z" style="fill:rgb(200,75,217)"/><path d="M12.013860140044743,159.44452264833092L9.29210532020864,154.86315958545202L-2.1087512304930236,157.0461725588251z" style="fill:rgb(123,36,216)"/><path d="M9.29210532020864,154.86315958545202L12.013860140044743,159.44452264833092L23.4219172303121,156.65415471448011z" style="fill:rgb(131,38,218)"/><path d="M127.02718579870675,98.4366206591595L124.90599766655014,93.54579495177452L116.22964716971606,101.40490477085572z" style="fill:rgb(200,75,217)"/><path d="M116.22964716971606,101.40490477085572L124.90599766655014,93.54579495177452L133.01062593021894,85.39062166201805zM-13.3883732512972,158.58944949737588L9.29210532020864,154.86315958545202L32.20967789772304,148.60692884120718z" style="fill:rgb(83,212,212)"/><path d="M107.02460552895198,108.9220687000822L109.24939445001387,113.7582103788244L118.40169696093183,106.2688415028856z" style="fill:rgb(194,70,219)"/><path d="M20.75257981777275,152.0465051779791L23.4219172303121,156.65415471448011L34.82496704097437,153.2417878474271z" style="fill:rgb(138,40,220)"/><path d="M23.4219172303121,156.65415471448011L20.75257981777275,152.0465051779791L9.29210532020864,154.86315958545202z" style="fill:rgb(131,38,218)"/><path d="M118.40169696093183,106.2688415028856L116.22964716971606,101.40490477085572L107.02460552895198,108.9220687000822z" style="fill:rgb(194,70,219)"/><path d="M97.33831705436401,116.05318862961056L99.61736484474423,120.86085194407077L109.24939445001387,113.7582103788244z" style="fill:rgb(188,65,220)"/><path d="M32.20967789772304,148.60692884120718L34.82496704097437,153.2417878474271L46.15963605118176,149.2225842118196z" style="fill:rgb(146,43,221)"/><path d="M-13.3883732512972,158.58944949737588L32.20967789772304,148.60692884120718L76.73114355661825,128.99279706692536z" style="fill:rgb(83,212,212)"/><path d="M34.82496704097437,153.2417878474271L32.20967789772304,148.60692884120718L20.75257981777275,152.0465051779791z" style="fill:rgb(138,40,220)"/><path d="M9.29210532020864,154.86315958545202L20.75257981777275,152.0465051779791L32.20967789772304,148.60692884120718z" style="fill:rgb(83,212,212)"/><path d="M109.24939445001387,113.7582103788244L107.02460552895198,108.9220687000822L97.33831705436401,116.05318862961056z" style="fill:rgb(188,65,220)"/><path d="M87.22218276970199,122.75644587870765L89.5566467940011,127.53517353854244L99.61736484474423,120.86085194407077z" style="fill:rgb(181,61,221)"/><path d="M43.5996472835603,144.5597489169302L46.15963605118176,149.2225842118196L57.36244496196987,144.6162188466289z" style="fill:rgb(153,46,222)"/><path d="M97.33831705436401,116.05318862961056L107.02460552895198,108.9220687000822L116.22964716971606,101.40490477085572z" style="fill:rgb(83,212,212)"/><path d="M76.73114355661825,128.99279706692536L79.12182389774696,133.7423570317688L89.5566467940011,127.53517353854244z" style="fill:rgb(175,57,222)"/><path d="M54.858593247500345,139.92481311026592L57.36244496196987,144.6162188466289L68.37043465890255,139.4467388398969z" style="fill:rgb(160,49,222)"/><path d="M46.15963605118176,149.2225842118196L43.5996472835603,144.5597489169302L32.20967789772304,148.60692884120718z" style="fill:rgb(146,43,221)"/><path d="M65.92315735377811,134.726357358302L68.37043465890255,139.4467388398969L79.12182389774696,133.7423570317688z" style="fill:rgb(168,53,222)"/><path d="M99.61736484474423,120.86085194407077L97.33831705436401,116.05318862961056L87.22218276970199,122.75644587870765z" style="fill:rgb(181,61,221)"/><path d="M76.73114355661825,128.99279706692536L97.33831705436401,116.05318862961056L116.22964716971606,101.40490477085572z" style="fill:rgb(83,212,212)"/><path d="M57.36244496196987,144.6162188466289L54.858593247500345,139.92481311026592L43.5996472835603,144.5597489169302z" style="fill:rgb(153,46,222)"/><path d="M89.5566467940011,127.53517353854244L87.22218276970199,122.75644587870765L76.73114355661825,128.99279706692536z" style="fill:rgb(175,57,222)"/><path d="M68.37043465890255,139.4467388398969L65.92315735377811,134.726357358302L54.858593247500345,139.92481311026592z" style="fill:rgb(160,49,222)"/><path d="M79.12182389774696,133.7423570317688L76.73114355661825,128.99279706692536L65.92315735377811,134.726357358302z" style="fill:rgb(168,53,222)"/><path d="M32.20967789772304,148.60692884120718L43.5996472835603,144.5597489169302L54.858593247500345,139.92481311026592zM32.20967789772304,148.60692884120718L54.858593247500345,139.92481311026592L76.73114355661825,128.99279706692536zM76.73114355661825,128.99279706692536L87.22218276970199,122.75644587870765L97.33831705436401,116.05318862961056zM54.858593247500345,139.92481311026592L65.92315735377811,134.726357358302L76.73114355661825,128.99279706692536z" style="fill:rgb(83,212,212)"/></svg>
