<?xml version="1.0" encoding="UTF-8"?>
<!-- Generated by jsxcad -->
<!DOCTYPE svg PUBLIC "-//W3C//DTD SVG 1.1 Tiny//EN" "http://www.w3.org/Graphics/SVG/1.1/DTD/svg11-tiny.dtd">
<svg viewBox="-250 -250 500 500" width="500" height="500" xmlns="http://www.w3.org/2000/svg"><path d="M-8.561770225206462,-83.77155700969197L-17.403264043150404,-80.34003263382517L-26.129758163470814,-76.56062049312938zM9.372655915935102,-89.54965371057565L0.3714234224078156,-86.84476728276023L-8.561770225206462,-83.77155700969197zM27.48256577370295,-93.81651641880767L9.372655915935102,-89.54965371057565L-8.561770225206462,-83.77155700969197zM27.48256577370295,-93.81651641880767L18.417870032682696,-91.87662152870762L9.372655915935102,-89.54965371057565zM45.569975748912256,-96.50086227915597L36.54176749084137,-95.3606646424751L27.48256577370295,-93.81651641880767zM-26.129758163470814,-76.56062049312938L-30.687831081587944,-74.3759371832068L-32.24225952158561,-25.407688847875125zM-8.561770225206462,-83.77155700969197L-26.129758163470814,-76.56062049312938L-32.24225952158561,-25.407688847875125zM27.48256577370295,-93.81651641880767L-8.561770225206462,-83.77155700969197L-32.24225952158561,-25.407688847875125zM52.92448136372211,-48.044009037832446L45.569975748912256,-96.50086227915597L27.48256577370295,-93.81651641880767z" style="fill:rgb(83,212,212)"/><path d="M52.33221057550277,-92.17417250848561L50.32147316332707,-96.88675110502128L52.92448136372211,-48.044009037832446z" style="fill:rgb(247,158,158)"/><path d="M52.92448136372211,-48.044009037832446L50.32147316332707,-96.88675110502128L45.569975748912256,-96.50086227915597zM53.795484107128594,-43.682478239527605L27.48256577370295,-93.81651641880767L-32.24225952158561,-25.407688847875125z" style="fill:rgb(83,212,212)"/><path d="M52.92448136372211,-48.044009037832446L55.02744631513058,-43.30132276015454L52.33221057550277,-92.17417250848561z" style="fill:rgb(247,158,158)"/><path d="M-133.54525085418257,24.40999087192819L-135.35603849045052,28.454586509570348L-138.25764777899528,36.11778998335078zM53.795484107128594,-43.682478239527605L52.92448136372211,-48.044009037832446L27.48256577370295,-93.81651641880767zM-133.54525085418257,24.40999087192819L-138.25764777899528,36.11778998335078L-142.4819064979588,51.53354237406695zM-64.7380439180714,6.524394946316942L-133.54525085418257,24.40999087192819L-106.13835091707683,36.74606731402306zM-138.25764777899528,36.11778998335078L-140.63895608755138,43.81910129192356L-142.4819064979588,51.53354237406695zM-112.06084369002508,39.99262364705377L-106.13835091707683,36.74606731402306L-133.54525085418257,24.40999087192819zM-116.96350802003458,44.490541756816896L-112.06084369002508,39.99262364705377L-133.54525085418257,24.40999087192819zM-120.19933434059037,49.658362100313965L-116.96350802003458,44.490541756816896L-133.54525085418257,24.40999087192819zM-58.5585026781673,4.459464644159129L-64.7380439180714,6.524394946316942L-106.13835091707683,36.74606731402306zM-46.98030394348724,-2.1117205943747646L-52.55678913759652,1.5408106494940983L-106.13835091707683,36.74606731402306zM-52.55678913759652,1.5408106494940983L-58.5585026781673,4.459464644159129L-106.13835091707683,36.74606731402306zM55.90674112778476,-39.78328201156368L53.795484107128594,-43.682478239527605L-32.24225952158561,-25.407688847875125zM-121.32440438914466,54.819874681399156L-120.19933434059037,49.658362100313965L-133.54525085418257,24.40999087192819zM-42.057361167923126,-6.3462831947776035L-46.98030394348724,-2.1117205943747646L-90.03525319165676,37.658014568070435z" style="fill:rgb(83,212,212)"/><path d="M-112.06084369002508,39.99262364705377L-109.23114447352324,44.36538706072886L-103.33505059367113,41.132158745580924z" style="fill:rgb(170,54,222)"/><path d="M55.02744631513058,-43.30132276015454L52.92448136372211,-48.044009037832446L53.795484107128594,-43.682478239527605zM53.795484107128594,-43.682478239527605L55.904510153921706,-38.936606253719695L55.02744631513058,-43.30132276015454z" style="fill:rgb(246,167,149)"/><path d="M-106.13835091707683,36.74606731402306L-103.33505059367113,41.132158745580924L-97.18589131434562,39.57208515915505z" style="fill:rgb(127,37,217)"/><path d="M-46.98030394348724,-2.1117205943747646L-106.13835091707683,36.74606731402306L-99.96658899798425,35.17227321478316zM59.19468992721479,-36.50364902726827L55.90674112778476,-39.78328201156368L-32.24225952158561,-25.407688847875125z" style="fill:rgb(83,212,212)"/><path d="M-116.96350802003458,44.490541756816896L-114.10692671810637,48.85202929370072L-109.23114447352324,44.36538706072886z" style="fill:rgb(208,81,214)"/><path d="M-103.33505059367113,41.132158745580924L-106.13835091707683,36.74606731402306L-112.06084369002508,39.99262364705377z" style="fill:rgb(170,54,222)"/><path d="M-37.986155706115724,-10.98672426517718L-42.057361167923126,-6.3462831947776035L-87.4372309034243,46.30127912495287zM-46.98030394348724,-2.1117205943747646L-99.96658899798425,35.17227321478316L-94.3504838854181,35.484310952188935z" style="fill:rgb(83,212,212)"/><path d="M-109.23114447352324,44.36538706072886L-112.06084369002508,39.99262364705377L-116.96350802003458,44.490541756816896z" style="fill:rgb(208,81,214)"/><path d="M-97.18589131434562,39.57208515915505L-99.96658899798425,35.17227321478316L-106.13835091707683,36.74606731402306z" style="fill:rgb(127,37,217)"/><path d="M-99.96658899798425,35.17227321478316L-97.18589131434562,39.57208515915505L-91.58577361137338,39.896443176872545z" style="fill:rgb(84,32,200)"/><path d="M-120.16106990550122,59.284162068428785L-121.32440438914466,54.819874681399156L-133.54525085418257,24.40999087192819zM63.54745820105899,-33.98091767848325L59.19468992721479,-36.50364902726827L-32.24225952158561,-25.407688847875125z" style="fill:rgb(83,212,212)"/><path d="M-120.19933434059037,49.658362100313965L-117.31882710963237,54.01199831908535L-114.10692671810637,48.85202929370072zM-114.10692671810637,48.85202929370072L-116.96350802003458,44.490541756816896L-120.19933434059037,49.658362100313965z" style="fill:rgb(234,114,195)"/><path d="M-46.98030394348724,-2.1117205943747646L-94.3504838854181,35.484310952188935L-90.03525319165676,37.658014568070435zM-5.444756753855868,-2.1212054800327893L0.6118052530045799,-5.289967329170155L-32.98970055341898,-20.713206902415326z" style="fill:rgb(83,212,212)"/><path d="M-91.58577361137338,39.896443176872545L-94.3504838854181,35.484310952188935L-99.96658899798425,35.17227321478316z" style="fill:rgb(84,32,200)"/><path d="M0.6118052530045799,-5.289967329170155L6.948033671582343,-7.742266223075895L-32.98970055341898,-20.713206902415326zM-11.062295747939158,1.6807723684662608L-5.444756753855868,-2.1212054800327893L-32.98970055341898,-20.713206902415326zM-133.54525085418257,24.40999087192819L-142.4819064979588,51.53354237406695L-142.16227494375227,93.163234363931zM6.948033671582343,-7.742266223075895L13.397532450758545,-9.411786090973894L-32.98970055341898,-20.713206902415326zM-142.4819064979588,51.53354237406695L-143.76935684139048,59.235021539040304L-144.48522302301853,66.89636518554775zM-16.091495492381043,6.017342313924503L-11.062295747939158,1.6807723684662608L-32.98970055341898,-20.713206902415326z" style="fill:rgb(83,212,212)"/><path d="M-118.42616463544279,59.17005932406703L-117.31882710963237,54.01199831908535L-120.19933434059037,49.658362100313965z" style="fill:rgb(246,149,166)"/><path d="M-42.057361167923126,-6.3462831947776035L-90.03525319165676,37.658014568070435L-87.61273295246806,41.42621546844293zM13.397532450758545,-9.411786090973894L19.789960197608625,-10.250584373478333L-32.98970055341898,-20.713206902415326zM68.80686554991047,-32.325572153713026L63.54745820105899,-33.98091767848325L-32.24225952158561,-25.407688847875125zM-20.39605522275495,10.776207261546356L-16.091495492381043,6.017342313924503L-32.98970055341898,-20.713206902415326z" style="fill:rgb(83,212,212)"/><path d="M-91.58577361137338,39.896443176872545L-87.27777304777985,42.07935112819312L-90.03525319165676,37.658014568070435zM-90.03525319165676,37.658014568070435L-94.3504838854181,35.484310952188935L-91.58577361137338,39.896443176872545z" style="fill:rgb(46,40,173)"/><path d="M19.789960197608625,-10.250584373478333L25.954307609087138,-10.230431172010555L-32.98970055341898,-20.713206902415326zM-32.98970055341898,-20.713206902415326L-23.8556841537291,15.833303694842181L-20.39605522275495,10.776207261546356z" style="fill:rgb(83,212,212)"/><path d="M-120.19933434059037,49.658362100313965L-121.32440438914466,54.819874681399156L-118.42616463544279,59.17005932406703z" style="fill:rgb(246,149,166)"/><path d="M-32.98970055341898,-20.713206902415326L-34.9257691893913,-15.84151656655365L-68.99355754569845,75.39040756577394zM-42.057361167923126,-6.3462831947776035L-87.61273295246806,41.42621546844293L-87.4372309034243,46.30127912495287z" style="fill:rgb(83,212,212)"/><path d="M-90.03525319165676,37.658014568070435L-87.27777304777985,42.07935112819312L-84.85263873841073,45.852257061398085z" style="fill:rgb(20,59,140)"/><path d="M-117.25384859375765,63.635785670515546L-118.42616463544279,59.17005932406703L-121.32440438914466,54.819874681399156z" style="fill:rgb(242,181,132)"/><path d="M-120.16106990550122,59.284162068428785L-133.54525085418257,24.40999087192819L-142.16227494375227,93.163234363931zM-32.98970055341898,-20.713206902415326L-26.369110824466052,21.0549951700974L-23.8556841537291,15.833303694842181zM-34.9257691893913,-15.84151656655365L-37.986155706115724,-10.98672426517718L-68.99355754569845,75.39040756577394z" style="fill:rgb(83,212,212)"/><path d="M-5.444756753855868,-2.1212054800327893L-3.0511975731328365,2.4919857194439663L2.9784760579741243,-0.6629987988359086z" style="fill:rgb(167,52,222)"/><path d="M-37.986155706115724,-10.98672426517718L-87.4372309034243,46.30127912495287L-89.56376103524693,51.629647335121994z" style="fill:rgb(83,212,212)"/><path d="M0.6118052530045799,-5.289967329170155L2.9784760579741243,-0.6629987988359086L9.28851609222672,-3.100854228163551z" style="fill:rgb(147,43,221)"/><path d="M-11.062295747939158,1.6807723684662608L-8.641789013021056,6.281179854382067L-3.0511975731328365,2.4919857194439663z" style="fill:rgb(185,63,221)"/><path d="M-84.85263873841073,45.852257061398085L-87.61273295246806,41.42621546844293L-90.03525319165676,37.658014568070435z" style="fill:rgb(20,59,140)"/><path d="M6.948033671582343,-7.742266223075895L9.28851609222672,-3.100854228163551L15.713147050862274,-4.755624792898396z" style="fill:rgb(127,37,217)"/><path d="M2.9784760579741243,-0.6629987988359086L0.6118052530045799,-5.289967329170155L-5.444756753855868,-2.1212054800327893z" style="fill:rgb(167,52,222)"/><path d="M-3.0511975731328365,2.4919857194439663L-5.444756753855868,-2.1212054800327893L-11.062295747939158,1.6807723684662608z" style="fill:rgb(185,63,221)"/><path d="M-32.98970055341898,-20.713206902415326L-27.857121453497722,26.30060230538483L-26.369110824466052,21.0549951700974z" style="fill:rgb(83,212,212)"/><path d="M9.28851609222672,-3.100854228163551L6.948033671582343,-7.742266223075895L0.6118052530045799,-5.289967329170155z" style="fill:rgb(147,43,221)"/><path d="M-16.091495492381043,6.017342313924503L-13.644639832760179,10.606251998363808L-8.641789013021056,6.281179854382067z" style="fill:rgb(202,76,217)"/><path d="M-121.32440438914466,54.819874681399156L-120.16106990550122,59.284162068428785L-117.25384859375765,63.635785670515546z" style="fill:rgb(242,181,132)"/><path d="M-8.641789013021056,6.281179854382067L-11.062295747939158,1.6807723684662608L-16.091495492381043,6.017342313924503z" style="fill:rgb(202,76,217)"/><path d="M13.397532450758545,-9.411786090973894L15.713147050862274,-4.755624792898396L22.082630059937966,-5.579757627783879z" style="fill:rgb(107,33,211)"/><path d="M15.713147050862274,-4.755624792898396L13.397532450758545,-9.411786090973894L6.948033671582343,-7.742266223075895z" style="fill:rgb(127,37,217)"/><path d="M-20.39605522275495,10.776207261546356L-17.924114470468226,15.355160974614389L-13.644639832760179,10.606251998363808z" style="fill:rgb(217,91,210)"/><path d="M126.8196872731053,4.535830939841364L-32.24225952158561,-25.407688847875125L-32.98970055341898,-20.713206902415326zM-142.4819064979588,51.53354237406695L-144.48522302301853,66.89636518554775L-142.16227494375227,93.163234363931z" style="fill:rgb(83,212,212)"/><path d="M-13.644639832760179,10.606251998363808L-16.091495492381043,6.017342313924503L-20.39605522275495,10.776207261546356z" style="fill:rgb(217,91,210)"/><path d="M-32.98970055341898,-20.713206902415326L-28.265485380107723,31.425366508020776L-27.857121453497722,26.30060230538483z" style="fill:rgb(83,212,212)"/><path d="M22.082630059937966,-5.579757627783879L19.789960197608625,-10.250584373478333L13.397532450758545,-9.411786090973894z" style="fill:rgb(107,33,211)"/><path d="M19.789960197608625,-10.250584373478333L22.082630059937966,-5.579757627783879L28.22651898497403,-5.545432403194034z" style="fill:rgb(87,32,202)"/><path d="M-23.8556841537291,15.833303694842181L-21.3605815581559,20.4040663662988L-17.924114470468226,15.355160974614389zM-17.924114470468226,15.355160974614389L-20.39605522275495,10.776207261546356L-23.8556841537291,15.833303694842181z" style="fill:rgb(229,106,201)"/><path d="M-144.48522302301853,66.89636518554775L-144.61470102828542,74.48932337318139L-144.14442408980923,81.98460870212058z" style="fill:rgb(83,212,212)"/><path d="M28.22651898497403,-5.545432403194034L25.954307609087138,-10.230431172010555L19.789960197608625,-10.250584373478333z" style="fill:rgb(87,32,202)"/><path d="M25.954307609087138,-10.230431172010555L28.22651898497403,-5.545432403194034L33.97715965937342,-4.645758033731789z" style="fill:rgb(69,33,191)"/><path d="M-26.369110824466052,21.0549951700974L-23.853428221497264,25.619510209017808L-21.3605815581559,20.4040663662988zM-21.3605815581559,20.4040663662988L-23.8556841537291,15.833303694842181L-26.369110824466052,21.0549951700974z" style="fill:rgb(238,122,189)"/><path d="M33.97715965937342,-4.645758033731789L31.722387368629256,-9.34401140584874L25.954307609087138,-10.230431172010555z" style="fill:rgb(69,33,191)"/><path d="M-37.986155706115724,-10.98672426517718L-89.56376103524693,51.629647335121994L-68.99355754569845,75.39040756577394z" style="fill:rgb(83,212,212)"/><path d="M31.722387368629256,-9.34401140584874L33.97715965937342,-4.645758033731789L39.1734751442705,-2.8957711180320356z" style="fill:rgb(52,37,178)"/><path d="M-32.98970055341898,-20.713206902415326L-68.99355754569845,75.39040756577394L-28.265485380107723,31.425366508020776zM-116.83497375438994,62.43541253080452L-120.16106990550122,59.284162068428785L-142.16227494375227,93.163234363931zM-144.48522302301853,66.89636518554775L-144.14442408980923,81.98460870212058L-142.16227494375227,93.163234363931zM115.7909244795982,0.2561419864825602L68.80686554991047,-32.325572153713026L-32.24225952158561,-25.407688847875125z" style="fill:rgb(83,212,212)"/><path d="M-27.857121453497722,26.30060230538483L-25.324055733613616,30.860967022820887L-23.853428221497264,25.619510209017808zM-23.853428221497264,25.619510209017808L-26.369110824466052,21.0549951700974L-27.857121453497722,26.30060230538483z" style="fill:rgb(244,138,176)"/><path d="M39.1734751442705,-2.8957711180320356L36.93262687532838,-7.605944755062515L31.722387368629256,-9.34401140584874z" style="fill:rgb(52,37,178)"/><path d="M-111.7745471773408,63.82244324541001L-116.83497375438994,62.43541253080452L-142.16227494375227,93.163234363931z" style="fill:rgb(83,212,212)"/><path d="M36.93262687532838,-7.605944755062515L39.1734751442705,-2.8957711180320356L43.665017353115374,-0.3331421168532573z" style="fill:rgb(37,44,163)"/><path d="M-105.66439199815551,63.23300923408097L-111.7745471773408,63.82244324541001L-142.16227494375227,93.163234363931zM25.954307609087138,-10.230431172010555L126.8196872731053,4.535830939841364L-32.98970055341898,-20.713206902415326z" style="fill:rgb(83,212,212)"/><path d="M-25.324055733613616,30.860967022820887L-27.857121453497722,26.30060230538483L-28.265485380107723,31.425366508020776zM-28.265485380107723,31.425366508020776L-25.71880640055095,35.983790730653325L-25.324055733613616,30.860967022820887z" style="fill:rgb(247,154,162)"/><path d="M-93.7240899489113,56.67719610014282L-99.35258899794042,60.73580054566188L-142.16227494375227,93.163234363931zM-99.35258899794042,60.73580054566188L-105.66439199815551,63.23300923408097L-142.16227494375227,93.163234363931z" style="fill:rgb(83,212,212)"/><path d="M43.665017353115374,-0.3331421168532573L41.43415423358822,-5.0534960930933135L36.93262687532838,-7.605944755062515z" style="fill:rgb(37,44,163)"/><path d="M-144.14442408980923,81.98460870212058L-143.0627026389517,89.35195590133753L-142.16227494375227,93.163234363931z" style="fill:rgb(83,212,212)"/><path d="M41.43415423358822,-5.0534960930933135L43.665017353115374,-0.3331421168532573L47.31631968351131,2.981537540838152z" style="fill:rgb(25,53,148)"/><path d="M-25.71880640055095,35.983790730653325L-28.265485380107723,31.425366508020776L-27.56770218929335,36.28385320810114zM-27.56770218929335,36.28385320810114L-25.01168760428745,40.84262507754304L-25.71880640055095,35.983790730653325z" style="fill:rgb(246,169,146)"/><path d="M-89.56376103524693,51.629647335121994L-93.7240899489113,56.67719610014282L-68.99355754569845,75.39040756577394z" style="fill:rgb(83,212,212)"/><path d="M47.31631968351131,2.981537540838152L45.09113337780373,-1.7468883285599954L41.43415423358822,-5.0534960930933135z" style="fill:rgb(25,53,148)"/><path d="M45.09113337780373,-1.7468883285599954L47.31631968351131,2.981537540838152L50.01135170337839,6.965033528304614z" style="fill:rgb(16,65,132)"/><path d="M-25.01168760428745,40.84262507754304L-27.56770218929335,36.28385320810114L-25.767352655055138,40.73382347343217zM-25.767352655055138,40.73382347343217L-23.206674756633472,45.295259232034596L-25.01168760428745,40.84262507754304z" style="fill:rgb(242,183,130)"/><path d="M-93.7240899489113,56.67719610014282L-142.16227494375227,93.163234363931L-68.99355754569845,75.39040756577394zM115.7909244795982,0.2561419864825602L74.77291878999164,-31.61493119118587L68.80686554991047,-32.325572153713026z" style="fill:rgb(83,212,212)"/><path d="M-142.16227494375227,93.163234363931L-139.092630579762,97.45560102174748L-66.2039900570361,79.84478064101478z" style="fill:rgb(127,37,217)"/><path d="M50.01135170337839,6.965033528304614L47.78725681963708,2.2309596313431093L45.09113337780373,-1.7468883285599954z" style="fill:rgb(16,65,132)"/><path d="M115.7909244795982,0.2561419864825602L81.21104515449707,-31.888002860557712L74.77291878999164,-31.61493119118587zM-68.99355754569845,75.39040756577394L-27.56770218929335,36.28385320810114L-28.265485380107723,31.425366508020776zM25.954307609087138,-10.230431172010555L31.722387368629256,-9.34401140584874L126.8196872731053,4.535830939841364zM115.7909244795982,0.2561419864825602L87.86180397543598,-33.14207814685188L81.21104515449707,-31.888002860557712zM120.48948402930675,3.304608801397829L115.7909244795982,0.2561419864825602L-32.24225952158561,-25.407688847875125zM164.7524740107407,-53.12887252183354L87.86180397543598,-33.14207814685188L126.95647351135031,-22.692912760040603zM31.722387368629256,-9.34401140584874L36.93262687532838,-7.605944755062515L126.8196872731053,4.535830939841364zM-68.99355754569845,75.39040756577394L-25.767352655055138,40.73382347343217L-27.56770218929335,36.28385320810114zM126.8196872731053,4.535830939841364L120.48948402930675,3.304608801397829L-32.24225952158561,-25.407688847875125z" style="fill:rgb(83,212,212)"/><path d="M-66.2039900570361,79.84478064101478L-68.99355754569845,75.39040756577394L-142.16227494375227,93.163234363931z" style="fill:rgb(127,37,217)"/><path d="M36.93262687532838,-7.605944755062515L41.43415423358822,-5.0534960930933135L126.8196872731053,4.535830939841364zM120.7314201698977,-19.266472384638863L126.95647351135031,-22.692912760040603L87.86180397543598,-33.14207814685188zM116.01386230801207,-14.62299017958722L120.7314201698977,-19.266472384638863L87.86180397543598,-33.14207814685188zM-68.99355754569845,75.39040756577394L-22.899816541353225,44.64048355319136L-25.767352655055138,40.73382347343217zM113.42860620729697,-9.361588763287523L116.01386230801207,-14.62299017958722L87.86180397543598,-33.14207814685188zM-68.99355754569845,75.39040756577394L-19.03316997885004,47.881064278389296L-22.899816541353225,44.64048355319136z" style="fill:rgb(83,212,212)"/><path d="M-68.99355754569845,75.39040756577394L-66.2039900570361,79.84478064101478L-59.70624050900331,78.7969040953111z" style="fill:rgb(115,34,214)"/><path d="M170.4554457703988,-43.30037560957302L166.93045342699943,-49.84488456682897L164.7524740107407,-53.12887252183354zM113.33899892860184,-4.170072528370185L113.42860620729697,-9.361588763287523L87.86180397543598,-33.14207814685188z" style="fill:rgb(83,212,212)"/><path d="M120.7314201698977,-19.266472384638863L122.65153412555927,-14.362212709778252L128.8474307147165,-17.77381857956759z" style="fill:rgb(170,54,222)"/><path d="M170.4554457703988,-43.30037560957302L164.7524740107407,-53.12887252183354L126.95647351135031,-22.692912760040603z" style="fill:rgb(83,212,212)"/><path d="M-59.70624050900331,78.7969040953111L-62.47156884081485,74.32820303049895L-68.99355754569845,75.39040756577394z" style="fill:rgb(115,34,214)"/><path d="M-62.47156884081485,74.32820303049895L-59.70624050900331,78.7969040953111L-53.482890198045034,78.84553908127023z" style="fill:rgb(92,32,204)"/><path d="M117.95974608527578,-9.73026492666519L122.65153412555927,-14.362212709778252L120.7314201698977,-19.266472384638863z" style="fill:rgb(208,81,214)"/><path d="M-68.99355754569845,75.39040756577394L-14.267947702412856,50.34945127532675L-19.03316997885004,47.881064278389296z" style="fill:rgb(83,212,212)"/><path d="M128.8474307147165,-17.77381857956759L135.74268746817387,-19.523184578217645L133.8806655723583,-24.458578215371244z" style="fill:rgb(127,37,217)"/><path d="M128.8474307147165,-17.77381857956759L126.95647351135031,-22.692912760040603L120.7314201698977,-19.266472384638863z" style="fill:rgb(170,54,222)"/><path d="M133.8806655723583,-24.458578215371244L126.95647351135031,-22.692912760040603L128.8474307147165,-17.77381857956759z" style="fill:rgb(127,37,217)"/><path d="M115.7909244795982,0.2561419864825602L113.33899892860184,-4.170072528370185L87.86180397543598,-33.14207814685188z" style="fill:rgb(83,212,212)"/><path d="M133.8806655723583,-24.458578215371244L135.74268746817387,-19.523184578217645L142.44175936558386,-19.37436826668878z" style="fill:rgb(84,32,200)"/><path d="M-53.482890198045034,78.84553908127023L-56.22753928905314,74.36366135843672L-62.47156884081485,74.32820303049895z" style="fill:rgb(92,32,204)"/><path d="M120.7314201698977,-19.266472384638863L116.01386230801207,-14.62299017958722L117.95974608527578,-9.73026492666519z" style="fill:rgb(208,81,214)"/><path d="M-56.22753928905314,74.36366135843672L-53.482890198045034,78.84553908127023L-47.761627327790805,79.99866376251296z" style="fill:rgb(71,33,192)"/><path d="M-68.99355754569845,75.39040756577394L-8.735610133948404,51.9607070158494L-14.267947702412856,50.34945127532675zM170.4554457703988,-43.30037560957302L126.95647351135031,-22.692912760040603L133.8806655723583,-24.458578215371244z" style="fill:rgb(83,212,212)"/><path d="M113.42860620729697,-9.361588763287523L115.39351865353608,-4.475701368900841L117.95974608527578,-9.73026492666519zM117.95974608527578,-9.73026492666519L116.01386230801207,-14.62299017958722L113.42860620729697,-9.361588763287523z" style="fill:rgb(234,114,195)"/><path d="M142.44175936558386,-19.37436826668878L140.60484538584996,-24.325406981303065L133.8806655723583,-24.458578215371244z" style="fill:rgb(84,32,200)"/><path d="M170.4554457703988,-43.30037560957302L133.8806655723583,-24.458578215371244L140.60484538584996,-24.325406981303065zM-68.99355754569845,75.39040756577394L-2.595540719472039,52.6551649333098L-8.735610133948404,51.9607070158494zM-68.99355754569845,75.39040756577394L-62.47156884081485,74.32820303049895L10.759001173322309,51.20025386892829z" style="fill:rgb(83,212,212)"/><path d="M-47.761627327790805,79.99866376251296L-50.489883581147154,75.50528924393329L-56.22753928905314,74.36366135843672z" style="fill:rgb(71,33,192)"/><path d="M115.31355158861979,0.7145181523946826L115.39351865353608,-4.475701368900841L113.42860620729697,-9.361588763287523z" style="fill:rgb(246,149,166)"/><path d="M-50.489883581147154,75.50528924393329L-47.761627327790805,79.99866376251296L-42.75753347064707,82.22638007424325z" style="fill:rgb(51,38,177)"/><path d="M142.44175936558386,-19.37436826668878L148.06104942882328,-17.328959232170828L146.24214757672883,-22.292836673633822zM146.24214757672883,-22.292836673633822L140.60484538584996,-24.325406981303065L142.44175936558386,-19.37436826668878z" style="fill:rgb(46,40,173)"/><path d="M-62.47156884081485,74.32820303049895L-56.22753928905314,74.36366135843672L10.759001173322309,51.20025386892829zM170.4554457703988,-43.30037560957302L140.60484538584996,-24.325406981303065L146.24214757672883,-22.292836673633822zM-68.99355754569845,75.39040756577394L3.969443529238235,52.40174791420553L-2.595540719472039,52.6551649333098zM-68.99355754569845,75.39040756577394L10.759001173322309,51.20025386892829L3.969443529238235,52.40174791420553zM-56.22753928905314,74.36366135843672L-50.489883581147154,75.50528924393329L10.759001173322309,51.20025386892829z" style="fill:rgb(83,212,212)"/><path d="M113.42860620729697,-9.361588763287523L113.33899892860184,-4.170072528370185L115.31355158861979,0.7145181523946826z" style="fill:rgb(246,149,166)"/><path d="M-42.75753347064707,82.22638007424325L-45.474313598764276,77.72369141297243L-50.489883581147154,75.50528924393329z" style="fill:rgb(51,38,177)"/><path d="M170.4554457703988,-43.30037560957302L146.24214757672883,-22.292836673633822L150.02668822282376,-18.607130963554432z" style="fill:rgb(83,212,212)"/><path d="M-45.474313598764276,77.72369141297243L-42.75753347064707,82.22638007424325L-38.66564505277633,85.46004637902408z" style="fill:rgb(34,46,160)"/><path d="M175.70138433540725,-29.153048122868665L173.38785584521753,-36.39612320856318L170.4554457703988,-43.30037560957302z" style="fill:rgb(83,212,212)"/><path d="M150.02668822282376,-18.607130963554432L146.24214757672883,-22.292836673633822L148.06104942882328,-17.328959232170828zM148.06104942882328,-17.328959232170828L151.83716242859376,-13.635098848558993L150.02668822282376,-18.607130963554432z" style="fill:rgb(20,59,140)"/><path d="M-50.489883581147154,75.50528924393329L-45.474313598764276,77.72369141297243L10.759001173322309,51.20025386892829z" style="fill:rgb(83,212,212)"/><path d="M175.0798910369212,-31.36704145131222L173.38785584521753,-36.39612320856318L175.70138433540725,-29.153048122868665zM175.70138433540725,-29.153048122868665L177.3955262007548,-24.119429183572024L175.0798910369212,-31.36704145131222z" style="fill:rgb(246,166,149)"/><path d="M170.4554457703988,-43.30037560957302L150.02668822282376,-18.607130963554432L151.4187757977874,-13.742610631228423z" style="fill:rgb(83,212,212)"/><path d="M-38.66564505277633,85.46004637902408L-41.3763572400959,80.95067117407658L-45.474313598764276,77.72369141297243z" style="fill:rgb(34,46,160)"/><path d="M-41.3763572400959,80.95067117407658L-38.66564505277633,85.46004637902408L-35.65320224550825,89.5924015104525z" style="fill:rgb(21,57,142)"/><path d="M178.3761775043059,-13.747401382733367L175.70138433540725,-29.153048122868665L170.4554457703988,-43.30037560957302z" style="fill:rgb(83,212,212)"/><path d="M-35.65320224550825,89.5924015104525L-38.363615944862914,85.07935186373258L-41.3763572400959,80.95067117407658z" style="fill:rgb(21,57,142)"/><path d="M177.3955262007548,-24.119429183572024L175.70138433540725,-29.153048122868665L177.37157556605712,-21.594719261455893zM177.37157556605712,-21.594719261455893L179.07068096922234,-16.558649428446486L177.3955262007548,-24.119429183572024z" style="fill:rgb(247,161,155)"/><path d="M41.43415423358822,-5.0534960930933135L45.09113337780373,-1.7468883285599954L141.993813496081,82.02340535277123zM45.09113337780373,-1.7468883285599954L47.78725681963708,2.2309596313431093L141.993813496081,82.02340535277123zM178.3761775043059,-13.747401382733367L177.37157556605712,-21.594719261455893L175.70138433540725,-29.153048122868665z" style="fill:rgb(83,212,212)"/><path d="M179.07068096922234,-16.558649428446486L177.37157556605712,-21.594719261455893L178.3761775043059,-13.747401382733367z" style="fill:rgb(247,155,161)"/><path d="M47.78725681963708,2.2309596313431093L49.43025784303152,6.775405002838203L141.993813496081,82.02340535277123z" style="fill:rgb(83,212,212)"/><path d="M178.3761775043059,-13.747401382733367L180.08322155005982,-8.711042686135087L179.07068096922234,-16.558649428446486z" style="fill:rgb(247,155,161)"/><path d="M49.43025784303152,6.775405002838203L49.95614091977931,11.761902794867922L141.993813496081,82.02340535277123zM175.39114277587504,19.91210426854846L178.3761775043059,-13.747401382733367L170.4554457703988,-43.30037560957302zM49.95614091977931,11.761902794867922L49.33295871337448,17.048777903879778L141.993813496081,82.02340535277123z" style="fill:rgb(83,212,212)"/><path d="M180.08322155005982,-8.711042686135087L178.3761775043059,-13.747401382733367L178.6955256041374,-5.640076385719448zM178.6955256041374,-5.640076385719448L180.41359023042492,-0.6056507582435608L180.08322155005982,-8.711042686135087z" style="fill:rgb(246,149,166)"/><path d="M41.43415423358822,-5.0534960930933135L141.993813496081,82.02340535277123L126.8196872731053,4.535830939841364zM49.33295871337448,17.048777903879778L47.56368188473457,22.480985723390148L141.993813496081,82.02340535277123z" style="fill:rgb(83,212,212)"/><path d="M41.98323393528975,31.515798313865986L44.288921438638845,36.229239758030765L144.00330169407908,86.91632653815604z" style="fill:rgb(42,41,169)"/><path d="M47.56368188473457,22.480985723390148L44.68796867771675,27.894816080044485L141.993813496081,82.02340535277123zM178.31286510555387,2.695580881377737L178.6955256041374,-5.640076385719448L178.3761775043059,-13.747401382733367zM44.68796867771675,27.894816080044485L41.98323393528975,31.515798313865986L141.993813496081,82.02340535277123z" style="fill:rgb(83,212,212)"/><path d="M180.41359023042492,-0.6056507582435608L178.6955256041374,-5.640076385719448L178.31286510555387,2.695580881377737z" style="fill:rgb(245,143,172)"/><path d="M141.993813496081,82.02340535277123L170.4554457703988,-43.30037560957302L151.4187757977874,-13.742610631228423z" style="fill:rgb(83,212,212)"/><path d="M178.31286510555387,2.695580881377737L180.04512477797084,7.725809714865684L180.41359023042492,-0.6056507582435608z" style="fill:rgb(245,143,172)"/><path d="M175.39114277587504,19.91210426854846L178.31286510555387,2.695580881377737L178.3761775043059,-13.747401382733367zM-45.474313598764276,77.72369141297243L78.95330232679268,133.4075602892289L10.759001173322309,51.20025386892829z" style="fill:rgb(83,212,212)"/><path d="M180.04512477797084,7.725809714865684L178.31286510555387,2.695580881377737L177.21468272011748,11.225258211503768z" style="fill:rgb(244,137,177)"/><path d="M-45.474313598764276,77.72369141297243L-41.3763572400959,80.95067117407658L78.95330232679268,133.4075602892289zM141.993813496081,82.02340535277123L151.4187757977874,-13.742610631228423L150.19231772626406,-8.350040886487525z" style="fill:rgb(83,212,212)"/><path d="M177.21468272011748,11.225258211503768L178.96438710213226,16.24900455566953L180.04512477797084,7.725809714865684z" style="fill:rgb(244,137,177)"/><path d="M78.95330232679268,133.4075602892289L35.65138409175778,38.243525783203914L30.36305357002272,42.37841573868176zM78.95330232679268,133.4075602892289L17.562357852974138,49.08232821884299L10.759001173322309,51.20025386892829zM78.95330232679268,133.4075602892289L30.36305357002272,42.37841573868176L24.166218684145395,46.11095550492675zM78.95330232679268,133.4075602892289L24.166218684145395,46.11095550492675L17.562357852974138,49.08232821884299zM141.993813496081,82.02340535277123L150.19231772626406,-8.350040886487525L146.4853822615549,-3.172423665189383zM141.993813496081,82.02340535277123L133.91878998097513,3.757125982896537L126.8196872731053,4.535830939841364zM-41.3763572400959,80.95067117407658L-38.363615944862914,85.07935186373258L78.95330232679268,133.4075602892289zM141.993813496081,82.02340535277123L146.4853822615549,-3.172423665189383L140.79648651392625,1.0628331874017176zM141.993813496081,82.02340535277123L140.79648651392625,1.0628331874017176L133.91878998097513,3.757125982896537zM-36.56795603837892,89.965711939626L-36.07814124628432,95.43184550874598L-10.766937656848354,162.8020219363848zM175.39114277587504,19.91210426854846L177.21468272011748,11.225258211503768L178.31286510555387,2.695580881377737z" style="fill:rgb(83,212,212)"/><path d="M178.96438710213226,16.24900455566953L177.21468272011748,11.225258211503768L175.39114277587504,19.91210426854846z" style="fill:rgb(242,131,182)"/><path d="M141.993813496081,82.02340535277123L175.39114277587504,19.91210426854846L170.4554457703988,-43.30037560957302zM-38.363615944862914,85.07935186373258L-36.56795603837892,89.965711939626L78.95330232679268,133.4075602892289z" style="fill:rgb(83,212,212)"/><path d="M175.39114277587504,19.91210426854846L177.16159582081292,24.927080335291127L178.96438710213226,16.24900455566953z" style="fill:rgb(242,131,182)"/><path d="M177.16159582081292,24.927080335291127L175.39114277587504,19.91210426854846L172.8363176087265,28.716869700967354zM172.8363176087265,28.716869700967354L174.63085396663539,33.72080885767033L177.16159582081292,24.927080335291127z" style="fill:rgb(240,125,187)"/><path d="M169.54858440336326,37.59809889513738L172.8363176087265,28.716869700967354L175.39114277587504,19.91210426854846z" style="fill:rgb(83,212,212)"/><path d="M174.63085396663539,33.72080885767033L172.8363176087265,28.716869700967354L169.54858440336326,37.59809889513738zM169.54858440336326,37.59809889513738L171.37054238249758,42.588780880591365L174.63085396663539,33.72080885767033z" style="fill:rgb(237,120,191)"/><path d="M144.00330169407908,86.91632653815604L141.993813496081,82.02340535277123L41.98323393528975,31.515798313865986z" style="fill:rgb(42,41,169)"/><path d="M-36.07814124628432,95.43184550874598L-38.245884974110375,163.7210059873742L-32.64453717172436,163.92647659549507zM160.79075712976618,55.41454611415033L169.54858440336326,37.59809889513738L175.39114277587504,19.91210426854846zM134.93703156623192,89.96062419468784L135.33470217108692,89.51333150584802L35.65138409175778,38.243525783203914z" style="fill:rgb(83,212,212)"/><path d="M171.37054238249758,42.588780880591365L169.54858440336326,37.59809889513738L165.5308341348029,46.512365006678486zM165.5308341348029,46.512365006678486L167.38351624972177,51.48762955622907L171.37054238249758,42.588780880591365z" style="fill:rgb(234,114,195)"/><path d="M-36.07814124628432,95.43184550874598L-32.64453717172436,163.92647659549507L-10.766937656848354,162.8020219363848zM118.24858703055476,105.9259723815603L134.93703156623192,89.96062419468784L35.65138409175778,38.243525783203914zM160.79075712976618,55.41454611415033L165.5308341348029,46.512365006678486L169.54858440336326,37.59809889513738z" style="fill:rgb(83,212,212)"/><path d="M167.38351624972177,51.48762955622907L165.5308341348029,46.512365006678486L160.79075712976618,55.41454611415033zM160.79075712976618,55.41454611415033L162.67742853555015,60.37233169645952L167.38351624972177,51.48762955622907z" style="fill:rgb(230,108,199)"/><path d="M78.95330232679268,133.4075602892289L118.24858703055476,105.9259723815603L35.65138409175778,38.243525783203914zM-36.56795603837892,89.965711939626L-10.766937656848354,162.8020219363848L78.95330232679268,133.4075602892289zM141.993813496081,82.02340535277123L160.79075712976618,55.41454611415033L175.39114277587504,19.91210426854846z" style="fill:rgb(83,212,212)"/><path d="M162.67742853555015,60.37233169645952L160.79075712976618,55.41454611415033L155.3409972640303,64.25817375101872zM155.3409972640303,64.25817375101872L157.26482883929606,69.19652945624426L162.67742853555015,60.37233169645952z" style="fill:rgb(226,102,203)"/><path d="M-38.245884974110375,163.7210059873742L-35.3442475059296,168.15611491040806L-29.763748088134896,168.37204354455923z" style="fill:rgb(94,32,205)"/><path d="M149.1993178001594,72.99577990629017L151.1633348100839,77.91289168710321L157.26482883929606,69.19652945624426z" style="fill:rgb(222,96,207)"/><path d="M149.1993178001594,72.99577990629017L155.3409972640303,64.25817375101872L160.79075712976618,55.41454611415033z" style="fill:rgb(83,212,212)"/><path d="M157.26482883929606,69.19652945624426L155.3409972640303,64.25817375101872L149.1993178001594,72.99577990629017z" style="fill:rgb(222,96,207)"/><path d="M-29.763748088134896,168.37204354455923L-32.64453717172436,163.92647659549507L-38.245884974110375,163.7210059873742z" style="fill:rgb(94,32,205)"/><path d="M-32.64453717172436,163.92647659549507L-29.763748088134896,168.37204354455923L-18.984857392853524,168.14945511047455z" style="fill:rgb(101,32,208)"/><path d="M141.993813496081,82.02340535277123L149.1993178001594,72.99577990629017L160.79075712976618,55.41454611415033z" style="fill:rgb(83,212,212)"/><path d="M-18.984857392853524,168.14945511047455L-21.82343198434894,163.68282457033493L-32.64453717172436,163.92647659549507z" style="fill:rgb(101,32,208)"/><path d="M142.38863865002796,81.57932062746411L144.39571130765057,86.47353078080702L151.1633348100839,77.91289168710321zM151.1633348100839,77.91289168710321L149.1993178001594,72.99577990629017L142.38863865002796,81.57932062746411z" style="fill:rgb(217,91,210)"/><path d="M-21.82343198434894,163.68282457033493L-18.984857392853524,168.14945511047455L-7.973465403108197,167.29105946412605z" style="fill:rgb(108,33,211)"/><path d="M141.993813496081,82.02340535277123L144.00330169407908,86.91632653815604L144.39571130765057,86.47353078080702z" style="fill:rgb(212,85,213)"/><path d="M-32.64453717172436,163.92647659549507L-21.82343198434894,163.68282457033493L-10.766937656848354,162.8020219363848z" style="fill:rgb(83,212,212)"/><path d="M144.39571130765057,86.47353078080702L142.38863865002796,81.57932062746411L141.993813496081,82.02340535277123z" style="fill:rgb(212,85,213)"/><path d="M141.993813496081,82.02340535277123L142.38863865002796,81.57932062746411L149.1993178001594,72.99577990629017z" style="fill:rgb(83,212,212)"/><path d="M-7.973465403108197,167.29105946412605L-10.766937656848354,162.8020219363848L-21.82343198434894,163.68282457033493z" style="fill:rgb(108,33,211)"/><path d="M-10.766937656848354,162.8020219363848L-7.973465403108197,167.29105946412605L3.213756825262885,165.79384067583564z" style="fill:rgb(116,34,214)"/><path d="M134.93703156623192,89.96062419468784L136.98982918638686,94.83045015464423L137.38505231673753,94.38446695910024zM137.38505231673753,94.38446695910024L135.33470217108692,89.51333150584802L134.93703156623192,89.96062419468784z" style="fill:rgb(212,85,213)"/><path d="M126.87766043027432,98.09184207985635L128.97860508526998,102.93599247195168L136.98982918638686,94.83045015464423z" style="fill:rgb(206,80,215)"/><path d="M3.213756825262885,165.79384067583564L0.467999424461189,161.28112466428317L-10.766937656848354,162.8020219363848z" style="fill:rgb(116,34,214)"/><path d="M0.467999424461189,161.28112466428317L3.213756825262885,165.79384067583564L14.517735318487823,163.65914480124474z" style="fill:rgb(123,36,216)"/><path d="M136.98982918638686,94.83045015464423L134.93703156623192,89.96062419468784L126.87766043027432,98.09184207985635z" style="fill:rgb(206,80,215)"/><path d="M-10.766937656848354,162.8020219363848L0.467999424461189,161.28112466428317L11.821994443047215,159.12157080581017z" style="fill:rgb(83,212,212)"/><path d="M118.24858703055476,105.9259723815603L120.39984983388584,110.74336021142938L128.97860508526998,102.93599247195168z" style="fill:rgb(200,75,217)"/><path d="M14.517735318487823,163.65914480124474L11.821994443047215,159.12157080581017L0.467999424461189,161.28112466428317z" style="fill:rgb(123,36,216)"/><path d="M11.821994443047215,159.12157080581017L14.517735318487823,163.65914480124474L25.877507559553273,160.8928541817773z" style="fill:rgb(131,38,218)"/><path d="M128.97860508526998,102.93599247195168L126.87766043027432,98.09184207985635L118.24858703055476,105.9259723815603z" style="fill:rgb(200,75,217)"/><path d="M118.24858703055476,105.9259723815603L126.87766043027432,98.09184207985635L134.93703156623192,89.96062419468784zM-10.766937656848354,162.8020219363848L11.821994443047215,159.12157080581017L34.64061053960937,152.9150720693367z" style="fill:rgb(83,212,212)"/><path d="M109.0925693089138,113.417304379128L111.29600748849455,118.20705721142427L120.39984983388584,110.74336021142938z" style="fill:rgb(194,70,219)"/><path d="M23.23374910737286,156.32935531605418L25.877507559553273,160.8928541817773L37.23078665140322,157.50542988386894z" style="fill:rgb(138,40,220)"/><path d="M25.877507559553273,160.8928541817773L23.23374910737286,156.32935531605418L11.821994443047215,159.12157080581017z" style="fill:rgb(131,38,218)"/><path d="M120.39984983388584,110.74336021142938L118.24858703055476,105.9259723815603L109.0925693089138,113.417304379128z" style="fill:rgb(194,70,219)"/><path d="M99.45670595193802,120.5219459734114L101.71385433873037,125.28341235582322L111.29600748849455,118.20705721142427z" style="fill:rgb(188,65,220)"/><path d="M34.64061053960937,152.9150720693367L37.23078665140322,157.50542988386894L48.51455905360694,153.5118975339132z" style="fill:rgb(146,43,221)"/><path d="M-10.766937656848354,162.8020219363848L34.64061053960937,152.9150720693367L78.95330232679268,133.4075602892289z" style="fill:rgb(83,212,212)"/><path d="M37.23078665140322,157.50542988386894L34.64061053960937,152.9150720693367L23.23374910737286,156.32935531605418z" style="fill:rgb(138,40,220)"/><path d="M11.821994443047215,159.12157080581017L23.23374910737286,156.32935531605418L34.64061053960937,152.9150720693367z" style="fill:rgb(83,212,212)"/><path d="M111.29600748849455,118.20705721142427L109.0925693089138,113.417304379128L99.45670595193802,120.5219459734114z" style="fill:rgb(188,65,220)"/><path d="M89.3920921827114,127.1983196361619L91.70410703617678,131.9310719847544L101.71385433873037,125.28341235582322z" style="fill:rgb(181,61,221)"/><path d="M45.979183849436346,148.89389874361828L48.51455905360694,153.5118975339132L59.665703375856516,148.9317622715341z" style="fill:rgb(153,46,222)"/><path d="M99.45670595193802,120.5219459734114L109.0925693089138,113.417304379128L118.24858703055476,105.9259723815603z" style="fill:rgb(83,212,212)"/><path d="M78.95330232679268,133.4075602892289L81.32097175343289,138.11139423638966L91.70410703617678,131.9310719847544z" style="fill:rgb(175,57,222)"/><path d="M57.18594570561045,144.28551059445792L59.665703375856516,148.9317622715341L70.62163673249093,143.7889188128496z" style="fill:rgb(160,49,222)"/><path d="M48.51455905360694,153.5118975339132L45.979183849436346,148.89389874361828L34.64061053960937,152.9150720693367z" style="fill:rgb(146,43,221)"/><path d="M68.19792368236178,139.1139887393849L70.62163673249093,143.7889188128496L81.32097175343289,138.11139423638966z" style="fill:rgb(168,53,222)"/><path d="M101.71385433873037,125.28341235582322L99.45670595193802,120.5219459734114L89.3920921827114,127.1983196361619z" style="fill:rgb(181,61,221)"/><path d="M78.95330232679268,133.4075602892289L99.45670595193802,120.5219459734114L118.24858703055476,105.9259723815603z" style="fill:rgb(83,212,212)"/><path d="M59.665703375856516,148.9317622715341L57.18594570561045,144.28551059445792L45.979183849436346,148.89389874361828z" style="fill:rgb(153,46,222)"/><path d="M91.70410703617678,131.9310719847544L89.3920921827114,127.1983196361619L78.95330232679268,133.4075602892289z" style="fill:rgb(175,57,222)"/><path d="M70.62163673249093,143.7889188128496L68.19792368236178,139.1139887393849L57.18594570561045,144.28551059445792z" style="fill:rgb(160,49,222)"/><path d="M81.32097175343289,138.11139423638966L78.95330232679268,133.4075602892289L68.19792368236178,139.1139887393849z" style="fill:rgb(168,53,222)"/><path d="M34.64061053960937,152.9150720693367L45.979183849436346,148.89389874361828L57.18594570561045,144.28551059445792zM34.64061053960937,152.9150720693367L57.18594570561045,144.28551059445792L78.95330232679268,133.4075602892289zM78.95330232679268,133.4075602892289L89.3920921827114,127.1983196361619L99.45670595193802,120.5219459734114zM57.18594570561045,144.28551059445792L68.19792368236178,139.1139887393849L78.95330232679268,133.4075602892289z" style="fill:rgb(83,212,212)"/></svg>
