<?xml version="1.0" encoding="UTF-8"?>
<!-- Generated by jsxcad -->
<!DOCTYPE svg PUBLIC "-//W3C//DTD SVG 1.1 Tiny//EN" "http://www.w3.org/Graphics/SVG/1.1/DTD/svg11-tiny.dtd">
<svg viewBox="-250 -250 500 500" width="500" height="500" xmlns="http://www.w3.org/2000/svg"><path d="M-8.561770225206462,-83.77155700969197L-17.403264043150404,-80.34003263382517L-26.129758163470814,-76.56062049312938zM9.372655915935102,-89.54965371057565L0.3714234224078156,-86.84476728276023L-8.561770225206462,-83.77155700969197zM27.48256577370295,-93.81651641880767L9.372655915935102,-89.54965371057565L-8.561770225206462,-83.77155700969197zM27.48256577370295,-93.81651641880767L18.417870032682696,-91.87662152870762L9.372655915935102,-89.54965371057565zM45.569975748912256,-96.50086227915597L36.54176749084137,-95.3606646424751L27.48256577370295,-93.81651641880767zM-26.129758163470814,-76.56062049312938L-30.687831081587944,-74.3759371832068L-32.24225952158561,-25.407688847875125zM-8.561770225206462,-83.77155700969197L-26.129758163470814,-76.56062049312938L-32.24225952158561,-25.407688847875125zM27.48256577370295,-93.81651641880767L-8.561770225206462,-83.77155700969197L-32.24225952158561,-25.407688847875125zM52.92448136372211,-48.044009037832446L45.569975748912256,-96.50086227915597L27.48256577370295,-93.81651641880767z" style="fill:rgb(83,212,212)"/><path d="M52.33221057550277,-92.17417250848561L50.32147316332707,-96.88675110502128L52.92448136372211,-48.044009037832446z" style="fill:rgb(247,158,158)"/><path d="M52.92448136372211,-48.044009037832446L50.32147316332707,-96.88675110502128L45.569975748912256,-96.50086227915597zM53.795484107128594,-43.682478239527605L27.48256577370295,-93.81651641880767L-32.24225952158561,-25.407688847875125z" style="fill:rgb(83,212,212)"/><path d="M52.92448136372211,-48.044009037832446L55.02744631513058,-43.30132276015454L52.33221057550277,-92.17417250848561z" style="fill:rgb(247,158,158)"/><path d="M-133.54525085418257,24.40999087192819L-135.35603849045052,28.454586509570348L-138.25764777899528,36.11778998335078zM53.795484107128594,-43.682478239527605L52.92448136372211,-48.044009037832446L27.48256577370295,-93.81651641880767zM-133.54525085418257,24.40999087192819L-138.25764777899528,36.11778998335078L-142.4819064979588,51.53354237406695z" style="fill:rgb(83,212,212)"/><path d="M-108.71040893141755,33.99991352949589L-108.43150981376877,34.43573855096526L-103.35824744677502,32.284542515919455z" style="fill:rgb(153,46,222)"/><path d="M-108.43150981376877,34.43573855096526L-108.71040893141755,33.99991352949589L-114.39533343587154,37.42646950472642zM-114.39533343587154,37.42646950472642L-114.11383613858624,37.861025284982205L-108.43150981376877,34.43573855096526z" style="fill:rgb(177,58,222)"/><path d="M-108.71040893141755,33.99991352949589L-103.35824744677502,32.284542515919455L-102.43175786241305,31.89168689340733zM-102.43175786241305,31.89168689340733L-102.70821665664641,31.454527790835492L-108.71040893141755,33.99991352949589z" style="fill:rgb(153,46,222)"/><path d="M-114.11383613858624,37.861025284982205L-114.39533343587154,37.42646950472642L-119.51354955327172,41.585410914860674z" style="fill:rgb(200,74,217)"/><path d="M-96.65114811404774,29.90319722203509L-102.70821665664641,31.454527790835492L-102.43175786241305,31.89168689340733z" style="fill:rgb(127,37,217)"/><path d="M-119.51354955327172,41.585410914860674L-119.22940548407261,42.01881393799404L-114.11383613858624,37.861025284982205z" style="fill:rgb(200,74,217)"/><path d="M-102.43175786241305,31.89168689340733L-96.37688958425527,30.341699630425687L-96.65114811404774,29.90319722203509z" style="fill:rgb(127,37,217)"/><path d="M-64.7380439180714,6.524394946316942L-133.54525085418257,24.40999087192819L-106.13835091707683,36.74606731402306z" style="fill:rgb(83,212,212)"/><path d="M-123.55065086025985,46.729412587466925L-119.22940548407261,42.01881393799404L-119.51354955327172,41.585410914860674z" style="fill:rgb(218,92,209)"/><path d="M-96.65114811404774,29.90319722203509L-96.37688958425527,30.341699630425687L-90.53312237851726,29.858506522510908z" style="fill:rgb(101,32,208)"/><path d="M-138.25764777899528,36.11778998335078L-140.63895608755138,43.81910129192356L-142.4819064979588,51.53354237406695z" style="fill:rgb(83,212,212)"/><path d="M-119.51354955327172,41.585410914860674L-123.8373655207744,46.29700211749663L-123.55065086025985,46.729412587466925z" style="fill:rgb(218,92,209)"/><path d="M-90.53312237851726,29.858506522510908L-90.80550928040964,29.4187101499231L-96.65114811404774,29.90319722203509z" style="fill:rgb(101,32,208)"/><path d="M-112.06084369002508,39.99262364705377L-106.13835091707683,36.74606731402306L-133.54525085418257,24.40999087192819zM-116.96350802003458,44.490541756816896L-112.06084369002508,39.99262364705377L-133.54525085418257,24.40999087192819z" style="fill:rgb(83,212,212)"/><path d="M-90.80550928040964,29.4187101499231L-90.53312237851726,29.858506522510908L-85.16110828112926,30.471341267298435z" style="fill:rgb(77,32,196)"/><path d="M-123.55065086025985,46.729412587466925L-123.8373655207744,46.29700211749663L-127.16940099949572,51.3563937132607z" style="fill:rgb(233,112,196)"/><path d="M-97.28106812553298,34.26347704816827L-97.55664775688209,33.825197070943794L-98.7159614008166,36.39086270539366z" style="fill:rgb(241,128,184)"/><path d="M-127.16940099949572,51.3563937132607L-126.88030627772484,51.7880109115311L-123.55065086025985,46.729412587466925z" style="fill:rgb(233,112,196)"/><path d="M-98.7159614008166,36.39086270539366L-98.43934729576011,36.82886643659198L-97.28106812553298,34.26347704816827z" style="fill:rgb(241,128,184)"/><path d="M-85.16110828112926,30.471341267298435L-85.43205068899503,30.03036140526148L-90.80550928040964,29.4187101499231z" style="fill:rgb(77,32,196)"/><path d="M-98.7159614008166,36.39086270539366L-101.78186279337092,37.17147278437942L-101.50412844892935,37.608796605960656zM-101.50412844892935,37.608796605960656L-98.43934729576011,36.82886643659198L-98.7159614008166,36.39086270539366z" style="fill:rgb(127,37,217)"/><path d="M-120.19933434059037,49.658362100313965L-116.96350802003458,44.490541756816896L-133.54525085418257,24.40999087192819zM-58.5585026781673,4.459464644159129L-64.7380439180714,6.524394946316942L-106.13835091707683,36.74606731402306zM-46.98030394348724,-2.1117205943747646L-52.55678913759652,1.5408106494940983L-106.13835091707683,36.74606731402306zM-52.55678913759652,1.5408106494940983L-58.5585026781673,4.459464644159129L-106.13835091707683,36.74606731402306zM55.90674112778476,-39.78328201156368L53.795484107128594,-43.682478239527605L-32.24225952158561,-25.407688847875125z" style="fill:rgb(83,212,212)"/><path d="M-126.88030627772484,51.7880109115311L-127.16940099949572,51.3563937132607L-129.35089285802962,56.54046172831682z" style="fill:rgb(242,133,181)"/><path d="M-85.43205068899503,30.03036140526148L-85.16110828112926,30.471341267298435L-80.50606664470824,32.16346955419886z" style="fill:rgb(54,37,180)"/><path d="M-121.32440438914466,54.819874681399156L-120.19933434059037,49.658362100313965L-133.54525085418257,24.40999087192819zM-42.057361167923126,-6.3462831947776035L-46.98030394348724,-2.1117205943747646L-90.03525319165676,37.658014568070435z" style="fill:rgb(83,212,212)"/><path d="M-129.35089285802962,56.54046172831682L-129.05969203728114,56.971516322615635L-126.88030627772484,51.7880109115311z" style="fill:rgb(242,133,181)"/><path d="M55.02744631513058,-43.30132276015454L52.92448136372211,-48.044009037832446L53.795484107128594,-43.682478239527605z" style="fill:rgb(246,167,149)"/><path d="M-80.50606664470824,32.16346955419886L-80.77605754660657,31.721475859103045L-85.43205068899503,30.03036140526148z" style="fill:rgb(54,37,180)"/><path d="M53.795484107128594,-43.682478239527605L55.904510153921706,-38.936606253719695L55.02744631513058,-43.30132276015454z" style="fill:rgb(246,167,149)"/><path d="M-112.06084369002508,39.99262364705377L-109.51299764548409,43.929829718129746L-103.61427446771737,40.69527350775749z" style="fill:rgb(170,54,222)"/><path d="M-46.98030394348724,-2.1117205943747646L-106.13835091707683,36.74606731402306L-99.96658899798425,35.17227321478316zM59.19468992721479,-36.50364902726827L55.90674112778476,-39.78328201156368L-32.24225952158561,-25.407688847875125z" style="fill:rgb(83,212,212)"/><path d="M-103.61427446771737,40.69527350775749L-97.46286994156094,39.13383596067805L-99.96658899798425,35.17227321478316z" style="fill:rgb(127,37,217)"/><path d="M-103.61427446771737,40.69527350775749L-106.13835091707683,36.74606731402306L-112.06084369002508,39.99262364705377z" style="fill:rgb(170,54,222)"/><path d="M-37.986155706115724,-10.98672426517718L-42.057361167923126,-6.3462831947776035L-87.4372309034243,46.30127912495287z" style="fill:rgb(83,212,212)"/><path d="M-116.96350802003458,44.490541756816896L-114.39145536437478,48.417598401127144L-109.51299764548409,43.929829718129746z" style="fill:rgb(208,81,214)"/><path d="M-99.96658899798425,35.17227321478316L-106.13835091707683,36.74606731402306L-103.61427446771737,40.69527350775749z" style="fill:rgb(127,37,217)"/><path d="M-46.98030394348724,-2.1117205943747646L-99.96658899798425,35.17227321478316L-94.3504838854181,35.484310952188935z" style="fill:rgb(83,212,212)"/><path d="M-109.51299764548409,43.929829718129746L-112.06084369002508,39.99262364705377L-116.96350802003458,44.490541756816896z" style="fill:rgb(208,81,214)"/><path d="M-120.16106990550122,59.284162068428785L-121.32440438914466,54.819874681399156L-133.54525085418257,24.40999087192819z" style="fill:rgb(83,212,212)"/><path d="M-129.05969203728114,56.971516322615635L-129.35089285802962,56.54046172831682L-130.2694953918286,61.61579433549251z" style="fill:rgb(247,153,163)"/><path d="M-77.05704901818312,34.42813969088233L-80.77605754660657,31.721475859103045L-80.50606664470824,32.16346955419886z" style="fill:rgb(36,45,162)"/><path d="M-117.60574292675581,53.57835529977124L-114.39145536437478,48.417598401127144L-116.96350802003458,44.490541756816896z" style="fill:rgb(234,114,195)"/><path d="M-97.46286994156094,39.13383596067805L-91.86114854470031,39.45697220633988L-94.3504838854181,35.484310952188935z" style="fill:rgb(84,32,200)"/><path d="M-130.2694953918286,61.61579433549251L-129.9766002467005,62.04654123721109L-129.05969203728114,56.971516322615635z" style="fill:rgb(247,153,163)"/><path d="M-94.3504838854181,35.484310952188935L-99.96658899798425,35.17227321478316L-97.46286994156094,39.13383596067805z" style="fill:rgb(84,32,200)"/><path d="M63.54745820105899,-33.98091767848325L59.19468992721479,-36.50364902726827L-32.24225952158561,-25.407688847875125z" style="fill:rgb(83,212,212)"/><path d="M-80.50606664470824,32.16346955419886L-76.78748400324397,34.870922936055116L-77.05704901818312,34.42813969088233z" style="fill:rgb(36,45,162)"/><path d="M-46.98030394348724,-2.1117205943747646L-94.3504838854181,35.484310952188935L-90.03525319165676,37.658014568070435zM-5.444756753855868,-2.1212054800327893L0.6118052530045799,-5.289967329170155L-32.98970055341898,-20.713206902415326zM0.6118052530045799,-5.289967329170155L6.948033671582343,-7.742266223075895L-32.98970055341898,-20.713206902415326zM-11.062295747939158,1.6807723684662608L-5.444756753855868,-2.1212054800327893L-32.98970055341898,-20.713206902415326zM-133.54525085418257,24.40999087192819L-142.4819064979588,51.53354237406695L-142.16227494375227,93.163234363931zM6.948033671582343,-7.742266223075895L13.397532450758545,-9.411786090973894L-32.98970055341898,-20.713206902415326z" style="fill:rgb(83,212,212)"/><path d="M-116.96350802003458,44.490541756816896L-120.19933434059037,49.658362100313965L-117.60574292675581,53.57835529977124z" style="fill:rgb(234,114,195)"/><path d="M-142.4819064979588,51.53354237406695L-143.76935684139048,59.235021539040304L-144.48522302301853,66.89636518554775zM-16.091495492381043,6.017342313924503L-11.062295747939158,1.6807723684662608L-32.98970055341898,-20.713206902415326z" style="fill:rgb(83,212,212)"/><path d="M-127.02924277108099,59.585094990486965L-126.73787407530473,60.01658331204525L-125.16419365046383,61.609183887262795z" style="fill:rgb(30,49,155)"/><path d="M-122.14687462055053,60.09484876626092L-121.86702354909451,57.571859681849475L-122.1562770892815,57.13927063871253z" style="fill:rgb(247,158,158)"/><path d="M-125.16419365046383,61.609183887262795L-125.45555377219428,61.1773961394202L-127.02924277108099,59.585094990486965z" style="fill:rgb(30,49,155)"/><path d="M-122.1562770892815,57.13927063871253L-122.436916001365,59.6623776592657L-122.14687462055053,60.09484876626092z" style="fill:rgb(247,158,158)"/><path d="M-42.057361167923126,-6.3462831947776035L-90.03525319165676,37.658014568070435L-87.61273295246806,41.42621546844293zM13.397532450758545,-9.411786090973894L19.789960197608625,-10.250584373478333L-32.98970055341898,-20.713206902415326zM68.80686554991047,-32.325572153713026L63.54745820105899,-33.98091767848325L-32.24225952158561,-25.407688847875125z" style="fill:rgb(83,212,212)"/><path d="M-129.9766002467005,62.04654123721109L-130.2694953918286,61.61579433549251L-129.86631086643564,66.34789933287826z" style="fill:rgb(245,172,143)"/><path d="M-77.05704901818312,34.42813969088233L-76.78748400324397,34.870922936055116L-74.18866002684258,38.4827946926334z" style="fill:rgb(21,58,142)"/><path d="M-20.39605522275495,10.776207261546356L-16.091495492381043,6.017342313924503L-32.98970055341898,-20.713206902415326z" style="fill:rgb(83,212,212)"/><path d="M-125.45555377219428,61.1773961394202L-125.16419365046383,61.609183887262795L-122.14687462055053,60.09484876626092z" style="fill:rgb(164,51,222)"/><path d="M-90.03525319165676,37.658014568070435L-94.3504838854181,35.484310952188935L-91.86114854470031,39.45697220633988z" style="fill:rgb(46,40,173)"/><path d="M-122.14687462055053,60.09484876626092L-122.436916001365,59.6623776592657L-125.45555377219428,61.1773961394202z" style="fill:rgb(164,51,222)"/><path d="M-91.86114854470031,39.45697220633988L-87.55243107150474,41.63897079242002L-90.03525319165676,37.658014568070435z" style="fill:rgb(46,40,173)"/><path d="M-117.60574292675581,53.57835529977124L-120.19933434059037,49.658362100313965L-121.32440438914466,54.819874681399156zM-121.32440438914466,54.819874681399156L-118.71484163120775,58.73676772484178L-117.60574292675581,53.57835529977124z" style="fill:rgb(246,149,166)"/><path d="M-129.86631086643564,66.34789933287826L-129.5721974745064,66.77860970769939L-129.9766002467005,62.04654123721109z" style="fill:rgb(245,172,143)"/><path d="M19.789960197608625,-10.250584373478333L25.954307609087138,-10.230431172010555L-32.98970055341898,-20.713206902415326z" style="fill:rgb(83,212,212)"/><path d="M-74.18866002684258,38.4827946926334L-74.45836430264377,38.03949237319864L-77.05704901818312,34.42813969088233z" style="fill:rgb(21,58,142)"/><path d="M-32.98970055341898,-20.713206902415326L-23.8556841537291,15.833303694842181L-20.39605522275495,10.776207261546356zM-32.98970055341898,-20.713206902415326L-34.9257691893913,-15.84151656655365L-68.99355754569845,75.39040756577394zM-42.057361167923126,-6.3462831947776035L-87.61273295246806,41.42621546844293L-87.4372309034243,46.30127912495287zM-120.16106990550122,59.284162068428785L-133.54525085418257,24.40999087192819L-142.16227494375227,93.163234363931zM-32.98970055341898,-20.713206902415326L-26.369110824466052,21.0549951700974L-23.8556841537291,15.833303694842181z" style="fill:rgb(83,212,212)"/><path d="M-87.61273295246806,41.42621546844293L-90.03525319165676,37.658014568070435L-87.55243107150474,41.63897079242002z" style="fill:rgb(20,59,140)"/><path d="M-129.5721974745064,66.77860970769939L-129.86631086643564,66.34789933287826L-128.14140317307394,70.51150471465539z" style="fill:rgb(238,189,122)"/><path d="M-34.9257691893913,-15.84151656655365L-37.986155706115724,-10.98672426517718L-68.99355754569845,75.39040756577394z" style="fill:rgb(83,212,212)"/><path d="M-87.55243107150474,41.63897079242002L-85.12755185400687,45.41141657995391L-87.61273295246806,41.42621546844293z" style="fill:rgb(20,59,140)"/><path d="M-5.444756753855868,-2.1212054800327893L-3.0511975731328365,2.4919857194439663L2.9784760579741243,-0.6629987988359086z" style="fill:rgb(167,52,222)"/><path d="M-37.986155706115724,-10.98672426517718L-87.4372309034243,46.30127912495287L-89.56376103524693,51.629647335121994z" style="fill:rgb(83,212,212)"/><path d="M0.6118052530045799,-5.289967329170155L2.9784760579741243,-0.6629987988359086L9.28851609222672,-3.100854228163551z" style="fill:rgb(147,43,221)"/><path d="M-11.062295747939158,1.6807723684662608L-8.641789013021056,6.281179854382067L-3.0511975731328365,2.4919857194439663z" style="fill:rgb(185,63,221)"/><path d="M-118.71484163120775,58.73676772484178L-121.32440438914466,54.819874681399156L-120.16106990550122,59.284162068428785zM-120.16106990550122,59.284162068428785L-117.5434145659932,63.20235917543456L-118.71484163120775,58.73676772484178z" style="fill:rgb(242,181,132)"/><path d="M-128.14140317307394,70.51150471465539L-127.84662827252313,70.94245704368088L-129.5721974745064,66.77860970769939z" style="fill:rgb(238,189,122)"/><path d="M6.948033671582343,-7.742266223075895L9.28851609222672,-3.100854228163551L15.713147050862274,-4.755624792898396z" style="fill:rgb(127,37,217)"/><path d="M2.9784760579741243,-0.6629987988359086L0.6118052530045799,-5.289967329170155L-5.444756753855868,-2.1212054800327893z" style="fill:rgb(167,52,222)"/><path d="M-3.0511975731328365,2.4919857194439663L-5.444756753855868,-2.1212054800327893L-11.062295747939158,1.6807723684662608z" style="fill:rgb(185,63,221)"/><path d="M-32.98970055341898,-20.713206902415326L-27.857121453497722,26.30060230538483L-26.369110824466052,21.0549951700974z" style="fill:rgb(83,212,212)"/><path d="M9.28851609222672,-3.100854228163551L6.948033671582343,-7.742266223075895L0.6118052530045799,-5.289967329170155z" style="fill:rgb(147,43,221)"/><path d="M-16.091495492381043,6.017342313924503L-13.644639832760179,10.606251998363808L-8.641789013021056,6.281179854382067zM-8.641789013021056,6.281179854382067L-11.062295747939158,1.6807723684662608L-16.091495492381043,6.017342313924503z" style="fill:rgb(202,76,217)"/><path d="M13.397532450758545,-9.411786090973894L15.713147050862274,-4.755624792898396L22.082630059937966,-5.579757627783879z" style="fill:rgb(107,33,211)"/><path d="M15.713147050862274,-4.755624792898396L13.397532450758545,-9.411786090973894L6.948033671582343,-7.742266223075895z" style="fill:rgb(127,37,217)"/><path d="M-20.39605522275495,10.776207261546356L-17.924114470468226,15.355160974614389L-13.644639832760179,10.606251998363808z" style="fill:rgb(217,91,210)"/><path d="M126.8196872731053,4.535830939841364L-32.24225952158561,-25.407688847875125L-32.98970055341898,-20.713206902415326zM-142.4819064979588,51.53354237406695L-144.48522302301853,66.89636518554775L-142.16227494375227,93.163234363931z" style="fill:rgb(83,212,212)"/><path d="M-13.644639832760179,10.606251998363808L-16.091495492381043,6.017342313924503L-20.39605522275495,10.776207261546356z" style="fill:rgb(217,91,210)"/><path d="M-32.98970055341898,-20.713206902415326L-28.265485380107723,31.425366508020776L-27.857121453497722,26.30060230538483z" style="fill:rgb(83,212,212)"/><path d="M22.082630059937966,-5.579757627783879L19.789960197608625,-10.250584373478333L13.397532450758545,-9.411786090973894z" style="fill:rgb(107,33,211)"/><path d="M19.789960197608625,-10.250584373478333L22.082630059937966,-5.579757627783879L28.22651898497403,-5.545432403194034z" style="fill:rgb(87,32,202)"/><path d="M-21.3605815581559,20.4040663662988L-17.924114470468226,15.355160974614389L-20.39605522275495,10.776207261546356z" style="fill:rgb(229,106,201)"/><path d="M-81.14621934194362,49.3306888211938L-80.8715142708892,49.772307078371774L-77.93244369648764,49.80616451430348z" style="fill:rgb(90,32,203)"/><path d="M-75.93504045755115,47.29542366518071L-76.20756396367405,46.85267554327425L-78.20625206895149,49.36391015559394zM-78.20625206895149,49.36391015559394L-77.69870625963752,49.51235614641224L-75.93504045755115,47.29542366518071z" style="fill:rgb(224,99,205)"/><path d="M-77.93244369648764,49.80616451430348L-78.20625206895149,49.36391015559394L-81.14621934194362,49.3306888211938z" style="fill:rgb(90,32,203)"/><path d="M-78.20625206895149,49.36391015559394L-77.93244369648764,49.80616451430348L-77.69870625963752,49.51235614641224z" style="fill:rgb(224,99,205)"/><path d="M-144.48522302301853,66.89636518554775L-144.61470102828542,74.48932337318139L-144.14442408980923,81.98460870212058z" style="fill:rgb(83,212,212)"/><path d="M28.22651898497403,-5.545432403194034L25.954307609087138,-10.230431172010555L19.789960197608625,-10.250584373478333z" style="fill:rgb(87,32,202)"/><path d="M-20.39605522275495,10.776207261546356L-23.8556841537291,15.833303694842181L-21.3605815581559,20.4040663662988z" style="fill:rgb(229,106,201)"/><path d="M25.954307609087138,-10.230431172010555L28.22651898497403,-5.545432403194034L33.97715965937342,-4.645758033731789z" style="fill:rgb(69,33,191)"/><path d="M-26.369110824466052,21.0549951700974L-23.853428221497264,25.619510209017808L-21.3605815581559,20.4040663662988zM-21.3605815581559,20.4040663662988L-23.8556841537291,15.833303694842181L-26.369110824466052,21.0549951700974z" style="fill:rgb(238,122,189)"/><path d="M33.97715965937342,-4.645758033731789L31.722387368629256,-9.34401140584874L25.954307609087138,-10.230431172010555z" style="fill:rgb(69,33,191)"/><path d="M-37.986155706115724,-10.98672426517718L-89.56376103524693,51.629647335121994L-68.99355754569845,75.39040756577394z" style="fill:rgb(83,212,212)"/><path d="M31.722387368629256,-9.34401140584874L33.97715965937342,-4.645758033731789L39.1734751442705,-2.8957711180320356z" style="fill:rgb(52,37,178)"/><path d="M-76.60177831753595,62.31272231422179L-74.1960730395905,52.99785350432726L-72.84277024887103,47.75787096901805z" style="fill:rgb(20,184,166)"/><path d="M-32.98970055341898,-20.713206902415326L-68.99355754569845,75.39040756577394L-28.265485380107723,31.425366508020776zM-116.83497375438994,62.43541253080452L-120.16106990550122,59.284162068428785L-142.16227494375227,93.163234363931zM-144.48522302301853,66.89636518554775L-144.14442408980923,81.98460870212058L-142.16227494375227,93.163234363931zM115.7909244795982,0.2561419864825602L68.80686554991047,-32.325572153713026L-32.24225952158561,-25.407688847875125z" style="fill:rgb(83,212,212)"/><path d="M-27.857121453497722,26.30060230538483L-25.324055733613616,30.860967022820887L-23.853428221497264,25.619510209017808zM-23.853428221497264,25.619510209017808L-26.369110824466052,21.0549951700974L-27.857121453497722,26.30060230538483z" style="fill:rgb(244,138,176)"/><path d="M39.1734751442705,-2.8957711180320356L36.93262687532838,-7.605944755062515L31.722387368629256,-9.34401140584874z" style="fill:rgb(52,37,178)"/><path d="M-101.49574673391717,70.29751803893302L-101.78232700272578,69.86095279171813L-101.03047148858799,72.10202138181539zM-101.03047148858799,72.10202138181539L-100.74351872578636,72.5386605508071L-101.49574673391717,70.29751803893302z" style="fill:rgb(241,184,128)"/><path d="M-111.7745471773408,63.82244324541001L-116.83497375438994,62.43541253080452L-142.16227494375227,93.163234363931z" style="fill:rgb(83,212,212)"/><path d="M-106.15231488438458,73.3604973795979L-105.86343054065821,73.79600388479189L-103.44782938325024,74.70687361213292z" style="fill:rgb(57,36,182)"/><path d="M36.93262687532838,-7.605944755062515L39.1734751442705,-2.8957711180320356L43.665017353115374,-0.3331421168532573z" style="fill:rgb(37,44,163)"/><path d="M-103.44782938325024,74.70687361213292L-103.73621153405844,74.27089277629935L-106.15231488438458,73.3604973795979z" style="fill:rgb(57,36,182)"/><path d="M-100.74351872578636,72.5386605508071L-101.03047148858799,72.10202138181539L-103.73621153405844,74.27089277629935zM-103.73621153405844,74.27089277629935L-103.44782938325024,74.70687361213292L-100.74351872578636,72.5386605508071z" style="fill:rgb(197,72,218)"/><path d="M-105.66439199815551,63.23300923408097L-111.7745471773408,63.82244324541001L-142.16227494375227,93.163234363931zM25.954307609087138,-10.230431172010555L126.8196872731053,4.535830939841364L-32.98970055341898,-20.713206902415326z" style="fill:rgb(83,212,212)"/><path d="M-25.324055733613616,30.860967022820887L-27.857121453497722,26.30060230538483L-28.265485380107723,31.425366508020776zM-28.265485380107723,31.425366508020776L-25.71880640055095,35.983790730653325L-25.324055733613616,30.860967022820887z" style="fill:rgb(247,154,162)"/><path d="M-93.7240899489113,56.67719610014282L-99.35258899794042,60.73580054566188L-142.16227494375227,93.163234363931zM-99.35258899794042,60.73580054566188L-105.66439199815551,63.23300923408097L-142.16227494375227,93.163234363931z" style="fill:rgb(83,212,212)"/><path d="M43.665017353115374,-0.3331421168532573L41.43415423358822,-5.0534960930933135L36.93262687532838,-7.605944755062515z" style="fill:rgb(37,44,163)"/><path d="M-144.14442408980923,81.98460870212058L-143.0627026389517,89.35195590133753L-142.16227494375227,93.163234363931z" style="fill:rgb(83,212,212)"/><path d="M45.09113337780373,-1.7468883285599954L41.43415423358822,-5.0534960930933135L43.665017353115374,-0.3331421168532573zM43.665017353115374,-0.3331421168532573L47.31631968351131,2.981537540838152L45.09113337780373,-1.7468883285599954z" style="fill:rgb(25,53,148)"/><path d="M-25.71880640055095,35.983790730653325L-28.265485380107723,31.425366508020776L-27.56770218929335,36.28385320810114zM-27.56770218929335,36.28385320810114L-25.01168760428745,40.84262507754304L-25.71880640055095,35.983790730653325z" style="fill:rgb(246,169,146)"/><path d="M-89.56376103524693,51.629647335121994L-93.7240899489113,56.67719610014282L-68.99355754569845,75.39040756577394z" style="fill:rgb(83,212,212)"/><path d="M45.09113337780373,-1.7468883285599954L47.31631968351131,2.981537540838152L50.01135170337839,6.965033528304614z" style="fill:rgb(16,65,132)"/><path d="M-25.01168760428745,40.84262507754304L-27.56770218929335,36.28385320810114L-25.767352655055138,40.73382347343217zM-25.767352655055138,40.73382347343217L-23.206674756633472,45.295259232034596L-25.01168760428745,40.84262507754304z" style="fill:rgb(242,183,130)"/><path d="M-93.7240899489113,56.67719610014282L-142.16227494375227,93.163234363931L-68.99355754569845,75.39040756577394zM115.7909244795982,0.2561419864825602L74.77291878999164,-31.61493119118587L68.80686554991047,-32.325572153713026z" style="fill:rgb(83,212,212)"/><path d="M-142.16227494375227,93.163234363931L-139.092630579762,97.45560102174748L-66.2039900570361,79.84478064101478z" style="fill:rgb(127,37,217)"/><path d="M50.01135170337839,6.965033528304614L47.78725681963708,2.2309596313431093L45.09113337780373,-1.7468883285599954z" style="fill:rgb(16,65,132)"/><path d="M115.7909244795982,0.2561419864825602L81.21104515449707,-31.888002860557712L74.77291878999164,-31.61493119118587zM-68.99355754569845,75.39040756577394L-27.56770218929335,36.28385320810114L-28.265485380107723,31.425366508020776zM25.954307609087138,-10.230431172010555L31.722387368629256,-9.34401140584874L126.8196872731053,4.535830939841364zM115.7909244795982,0.2561419864825602L87.86180397543598,-33.14207814685188L81.21104515449707,-31.888002860557712z" style="fill:rgb(83,212,212)"/><path d="M115.33388276074,-20.701555477268062L121.22841805649772,-24.29618357555639L121.03843094606988,-24.784335891074896z" style="fill:rgb(177,58,222)"/><path d="M120.48948402930675,3.304608801397829L115.7909244795982,0.2561419864825602L-32.24225952158561,-25.407688847875125z" style="fill:rgb(83,212,212)"/><path d="M127.52076832464112,-27.511511561546026L121.03843094606988,-24.784335891074896L121.22841805649772,-24.29618357555639zM121.22841805649772,-24.29618357555639L127.7079025687598,-27.02183450193255L127.52076832464112,-27.511511561546026z" style="fill:rgb(153,46,222)"/><path d="M121.03843094606988,-24.784335891074896L115.14109576159922,-21.18831437969812L115.33388276074,-20.701555477268062z" style="fill:rgb(177,58,222)"/><path d="M110.28234096941833,-16.393429817956804L115.33388276074,-20.701555477268062L115.14109576159922,-21.18831437969812z" style="fill:rgb(200,74,217)"/><path d="M164.7524740107407,-53.12887252183354L87.86180397543598,-33.14207814685188L126.95647351135031,-22.692912760040603z" style="fill:rgb(83,212,212)"/><path d="M134.3062826870163,-29.249411005512975L127.52076832464112,-27.511511561546026L127.7079025687598,-27.02183450193255zM127.7079025687598,-27.02183450193255L134.49060784520296,-28.75814092430665L134.3062826870163,-29.249411005512975z" style="fill:rgb(127,37,217)"/><path d="M115.14109576159922,-21.18831437969812L110.08692121173273,-16.878981840214337L110.28234096941833,-16.393429817956804z" style="fill:rgb(200,74,217)"/><path d="M31.722387368629256,-9.34401140584874L36.93262687532838,-7.605944755062515L126.8196872731053,4.535830939841364zM-68.99355754569845,75.39040756577394L-25.767352655055138,40.73382347343217L-27.56770218929335,36.28385320810114z" style="fill:rgb(83,212,212)"/><path d="M106.2991643800032,-11.557310119366841L110.28234096941833,-16.393429817956804L110.08692121173273,-16.878981840214337z" style="fill:rgb(218,92,209)"/><path d="M141.09891546002626,-29.917071613022504L134.3062826870163,-29.249411005512975L134.49060784520296,-28.75814092430665z" style="fill:rgb(101,32,208)"/><path d="M126.8196872731053,4.535830939841364L120.48948402930675,3.304608801397829L-32.24225952158561,-25.407688847875125z" style="fill:rgb(83,212,212)"/><path d="M-66.2039900570361,79.84478064101478L-68.99355754569845,75.39040756577394L-142.16227494375227,93.163234363931z" style="fill:rgb(127,37,217)"/><path d="M134.49060784520296,-28.75814092430665L141.28058892938034,-29.424209614955632L141.09891546002626,-29.917071613022504z" style="fill:rgb(101,32,208)"/><path d="M110.08692121173273,-16.878981840214337L106.10140810802733,-12.041888235883262L106.2991643800032,-11.557310119366841z" style="fill:rgb(218,92,209)"/><path d="M36.93262687532838,-7.605944755062515L41.43415423358822,-5.0534960930933135L126.8196872731053,4.535830939841364zM120.7314201698977,-19.266472384638863L126.95647351135031,-22.692912760040603L87.86180397543598,-33.14207814685188z" style="fill:rgb(83,212,212)"/><path d="M129.982121143553,-21.837883650333684L128.62712300953095,-23.893431710203103L128.8144742783346,-23.403519243688024z" style="fill:rgb(13,70,126)"/><path d="M116.01386230801207,-14.62299017958722L120.7314201698977,-19.266472384638863L87.86180397543598,-33.14207814685188zM-68.99355754569845,75.39040756577394L-22.899816541353225,44.64048355319136L-25.767352655055138,40.73382347343217z" style="fill:rgb(83,212,212)"/><path d="M103.56850209473653,-6.402833344213738L106.2991643800032,-11.557310119366841L106.10140810802733,-12.041888235883262z" style="fill:rgb(233,112,196)"/><path d="M147.59849709429437,-29.47668829465189L141.09891546002626,-29.917071613022504L141.28058892938034,-29.424209614955632z" style="fill:rgb(77,32,196)"/><path d="M128.8144742783346,-23.403519243688024L130.16932359678367,-21.34767450873023L129.982121143553,-21.837883650333684z" style="fill:rgb(13,70,126)"/><path d="M133.6047959995949,-22.22193636189204L134.36010567370263,-24.817963835081333L134.1750600478318,-25.30917886595563z" style="fill:rgb(241,128,184)"/><path d="M141.28058892938034,-29.424209614955632L147.77780460929804,-28.9823088940469L147.59849709429437,-29.47668829465189z" style="fill:rgb(77,32,196)"/><path d="M106.10140810802733,-12.041888235883262L103.36880087195418,-6.886707720912019L103.56850209473653,-6.402833344213738z" style="fill:rgb(233,112,196)"/><path d="M134.1750600478318,-25.30917886595563L133.41902526495403,-22.71295245449583L133.6047959995949,-22.22193636189204z" style="fill:rgb(241,128,184)"/><path d="M113.42860620729697,-9.361588763287523L116.01386230801207,-14.62299017958722L87.86180397543598,-33.14207814685188z" style="fill:rgb(83,212,212)"/><path d="M133.41902526495403,-22.71295245449583L129.982121143553,-21.837883650333684L130.16932359678367,-21.34767450873023zM130.16932359678367,-21.34767450873023L133.6047959995949,-22.22193636189204L133.41902526495403,-22.71295245449583z" style="fill:rgb(127,37,217)"/><path d="M-68.99355754569845,75.39040756577394L-19.03316997885004,47.881064278389296L-22.899816541353225,44.64048355319136z" style="fill:rgb(83,212,212)"/><path d="M-68.99355754569845,75.39040756577394L-66.2039900570361,79.84478064101478L-59.70624050900331,78.7969040953111z" style="fill:rgb(115,34,214)"/><path d="M170.4554457703988,-43.30037560957302L166.93045342699943,-49.84488456682897L164.7524740107407,-53.12887252183354z" style="fill:rgb(83,212,212)"/><path d="M102.22511368063986,-1.156886086534366L103.56850209473653,-6.402833344213738L103.36880087195418,-6.886707720912019z" style="fill:rgb(242,133,181)"/><path d="M153.51164489261734,-27.9364506320128L147.59849709429437,-29.47668829465189L147.77780460929804,-28.9823088940469z" style="fill:rgb(54,37,180)"/><path d="M113.33899892860184,-4.170072528370185L113.42860620729697,-9.361588763287523L87.86180397543598,-33.14207814685188z" style="fill:rgb(83,212,212)"/><path d="M103.36880087195418,-6.886707720912019L102.02395321032431,-1.6403545295583675L102.22511368063986,-1.156886086534366z" style="fill:rgb(242,133,181)"/><path d="M147.77780460929804,-28.9823088940469L153.68897595745014,-27.44070264953204L153.51164489261734,-27.9364506320128z" style="fill:rgb(54,37,180)"/><path d="M170.4554457703988,-43.30037560957302L164.7524740107407,-53.12887252183354L126.95647351135031,-22.692912760040603z" style="fill:rgb(83,212,212)"/><path d="M-59.70624050900331,78.7969040953111L-62.47156884081485,74.32820303049895L-68.99355754569845,75.39040756577394z" style="fill:rgb(115,34,214)"/><path d="M120.7314201698977,-19.266472384638863L122.46032664345415,-14.850597142636644L128.65911831429335,-18.263680821625492z" style="fill:rgb(170,54,222)"/><path d="M-62.47156884081485,74.32820303049895L-59.70624050900331,78.7969040953111L-53.482890198045034,78.84553908127023z" style="fill:rgb(92,32,204)"/><path d="M-68.99355754569845,75.39040756577394L-14.267947702412856,50.34945127532675L-19.03316997885004,47.881064278389296z" style="fill:rgb(83,212,212)"/><path d="M117.76596569318079,-10.21749657342551L122.46032664345415,-14.850597142636644L120.7314201698977,-19.266472384638863z" style="fill:rgb(208,81,214)"/><path d="M128.65911831429335,-18.263680821625492L135.55725782661796,-20.01466647267254L133.8806655723583,-24.458578215371244z" style="fill:rgb(127,37,217)"/><path d="M128.65911831429335,-18.263680821625492L126.95647351135031,-22.692912760040603L120.7314201698977,-19.266472384638863z" style="fill:rgb(170,54,222)"/><path d="M133.8806655723583,-24.458578215371244L126.95647351135031,-22.692912760040603L128.65911831429335,-18.263680821625492z" style="fill:rgb(127,37,217)"/><path d="M115.7909244795982,0.2561419864825602L113.33899892860184,-4.170072528370185L87.86180397543598,-33.14207814685188z" style="fill:rgb(83,212,212)"/><path d="M102.34698474137494,3.9444399555242535L102.22511368063986,-1.156886086534366L102.02395321032431,-1.6403545295583675z" style="fill:rgb(247,153,163)"/><path d="M133.8806655723583,-24.458578215371244L135.55725782661796,-20.01466647267254L142.25884089673497,-19.867401342101072z" style="fill:rgb(84,32,200)"/><path d="M-53.482890198045034,78.84553908127023L-56.22753928905314,74.36366135843672L-62.47156884081485,74.32820303049895z" style="fill:rgb(92,32,204)"/><path d="M158.563498611792,-25.352297744937285L153.51164489261734,-27.9364506320128L153.68897595745014,-27.44070264953204z" style="fill:rgb(36,45,162)"/><path d="M120.7314201698977,-19.266472384638863L116.01386230801207,-14.62299017958722L117.76596569318079,-10.21749657342551z" style="fill:rgb(208,81,214)"/><path d="M115.19784627058364,-4.962244737309694L117.76596569318079,-10.21749657342551L116.01386230801207,-14.62299017958722z" style="fill:rgb(234,114,195)"/><path d="M-56.22753928905314,74.36366135843672L-53.482890198045034,78.84553908127023L-47.761627327790805,79.99866376251296z" style="fill:rgb(71,33,192)"/><path d="M-68.99355754569845,75.39040756577394L-8.735610133948404,51.9607070158494L-14.267947702412856,50.34945127532675zM170.4554457703988,-43.30037560957302L126.95647351135031,-22.692912760040603L133.8806655723583,-24.458578215371244z" style="fill:rgb(83,212,212)"/><path d="M102.02395321032431,-1.6403545295583675L102.14493910213037,3.4610618694547504L102.34698474137494,3.9444399555242535z" style="fill:rgb(247,153,163)"/><path d="M153.68897595745014,-27.44070264953204L158.73929958400745,-24.85540127665836L158.563498611792,-25.352297744937285z" style="fill:rgb(36,45,162)"/><path d="M142.25884089673497,-19.867401342101072L140.60484538584996,-24.325406981303065L133.8806655723583,-24.458578215371244z" style="fill:rgb(84,32,200)"/><path d="M170.4554457703988,-43.30037560957302L133.8806655723583,-24.458578215371244L140.60484538584996,-24.325406981303065z" style="fill:rgb(83,212,212)"/><path d="M116.01386230801207,-14.62299017958722L113.42860620729697,-9.361588763287523L115.19784627058364,-4.962244737309694z" style="fill:rgb(234,114,195)"/><path d="M-68.99355754569845,75.39040756577394L-2.595540719472039,52.6551649333098L-8.735610133948404,51.9607070158494zM-68.99355754569845,75.39040756577394L-62.47156884081485,74.32820303049895L10.759001173322309,51.20025386892829z" style="fill:rgb(83,212,212)"/><path d="M111.13574039144667,1.7532851279941208L110.86601734757927,-0.7777284353579021L110.66800138602488,-1.263156948349426z" style="fill:rgb(247,158,158)"/><path d="M107.7300013589519,2.87527392525733L105.49112388861772,1.3314818016602186L105.69153697248306,1.8156717664168889z" style="fill:rgb(30,49,155)"/><path d="M-47.761627327790805,79.99866376251296L-50.489883581147154,75.50528924393329L-56.22753928905314,74.36366135843672z" style="fill:rgb(71,33,192)"/><path d="M105.69153697248306,1.8156717664168889L107.92987148487167,3.359933243960382L107.7300013589519,2.87527392525733z" style="fill:rgb(30,49,155)"/><path d="M110.66800138602488,-1.263156948349426L110.93736837144861,1.2678566257985664L111.13574039144667,1.7532851279941208z" style="fill:rgb(247,158,158)"/><path d="M103.94908666380624,8.665120606270277L102.34698474137494,3.9444399555242535L102.14493910213037,3.4610618694547504z" style="fill:rgb(245,172,143)"/><path d="M-50.489883581147154,75.50528924393329L-47.761627327790805,79.99866376251296L-42.75753347064707,82.22638007424325z" style="fill:rgb(51,38,177)"/><path d="M162.5100299675762,-21.82812862146251L158.563498611792,-25.352297744937285L158.73929958400745,-24.85540127665836z" style="fill:rgb(21,58,142)"/><path d="M107.92987148487167,3.359933243960382L111.13574039144667,1.7532851279941208L110.93736837144861,1.2678566257985664z" style="fill:rgb(164,51,222)"/><path d="M-62.47156884081485,74.32820303049895L-56.22753928905314,74.36366135843672L10.759001173322309,51.20025386892829z" style="fill:rgb(83,212,212)"/><path d="M146.24214757672883,-22.292836673633822L140.60484538584996,-24.325406981303065L142.25884089673497,-19.867401342101072z" style="fill:rgb(46,40,173)"/><path d="M110.93736837144861,1.2678566257985664L107.7300013589519,2.87527392525733L107.92987148487167,3.359933243960382z" style="fill:rgb(164,51,222)"/><path d="M142.25884089673497,-19.867401342101072L147.87991972062224,-17.823261561314517L146.24214757672883,-22.292836673633822z" style="fill:rgb(46,40,173)"/><path d="M170.4554457703988,-43.30037560957302L140.60484538584996,-24.325406981303065L146.24214757672883,-22.292836673633822zM-68.99355754569845,75.39040756577394L3.969443529238235,52.40174791420553L-2.595540719472039,52.6551649333098z" style="fill:rgb(83,212,212)"/><path d="M115.19784627058364,-4.962244737309694L113.42860620729697,-9.361588763287523L113.33899892860184,-4.170072528370185zM113.33899892860184,-4.170072528370185L115.11693146678763,0.22811350724356375L115.19784627058364,-4.962244737309694z" style="fill:rgb(246,149,166)"/><path d="M102.14493910213037,3.4610618694547504L103.7467700453146,8.181509901106725L103.94908666380624,8.665120606270277z" style="fill:rgb(245,172,143)"/><path d="M158.73929958400745,-24.85540127665836L162.68489177184352,-21.330367497104127L162.5100299675762,-21.82812862146251z" style="fill:rgb(21,58,142)"/><path d="M-68.99355754569845,75.39040756577394L10.759001173322309,51.20025386892829L3.969443529238235,52.40174791420553zM-56.22753928905314,74.36366135843672L-50.489883581147154,75.50528924393329L10.759001173322309,51.20025386892829z" style="fill:rgb(83,212,212)"/><path d="M-42.75753347064707,82.22638007424325L-45.474313598764276,77.72369141297243L-50.489883581147154,75.50528924393329z" style="fill:rgb(51,38,177)"/><path d="M146.24214757672883,-22.292836673633822L147.87991972062224,-17.823261561314517L151.65687583163347,-14.130202392655592z" style="fill:rgb(20,59,140)"/><path d="M170.4554457703988,-43.30037560957302L146.24214757672883,-22.292836673633822L150.02668822282376,-18.607130963554432z" style="fill:rgb(83,212,212)"/><path d="M177.3955262007548,-24.119429183572024L175.0798910369212,-31.36704145131222L173.38785584521753,-36.39612320856318z" style="fill:rgb(246,166,149)"/><path d="M-45.474313598764276,77.72369141297243L-42.75753347064707,82.22638007424325L-38.66564505277633,85.46004637902408z" style="fill:rgb(34,46,160)"/><path d="M175.70138433540725,-29.153048122868665L173.38785584521753,-36.39612320856318L170.4554457703988,-43.30037560957302zM-50.489883581147154,75.50528924393329L-45.474313598764276,77.72369141297243L10.759001173322309,51.20025386892829z" style="fill:rgb(83,212,212)"/><path d="M165.15074731112622,-17.514026608554012L162.5100299675762,-21.82812862146251L162.68489177184352,-21.330367497104127z" style="fill:rgb(12,73,121)"/><path d="M151.65687583163347,-14.130202392655592L150.02668822282376,-18.607130963554432L146.24214757672883,-22.292836673633822z" style="fill:rgb(20,59,140)"/><path d="M162.68489177184352,-21.330367497104127L165.32526566439614,-17.015736133322353L165.15074731112622,-17.514026608554012z" style="fill:rgb(12,73,121)"/><path d="M170.4554457703988,-43.30037560957302L150.02668822282376,-18.607130963554432L151.4187757977874,-13.742610631228423z" style="fill:rgb(83,212,212)"/><path d="M-38.66564505277633,85.46004637902408L-41.3763572400959,80.95067117407658L-45.474313598764276,77.72369141297243z" style="fill:rgb(34,46,160)"/><path d="M173.38785584521753,-36.39612320856318L175.70138433540725,-29.153048122868665L177.3955262007548,-24.119429183572024z" style="fill:rgb(246,166,149)"/><path d="M-41.3763572400959,80.95067117407658L-38.66564505277633,85.46004637902408L-35.65320224550825,89.5924015104525z" style="fill:rgb(21,57,142)"/><path d="M160.98165248510665,-9.897488800120959L162.74174739157075,-12.469844201758706L162.56550309918606,-12.967434107743552z" style="fill:rgb(224,99,205)"/><path d="M160.80431186303466,-10.394608267808017L157.31446301533396,-10.336542639936303L157.4931642025604,-9.840226181641903z" style="fill:rgb(90,32,203)"/><path d="M178.3761775043059,-13.747401382733367L175.70138433540725,-29.153048122868665L170.4554457703988,-43.30037560957302z" style="fill:rgb(83,212,212)"/><path d="M157.4931642025604,-9.840226181641903L160.98165248510665,-9.897488800120959L160.80431186303466,-10.394608267808017z" style="fill:rgb(90,32,203)"/><path d="M162.56550309918606,-12.967434107743552L160.80431186303466,-10.394608267808017L160.98165248510665,-9.897488800120959z" style="fill:rgb(224,99,205)"/><path d="M-35.65320224550825,89.5924015104525L-38.363615944862914,85.07935186373258L-41.3763572400959,80.95067117407658z" style="fill:rgb(21,57,142)"/><path d="M177.3955262007548,-24.119429183572024L175.70138433540725,-29.153048122868665L177.37157556605712,-21.594719261455893zM177.37157556605712,-21.594719261455893L179.07068096922234,-16.558649428446486L177.3955262007548,-24.119429183572024z" style="fill:rgb(247,161,155)"/><path d="M41.43415423358822,-5.0534960930933135L45.09113337780373,-1.7468883285599954L141.993813496081,82.02340535277123zM45.09113337780373,-1.7468883285599954L47.78725681963708,2.2309596313431093L141.993813496081,82.02340535277123zM178.3761775043059,-13.747401382733367L177.37157556605712,-21.594719261455893L175.70138433540725,-29.153048122868665z" style="fill:rgb(83,212,212)"/><path d="M179.07068096922234,-16.558649428446486L177.37157556605712,-21.594719261455893L178.3761775043059,-13.747401382733367z" style="fill:rgb(247,155,161)"/><path d="M47.78725681963708,2.2309596313431093L49.43025784303152,6.775405002838203L141.993813496081,82.02340535277123z" style="fill:rgb(83,212,212)"/><path d="M178.3761775043059,-13.747401382733367L180.08322155005982,-8.711042686135087L179.07068096922234,-16.558649428446486z" style="fill:rgb(247,155,161)"/><path d="M136.55958933732884,15.31999511488462L133.4795498555762,14.48106794443345L133.67165011924303,14.971142410325058zM133.67165011924303,14.971142410325058L136.75063074352494,15.810724582758267L136.55958933732884,15.31999511488462z" style="fill:rgb(57,36,182)"/><path d="M136.75063074352494,15.810724582758267L139.4333722221184,13.556182621578984L139.2437614551097,13.06475591551505z" style="fill:rgb(197,72,218)"/><path d="M49.43025784303152,6.775405002838203L49.95614091977931,11.761902794867922L141.993813496081,82.02340535277123z" style="fill:rgb(83,212,212)"/><path d="M139.2437614551097,13.06475591551505L136.55958933732884,15.31999511488462L136.75063074352494,15.810724582758267z" style="fill:rgb(197,72,218)"/><path d="M180.41359023042492,-0.6056507582435608L180.08322155005982,-8.711042686135087L178.3761775043059,-13.747401382733367z" style="fill:rgb(246,149,166)"/><path d="M175.39114277587504,19.91210426854846L178.3761775043059,-13.747401382733367L170.4554457703988,-43.30037560957302zM49.95614091977931,11.761902794867922L49.33295871337448,17.048777903879778L141.993813496081,82.02340535277123zM41.43415423358822,-5.0534960930933135L141.993813496081,82.02340535277123L126.8196872731053,4.535830939841364zM49.33295871337448,17.048777903879778L47.56368188473457,22.480985723390148L141.993813496081,82.02340535277123z" style="fill:rgb(83,212,212)"/><path d="M178.3761775043059,-13.747401382733367L178.6955256041374,-5.640076385719448L180.41359023042492,-0.6056507582435608z" style="fill:rgb(246,149,166)"/><path d="M41.98323393528975,31.515798313865986L44.288921438638845,36.229239758030765L144.00330169407908,86.91632653815604z" style="fill:rgb(42,41,169)"/><path d="M47.56368188473457,22.480985723390148L44.68796867771675,27.894816080044485L141.993813496081,82.02340535277123zM178.31286510555387,2.695580881377737L178.6955256041374,-5.640076385719448L178.3761775043059,-13.747401382733367zM44.68796867771675,27.894816080044485L41.98323393528975,31.515798313865986L141.993813496081,82.02340535277123z" style="fill:rgb(83,212,212)"/><path d="M180.41359023042492,-0.6056507582435608L178.6955256041374,-5.640076385719448L178.31286510555387,2.695580881377737z" style="fill:rgb(245,143,172)"/><path d="M141.993813496081,82.02340535277123L170.4554457703988,-43.30037560957302L151.4187757977874,-13.742610631228423z" style="fill:rgb(83,212,212)"/><path d="M178.31286510555387,2.695580881377737L180.04512477797084,7.725809714865684L180.41359023042492,-0.6056507582435608z" style="fill:rgb(245,143,172)"/><path d="M175.39114277587504,19.91210426854846L178.31286510555387,2.695580881377737L178.3761775043059,-13.747401382733367zM-45.474313598764276,77.72369141297243L78.95330232679268,133.4075602892289L10.759001173322309,51.20025386892829z" style="fill:rgb(83,212,212)"/><path d="M180.04512477797084,7.725809714865684L178.31286510555387,2.695580881377737L177.21468272011748,11.225258211503768z" style="fill:rgb(244,137,177)"/><path d="M-45.474313598764276,77.72369141297243L-41.3763572400959,80.95067117407658L78.95330232679268,133.4075602892289zM141.993813496081,82.02340535277123L151.4187757977874,-13.742610631228423L150.19231772626406,-8.350040886487525z" style="fill:rgb(83,212,212)"/><path d="M177.21468272011748,11.225258211503768L178.96438710213226,16.24900455566953L180.04512477797084,7.725809714865684z" style="fill:rgb(244,137,177)"/><path d="M78.95330232679268,133.4075602892289L35.65138409175778,38.243525783203914L30.36305357002272,42.37841573868176zM78.95330232679268,133.4075602892289L17.562357852974138,49.08232821884299L10.759001173322309,51.20025386892829zM78.95330232679268,133.4075602892289L30.36305357002272,42.37841573868176L24.166218684145395,46.11095550492675zM78.95330232679268,133.4075602892289L24.166218684145395,46.11095550492675L17.562357852974138,49.08232821884299zM141.993813496081,82.02340535277123L150.19231772626406,-8.350040886487525L146.4853822615549,-3.172423665189383zM141.993813496081,82.02340535277123L133.91878998097513,3.757125982896537L126.8196872731053,4.535830939841364zM-41.3763572400959,80.95067117407658L-38.363615944862914,85.07935186373258L78.95330232679268,133.4075602892289zM141.993813496081,82.02340535277123L146.4853822615549,-3.172423665189383L140.79648651392625,1.0628331874017176zM141.993813496081,82.02340535277123L140.79648651392625,1.0628331874017176L133.91878998097513,3.757125982896537zM-36.56795603837892,89.965711939626L-36.07814124628432,95.43184550874598L-10.766937656848354,162.8020219363848zM175.39114277587504,19.91210426854846L177.21468272011748,11.225258211503768L178.31286510555387,2.695580881377737z" style="fill:rgb(83,212,212)"/><path d="M178.96438710213226,16.24900455566953L177.21468272011748,11.225258211503768L175.39114277587504,19.91210426854846z" style="fill:rgb(242,131,182)"/><path d="M141.993813496081,82.02340535277123L175.39114277587504,19.91210426854846L170.4554457703988,-43.30037560957302zM-38.363615944862914,85.07935186373258L-36.56795603837892,89.965711939626L78.95330232679268,133.4075602892289z" style="fill:rgb(83,212,212)"/><path d="M175.39114277587504,19.91210426854846L177.16159582081292,24.927080335291127L178.96438710213226,16.24900455566953z" style="fill:rgb(242,131,182)"/><path d="M177.16159582081292,24.927080335291127L175.39114277587504,19.91210426854846L172.8363176087265,28.716869700967354zM172.8363176087265,28.716869700967354L174.63085396663539,33.72080885767033L177.16159582081292,24.927080335291127z" style="fill:rgb(240,125,187)"/><path d="M169.54858440336326,37.59809889513738L172.8363176087265,28.716869700967354L175.39114277587504,19.91210426854846z" style="fill:rgb(83,212,212)"/><path d="M174.63085396663539,33.72080885767033L172.8363176087265,28.716869700967354L169.54858440336326,37.59809889513738zM169.54858440336326,37.59809889513738L171.37054238249758,42.588780880591365L174.63085396663539,33.72080885767033z" style="fill:rgb(237,120,191)"/><path d="M144.00330169407908,86.91632653815604L141.993813496081,82.02340535277123L41.98323393528975,31.515798313865986z" style="fill:rgb(42,41,169)"/><path d="M-36.07814124628432,95.43184550874598L-38.245884974110375,163.7210059873742L-32.64453717172436,163.92647659549507zM160.79075712976618,55.41454611415033L169.54858440336326,37.59809889513738L175.39114277587504,19.91210426854846zM134.93703156623192,89.96062419468784L135.33470217108692,89.51333150584802L35.65138409175778,38.243525783203914z" style="fill:rgb(83,212,212)"/><path d="M171.37054238249758,42.588780880591365L169.54858440336326,37.59809889513738L165.5308341348029,46.512365006678486zM165.5308341348029,46.512365006678486L167.38351624972177,51.48762955622907L171.37054238249758,42.588780880591365z" style="fill:rgb(234,114,195)"/><path d="M-36.07814124628432,95.43184550874598L-32.64453717172436,163.92647659549507L-10.766937656848354,162.8020219363848zM118.24858703055476,105.9259723815603L134.93703156623192,89.96062419468784L35.65138409175778,38.243525783203914zM160.79075712976618,55.41454611415033L165.5308341348029,46.512365006678486L169.54858440336326,37.59809889513738z" style="fill:rgb(83,212,212)"/><path d="M167.38351624972177,51.48762955622907L165.5308341348029,46.512365006678486L160.79075712976618,55.41454611415033zM160.79075712976618,55.41454611415033L162.67742853555015,60.37233169645952L167.38351624972177,51.48762955622907z" style="fill:rgb(230,108,199)"/><path d="M78.95330232679268,133.4075602892289L118.24858703055476,105.9259723815603L35.65138409175778,38.243525783203914zM-36.56795603837892,89.965711939626L-10.766937656848354,162.8020219363848L78.95330232679268,133.4075602892289zM141.993813496081,82.02340535277123L160.79075712976618,55.41454611415033L175.39114277587504,19.91210426854846z" style="fill:rgb(83,212,212)"/><path d="M162.67742853555015,60.37233169645952L160.79075712976618,55.41454611415033L155.3409972640303,64.25817375101872zM155.3409972640303,64.25817375101872L157.26482883929606,69.19652945624426L162.67742853555015,60.37233169645952z" style="fill:rgb(226,102,203)"/><path d="M-38.245884974110375,163.7210059873742L-35.3442475059296,168.15611491040806L-29.763748088134896,168.37204354455923z" style="fill:rgb(94,32,205)"/><path d="M149.1993178001594,72.99577990629017L151.1633348100839,77.91289168710321L157.26482883929606,69.19652945624426z" style="fill:rgb(222,96,207)"/><path d="M149.1993178001594,72.99577990629017L155.3409972640303,64.25817375101872L160.79075712976618,55.41454611415033z" style="fill:rgb(83,212,212)"/><path d="M157.26482883929606,69.19652945624426L155.3409972640303,64.25817375101872L149.1993178001594,72.99577990629017z" style="fill:rgb(222,96,207)"/><path d="M-29.763748088134896,168.37204354455923L-32.64453717172436,163.92647659549507L-38.245884974110375,163.7210059873742z" style="fill:rgb(94,32,205)"/><path d="M-32.64453717172436,163.92647659549507L-29.763748088134896,168.37204354455923L-18.984857392853524,168.14945511047455z" style="fill:rgb(101,32,208)"/><path d="M141.993813496081,82.02340535277123L149.1993178001594,72.99577990629017L160.79075712976618,55.41454611415033z" style="fill:rgb(83,212,212)"/><path d="M-18.984857392853524,168.14945511047455L-21.82343198434894,163.68282457033493L-32.64453717172436,163.92647659549507z" style="fill:rgb(101,32,208)"/><path d="M142.38863865002796,81.57932062746411L144.39571130765057,86.47353078080702L151.1633348100839,77.91289168710321zM151.1633348100839,77.91289168710321L149.1993178001594,72.99577990629017L142.38863865002796,81.57932062746411z" style="fill:rgb(217,91,210)"/><path d="M-21.82343198434894,163.68282457033493L-18.984857392853524,168.14945511047455L-7.973465403108197,167.29105946412605z" style="fill:rgb(108,33,211)"/><path d="M141.993813496081,82.02340535277123L144.00330169407908,86.91632653815604L144.39571130765057,86.47353078080702z" style="fill:rgb(212,85,213)"/><path d="M-32.64453717172436,163.92647659549507L-21.82343198434894,163.68282457033493L-10.766937656848354,162.8020219363848z" style="fill:rgb(83,212,212)"/><path d="M144.39571130765057,86.47353078080702L142.38863865002796,81.57932062746411L141.993813496081,82.02340535277123z" style="fill:rgb(212,85,213)"/><path d="M141.993813496081,82.02340535277123L142.38863865002796,81.57932062746411L149.1993178001594,72.99577990629017z" style="fill:rgb(83,212,212)"/><path d="M-7.973465403108197,167.29105946412605L-10.766937656848354,162.8020219363848L-21.82343198434894,163.68282457033493z" style="fill:rgb(108,33,211)"/><path d="M-10.766937656848354,162.8020219363848L-7.973465403108197,167.29105946412605L3.213756825262885,165.79384067583564z" style="fill:rgb(116,34,214)"/><path d="M134.93703156623192,89.96062419468784L136.98982918638686,94.83045015464423L137.38505231673753,94.38446695910024zM137.38505231673753,94.38446695910024L135.33470217108692,89.51333150584802L134.93703156623192,89.96062419468784z" style="fill:rgb(212,85,213)"/><path d="M126.87766043027432,98.09184207985635L128.97860508526998,102.93599247195168L136.98982918638686,94.83045015464423z" style="fill:rgb(206,80,215)"/><path d="M3.213756825262885,165.79384067583564L0.467999424461189,161.28112466428317L-10.766937656848354,162.8020219363848z" style="fill:rgb(116,34,214)"/><path d="M0.467999424461189,161.28112466428317L3.213756825262885,165.79384067583564L14.517735318487823,163.65914480124474z" style="fill:rgb(123,36,216)"/><path d="M136.98982918638686,94.83045015464423L134.93703156623192,89.96062419468784L126.87766043027432,98.09184207985635z" style="fill:rgb(206,80,215)"/><path d="M-10.766937656848354,162.8020219363848L0.467999424461189,161.28112466428317L11.821994443047215,159.12157080581017z" style="fill:rgb(83,212,212)"/><path d="M118.24858703055476,105.9259723815603L120.39984983388584,110.74336021142938L128.97860508526998,102.93599247195168z" style="fill:rgb(200,75,217)"/><path d="M14.517735318487823,163.65914480124474L11.821994443047215,159.12157080581017L0.467999424461189,161.28112466428317z" style="fill:rgb(123,36,216)"/><path d="M11.821994443047215,159.12157080581017L14.517735318487823,163.65914480124474L25.877507559553273,160.8928541817773z" style="fill:rgb(131,38,218)"/><path d="M128.97860508526998,102.93599247195168L126.87766043027432,98.09184207985635L118.24858703055476,105.9259723815603z" style="fill:rgb(200,75,217)"/><path d="M118.24858703055476,105.9259723815603L126.87766043027432,98.09184207985635L134.93703156623192,89.96062419468784zM-10.766937656848354,162.8020219363848L11.821994443047215,159.12157080581017L34.64061053960937,152.9150720693367z" style="fill:rgb(83,212,212)"/><path d="M109.0925693089138,113.417304379128L111.29600748849455,118.20705721142427L120.39984983388584,110.74336021142938z" style="fill:rgb(194,70,219)"/><path d="M23.23374910737286,156.32935531605418L25.877507559553273,160.8928541817773L37.23078665140322,157.50542988386894z" style="fill:rgb(138,40,220)"/><path d="M25.877507559553273,160.8928541817773L23.23374910737286,156.32935531605418L11.821994443047215,159.12157080581017z" style="fill:rgb(131,38,218)"/><path d="M120.39984983388584,110.74336021142938L118.24858703055476,105.9259723815603L109.0925693089138,113.417304379128z" style="fill:rgb(194,70,219)"/><path d="M99.45670595193802,120.5219459734114L101.71385433873037,125.28341235582322L111.29600748849455,118.20705721142427z" style="fill:rgb(188,65,220)"/><path d="M34.64061053960937,152.9150720693367L37.23078665140322,157.50542988386894L48.51455905360694,153.5118975339132z" style="fill:rgb(146,43,221)"/><path d="M-10.766937656848354,162.8020219363848L34.64061053960937,152.9150720693367L78.95330232679268,133.4075602892289z" style="fill:rgb(83,212,212)"/><path d="M37.23078665140322,157.50542988386894L34.64061053960937,152.9150720693367L23.23374910737286,156.32935531605418z" style="fill:rgb(138,40,220)"/><path d="M11.821994443047215,159.12157080581017L23.23374910737286,156.32935531605418L34.64061053960937,152.9150720693367z" style="fill:rgb(83,212,212)"/><path d="M111.29600748849455,118.20705721142427L109.0925693089138,113.417304379128L99.45670595193802,120.5219459734114z" style="fill:rgb(188,65,220)"/><path d="M89.3920921827114,127.1983196361619L91.70410703617678,131.9310719847544L101.71385433873037,125.28341235582322z" style="fill:rgb(181,61,221)"/><path d="M45.979183849436346,148.89389874361828L48.51455905360694,153.5118975339132L59.665703375856516,148.9317622715341z" style="fill:rgb(153,46,222)"/><path d="M99.45670595193802,120.5219459734114L109.0925693089138,113.417304379128L118.24858703055476,105.9259723815603z" style="fill:rgb(83,212,212)"/><path d="M78.95330232679268,133.4075602892289L81.32097175343289,138.11139423638966L91.70410703617678,131.9310719847544z" style="fill:rgb(175,57,222)"/><path d="M57.18594570561045,144.28551059445792L59.665703375856516,148.9317622715341L70.62163673249093,143.7889188128496z" style="fill:rgb(160,49,222)"/><path d="M48.51455905360694,153.5118975339132L45.979183849436346,148.89389874361828L34.64061053960937,152.9150720693367z" style="fill:rgb(146,43,221)"/><path d="M68.19792368236178,139.1139887393849L70.62163673249093,143.7889188128496L81.32097175343289,138.11139423638966z" style="fill:rgb(168,53,222)"/><path d="M101.71385433873037,125.28341235582322L99.45670595193802,120.5219459734114L89.3920921827114,127.1983196361619z" style="fill:rgb(181,61,221)"/><path d="M78.95330232679268,133.4075602892289L99.45670595193802,120.5219459734114L118.24858703055476,105.9259723815603z" style="fill:rgb(83,212,212)"/><path d="M59.665703375856516,148.9317622715341L57.18594570561045,144.28551059445792L45.979183849436346,148.89389874361828z" style="fill:rgb(153,46,222)"/><path d="M91.70410703617678,131.9310719847544L89.3920921827114,127.1983196361619L78.95330232679268,133.4075602892289z" style="fill:rgb(175,57,222)"/><path d="M70.62163673249093,143.7889188128496L68.19792368236178,139.1139887393849L57.18594570561045,144.28551059445792z" style="fill:rgb(160,49,222)"/><path d="M81.32097175343289,138.11139423638966L78.95330232679268,133.4075602892289L68.19792368236178,139.1139887393849z" style="fill:rgb(168,53,222)"/><path d="M34.64061053960937,152.9150720693367L45.979183849436346,148.89389874361828L57.18594570561045,144.28551059445792zM34.64061053960937,152.9150720693367L57.18594570561045,144.28551059445792L78.95330232679268,133.4075602892289zM78.95330232679268,133.4075602892289L89.3920921827114,127.1983196361619L99.45670595193802,120.5219459734114zM57.18594570561045,144.28551059445792L68.19792368236178,139.1139887393849L78.95330232679268,133.4075602892289z" style="fill:rgb(83,212,212)"/></svg>
