<?xml version="1.0" encoding="UTF-8"?>
<!-- Generated by jsxcad -->
<!DOCTYPE svg PUBLIC "-//W3C//DTD SVG 1.1 Tiny//EN" "http://www.w3.org/Graphics/SVG/1.1/DTD/svg11-tiny.dtd">
<svg viewBox="-250 -250 500 500" width="500" height="500" xmlns="http://www.w3.org/2000/svg"><path d="M-4.520737530533323,-48.312578278728076L-9.292881473098703,-45.70121386415504L-13.809772516679775,-42.74658239200973zM5.524515874943357,-52.36743067463196L0.44105256178907,-50.5449936301419L-4.520737530533323,-48.312578278728076zM-4.520737530533323,-48.312578278728076L-13.809772516679775,-42.74658239200973L-21.830915286467153,-35.97145352121443zM-13.809772516679775,-42.74658239200973L-18.00878895454418,-39.48867289124935L-21.830915286467153,-35.97145352121443zM15.776522448399426,-54.68331703570806L10.65994097440084,-53.7538141764917L5.524515874943357,-52.36743067463196zM3.900149253802732,-42.5845803452543L5.524515874943357,-52.36743067463196L-4.520737530533323,-48.312578278728076zM15.776522448399426,-54.68331703570806L5.524515874943357,-52.36743067463196L10.769575332392794,-48.03254740998941zM3.900149253802732,-42.5845803452543L-4.520737530533323,-48.312578278728076L-21.830915286467153,-35.97145352121443z" style="fill:rgb(83,212,212)"/><path d="M7.90963974428446,-41.69601617924405L13.149529565583734,-43.095976144506885L10.769575332392794,-48.03254740998941z" style="fill:rgb(127,37,217)"/><path d="M6.315823346557369,-37.66332878839475L7.90963974428446,-41.69601617924405L5.50895404753589,-46.619823214018055z" style="fill:rgb(241,128,184)"/><path d="M5.524515874943357,-52.36743067463196L5.50895404753589,-46.619823214018055L10.769575332392794,-48.03254740998941zM-21.830915286467153,-35.97145352121443L-25.221367161116664,-32.2425079238856L-28.130236304645322,-28.35262906965532z" style="fill:rgb(83,212,212)"/><path d="M10.769575332392794,-48.03254740998941L5.50895404753589,-46.619823214018055L7.90963974428446,-41.69601617924405z" style="fill:rgb(127,37,217)"/><path d="M3.900149253802732,-42.5845803452543L5.50895404753589,-46.619823214018055L5.524515874943357,-52.36743067463196zM25.668566790826187,-55.11647503509889L20.8030389140659,-55.140682889911986L15.776522448399426,-54.68331703570806z" style="fill:rgb(83,212,212)"/><path d="M5.50895404753589,-46.619823214018055L3.900149253802732,-42.5845803452543L6.315823346557369,-37.66332878839475z" style="fill:rgb(241,128,184)"/><path d="M13.149529565583734,-43.095976144506885L14.824794340612327,-39.929128816978206L12.442908618517485,-44.87111376514368zM12.442908618517485,-44.87111376514368L10.769575332392794,-48.03254740998941L13.149529565583734,-43.095976144506885z" style="fill:rgb(13,70,126)"/><path d="M15.776522448399426,-54.68331703570806L10.769575332392794,-48.03254740998941L12.442908618517485,-44.87111376514368zM-21.830915286467153,-35.97145352121443L-28.130236304645322,-28.35262906965532L-32.33191494182088,-20.30655314748789zM8.18535000276093,-41.489221903053156L3.900149253802732,-42.5845803452543L-21.830915286467153,-35.97145352121443zM34.63911171761502,-53.61645054221308L25.668566790826187,-55.11647503509889L15.776522448399426,-54.68331703570806zM-108.6485272818484,14.942920232424918L-113.62136746111047,17.174938853982994L-118.45575672349625,19.821277310540506zM-118.45575672349625,19.821277310540506L-123.0853182734485,22.845836138618527L-127.44603879838873,26.207772075049082zM-28.130236304645322,-28.35262906965532L-30.51314560066855,-24.355369248237615L-32.33191494182088,-20.30655314748789zM34.63911171761502,-53.61645054221308L30.30324812070208,-54.60738343528709L25.668566790826187,-55.11647503509889zM-118.45575672349625,19.821277310540506L-127.44603879838873,26.207772075049082L-135.12039213429733,33.75878505531131zM-127.44603879838873,26.207772075049082L-131.47687281111024,29.861843281534924L-135.12039213429733,33.75878505531131z" style="fill:rgb(83,212,212)"/><path d="M-33.55523301040139,-16.263703687751523L-30.951415657212383,-11.428285598799347L-30.128613222498625,-14.178345780288431z" style="fill:rgb(244,138,176)"/><path d="M-103.6053328382904,13.156254728378457L-108.6485272818484,14.942920232424918L-112.11948387314332,27.047636318229806zM-113.37626936045567,29.749681817123943L-108.6485272818484,14.942920232424918L-118.45575672349625,19.821277310540506z" style="fill:rgb(83,212,212)"/><path d="M-30.128613222498625,-14.178345780288431L-32.7226599456594,-19.015215463987488L-33.55523301040139,-16.263703687751523z" style="fill:rgb(244,138,176)"/><path d="M47.751253541270245,-45.12766674703594L15.776522448399426,-54.68331703570806L12.442908618517485,-44.87111376514368zM-33.55523301040139,-16.263703687751523L-32.7226599456594,-19.015215463987488L-35.637344917852666,-16.775120535885222zM47.751253541270245,-45.12766674703594L34.63911171761502,-53.61645054221308L15.776522448399426,-54.68331703570806z" style="fill:rgb(83,212,212)"/><path d="M-34.15932800991905,-12.285411449925366L-31.543305369308293,-7.450725212181852L-30.951415657212383,-11.428285598799347zM-30.951415657212383,-11.428285598799347L-33.55523301040139,-16.263703687751523L-34.15932800991905,-12.285411449925366z" style="fill:rgb(246,149,166)"/><path d="M-35.637344917852666,-16.775120535885222L-39.75773528825986,-13.28115881571052L-43.65616119949604,-9.630644121135061zM-103.6053328382904,13.156254728378457L-112.11948387314332,27.047636318229806L-108.88656278301384,26.21402190116605zM-32.33191494182088,-20.30655314748789L-33.55523301040139,-16.263703687751523L-34.15932800991905,-12.285411449925366zM-113.37626936045567,29.749681817123943L-112.11948387314332,27.047636318229806L-108.6485272818484,14.942920232424918zM-135.12039213429733,33.75878505531131L-138.32345380260531,37.84570101204097L-141.03782868718596,42.066529406944696z" style="fill:rgb(83,212,212)"/><path d="M-109.14810961252832,31.69824456836958L-105.92759973898995,30.872258670861576L-108.88656278301384,26.21402190116605z" style="fill:rgb(127,37,217)"/><path d="M8.18535000276093,-41.489221903053156L-21.830915286467153,-35.97145352121443L0.514457916490923,-15.163489637952475z" style="fill:rgb(83,212,212)"/><path d="M-110.393106264077,34.39729383272015L-109.14810961252832,31.69824456836958L-112.11948387314332,27.047636318229806z" style="fill:rgb(241,128,184)"/><path d="M-21.830915286467153,-35.97145352121443L-32.33191494182088,-20.30655314748789L-2.6068556539769214,-13.185986319833185zM-34.15932800991905,-12.285411449925366L-33.55523301040139,-16.263703687751523L-35.637344917852666,-16.775120535885222zM-103.6053328382904,13.156254728378457L-108.88656278301384,26.21402190116605L-108.1336504763584,28.401033758931046zM42.15719403460823,-50.23419177077382L38.61093200734732,-52.15327743028479L34.63911171761502,-53.61645054221308zM47.751253541270245,-45.12766674703594L12.442908618517485,-44.87111376514368L8.18535000276093,-41.489221903053156z" style="fill:rgb(83,212,212)"/><path d="M-108.88656278301384,26.21402190116605L-112.11948387314332,27.047636318229806L-109.14810961252832,31.69824456836958z" style="fill:rgb(127,37,217)"/><path d="M-35.637344917852666,-16.775120535885222L-43.65616119949604,-9.630644121135061L-50.715947304744354,-1.9207400663453331zM-123.6268454403562,40.09886840980876L-113.37626936045567,29.749681817123943L-118.45575672349625,19.821277310540506zM-34.15932800991905,-12.285411449925366L-35.637344917852666,-16.775120535885222L-50.715947304744354,-1.9207400663453331z" style="fill:rgb(83,212,212)"/><path d="M-112.11948387314332,27.047636318229806L-113.37626936045567,29.749681817123943L-110.393106264077,34.39729383272015z" style="fill:rgb(241,128,184)"/><path d="M-118.45575672349625,19.821277310540506L-135.12039213429733,33.75878505531131L-134.07524786948994,53.648957414957486z" style="fill:rgb(83,212,212)"/><path d="M-31.768919854877037,-0.05740011391263958L-31.543305369308293,-7.450725212181852L-34.15932800991905,-12.285411449925366z" style="fill:rgb(247,158,158)"/><path d="M-103.6053328382904,13.156254728378457L-108.1336504763584,28.401033758931046L-108.5624976198089,32.71770764529219zM-43.65616119949604,-9.630644121135061L-47.314657573903986,-5.8386027301365875L-50.715947304744354,-1.9207400663453331z" style="fill:rgb(83,212,212)"/><path d="M-51.96484333147972,-0.31252384668724437L-49.25967454041619,4.480447472872996L-31.768919854877037,-0.05740011391263958z" style="fill:rgb(127,37,217)"/><path d="M-127.29614897193478,44.26297025387869L-123.6268454403562,40.09886840980876L-118.45575672349625,19.821277310540506zM47.751253541270245,-45.12766674703594L42.15719403460823,-50.23419177077382L34.63911171761502,-53.61645054221308zM-103.6053328382904,13.156254728378457L-108.5624976198089,32.71770764529219L-103.62506270134025,32.66607242264276z" style="fill:rgb(83,212,212)"/><path d="M-115.98887049426817,41.23660918381109L-110.84397125467744,38.71634702517434L-113.8412379768615,34.070011523144544z" style="fill:rgb(162,50,222)"/><path d="M-139.34436101379362,54.97940543143058L-135.12039213429733,33.75878505531131L-141.03782868718596,42.066529406944696zM-141.03782868718596,42.066529406944696L-143.22093471751606,46.36255097454552L-144.83651916635247,50.67295423963572z" style="fill:rgb(83,212,212)"/><path d="M-113.8412379768615,34.070011523144544L-110.84397125467744,38.71634702517434L-105.58559470495048,37.37649379767944z" style="fill:rgb(127,37,217)"/><path d="M-32.33191494182088,-20.30655314748789L-34.15932800991905,-12.285411449925366L-2.6068556539769214,-13.185986319833185z" style="fill:rgb(83,212,212)"/><path d="M-123.6268454403562,40.09886840980876L-120.58148285017505,44.721884864762785L-115.98887049426817,41.23660918381109z" style="fill:rgb(194,70,219)"/><path d="M-50.715947304744354,-1.9207400663453331L-34.40478784961155,-4.89250653284957L-34.15932800991905,-12.285411449925366zM-129.69530627289993,48.7405451753481L-127.29614897193478,44.26297025387869L-118.45575672349625,19.821277310540506z" style="fill:rgb(83,212,212)"/><path d="M-34.15932800991905,-12.285411449925366L-34.40478784961155,-4.89250653284957L-31.768919854877037,-0.05740011391263958z" style="fill:rgb(247,158,158)"/><path d="M-110.91366000164186,30.5923853361972L-113.37626936045567,29.749681817123943L-113.8412379768615,34.070011523144544z" style="fill:rgb(83,212,212)"/><path d="M-113.8412379768615,34.070011523144544L-119.00959599900148,36.602536782271926L-115.98887049426817,41.23660918381109z" style="fill:rgb(162,50,222)"/><path d="M-108.1336504763584,28.401033758931046L-110.91366000164186,30.5923853361972L-113.8412379768615,34.070011523144544zM-103.6053328382904,13.156254728378457L-103.62506270134025,32.66607242264276L-99.45735530363123,33.92885318963938zM-119.00959599900148,36.602536782271926L-113.8412379768615,34.070011523144544L-113.37626936045567,29.749681817123943z" style="fill:rgb(83,212,212)"/><path d="M-124.22704027362661,48.87701115065649L-120.58148285017505,44.721884864762785L-123.6268454403562,40.09886840980876z" style="fill:rgb(221,95,207)"/><path d="M-50.715947304744354,-1.9207400663453331L-51.96484333147972,-0.31252384668724437L-34.40478784961155,-4.89250653284957z" style="fill:rgb(83,212,212)"/><path d="M-115.98887049426817,41.23660918381109L-119.00959599900148,36.602536782271926L-123.6268454403562,40.09886840980876z" style="fill:rgb(194,70,219)"/><path d="M-31.768919854877037,-0.05740011391263958L-34.40478784961155,-4.89250653284957L-51.96484333147972,-0.31252384668724437z" style="fill:rgb(127,37,217)"/><path d="M-123.6268454403562,40.09886840980876L-119.00959599900148,36.602536782271926L-113.37626936045567,29.749681817123943zM-21.830915286467153,-35.97145352121443L-2.6068556539769214,-13.185986319833185L0.514457916490923,-15.163489637952475z" style="fill:rgb(83,212,212)"/><path d="M-105.58559470495048,37.37649379767944L-108.5624976198089,32.71770764529219L-113.8412379768615,34.070011523144544z" style="fill:rgb(127,37,217)"/><path d="M-108.1336504763584,28.401033758931046L-113.8412379768615,34.070011523144544L-108.5624976198089,32.71770764529219zM-129.69530627289993,48.7405451753481L-118.45575672349625,19.821277310540506L-134.07524786948994,53.648957414957486z" style="fill:rgb(83,212,212)"/><path d="M-105.58559470495048,37.37649379767944L-100.66376999850846,37.33643859739778L-103.62506270134025,32.66607242264276z" style="fill:rgb(92,32,204)"/><path d="M47.751253541270245,-45.12766674703594L45.22102573600192,-47.88234010881109L42.15719403460823,-50.23419177077382zM0.514457916490923,-15.163489637952475L47.751253541270245,-45.12766674703594L8.18535000276093,-41.489221903053156zM-135.12039213429733,33.75878505531131L-138.01955309397712,52.19395517618202L-134.77032646311892,51.37149156048411z" style="fill:rgb(83,212,212)"/><path d="M-103.62506270134025,32.66607242264276L-108.5624976198089,32.71770764529219L-105.58559470495048,37.37649379767944z" style="fill:rgb(92,32,204)"/><path d="M-139.34436101379362,54.97940543143058L-138.01955309397712,52.19395517618202L-135.12039213429733,33.75878505531131z" style="fill:rgb(83,212,212)"/><path d="M-123.6268454403562,40.09886840980876L-127.29614897193478,44.26297025387869L-124.22704027362661,48.87701115065649z" style="fill:rgb(221,95,207)"/><path d="M-103.6053328382904,13.156254728378457L-99.45735530363123,33.92885318963938L-96.43005114048495,36.40884769950738zM-141.03782868718596,42.066529406944696L-144.83651916635247,50.67295423963572L-146.25599323495084,59.087329472195876z" style="fill:rgb(83,212,212)"/><path d="M-126.60534901127247,53.34840707245182L-124.22704027362661,48.87701115065649L-127.29614897193478,44.26297025387869z" style="fill:rgb(239,123,189)"/><path d="M-135.12039213429733,33.75878505531131L-134.77032646311892,51.37149156048411L-134.07524786948994,53.648957414957486zM-4.252182810848763,-12.143590853348247L-2.606855945374249,-13.185985154246527L-103.6053328382904,13.156254728378457z" style="fill:rgb(83,212,212)"/><path d="M-103.62506270134025,32.66607242264276L-100.66376999850846,37.33643859739778L-96.50558625490955,38.608878476910036z" style="fill:rgb(60,35,184)"/><path d="M-8.350771373086182,-8.524422144753801L-4.252182810848763,-12.143590853348247L-103.6053328382904,13.156254728378457zM-34.15932800991905,-12.285411449925366L-34.40478784961155,-4.89250653284957L-2.6068556539769214,-13.185986319833185z" style="fill:rgb(83,212,212)"/><path d="M-2.6068556539769214,-13.185986319833185L-34.40478784961155,-4.89250653284957L-31.768919854877037,-0.05740011391263958zM-134.89348024899556,56.78207676185136L-131.65674785051868,55.967222424852785L-134.77032646311892,51.37149156048411z" style="fill:rgb(127,37,217)"/><path d="M-136.20572889102047,59.563980243707455L-134.89348024899556,56.78207676185136L-138.01955309397712,52.19395517618202z" style="fill:rgb(241,128,184)"/><path d="M-139.34436101379362,54.97940543143058L-141.03782868718596,42.066529406944696L-146.25599323495084,59.087329472195876z" style="fill:rgb(83,212,212)"/><path d="M-127.29614897193478,44.26297025387869L-129.69530627289993,48.7405451753481L-126.60534901127247,53.34840707245182z" style="fill:rgb(239,123,189)"/><path d="M-18.507241896893543,0.957545480307527L-8.350771373086182,-8.524422144753801L-103.6053328382904,13.156254728378457z" style="fill:rgb(83,212,212)"/><path d="M-31.768919854877037,-0.05740011391263958L-0.09827784715931426,-8.274114017726685L-2.6068556539769214,-13.185986319833185zM-134.77032646311892,51.37149156048411L-138.01955309397712,52.19395517618202L-134.89348024899556,56.78207676185136z" style="fill:rgb(127,37,217)"/><path d="M-144.83651916635247,50.67295423963572L-145.85536138483118,54.935518956373535L-146.25599323495084,59.087329472195876z" style="fill:rgb(83,212,212)"/><path d="M-96.50558625490955,38.608878476910036L-99.45735530363123,33.92885318963938L-103.62506270134025,32.66607242264276z" style="fill:rgb(60,35,184)"/><path d="M-91.17558232653477,42.81680818117513L-103.6053328382904,13.156254728378457L-96.43005114048495,36.40884769950738z" style="fill:rgb(83,212,212)"/><path d="M-138.01955309397712,52.19395517618202L-139.34436101379362,54.97940543143058L-136.20572889102047,59.563980243707455z" style="fill:rgb(241,128,184)"/><path d="M-109.10191301171365,38.14434121151453L-114.42543969595356,39.50096689093626L-119.34621669485709,42.688215186791716z" style="fill:rgb(83,212,212)"/><path d="M-130.60391488041515,53.145219191645765L-127.49787993107759,57.75020828488527L-126.60534901127247,53.34840707245182z" style="fill:rgb(246,151,164)"/><path d="M-22.2766677093167,4.8263280654991805L-18.507241896893543,0.957545480307527L-103.6053328382904,13.156254728378457z" style="fill:rgb(83,212,212)"/><path d="M-126.60534901127247,53.34840707245182L-129.69530627289993,48.7405451753481L-130.60391488041515,53.145219191645765z" style="fill:rgb(246,151,164)"/><path d="M-0.09827784715931426,-8.274114017726685L3.007602526310183,-10.24417887689848L0.514457916490923,-15.163489637952475z" style="fill:rgb(181,60,221)"/><path d="M3.007602526310183,-10.24417887689848L8.174324331670267,-12.498905030398975L5.704373640526438,-17.430701914344876z" style="fill:rgb(155,46,222)"/><path d="M-96.50558625490955,38.608878476910036L-93.48080143025382,41.09568321422907L-96.43005114048495,36.40884769950738z" style="fill:rgb(33,47,159)"/><path d="M-4.252182810848763,-12.143590853348247L-1.7354655422226726,-7.235643718885519L-0.09827824596429659,-8.274114017726685z" style="fill:rgb(181,60,221)"/><path d="M-96.43005114048495,36.40884769950738L-99.45735530363123,33.92885318963938L-96.50558625490955,38.608878476910036z" style="fill:rgb(33,47,159)"/><path d="M-103.6053328382904,13.156254728378457L-89.93460843245738,40.022367960201244L-86.6049076866669,39.17953430113439zM-25.523147927812985,8.921749178225802L-22.2766677093167,4.8263280654991805L-103.6053328382904,13.156254728378457z" style="fill:rgb(83,212,212)"/><path d="M51.04073088866997,-38.56291341688645L53.304362180785176,-33.521963230596086L51.96420447770117,-36.9700125545886z" style="fill:rgb(244,176,138)"/><path d="M-91.17558232653477,42.81680818117513L-89.93460843245738,40.022367960201244L-103.6053328382904,13.156254728378457z" style="fill:rgb(83,212,212)"/><path d="M8.174324331670267,-12.498905030398975L13.500675002818904,-13.883517449874963L11.052418703486278,-18.82831038918888z" style="fill:rgb(127,37,217)"/><path d="M0.514457916490923,-15.163489637952475L5.704373640526438,-17.430701914344876L47.751253541270245,-45.12766674703594z" style="fill:rgb(83,212,212)"/><path d="M51.96420447770117,-36.9700125545886L49.70340612371907,-42.00681913107952L51.04073088866997,-38.56291341688645z" style="fill:rgb(244,176,138)"/><path d="M-8.350771373086182,-8.524422144753801L-5.811252261123933,-3.6261743013098395L-1.7354655422226726,-7.235643718885519z" style="fill:rgb(204,78,216)"/><path d="M51.04073088866997,-38.56291341688645L49.70340612371907,-42.00681913107952L47.751253541270245,-45.12766674703594z" style="fill:rgb(83,212,212)"/><path d="M5.704373640526438,-17.430701914344876L0.514457916490923,-15.163489637952475L3.007602526310183,-10.24417887689848z" style="fill:rgb(155,46,222)"/><path d="M0.514457916490923,-15.163489637952475L-2.6068556539769214,-13.185986319833185L-0.09827784715931426,-8.274114017726685z" style="fill:rgb(181,60,221)"/><path d="M5.704373640526438,-17.430701914344876L11.052418703486278,-18.82831038918888L47.751253541270245,-45.12766674703594z" style="fill:rgb(83,212,212)"/><path d="M-0.09827824596429659,-8.274114017726685L-2.606855945374249,-13.185985154246527L-4.252182810848763,-12.143590853348247z" style="fill:rgb(181,60,221)"/><path d="M-126.80952356260966,61.6945297000564L-127.49787993107759,57.75020828488527L-130.60391488041515,53.145219191645765z" style="fill:rgb(244,177,137)"/><path d="M-136.90759003770725,55.885202835097374L-139.34436101379362,54.97940543143058L-146.25599323495084,59.087329472195876zM-101.85864486190495,41.69735679931602L-109.10191301171365,38.14434121151453L-119.34621669485709,42.688215186791716zM-130.60391488041515,53.145219191645765L-129.69530627289993,48.7405451753481L-134.07524786948994,53.648957414957486zM-119.34621669485709,42.688215186791716L-122.76148159257217,46.99554238816055L-123.89056550575802,51.45928800493263zM-103.6053328382904,13.156254728378457L-77.79867783895062,35.87363769557584L-72.44126475131071,34.51607998550099z" style="fill:rgb(83,212,212)"/><path d="M11.052418703486278,-18.82831038918888L5.704373640526438,-17.430701914344876L8.174324331670267,-12.498905030398975z" style="fill:rgb(127,37,217)"/><path d="M-1.7354655422226726,-7.235643718885519L-4.252182810848763,-12.143590853348247L-8.350771373086182,-8.524422144753801z" style="fill:rgb(204,78,216)"/><path d="M-79.75018311124029,40.34556521367952L-103.6053328382904,13.156254728378457L-86.6049076866669,39.17953430113439zM-28.189256189382373,13.177575507804667L-25.523147927812985,8.921749178225802L-103.6053328382904,13.156254728378457zM-79.75018311124029,40.34556521367952L-77.79867783895062,35.87363769557584L-103.6053328382904,13.156254728378457z" style="fill:rgb(83,212,212)"/><path d="M13.500675002818904,-13.883517449874963L18.71350221825609,-14.323474022401658L16.284388311369764,-19.281107506888596z" style="fill:rgb(99,32,208)"/><path d="M-101.85864486190495,41.69735679931602L-104.56875299085839,38.92966163551341L-109.10191301171365,38.14434121151453z" style="fill:rgb(83,212,212)"/><path d="M-11.50725330783291,-4.565221103691824L-8.94723743928423,0.32558504657806525L-5.811252261123933,-3.6261743013098395z" style="fill:rgb(223,98,206)"/><path d="M16.284388311369764,-19.281107506888596L11.052418703486278,-18.82831038918888L13.500675002818904,-13.883517449874963z" style="fill:rgb(99,32,208)"/><path d="M-5.811252261123933,-3.6261743013098395L-8.350771373086182,-8.524422144753801L-11.50725330783291,-4.565221103691824z" style="fill:rgb(223,98,206)"/><path d="M-14.279397523097733,-2.6226102419895496L-11.705139310377813,2.261545664441329L-8.94723743928423,0.32558504657806525z" style="fill:rgb(188,65,220)"/><path d="M-30.22562585199166,17.524050248548384L-28.189256189382373,13.177575507804667L-103.6053328382904,13.156254728378457zM-129.925305688748,57.08883256953766L-130.60391488041515,53.145219191645765L-134.07524786948994,53.648957414957486z" style="fill:rgb(83,212,212)"/><path d="M-130.60391488041515,53.145219191645765L-129.925305688748,57.08883256953766L-126.80952356260966,61.6945297000564z" style="fill:rgb(244,177,137)"/><path d="M18.71350221825609,-14.323474022401658L21.872999270575228,-13.974399482789904L19.454097694033415,-18.939883506448005z" style="fill:rgb(73,33,194)"/><path d="M51.73518280366714,-34.845157160933844L54.00448447329472,-29.801752941950717L53.304362180785176,-33.521963230596086zM53.304362180785176,-33.521963230596086L51.04073088866997,-38.56291341688645L51.73518280366714,-34.845157160933844z" style="fill:rgb(246,166,149)"/><path d="M-98.61963768829216,50.50952257159523L-98.87689697881342,46.37078668998808L-101.85864486190495,41.69735679931602z" style="fill:rgb(246,168,147)"/><path d="M57.55059175574401,-38.89857964895413L53.19592838387972,-40.21475526070127L50.13037893010813,-40.907261891172155z" style="fill:rgb(83,212,212)"/><path d="M-18.507241896893543,0.957545480307527L-15.909691570383028,5.831552059833013L-11.705139310377813,2.261545664441329z" style="fill:rgb(201,75,217)"/><path d="M57.55059175574401,-38.89857964895413L50.13037893010813,-40.907261891172155L51.04073088866997,-38.56291341688645zM-146.25599323495084,59.087329472195876L-146.02530811512972,63.0656243958765L-145.15921607640112,66.80869266957909z" style="fill:rgb(83,212,212)"/><path d="M-8.94723743928423,0.32558504657806525L-11.50725330783291,-4.565221103691824L-14.279397523097733,-2.6226102419895496z" style="fill:rgb(188,65,220)"/><path d="M19.454097694033415,-18.939883506448005L16.284388311369764,-19.281107506888596L18.71350221825609,-14.323474022401658zM19.454097694033415,-18.939883506448005L21.872999270575228,-13.974399482789904L23.542382695828092,-13.789959446452745z" style="fill:rgb(73,33,194)"/><path d="M11.052418703486278,-18.82831038918888L52.11495463710319,-27.458429413029716L47.751253541270245,-45.12766674703594zM52.11495463710319,-27.458429413029716L51.04073088866997,-38.56291341688645L47.751253541270245,-45.12766674703594z" style="fill:rgb(83,212,212)"/><path d="M-11.705139310377813,2.261545664441329L-14.279397523097733,-2.6226102419895496L-18.507241896893543,0.957545480307527z" style="fill:rgb(201,75,217)"/><path d="M-14.279397523097733,-2.6226102419895496L-11.50725330783291,-4.565221103691824L-8.350771373086182,-8.524422144753801zM-119.34621669485709,42.688215186791716L-123.89056550575802,51.45928800493263L-113.61659439945032,56.7096313699081zM-31.59192501917113,21.88870615966994L-30.22562585199166,17.524050248548384L-103.6053328382904,13.156254728378457z" style="fill:rgb(83,212,212)"/><path d="M-22.2766677093167,4.8263280654991805L-19.656598291601103,9.691241441176794L-15.909691570383028,5.831552059833013z" style="fill:rgb(213,86,212)"/><path d="M-18.507241896893543,0.957545480307527L-14.279397523097733,-2.6226102419895496L-8.350771373086182,-8.524422144753801zM-113.61659439945032,56.7096313699081L-101.85864486190495,41.69735679931602L-119.34621669485709,42.688215186791716zM-127.70048641177051,60.214711281702996L-129.925305688748,57.08883256953766L-134.07524786948994,53.648957414957486z" style="fill:rgb(83,212,212)"/><path d="M21.12889986188014,-18.75958897634907L23.542382695828092,-13.789959446452745L27.73197403122526,-12.302435987379292z" style="fill:rgb(50,38,176)"/><path d="M23.542382695828092,-13.789959446452745L21.12889986188014,-18.75958897634907L19.454097694033415,-18.939883506448005z" style="fill:rgb(73,33,194)"/><path d="M-15.909691570383028,5.831552059833013L-18.507241896893543,0.957545480307527L-22.2766677093167,4.8263280654991805z" style="fill:rgb(213,86,212)"/><path d="M-101.85864486190495,41.69735679931602L-101.61250682151902,45.8362576093303L-98.61963768829216,50.50952257159523z" style="fill:rgb(246,168,147)"/><path d="M54.399043485956014,-22.413041481643557L54.00448447329472,-29.801752941950717L51.73518280366714,-34.845157160933844z" style="fill:rgb(247,158,158)"/><path d="M-86.99599370195533,44.72380869621724L-83.67947540173923,43.88887289358224L-86.6049076866669,39.17953430113439z" style="fill:rgb(127,37,217)"/><path d="M-88.22502784751298,47.51485130318941L-86.99599370195533,44.72380869621724L-89.93460843245738,40.022367960201244z" style="fill:rgb(241,128,184)"/><path d="M-91.17558232653477,42.81680818117513L-96.43005114048495,36.40884769950738L-94.82313363122468,39.9014783876317z" style="fill:rgb(83,212,212)"/><path d="M-119.36577466706204,59.68698465911483L-115.66727746300491,61.598752186282844L-118.74740432400532,56.96745277020327z" style="fill:rgb(48,39,174)"/><path d="M-100.90224518612222,55.07079455965409L-98.61963768829216,50.50952257159523L-101.61250682151902,45.8362576093303z" style="fill:rgb(239,124,188)"/><path d="M-32.25781433944096,26.197298841525765L-31.59192501917113,21.88870615966994L-103.6053328382904,13.156254728378457z" style="fill:rgb(83,212,212)"/><path d="M-118.74740432400532,56.96745277020327L-122.45200803932296,55.063701341844656L-119.36577466706204,59.68698465911483z" style="fill:rgb(48,39,174)"/><path d="M-25.523147927812985,8.921749178225802L-22.88169887194738,13.778748233280615L-19.656598291601103,9.691241441176794z" style="fill:rgb(223,98,205)"/><path d="M11.052418703486278,-18.82831038918888L16.284388311369764,-19.281107506888596L52.11495463710319,-27.458429413029716zM-146.25599323495084,59.087329472195876L-145.15921607640112,66.80869266957909L-141.55220763625465,73.353602444756z" style="fill:rgb(83,212,212)"/><path d="M52.11495463710319,-27.458429413029716L19.454097694033415,-18.939883506448005L21.872999270575228,-13.974399482789904zM-86.6049076866669,39.17953430113439L-89.93460843245738,40.022367960201244L-86.99599370195533,44.72380869621724z" style="fill:rgb(127,37,217)"/><path d="M-19.656598291601103,9.691241441176794L-22.2766677093167,4.8263280654991805L-25.523147927812985,8.921749178225802z" style="fill:rgb(223,98,205)"/><path d="M-123.89056550575802,51.45928800493263L-122.45200803932296,55.063701341844656L-113.61659439945032,56.7096313699081z" style="fill:rgb(83,212,212)"/><path d="M27.73197403122526,-12.302435987379292L25.32978700266633,-17.28253953975324L21.12889986188014,-18.75958897634907z" style="fill:rgb(50,38,176)"/><path d="M52.11495463710319,-27.458429413029716L51.73518280366714,-34.845157160933844L51.04073088866997,-38.56291341688645z" style="fill:rgb(83,212,212)"/><path d="M-77.79867783895062,35.87363769557584L-74.91121577776549,40.60407951440457L-69.57515736632247,39.259269370943514z" style="fill:rgb(127,37,217)"/><path d="M16.284388311369764,-19.281107506888596L19.454097694033415,-18.939883506448005L52.11495463710319,-27.458429413029716zM-103.9156967035085,50.403832640494365L-101.61250682151902,45.8362576093303L-101.85864486190495,41.69735679931602z" style="fill:rgb(83,212,212)"/><path d="M21.872999270575228,-13.974399482789904L54.399043485956014,-22.413041481643557L52.11495463710319,-27.458429413029716z" style="fill:rgb(127,37,217)"/><path d="M-89.93460843245738,40.022367960201244L-91.17558232653477,42.81680818117513L-88.22502784751298,47.51485130318941z" style="fill:rgb(241,128,184)"/><path d="M25.32978700266633,-17.28253953975324L27.73197403122526,-12.302435987379292L30.992231786271013,-9.97405746024476z" style="fill:rgb(31,48,156)"/><path d="M-91.17558232653477,42.81680818117513L-94.82313363122468,39.9014783876317L-94.79745822354718,44.10751083463066zM70.6041246693888,-32.28074199415296L57.55059175574401,-38.89857964895413L51.04073088866997,-38.56291341688645z" style="fill:rgb(83,212,212)"/><path d="M-101.61250682151902,45.8362576093303L-103.9156967035085,50.403832640494365L-100.90224518612222,55.07079455965409z" style="fill:rgb(239,124,188)"/><path d="M-115.66727746300491,61.598752186282844L-110.55360328523157,61.35273853503707L-113.61659439945032,56.7096313699081z" style="fill:rgb(98,32,207)"/><path d="M-105.21443765128555,58.992917972480384L-100.90224518612222,55.07079455965409L-103.9156967035085,50.403832640494365z" style="fill:rgb(206,80,215)"/><path d="M-32.20385509807614,30.37485745338847L-32.25781433944096,26.197298841525765L-103.6053328382904,13.156254728378457z" style="fill:rgb(83,212,212)"/><path d="M-28.189256189382373,13.177575507804667L-25.52792091099423,18.027944521769832L-22.88169887194738,13.778748233280615z" style="fill:rgb(232,111,197)"/><path d="M65.60233625509977,-35.41119498865965L61.693335855290606,-37.29591612255222L57.55059175574401,-38.89857964895413zM51.04073088866997,-38.56291341688645L51.73518280366714,-34.845157160933844L70.6041246693888,-32.28074199415296zM-113.61659439945032,56.7096313699081L-103.9156967035085,50.403832640494365L-101.85864486190495,41.69735679931602z" style="fill:rgb(83,212,212)"/><path d="M-79.75018311124029,40.34556521367952L-76.84389625718126,45.070643334820936L-74.91121577776549,40.60407951440457z" style="fill:rgb(241,128,184)"/><path d="M-136.90759003770725,55.885202835097374L-146.25599323495084,59.087329472195876L-127.61969953713698,81.26434924491677z" style="fill:rgb(83,212,212)"/><path d="M-113.61659439945032,56.7096313699081L-118.74740432400532,56.96745277020327L-115.66727746300491,61.598752186282844z" style="fill:rgb(98,32,207)"/><path d="M-113.61659439945032,56.7096313699081L-110.55360328523157,61.35273853503707L-105.21443765128555,58.992917972480384z" style="fill:rgb(156,47,222)"/><path d="M-22.88169887194738,13.778748233280615L-25.523147927812985,8.921749178225802L-28.189256189382373,13.177575507804667z" style="fill:rgb(232,111,197)"/><path d="M-69.57515736632247,39.259269370943514L-72.44126475131071,34.51607998550099L-77.79867783895062,35.87363769557584z" style="fill:rgb(127,37,217)"/><path d="M51.73518280366714,-34.845157160933844L52.11495463710319,-27.458429413029716L54.399043485956014,-22.413041481643557z" style="fill:rgb(247,158,158)"/><path d="M-134.07524786948994,53.648957414957486L-136.90759003770725,55.885202835097374L-127.61969953713698,81.26434924491677z" style="fill:rgb(83,212,212)"/><path d="M-74.91121577776549,40.60407951440457L-77.79867783895062,35.87363769557584L-79.75018311124029,40.34556521367952z" style="fill:rgb(241,128,184)"/><path d="M-122.45200803932296,55.063701341844656L-118.74740432400532,56.96745277020327L-113.61659439945032,56.7096313699081zM-145.15921607640112,66.80869266957909L-143.66308704232586,70.25687614159642L-141.55220763625465,73.353602444756z" style="fill:rgb(83,212,212)"/><path d="M-103.9156967035085,50.403832640494365L-108.2532699457231,54.33689623774984L-105.21443765128555,58.992917972480384z" style="fill:rgb(206,80,215)"/><path d="M-88.60588403825818,43.70783387754718L-91.17558232653477,42.81680818117513L-94.79745822354718,44.10751083463066z" style="fill:rgb(83,212,212)"/><path d="M30.992231786271013,-9.97405746024476L28.596243278619696,-14.962334058403401L25.32978700266633,-17.28253953975324z" style="fill:rgb(31,48,156)"/><path d="M-105.21443765128555,58.992917972480384L-108.2532699457231,54.33689623774984L-113.61659439945032,56.7096313699081z" style="fill:rgb(156,47,222)"/><path d="M28.596243278619696,-14.962334058403401L30.992231786271013,-9.97405746024476L33.83502257087869,-9.46858712029042z" style="fill:rgb(66,34,189)"/><path d="M-31.422365236249973,34.34685244185906L-32.20385509807614,30.37485745338847L-103.6053328382904,13.156254728378457zM-88.60588403825818,43.70783387754718L-94.79745822354718,44.10751083463066L-96.37423091858135,48.65564599740842z" style="fill:rgb(83,212,212)"/><path d="M-30.22562585199166,17.524050248548384L-27.54625315326094,22.369166147750548L-25.52792091099423,18.027944521769832z" style="fill:rgb(239,123,188)"/><path d="M52.11495463710319,-27.458429413029716L54.399043485956014,-22.413041481643557L72.8108120851277,-27.189839430460403z" style="fill:rgb(127,37,217)"/><path d="M70.6041246693888,-32.28074199415296L65.60233625509977,-35.41119498865965L57.55059175574401,-38.89857964895413zM-113.61659439945032,56.7096313699081L-108.2532699457231,54.33689623774984L-103.9156967035085,50.403832640494365z" style="fill:rgb(83,212,212)"/><path d="M-25.52792091099423,18.027944521769832L-28.189256189382373,13.177575507804667L-30.22562585199166,17.524050248548384z" style="fill:rgb(239,123,188)"/><path d="M-127.70048641177051,60.214711281702996L-134.07524786948994,53.648957414957486L-127.61969953713698,81.26434924491677zM-75.58061000550806,41.76926460370575L-86.6049076866669,39.17953430113439L-85.77565884294734,41.45333052897978zM51.73518280366714,-34.845157160933844L52.11495463710319,-27.458429413029716L70.6041246693888,-32.28074199415296z" style="fill:rgb(83,212,212)"/><path d="M-141.55220763625465,73.353602444756L-138.3505869074151,77.92814422055625L-135.650645582257,80.62611250853467z" style="fill:rgb(31,48,157)"/><path d="M-75.58061000550806,41.76926460370575L-79.75018311124029,40.34556521367952L-86.6049076866669,39.17953430113439zM-17.230334975088958,48.716196866097846L-103.6053328382904,13.156254728378457L-72.44126475131071,34.51607998550099zM25.32978700266633,-17.28253953975324L28.596243278619696,-14.962334058403401L31.448019529403002,-14.463883506439716z" style="fill:rgb(83,212,212)"/><path d="M33.83502257087869,-9.46858712029042L31.448019529403002,-14.463883506439716L28.596243278619696,-14.962334058403401z" style="fill:rgb(66,34,189)"/><path d="M-75.58061000550806,41.76926460370575L-85.77565884294734,41.45333052897978L-88.60588403825818,43.70783387754718z" style="fill:rgb(83,212,212)"/><path d="M31.448019529403002,-14.463883506439716L33.83502257087869,-9.46858712029042L38.1974014940651,-8.07184597463904z" style="fill:rgb(53,37,179)"/><path d="M-146.25599323495084,59.087329472195876L-141.55220763625465,73.353602444756L-127.61969953713698,81.26434924491677zM-75.58061000550806,41.76926460370575L-88.60588403825818,43.70783387754718L-96.37423091858135,48.65564599740842zM-29.918132841056995,38.04048430355984L-31.422365236249973,34.34685244185906L-103.6053328382904,13.156254728378457zM-117.51288829391089,68.82105158809179L-124.11120865678745,62.231338339220244L-127.70048641177051,60.214711281702996z" style="fill:rgb(83,212,212)"/><path d="M72.8108120851277,-27.189839430460403L70.6041246693888,-32.28074199415296L52.11495463710319,-27.458429413029716z" style="fill:rgb(127,37,217)"/><path d="M25.32978700266633,-17.28253953975324L31.448019529403002,-14.463883506439716L35.82287833382296,-13.077905259657218z" style="fill:rgb(83,212,212)"/><path d="M-31.59192501917113,21.88870615966994L-28.896704490747428,26.730026240066287L-27.54625315326094,22.369166147750548z" style="fill:rgb(244,136,178)"/><path d="M-75.58061000550806,41.76926460370575L-96.37423091858135,48.65564599740842L-99.42645675864681,53.13451440064821z" style="fill:rgb(83,212,212)"/><path d="M-27.54625315326094,22.369166147750548L-30.22562585199166,17.524050248548384L-31.59192501917113,21.88870615966994z" style="fill:rgb(244,136,178)"/><path d="M-135.650645582257,80.62611250853467L-138.85195698870993,76.04649892111873L-141.55220763625465,73.353602444756z" style="fill:rgb(31,48,157)"/><path d="M70.6041246693888,-32.28074199415296L69.256340176814,-33.25020289325009L65.60233625509977,-35.41119498865965z" style="fill:rgb(83,212,212)"/><path d="M38.1974014940651,-8.07184597463904L35.82287833382296,-13.077905259657218L31.448019529403002,-14.463883506439716z" style="fill:rgb(53,37,179)"/><path d="M-138.85195698870993,76.04649892111873L-135.650645582257,80.62611250853467L-132.40010436175902,82.87449278486915z" style="fill:rgb(41,42,168)"/><path d="M-117.51288829391089,68.82105158809179L-119.46944544166047,62.942980693147454L-124.11120865678745,62.231338339220244zM-27.70896268863847,41.386087819845926L-29.918132841056995,38.04048430355984L-103.6053328382904,13.156254728378457z" style="fill:rgb(83,212,212)"/><path d="M35.82287833382296,-13.077905259657218L38.1974014940651,-8.07184597463904L42.11511615962667,-6.137225152356702z" style="fill:rgb(41,42,168)"/><path d="M-113.10320560876596,70.57281456533707L-109.76925039536333,69.74982543760095L-112.85438984834326,65.10756276056372z" style="fill:rgb(127,37,217)"/><path d="M-114.19235322313705,62.27292896805546L-119.46944544166047,62.942980693147454L-116.201642271272,65.93843024760824z" style="fill:rgb(83,212,212)"/><path d="M-117.51288829391089,68.82105158809179L-114.40170888061466,73.45143724007531L-113.10320560876596,70.57281456533707z" style="fill:rgb(241,128,184)"/><path d="M-141.55220763625465,73.353602444756L-138.85195698870993,76.04649892111873L-135.59785683038413,78.28848140704342zM-108.76365570526546,60.27516491896649L-114.19235322313705,62.27292896805546L-116.201642271272,65.93843024760824zM-103.68543383957144,57.13163532216253L-108.76365570526546,60.27516491896649L-116.201642271272,65.93843024760824z" style="fill:rgb(83,212,212)"/><path d="M-112.85438984834326,65.10756276056372L-116.201642271272,65.93843024760824L-113.10320560876596,70.57281456533707z" style="fill:rgb(127,37,217)"/><path d="M-75.58061000550806,41.76926460370575L-99.42645675864681,53.13451440064821L-112.08443953897198,67.47711173934373z" style="fill:rgb(83,212,212)"/><path d="M-32.25781433944096,26.197298841525765L-29.54925494788089,31.036339593111776L-28.896704490747428,26.730026240066287z" style="fill:rgb(246,149,167)"/><path d="M-99.42645675864681,53.13451440064821L-103.68543383957144,57.13163532216253L-112.08443953897198,67.47711173934373z" style="fill:rgb(83,212,212)"/><path d="M-113.10320560876596,70.57281456533707L-116.201642271272,65.93843024760824L-117.51288829391089,68.82105158809179z" style="fill:rgb(241,128,184)"/><path d="M-28.896704490747428,26.730026240066287L-31.59192501917113,21.88870615966994L-32.25781433944096,26.197298841525765z" style="fill:rgb(246,149,167)"/><path d="M-117.51288829391089,68.82105158809179L-116.201642271272,65.93843024760824L-119.46944544166047,62.942980693147454z" style="fill:rgb(83,212,212)"/><path d="M-132.40010436175902,82.87449278486915L-135.59785683038413,78.28848140704342L-138.85195698870993,76.04649892111873z" style="fill:rgb(41,42,168)"/><path d="M-103.68543383957144,57.13163532216253L-116.201642271272,65.93843024760824L-112.85438984834326,65.10756276056372zM-117.51288829391089,68.82105158809179L-127.70048641177051,60.214711281702996L-127.61969953713698,81.26434924491677zM-24.826029372937715,44.31859884785693L-27.70896268863847,41.386087819845926L-103.6053328382904,13.156254728378457z" style="fill:rgb(83,212,212)"/><path d="M42.11511615962667,-6.137225152356702L39.75039420809716,-11.152901713441924L35.82287833382296,-13.077905259657218z" style="fill:rgb(41,42,168)"/><path d="M-135.59785683038413,78.28848140704342L-132.40010436175902,82.87449278486915L-128.64446827471357,84.63253284938595z" style="fill:rgb(52,37,178)"/><path d="M-103.68543383957144,57.13163532216253L-112.85438984834326,65.10756276056372L-112.08443953897198,67.47711173934373z" style="fill:rgb(83,212,212)"/><path d="M39.75039420809716,-11.152901713441924L42.11511615962667,-6.137225152356702L45.515622473009785,-3.6920366157395588z" style="fill:rgb(31,49,156)"/><path d="M-141.55220763625465,73.353602444756L-135.59785683038413,78.28848140704342L-127.61969953713698,81.26434924491677z" style="fill:rgb(83,212,212)"/><path d="M-32.20385509807614,30.37485745338847L-29.48476751418806,35.213183789535464L-29.54925494788089,31.036339593111776z" style="fill:rgb(247,161,155)"/><path d="M-21.313909648220573,46.77907674519864L-24.826029372937715,44.31859884785693L-103.6053328382904,13.156254728378457z" style="fill:rgb(83,212,212)"/><path d="M-128.64446827471357,84.63253284938595L-131.8354142116742,80.03885726287986L-135.59785683038413,78.28848140704342z" style="fill:rgb(52,37,178)"/><path d="M-29.54925494788089,31.036339593111776L-32.25781433944096,26.197298841525765L-32.20385509807614,30.37485745338847z" style="fill:rgb(247,161,155)"/><path d="M-75.58061000550806,41.76926460370575L-112.08443953897198,67.47711173934373L-127.61969953713698,81.26434924491677zM108.59734410421302,-10.231378734676428L19.454097694033415,-18.939883506448005L21.12889986188014,-18.75958897634907z" style="fill:rgb(83,212,212)"/><path d="M-131.8354142116742,80.03885726287986L-128.64446827471357,84.63253284938595L-124.43872293728967,85.86689224744445z" style="fill:rgb(64,34,187)"/><path d="M45.515622473009785,-3.6920366157395588L43.15781118672585,-8.715969984196521L39.75039420809716,-11.152901713441924z" style="fill:rgb(31,49,156)"/><path d="M-114.96917093232773,69.77897338472896L-117.51288829391089,68.82105158809179L-127.61969953713698,81.26434924491677z" style="fill:rgb(83,212,212)"/><path d="M43.15781118672585,-8.715969984196521L45.515622473009785,-3.6920366157395588L48.33342498487086,-0.7728820718941457z" style="fill:rgb(22,57,143)"/><path d="M-17.230334975088958,48.716196866097846L-21.313909648220573,46.77907674519864L-103.6053328382904,13.156254728378457zM-112.08443953897198,67.47711173934373L-114.96917093232773,69.77897338472896L-127.61969953713698,81.26434924491677zM96.62196236389484,-1.5864935367923862L21.12889986188014,-18.75958897634907L25.32978700266633,-17.28253953975324zM-135.59785683038413,78.28848140704342L-131.8354142116742,80.03885726287986L-127.61969953713698,81.26434924491677z" style="fill:rgb(83,212,212)"/><path d="M-124.43872293728967,85.86689224744445L-127.61969953713698,81.26434924491677L-131.8354142116742,80.03885726287986z" style="fill:rgb(64,34,187)"/><path d="M-127.61969953713698,81.26434924491677L-124.43872293728967,85.86689224744445L-119.84668503098473,86.55254233541947z" style="fill:rgb(77,32,196)"/><path d="M-31.422365236249973,34.34685244185906L-28.695811942126934,39.18606033069067L-29.48476751418806,35.213183789535464zM-29.48476751418806,35.213183789535464L-32.20385509807614,30.37485745338847L-31.422365236249973,34.34685244185906z" style="fill:rgb(245,172,142)"/><path d="M-12.645560771554084,50.08772795286361L-72.44126475131071,34.51607998550099L-71.04967392963029,38.14959669526656z" style="fill:rgb(83,212,212)"/><path d="M48.33342498487086,-0.7728820718941457L45.97945547256457,-5.803519073847905L43.15781118672585,-8.715969984196521z" style="fill:rgb(22,57,143)"/><path d="M-119.84668503098473,86.55254233541947L-123.01465107009206,81.94004452484991L-127.61969953713698,81.26434924491677z" style="fill:rgb(77,32,196)"/><path d="M45.97945547256457,-5.803519073847905L48.33342498487086,-0.7728820718941457L50.511544909312335,2.5745037666683905z" style="fill:rgb(15,66,131)"/><path d="M-12.645560771554084,50.08772795286361L-71.04967392963029,38.14959669526656L-75.58061000550806,41.76926460370575z" style="fill:rgb(83,212,212)"/><path d="M-123.01465107009206,81.94004452484991L-119.84668503098473,86.55254233541947L-114.9400328425106,86.67358133758573z" style="fill:rgb(91,32,204)"/><path d="M96.62196236389484,-1.5864935367923862L25.32978700266633,-17.28253953975324L35.82287833382296,-13.077905259657218z" style="fill:rgb(83,212,212)"/><path d="M-29.918132841056995,38.04048430355984L-27.18739041306748,42.882183155895504L-28.695811942126934,39.18606033069067zM-28.695811942126934,39.18606033069067L-31.422365236249973,34.34685244185906L-29.918132841056995,38.04048430355984z" style="fill:rgb(241,183,130)"/><path d="M126.94131052928462,-46.97450630577631L19.454097694033415,-18.939883506448005L108.59734410421302,-10.231378734676428zM-127.61969953713698,81.26434924491677L-123.01465107009206,81.94004452484991L-118.09215336900932,82.05016330345016z" style="fill:rgb(83,212,212)"/><path d="M-118.09215336900932,82.05016330345016L-114.9400328425106,86.67358133758573L-109.79714252250271,86.2238095998507z" style="fill:rgb(105,33,210)"/><path d="M-114.9400328425106,86.67358133758573L-118.09215336900932,82.05016330345016L-123.01465107009206,81.94004452484991z" style="fill:rgb(91,32,204)"/><path d="M50.511544909312335,2.5745037666683905L48.15820992307163,-2.461113888513319L45.97945547256457,-5.803519073847905z" style="fill:rgb(15,66,131)"/><path d="M138.24711826795289,-48.426886582222615L132.61485341022959,-47.95408264252426L126.94131052928462,-46.97450630577631z" style="fill:rgb(83,212,212)"/><path d="M-112.9308126555891,81.58865722354686L-109.79714252250271,86.2238095998507L-104.50162216192253,85.20716004442173z" style="fill:rgb(120,35,215)"/><path d="M96.62196236389484,-1.5864935367923862L35.82287833382296,-13.077905259657218L39.75039420809716,-11.152901713441924z" style="fill:rgb(83,212,212)"/><path d="M-109.79714252250271,86.2238095998507L-112.9308126555891,81.58865722354686L-118.09215336900932,82.05016330345016z" style="fill:rgb(105,33,210)"/><path d="M-7.641343156170454,50.861811485104425L-75.58061000550806,41.76926460370575L-127.61969953713698,81.26434924491677z" style="fill:rgb(83,212,212)"/><path d="M-104.50162216192253,85.20716004442173L-107.61459205100756,80.55963899294935L-112.9308126555891,81.58865722354686z" style="fill:rgb(120,35,215)"/><path d="M-118.09215336900932,82.05016330345016L-112.9308126555891,81.58865722354686L-107.61459205100756,80.55963899294935zM149.07352507871198,-47.818438020822256L138.24711826795289,-48.426886582222615L126.94131052928462,-46.97450630577631zM96.62196236389484,-1.5864935367923862L39.75039420809716,-11.152901713441924L43.15781118672585,-8.715969984196521zM21.12889986188014,-18.75958897634907L93.09762868459855,-7.4311568344012615L98.92670661906698,-8.908233485990479zM91.65797223352955,-2.9170612741809268L93.09762868459855,-7.4311568344012615L21.12889986188014,-18.75958897634907zM149.07352507871198,-47.818438020822256L143.75945412034892,-48.382861081385165L138.24711826795289,-48.426886582222615zM96.62196236389484,-1.5864935367923862L43.15781118672585,-8.715969984196521L45.97945547256457,-5.803519073847905zM108.59734410421302,-10.231378734676428L21.12889986188014,-18.75958897634907L98.92670661906698,-8.908233485990479zM149.07352507871198,-47.818438020822256L126.94131052928462,-46.97450630577631L136.73202445637125,-37.119184702665194zM-12.645560771554084,50.08772795286361L-17.230334975088958,48.716196866097846L-72.44126475131071,34.51607998550099zM126.94131052928462,-46.97450630577631L133.08338690642634,-36.17837704904726L136.73202445637125,-37.119184702665194zM96.62196236389484,-1.5864935367923862L91.65797223352955,-2.9170612741809268L21.12889986188014,-18.75958897634907zM132.27798033159021,-33.44419916564739L133.08338690642634,-36.17837704904726L126.94131052928462,-46.97450630577631zM96.62196236389484,-1.5864935367923862L45.97945547256457,-5.803519073847905L48.15820992307163,-2.461113888513319z" style="fill:rgb(83,212,212)"/><path d="M135.04527142725883,-30.931522201476767L138.6778344169915,-31.86318752301893L136.73202445637125,-37.119184702665194z" style="fill:rgb(127,37,217)"/><path d="M132.27798033159021,-33.44419916564739L134.24801329849376,-28.199401374958764L135.04527142725883,-30.931522201476767z" style="fill:rgb(241,128,184)"/><path d="M136.73202445637125,-37.119184702665194L138.6778344169915,-31.86318752301893L140.14032188803773,-29.707074014389725z" style="fill:rgb(13,70,126)"/><path d="M132.27798033159021,-33.44419916564739L126.94131052928462,-46.97450630577631L132.83608168658057,-29.123557083841046z" style="fill:rgb(83,212,212)"/><path d="M136.73202445637125,-37.119184702665194L133.08338690642634,-36.17837704904726L135.04527142725883,-30.931522201476767z" style="fill:rgb(127,37,217)"/><path d="M-7.641343156170454,50.861811485104425L-12.645560771554084,50.08772795286361L-75.58061000550806,41.76926460370575z" style="fill:rgb(83,212,212)"/><path d="M135.04527142725883,-30.931522201476767L133.08338690642634,-36.17837704904726L132.27798033159021,-33.44419916564739z" style="fill:rgb(241,128,184)"/><path d="M127.31069395213909,-26.42377714412808L132.83608168658057,-29.123557083841046L126.94131052928462,-46.97450630577631zM96.62196236389484,-1.5864935367923862L48.15820992307163,-2.461113888513319L49.64697897360981,1.256865166888707zM122.69195866274171,-22.78170852950394L127.31069395213909,-26.42377714412808L126.94131052928462,-46.97450630577631zM158.80037944744788,-45.14810671018068L154.11216293226883,-46.73679789739131L149.07352507871198,-47.818438020822256zM149.07352507871198,-47.818438020822256L136.73202445637125,-37.119184702665194L138.19642908635024,-34.96670252329467z" style="fill:rgb(83,212,212)"/><path d="M140.14032188803773,-29.707074014389725L138.19642908635024,-34.96670252329467L136.73202445637125,-37.119184702665194z" style="fill:rgb(13,70,126)"/><path d="M119.3772088257494,-18.504988393754548L122.69195866274171,-22.78170852950394L126.94131052928462,-46.97450630577631zM149.07352507871198,-47.818438020822256L138.19642908635024,-34.96670252329467L138.79831608184756,-30.650957896790807zM96.62196236389484,-1.5864935367923862L49.64697897360981,1.256865166888707L50.41007273644347,5.287794626144643z" style="fill:rgb(83,212,212)"/><path d="M129.31318719170807,-21.191716569632842L134.81176741731645,-23.877574000671174L132.83608168658057,-29.123557083841046z" style="fill:rgb(162,50,222)"/><path d="M117.6603996360723,-13.956822026023755L119.3772088257494,-18.504988393754548L126.94131052928462,-46.97450630577631z" style="fill:rgb(83,212,212)"/><path d="M122.69195866274171,-22.78170852950394L124.71944918478228,-17.561415186298436L129.31318719170807,-21.191716569632842z" style="fill:rgb(194,70,219)"/><path d="M134.81176741731645,-23.877574000671174L140.74756115909906,-25.39003304895669L138.79831608184756,-30.650957896790807z" style="fill:rgb(127,37,217)"/><path d="M126.94131052928462,-46.97450630577631L108.59734410421302,-10.231378734676428L112.26973871899024,-11.160959754639235z" style="fill:rgb(83,212,212)"/><path d="M-52.409499376511704,72.56963187938604L-51.276145853207154,73.68750647302166L-54.172901572749225,68.91403862220149z" style="fill:rgb(29,50,153)"/><path d="M135.4387495170545,-32.68869061560666L132.27798033159021,-33.44419916564739L132.83608168658057,-29.123557083841046z" style="fill:rgb(83,212,212)"/><path d="M132.83608168658057,-29.123557083841046L127.31069395213909,-26.42377714412808L129.31318719170807,-21.191716569632842z" style="fill:rgb(162,50,222)"/><path d="M-2.3095342361386035,51.018138313252784L-7.641343156170454,50.861811485104425L-127.61969953713698,81.26434924491677z" style="fill:rgb(83,212,212)"/><path d="M93.09762868459855,-7.4311568344012615L95.2705123879071,-2.285592582108951L101.07400109492876,-3.7482035935801137z" style="fill:rgb(127,37,217)"/><path d="M138.19642908635024,-34.96670252329467L135.4387495170545,-32.68869061560666L132.83608168658057,-29.123557083841046z" style="fill:rgb(83,212,212)"/><path d="M121.42578195617719,-13.293373670420056L124.71944918478228,-17.561415186298436L122.69195866274171,-22.78170852950394z" style="fill:rgb(221,95,207)"/><path d="M129.31318719170807,-21.191716569632842L127.31069395213909,-26.42377714412808L122.69195866274171,-22.78170852950394z" style="fill:rgb(194,70,219)"/><path d="M149.07352507871198,-47.818438020822256L138.79831608184756,-30.650957896790807L144.68975714258076,-30.870582334012155z" style="fill:rgb(83,212,212)"/><path d="M138.79831608184756,-30.650957896790807L132.83608168658057,-29.123557083841046L134.81176741731645,-23.877574000671174z" style="fill:rgb(127,37,217)"/><path d="M-54.172901572749225,68.91403862220149L-55.307286149972704,67.79815694500707L-52.409499376511704,72.56963187938604z" style="fill:rgb(29,50,153)"/><path d="M117.6603996360723,-13.956822026023755L126.94131052928462,-46.97450630577631L113.68541795878845,-8.910527176131128zM126.94131052928462,-46.97450630577631L112.26973871899024,-11.160959754639235L113.68541795878845,-8.910527176131128zM96.62196236389484,-1.5864935367923862L50.41007273644347,5.287794626144643L50.42449763325172,9.56162325451587zM138.19642908635024,-34.96670252329467L132.83608168658057,-29.123557083841046L138.79831608184756,-30.650957896790807z" style="fill:rgb(83,212,212)"/><path d="M-54.172901572749225,68.91403862220149L-51.276145853207154,73.68750647302166L-47.96109987767328,76.3660055276858z" style="fill:rgb(34,46,160)"/><path d="M140.74756115909906,-25.39003304895669L146.61506214693867,-25.594967701649306L144.68975714258076,-30.870582334012155z" style="fill:rgb(92,32,204)"/><path d="M3.2497102986724786,50.54876207767677L-2.3095342361386035,51.018138313252784L-127.61969953713698,81.26434924491677z" style="fill:rgb(83,212,212)"/><path d="M91.65797223352955,-2.9170612741809268L93.84547541618493,2.2241447047154437L95.2705123879071,-2.285592582108951z" style="fill:rgb(241,128,184)"/><path d="M101.07400109492876,-3.7482035935801137L98.92670661906698,-8.908233485990479L93.09762868459855,-7.4311568344012615z" style="fill:rgb(127,37,217)"/><path d="M144.68975714258076,-30.870582334012155L138.79831608184756,-30.650957896790807L140.74756115909906,-25.39003304895669z" style="fill:rgb(92,32,204)"/><path d="M95.2705123879071,-2.285592582108951L93.09762868459855,-7.4311568344012615L91.65797223352955,-2.9170612741809268z" style="fill:rgb(241,128,184)"/><path d="M149.07352507871198,-47.818438020822256L144.68975714258076,-30.870582334012155L150.00253486446493,-29.753583992600195z" style="fill:rgb(83,212,212)"/><path d="M98.92670661906698,-8.908233485990479L101.07400109492876,-3.7482035935801137L103.2733052906098,-0.14243249079186618z" style="fill:rgb(13,70,126)"/><path d="M122.69195866274171,-22.78170852950394L119.3772088257494,-18.504988393754548L121.42578195617719,-13.293373670420056z" style="fill:rgb(221,95,207)"/><path d="M119.72433267895609,-8.750112745526035L121.42578195617719,-13.293373670420056L119.3772088257494,-18.504988393754548z" style="fill:rgb(239,123,189)"/><path d="M8.930067919979233,49.4586926471109L3.2497102986724786,50.54876207767677L-127.61969953713698,81.26434924491677zM166.84240480329512,-40.52631361349984L163.06631471209442,-43.06972115170887L158.80037944744788,-45.14810671018068zM96.62196236389484,-1.5864935367923862L50.42449763325172,9.56162325451587L49.68103450608388,14.001946298501082zM-55.307286149972704,67.79815694500707L-54.172901572749225,68.91403862220149L-50.853166816466114,71.58647647034475z" style="fill:rgb(83,212,212)"/><path d="M-47.96109987767328,76.3660055276858L-50.853166816466114,71.58647647034475L-54.172901572749225,68.91403862220149z" style="fill:rgb(34,46,160)"/><path d="M146.61506214693867,-25.594967701649306L151.9084040734292,-24.464844709117905L150.00253486446493,-29.753583992600195z" style="fill:rgb(60,35,184)"/><path d="M162.22421829367863,-21.166558407015742L158.80037944744788,-45.14810671018068L149.07352507871198,-47.818438020822256z" style="fill:rgb(83,212,212)"/><path d="M110.70418317147121,-5.04750448033517L114.36031449159512,-5.9679407464338485L112.26973871899024,-11.160959754639235z" style="fill:rgb(127,37,217)"/><path d="M149.07352507871198,-47.818438020822256L150.00253486446493,-29.753583992600195L154.2682960930137,-27.383296137838435zM-127.61969953713698,81.26434924491677L-118.09215336900932,82.05016330345016L138.62440233189966,20.199247509751082z" style="fill:rgb(83,212,212)"/><path d="M-34.03639705566182,74.24724383707432L-33.847787747428775,68.06656378695416L-36.667277586643955,63.25052662632021z" style="fill:rgb(247,158,158)"/><path d="M150.00253486446493,-29.753583992600195L144.68975714258076,-30.870582334012155L146.61506214693867,-25.594967701649306z" style="fill:rgb(60,35,184)"/><path d="M-107.61459205100756,80.55963899294935L-104.50162216192253,85.20716004442173L134.69749365519337,27.17752732486108z" style="fill:rgb(127,37,217)"/><path d="M-50.853166816466114,71.58647647034475L-47.96109987767328,76.3660055276858L-44.310123510530836,78.78063868724355z" style="fill:rgb(39,43,166)"/><path d="M103.2733052906098,-0.14243249079186618L101.12754021949873,-5.307136666320694L98.92670661906698,-8.908233485990479z" style="fill:rgb(13,70,126)"/><path d="M119.3772088257494,-18.504988393754548L117.6603996360723,-13.956822026023755L119.72433267895609,-8.750112745526035z" style="fill:rgb(239,123,189)"/><path d="M107.7283303795191,-7.406364608992424L109.84404869100426,-2.225159171619776L110.70418317147121,-5.04750448033517z" style="fill:rgb(241,128,184)"/><path d="M112.26973871899024,-11.160959754639235L108.59734410421302,-10.231378734676428L110.70418317147121,-5.04750448033517z" style="fill:rgb(127,37,217)"/><path d="M110.70418317147121,-5.04750448033517L108.59734410421302,-10.231378734676428L107.7283303795191,-7.406364608992424z" style="fill:rgb(241,128,184)"/><path d="M-36.872614369705985,69.43498580580159L-36.667277586643955,63.25052662632021L-55.307286149972704,67.79815694500707z" style="fill:rgb(83,212,212)"/><path d="M114.36031449159512,-5.9679407464338485L115.77468832683823,-3.714487898350742L113.68541795878845,-8.910527176131128z" style="fill:rgb(13,70,126)"/><path d="M107.7283303795191,-7.406364608992424L108.59734410421302,-10.231378734676428L98.92670661906698,-8.908233485990479z" style="fill:rgb(83,212,212)"/><path d="M113.68541795878845,-8.910527176131128L112.26973871899024,-11.160959754639235L114.36031449159512,-5.9679407464338485z" style="fill:rgb(13,70,126)"/><path d="M117.70638661859515,-9.529412788769134L119.7785058215168,-4.3234317563123L119.72433267895609,-8.750112745526035z" style="fill:rgb(246,151,164)"/><path d="M-118.09215336900932,82.05016330345016L-107.61459205100756,80.55963899294935L138.62440233189966,20.199247509751082z" style="fill:rgb(83,212,212)"/><path d="M119.72433267895609,-8.750112745526035L117.6603996360723,-13.956822026023755L117.70638661859515,-9.529412788769134z" style="fill:rgb(246,151,164)"/><path d="M110.8735224030297,-6.583040515134925L98.92670661906698,-8.908233485990479L101.12754021949873,-5.307136666320694z" style="fill:rgb(83,212,212)"/><path d="M-44.310123510530836,78.78063868724355L-47.19546400605809,73.99424149373087L-50.853166816466114,71.58647647034475z" style="fill:rgb(39,43,166)"/><path d="M133.5384077923147,-23.689136963513363L128.47600291687866,-20.343796321066524L125.50175430694225,-15.931069818109707z" style="fill:rgb(83,212,212)"/><path d="M-36.667277586643955,63.25052662632021L-36.872614369705985,69.43498580580159L-34.03639705566182,74.24724383707432z" style="fill:rgb(247,158,158)"/><path d="M110.8735224030297,-6.583040515134925L107.7283303795191,-7.406364608992424L98.92670661906698,-8.908233485990479z" style="fill:rgb(83,212,212)"/><path d="M151.9084040734292,-24.464844709117905L156.16097234499964,-22.08423468430006L154.2682960930137,-27.383296137838435zM154.2682960930137,-27.383296137838435L150.00253486446493,-29.753583992600195L151.9084040734292,-24.464844709117905z" style="fill:rgb(33,47,159)"/><path d="M145.18134120774488,-24.592692506731588L139.5550422555386,-25.222391386802986L133.5384077923147,-23.689136963513363z" style="fill:rgb(83,212,212)"/><path d="M-47.19546400605809,73.99424149373087L-44.310123510530836,78.78063868724355L-40.33934086461514,80.91500434109119z" style="fill:rgb(45,40,172)"/><path d="M166.84240480329512,-40.52631361349984L158.80037944744788,-45.14810671018068L166.75328367929765,-24.95220265927931zM162.22421829367863,-21.166558407015742L149.07352507871198,-47.818438020822256L154.2682960930137,-27.383296137838435zM-36.85065118463062,73.93496219122204L-36.872614369705985,69.43498580580159L-55.307286149972704,67.79815694500707zM-55.307286149972704,67.79815694500707L-50.853166816466114,71.58647647034475L-35.890707441624926,78.96489424299887zM110.8735224030297,-6.583040515134925L101.12754021949873,-5.307136666320694L96.62196236389484,-1.5864935367923862zM117.70638661859515,-9.529412788769134L117.6603996360723,-13.956822026023755L113.68541795878845,-8.910527176131128zM-50.853166816466114,71.58647647034475L-47.19546400605809,73.99424149373087L-43.21590037336962,76.12093992836772z" style="fill:rgb(83,212,212)"/><path d="M-36.85065118463062,73.93496219122204L-34.002879726373564,78.74464135962516L-34.03639705566182,74.24724383707432z" style="fill:rgb(247,161,155)"/><path d="M-36.667277586643955,63.25052662632021L-36.872614369705985,69.43498580580159L-36.85065118463062,73.93496219122204zM172.68283829105454,-34.17965615272456L170.06642840771636,-37.54987613523241L166.84240480329512,-40.52631361349984z" style="fill:rgb(83,212,212)"/><path d="M-34.03639705566182,74.24724383707432L-36.872614369705985,69.43498580580159L-36.85065118463062,73.93496219122204z" style="fill:rgb(247,161,155)"/><path d="M133.5384077923147,-23.689136963513363L125.50175430694225,-15.931069818109707L127.95103720333279,-7.88542666539318z" style="fill:rgb(83,212,212)"/><path d="M-40.33934086461514,80.91500434109119L-43.21590037336962,76.12093992836772L-47.19546400605809,73.99424149373087z" style="fill:rgb(45,40,172)"/><path d="M125.30115837620993,-11.437273472742996L127.33936920844307,-6.212335258733218L129.9851514992758,-2.654834546951062z" style="fill:rgb(15,66,130)"/><path d="M-36.13606099690821,78.25412347322893L-36.85065118463062,73.93496219122204L-55.307286149972704,67.79815694500707z" style="fill:rgb(83,212,212)"/><path d="M-43.21590037336962,76.12093992836772L-40.33934086461514,80.91500434109119L-36.067168108513,82.75402445917311z" style="fill:rgb(52,37,178)"/><path d="M150.50874131992086,-17.79972355580005L145.18134120774488,-24.592692506731588L133.5384077923147,-23.689136963513363z" style="fill:rgb(83,212,212)"/><path d="M156.16097234499964,-22.08423468430006L158.98537035792262,-18.64762975113139L157.09835755734343,-23.953181834777396zM157.09835755734343,-23.953181834777396L154.2682960930137,-27.383296137838435L156.16097234499964,-22.08423468430006z" style="fill:rgb(15,65,131)"/><path d="M119.53222558068447,-5.613271988317814L117.70638661859515,-9.529412788769134L113.68541795878845,-8.910527176131128zM158.80037944744788,-45.14810671018068L162.98407902105984,-23.998116431275832L166.75328367929765,-24.95220265927931zM162.22421829367863,-21.166558407015742L162.98407902105984,-23.998116431275832L158.80037944744788,-45.14810671018068zM-55.307286149972704,67.79815694500707L-35.890707441624926,78.96489424299887L-36.13606099690821,78.25412347322893zM125.50175430694225,-15.931069818109707L125.30115837620993,-11.437273472742996L127.95103720333279,-7.88542666539318zM-50.853166816466114,71.58647647034475L-43.21590037336962,76.12093992836772L-35.890707441624926,78.96489424299887zM122.99851060357005,-2.563692172049347L113.68541795878845,-8.910527176131128L110.8735224030297,-6.583040515134925zM-127.61969953713698,81.26434924491677L138.62440233189966,20.199247509751082L8.930067919979233,49.4586926471109zM140.7130747091215,6.582029651598943L49.68103450608388,14.001946298501082L48.18508758156757,18.527339748617614zM150.50874131992086,-17.79972355580005L133.5384077923147,-23.689136963513363L127.95103720333279,-7.88542666539318z" style="fill:rgb(83,212,212)"/><path d="M150.50874131992086,-17.79972355580005L152.4333618729147,-12.511610354758718L151.0644079092523,-16.637408821308256z" style="fill:rgb(246,168,147)"/><path d="M-36.13606099690821,78.25412347322893L-33.27973770153684,83.06270576490648L-34.002879726373564,78.74464135962516z" style="fill:rgb(245,171,144)"/><path d="M129.9851514992758,-2.654834546951062L127.95103720333279,-7.88542666539318L125.30115837620993,-11.437273472742996z" style="fill:rgb(15,66,130)"/><path d="M151.0644079092523,-16.637408821308256L149.1413790548351,-21.922940432673684L150.50874131992086,-17.79972355580005z" style="fill:rgb(246,168,147)"/><path d="M175.91083818825436,-26.449575451708803L172.68283829105454,-34.17965615272456L166.84240480329512,-40.52631361349984z" style="fill:rgb(83,212,212)"/><path d="M-34.002879726373564,78.74464135962516L-36.85065118463062,73.93496219122204L-36.13606099690821,78.25412347322893z" style="fill:rgb(245,171,144)"/><path d="M-36.067168108513,82.75402445917311L-38.932930630953685,77.95150618081303L-43.21590037336962,76.12093992836772z" style="fill:rgb(52,37,178)"/><path d="M150.50874131992086,-17.79972355580005L149.1413790548351,-21.922940432673684L145.18134120774488,-24.592692506731588zM122.99851060357005,-2.563692172049347L119.53222558068447,-5.613271988317814L113.68541795878845,-8.910527176131128zM140.7130747091215,6.582029651598943L96.62196236389484,-1.5864935367923862L49.68103450608388,14.001946298501082z" style="fill:rgb(83,212,212)"/><path d="M-36.067168108513,82.75402445917311L-33.03345118610788,83.77356901282316L-35.890707441624926,78.96489424299887z" style="fill:rgb(59,35,183)"/><path d="M140.7130747091215,6.582029651598943L48.18508758156757,18.527339748617614L45.95717675750503,23.052937472598735z" style="fill:rgb(83,212,212)"/><path d="M-35.890707441624926,78.96489424299887L-33.03345118610788,83.77356901282316L-33.27973770153684,83.06270576490648z" style="fill:rgb(242,181,132)"/><path d="M166.84240480329512,-40.52631361349984L166.75328367929765,-24.95220265927931L168.3387387577801,-22.71047143442237z" style="fill:rgb(83,212,212)"/><path d="M164.84680796400448,-18.67799067703336L168.5988260858639,-19.622569092288938L166.75328367929765,-24.95220265927931z" style="fill:rgb(127,37,217)"/><path d="M-35.890707441624926,78.96489424299887L-38.932930630953685,77.95150618081303L-36.067168108513,82.75402445917311z" style="fill:rgb(59,35,183)"/><path d="M164.0948579757263,-15.848869352125865L164.84680796400448,-18.67799067703336L162.98407902105984,-23.998116431275832z" style="fill:rgb(241,128,184)"/><path d="M162.22421829367863,-21.166558407015742L154.2682960930137,-27.383296137838435L157.09835755734343,-23.953181834777396z" style="fill:rgb(83,212,212)"/><path d="M129.9851514992758,-2.654834546951062L134.8930623646658,-0.864633609122041L132.87565660299072,-6.10674996579271z" style="fill:rgb(48,39,174)"/><path d="M-43.21590037336962,76.12093992836772L-38.932930630953685,77.95150618081303L-35.890707441624926,78.96489424299887z" style="fill:rgb(83,212,212)"/><path d="M132.87565660299072,-6.10674996579271L127.95103720333279,-7.88542666539318L129.9851514992758,-2.654834546951062z" style="fill:rgb(48,39,174)"/><path d="M-33.27973770153684,83.06270576490648L-36.13606099690821,78.25412347322893L-35.890707441624926,78.96489424299887z" style="fill:rgb(242,181,132)"/><path d="M137.4173923517639,5.707021570466356L110.8735224030297,-6.583040515134925L96.62196236389484,-1.5864935367923862z" style="fill:rgb(83,212,212)"/><path d="M166.75328367929765,-24.95220265927931L162.98407902105984,-23.998116431275832L164.84680796400448,-18.67799067703336z" style="fill:rgb(127,37,217)"/><path d="M140.7130747091215,6.582029651598943L45.95717675750503,23.052937472598735L43.03307250834264,27.49222401161975z" style="fill:rgb(83,212,212)"/><path d="M148.93485216672278,-13.160572083216577L150.87401797397754,-7.877394608717012L152.4333618729147,-12.511610354758718z" style="fill:rgb(239,124,188)"/><path d="M175.91083818825436,-26.449575451708803L177.7158324275866,-21.096963401365517L176.4476487317503,-25.111761814675006z" style="fill:rgb(246,166,149)"/><path d="M152.4333618729147,-12.511610354758718L150.50874131992086,-17.79972355580005L148.93485216672278,-13.160572083216577z" style="fill:rgb(239,124,188)"/><path d="M176.4476487317503,-25.111761814675006L174.64389103988896,-30.461921382974445L175.91083818825436,-26.449575451708803z" style="fill:rgb(246,166,149)"/><path d="M168.5988260858639,-19.622569092288938L170.18143140670824,-17.37735858945618L168.3387387577801,-22.71047143442237z" style="fill:rgb(13,70,126)"/><path d="M175.91083818825436,-26.449575451708803L174.64389103988896,-30.461921382974445L172.68283829105454,-34.17965615272456z" style="fill:rgb(83,212,212)"/><path d="M162.98407902105984,-23.998116431275832L162.22421829367863,-21.166558407015742L164.0948579757263,-15.848869352125865z" style="fill:rgb(241,128,184)"/><path d="M168.3387387577801,-22.71047143442237L166.75328367929765,-24.95220265927931L168.5988260858639,-19.622569092288938z" style="fill:rgb(13,70,126)"/><path d="M140.7130747091215,6.582029651598943L43.03307250834264,27.49222401161975L39.463503140724434,31.758978520008107zM162.22421829367863,-21.166558407015742L157.09835755734343,-23.953181834777396L158.22135384098752,-19.755570191438846z" style="fill:rgb(83,212,212)"/><path d="M134.8930623646658,-0.864633609122041L140.9431661929814,-1.2783609439680066L138.95131670933225,-6.53538280319959z" style="fill:rgb(98,32,207)"/><path d="M146.72295669018447,-3.8137640839207525L150.87401797397754,-7.877394608717012L148.93485216672278,-13.160572083216577z" style="fill:rgb(206,80,215)"/><path d="M127.95103720333279,-7.88542666539318L138.95131670933225,-6.53538280319959L150.50874131992086,-17.79972355580005zM-36.85065118463062,73.93496219122204L-36.13606099690821,78.25412347322893L-32.6467722505409,86.08397304871443z" style="fill:rgb(83,212,212)"/><path d="M138.95131670933225,-6.53538280319959L132.87565660299072,-6.10674996579271L134.8930623646658,-0.864633609122041z" style="fill:rgb(98,32,207)"/><path d="M140.9431661929814,-1.2783609439680066L146.72295669018447,-3.8137640839207525L144.75946518813635,-9.085658951953144z" style="fill:rgb(156,47,222)"/><path d="M127.95103720333279,-7.88542666539318L132.87565660299072,-6.10674996579271L138.95131670933225,-6.53538280319959zM137.4173923517639,5.707021570466356L122.99851060357005,-2.563692172049347L110.8735224030297,-6.583040515134925zM144.75946518813635,-9.085658951953144L148.93485216672278,-13.160572083216577L150.50874131992086,-17.79972355580005z" style="fill:rgb(83,212,212)"/><path d="M148.93485216672278,-13.160572083216577L144.75946518813635,-9.085658951953144L146.72295669018447,-3.8137640839207525z" style="fill:rgb(206,80,215)"/><path d="M55.939645363859356,46.933449239308494L55.620957964643786,40.73484233898498L-36.667277586643955,63.25052662632021z" style="fill:rgb(83,212,212)"/><path d="M144.75946518813635,-9.085658951953144L138.95131670933225,-6.53538280319959L140.9431661929814,-1.2783609439680066z" style="fill:rgb(156,47,222)"/><path d="M162.22421829367863,-21.166558407015742L158.22135384098752,-19.755570191438846L157.5140624496034,-15.160150960295821zM173.6369004333604,-8.707864570798748L166.84240480329512,-40.52631361349984L168.3387387577801,-22.71047143442237zM138.95131670933225,-6.53538280319959L144.75946518813635,-9.085658951953144L150.50874131992086,-17.79972355580005zM173.6369004333604,-8.707864570798748L175.91083818825436,-26.449575451708803L166.84240480329512,-40.52631361349984z" style="fill:rgb(83,212,212)"/><path d="M176.45501100528858,-22.201597006356003L178.2646449713153,-16.848542699515086L177.7158324275866,-21.096963401365517z" style="fill:rgb(247,155,161)"/><path d="M4.414378581978104,89.07051973099584L-36.667277586643955,63.25052662632021L-36.85065118463062,73.93496219122204z" style="fill:rgb(83,212,212)"/><path d="M177.7158324275866,-21.096963401365517L175.91083818825436,-26.449575451708803L176.45501100528858,-22.201597006356003z" style="fill:rgb(247,155,161)"/><path d="M-36.13606099690821,78.25412347322893L-34.730666739461,82.32546177377414L-32.6467722505409,86.08397304871443zM138.62440233189966,20.199247509751082L39.463503140724434,31.758978520008107L35.31336446148572,35.76934497517004z" style="fill:rgb(83,212,212)"/><path d="M134.69749365519337,27.17752732486108L132.62801984782865,21.94732525160568L-107.61459205100756,80.55963899294935z" style="fill:rgb(127,37,217)"/><path d="M138.62440233189966,20.199247509751082L35.31336446148572,35.76934497517004L30.660526459559488,39.443886132588204zM138.62440233189966,20.199247509751082L14.621467760797152,47.766059511370436L8.930067919979233,49.4586926471109z" style="fill:rgb(83,212,212)"/><path d="M-32.6467722505409,86.08397304871443L-29.783169778580476,90.89496649311342L-27.04547552001176,94.28231158822403z" style="fill:rgb(23,55,145)"/><path d="M137.4173923517639,5.707021570466356L127.81378093678904,-0.6668212481358795L122.99851060357005,-2.563692172049347zM138.62440233189966,20.199247509751082L30.660526459559488,39.443886132588204L25.594164792041347,42.70962775478795zM138.62440233189966,20.199247509751082L20.212705056151083,45.50191232026364L14.621467760797152,47.766059511370436z" style="fill:rgb(83,212,212)"/><path d="M58.371143700921614,51.97048588701776L58.04027865318064,45.77454680486733L55.620957964643786,40.73484233898498z" style="fill:rgb(247,158,158)"/><path d="M176.25899358665492,-17.782298704973186L178.07660407400357,-12.430844241289606L178.2646449713153,-16.848542699515086z" style="fill:rgb(245,144,171)"/><path d="M138.62440233189966,20.199247509751082L25.594164792041347,42.70962775478795L20.212705056151083,45.50191232026364zM140.7130747091215,6.582029651598943L137.4173923517639,5.707021570466356L96.62196236389484,-1.5864935367923862z" style="fill:rgb(83,212,212)"/><path d="M178.2646449713153,-16.848542699515086L176.45501100528858,-22.201597006356003L176.25899358665492,-17.782298704973186z" style="fill:rgb(245,144,171)"/><path d="M55.321010405225344,56.28633585577625L55.939645363859356,46.933449239308494L-36.667277586643955,63.25052662632021zM176.25899358665492,-17.782298704973186L176.45501100528858,-22.201597006356003L175.91083818825436,-26.449575451708803zM-107.61459205100756,80.55963899294935L132.62801984782865,21.94732525160568L138.62440233189966,20.199247509751082zM137.4173923517639,5.707021570466356L133.55451280536113,-0.10903468136349113L127.81378093678904,-0.6668212481358795zM-36.85065118463062,73.93496219122204L-32.6467722505409,86.08397304871443L-18.15400209609894,96.82462548976996z" style="fill:rgb(83,212,212)"/><path d="M-27.04547552001176,94.28231158822403L-29.90752805216877,89.46776560916037L-32.6467722505409,86.08397304871443z" style="fill:rgb(23,55,145)"/><path d="M140.25397832613206,8.031398791202996L144.03147553293917,7.098920967542123L142.03739754099496,1.837169613417469z" style="fill:rgb(127,37,217)"/><path d="M139.70092490012905,-0.9540717590892964L133.55451280536113,-0.10903468136349113L138.24250980360475,2.779153365909131z" style="fill:rgb(83,212,212)"/><path d="M76.46833343763139,42.74126632380639L77.64529611794364,41.01837427297654L75.3140616295513,35.930288228487726z" style="fill:rgb(225,101,204)"/><path d="M55.620957964643786,40.73484233898498L55.939645363859356,46.933449239308494L58.371143700921614,51.97048588701776z" style="fill:rgb(247,158,158)"/><path d="M137.4173923517639,5.707021570466356L139.43753494100932,10.956160596369834L140.25397832613206,8.031398791202996z" style="fill:rgb(241,128,184)"/><path d="M175.31722961328944,-13.260391362111362L177.14618851016087,-7.912568248929129L178.07660407400357,-12.430844241289606z" style="fill:rgb(242,132,181)"/><path d="M142.03739754099496,1.837169613417469L144.03147553293917,7.098920967542123L145.56554888562235,9.447443033410291z" style="fill:rgb(13,70,126)"/><path d="M145.68645675851496,-3.132238670580552L139.70092490012905,-0.9540717590892964L138.24250980360475,2.779153365909131zM150.9553498590897,-6.444578807467463L145.68645675851496,-3.132238670580552L138.24250980360475,2.779153365909131z" style="fill:rgb(83,212,212)"/><path d="M142.03739754099496,1.837169613417469L138.24250980360475,2.779153365909131L140.25397832613206,8.031398791202996z" style="fill:rgb(127,37,217)"/><path d="M178.07660407400357,-12.430844241289606L176.25899358665492,-17.782298704973186L175.31722961328944,-13.260391362111362z" style="fill:rgb(242,132,181)"/><path d="M173.6369004333604,-8.707864570798748L176.25899358665492,-17.782298704973186L175.91083818825436,-26.449575451708803zM55.321010405225344,56.28633585577625L-36.667277586643955,63.25052662632021L12.186457977267397,82.62104430097794zM155.0206140773697,-10.582459280459931L150.9553498590897,-6.444578807467463L143.5736921547057,4.182884176628992z" style="fill:rgb(83,212,212)"/><path d="M140.25397832613206,8.031398791202996L138.24250980360475,2.779153365909131L137.4173923517639,5.707021570466356z" style="fill:rgb(241,128,184)"/><path d="M138.62440233189966,20.199247509751082L165.53456010564716,-20.363667872883187L162.22421829367863,-21.166558407015742zM137.4173923517639,5.707021570466356L138.24250980360475,2.779153365909131L133.55451280536113,-0.10903468136349113zM138.62440233189966,20.199247509751082L162.22421829367863,-21.166558407015742L157.5140624496034,-15.160150960295821zM74.12877481867682,37.65685939650483L75.3140616295513,35.930288228487726L55.620957964643786,40.73484233898498zM150.9553498590897,-6.444578807467463L138.24250980360475,2.779153365909131L142.03739754099496,1.837169613417469z" style="fill:rgb(83,212,212)"/><path d="M-27.04547552001176,94.28231158822403L-23.690160071079152,97.23897039217006L-26.547098243246108,92.41930576419881z" style="fill:rgb(31,48,157)"/><path d="M138.62440233189966,20.199247509751082L168.3387387577801,-22.71047143442237L165.53456010564716,-20.363667872883187zM-36.667277586643955,63.25052662632021L6.232667933586046,84.0276993401856L12.186457977267397,82.62104430097794z" style="fill:rgb(83,212,212)"/><path d="M75.3140616295513,35.930288228487726L74.12877481867682,37.65685939650483L76.46833343763139,42.74126632380639z" style="fill:rgb(225,101,204)"/><path d="M74.12877481867682,37.65685939650483L55.620957964643786,40.73484233898498L55.939645363859356,46.933449239308494z" style="fill:rgb(83,212,212)"/><path d="M-26.547098243246108,92.41930576419881L-29.90752805216877,89.46776560916037L-27.04547552001176,94.28231158822403z" style="fill:rgb(31,48,157)"/><path d="M70.65772266168494,42.08954996946856L73.02042258901221,47.1634381656239L76.46833343763139,42.74126632380639z" style="fill:rgb(220,94,208)"/><path d="M-32.6467722505409,86.08397304871443L-29.90752805216877,89.46776560916037L-26.547098243246108,92.41930576419881zM138.62440233189966,20.199247509751082L140.7130747091215,6.582029651598943L39.463503140724434,31.758978520008107zM4.414378581978104,89.07051973099584L6.232667933586046,84.0276993401856L-36.667277586643955,63.25052662632021z" style="fill:rgb(83,212,212)"/><path d="M175.4804081934533,-3.3656500643706995L177.14618851016087,-7.912568248929129L175.31722961328944,-13.260391362111362z" style="fill:rgb(237,120,191)"/><path d="M150.9553498590897,-6.444578807467463L142.03739754099496,1.837169613417469L143.5736921547057,4.182884176628992z" style="fill:rgb(83,212,212)"/><path d="M76.46833343763139,42.74126632380639L74.12877481867682,37.65685939650483L70.65772266168494,42.08954996946856z" style="fill:rgb(220,94,208)"/><path d="M55.9928692160698,51.5301666889549L58.43411294990356,56.564581964887225L58.371143700921614,51.97048588701776z" style="fill:rgb(247,155,161)"/><path d="M145.56554888562235,9.447443033410291L143.5736921547057,4.182884176628992L142.03739754099496,1.837169613417469z" style="fill:rgb(13,70,126)"/><path d="M58.371143700921614,51.97048588701776L55.939645363859356,46.933449239308494L55.9928692160698,51.5301666889549z" style="fill:rgb(247,155,161)"/><path d="M138.62440233189966,20.199247509751082L157.5140624496034,-15.160150960295821L155.0206140773697,-10.582459280459931z" style="fill:rgb(83,212,212)"/><path d="M66.83756500788084,46.40654639409107L69.22463009318895,51.46907241626426L73.02042258901221,47.1634381656239z" style="fill:rgb(215,88,211)"/><path d="M-26.547098243246108,92.41930576419881L-23.690160071079152,97.23897039217006L-19.762367236117335,99.71297447390357z" style="fill:rgb(41,42,168)"/><path d="M173.6369004333604,-8.707864570798748L175.31722961328944,-13.260391362111362L176.25899358665492,-17.782298704973186z" style="fill:rgb(83,212,212)"/><path d="M73.02042258901221,47.1634381656239L70.65772266168494,42.08954996946856L66.83756500788084,46.40654639409107z" style="fill:rgb(215,88,211)"/><path d="M175.31722961328944,-13.260391362111362L173.6369004333604,-8.707864570798748L175.4804081934533,-3.3656500643706995z" style="fill:rgb(237,120,191)"/><path d="M4.414378581978104,89.07051973099584L-36.85065118463062,73.93496219122204L-18.15400209609894,96.82462548976996z" style="fill:rgb(83,212,212)"/><path d="M62.68882233546963,50.58143485662281L65.10135412544594,55.63184005469747L69.22463009318895,51.46907241626426z" style="fill:rgb(209,82,214)"/><path d="M66.83756500788084,46.40654639409107L70.65772266168494,42.08954996946856L74.12877481867682,37.65685939650483zM-32.6467722505409,86.08397304871443L-26.547098243246108,92.41930576419881L-18.15400209609894,96.82462548976996zM58.234529246501204,54.58846647271982L74.12877481867682,37.65685939650483L55.939645363859356,46.933449239308494zM138.62440233189966,20.199247509751082L173.6369004333604,-8.707864570798748L168.3387387577801,-22.71047143442237z" style="fill:rgb(83,212,212)"/><path d="M171.2381143456855,-4.1987108745545605L173.09921321869422,1.13601510336898L175.4804081934533,-3.3656500643706995z" style="fill:rgb(231,109,199)"/><path d="M55.321010405225344,56.28633585577625L57.775240811557204,61.31616790724824L58.43411294990356,56.564581964887225z" style="fill:rgb(245,144,171)"/><path d="M69.22463009318895,51.46907241626426L66.83756500788084,46.40654639409107L62.68882233546963,50.58143485662281z" style="fill:rgb(209,82,214)"/><path d="M138.62440233189966,20.199247509751082L155.0206140773697,-10.582459280459931L143.5736921547057,4.182884176628992z" style="fill:rgb(83,212,212)"/><path d="M-19.762367236117335,99.71297447390357L-22.61064070377312,94.88664944862079L-26.547098243246108,92.41930576419881z" style="fill:rgb(41,42,168)"/><path d="M175.4804081934533,-3.3656500643706995L173.6369004333604,-8.707864570798748L171.2381143456855,-4.1987108745545605z" style="fill:rgb(231,109,199)"/><path d="M58.43411294990356,56.564581964887225L55.9928692160698,51.5301666889549L55.321010405225344,56.28633585577625z" style="fill:rgb(245,144,171)"/><path d="M58.234529246501204,54.58846647271982L60.67345294172995,59.62608319149611L65.10135412544594,55.63184005469747z" style="fill:rgb(202,76,217)"/><path d="M55.939645363859356,46.933449239308494L55.9928692160698,51.5301666889549L58.234529246501204,54.58846647271982zM55.321010405225344,56.28633585577625L55.9928692160698,51.5301666889549L55.939645363859356,46.933449239308494zM58.234529246501204,54.58846647271982L66.83756500788084,46.40654639409107L74.12877481867682,37.65685939650483z" style="fill:rgb(83,212,212)"/><path d="M-22.61064070377312,94.88664944862079L-19.762367236117335,99.71297447390357L-15.317868889548299,101.65910492916682z" style="fill:rgb(52,37,178)"/><path d="M57.534419188548256,62.16072643235621L60.67345294172995,59.62608319149611L58.234529246501204,54.58846647271982z" style="fill:rgb(195,71,219)"/><path d="M65.10135412544594,55.63184005469747L62.68882233546963,50.58143485662281L58.234529246501204,54.58846647271982z" style="fill:rgb(202,76,217)"/><path d="M168.15407518630542,0.19249394229649397L170.0355500715354,5.517990704099732L173.09921321869422,1.13601510336898z" style="fill:rgb(223,97,206)"/><path d="M58.234529246501204,54.58846647271982L62.68882233546963,50.58143485662281L66.83756500788084,46.40654639409107zM138.62440233189966,20.199247509751082L143.5736921547057,4.182884176628992L140.7130747091215,6.582029651598943z" style="fill:rgb(83,212,212)"/><path d="M173.09921321869422,1.13601510336898L171.2381143456855,-4.1987108745545605L168.15407518630542,0.19249394229649397z" style="fill:rgb(223,97,206)"/><path d="M-26.547098243246108,92.41930576419881L-22.61064070377312,94.88664944862079L-18.15400209609894,96.82462548976996zM55.9928692160698,51.5301666889549L55.321010405225344,56.28633585577625L58.234529246501204,54.58846647271982z" style="fill:rgb(83,212,212)"/><path d="M58.234529246501204,54.58846647271982L55.07738724939478,57.13201298633107L57.534419188548256,62.16072643235621z" style="fill:rgb(195,71,219)"/><path d="M53.926293806027154,61.127689731580205L56.39661309367843,66.15104342525251L57.775240811557204,61.31616790724824z" style="fill:rgb(242,132,181)"/><path d="M168.15407518630542,0.19249394229649397L171.2381143456855,-4.1987108745545605L173.6369004333604,-8.707864570798748z" style="fill:rgb(83,212,212)"/><path d="M-15.317868889548299,101.65910492916682L-18.15400209609894,96.82462548976996L-22.61064070377312,94.88664944862079z" style="fill:rgb(52,37,178)"/><path d="M57.775240811557204,61.31616790724824L55.321010405225344,56.28633585577625L53.926293806027154,61.127689731580205z" style="fill:rgb(242,132,181)"/><path d="M164.43076676961465,4.392107163470416L166.3351115655771,9.706809450907004L170.0355500715354,5.517990704099732z" style="fill:rgb(213,86,212)"/><path d="M8.94341652816819,88.92660530688057L14.870663075229505,87.53431749118053L12.186457977267397,82.62104430097794z" style="fill:rgb(127,37,217)"/><path d="M7.144280034157698,93.96127084440207L8.94341652816819,88.92660530688057L6.232667933586046,84.0276993401856z" style="fill:rgb(241,128,184)"/><path d="M55.321010405225344,56.28633585577625L55.07738724939478,57.13201298633107L58.234529246501204,54.58846647271982z" style="fill:rgb(83,212,212)"/><path d="M170.0355500715354,5.517990704099732L168.15407518630542,0.19249394229649397L164.43076676961465,4.392107163470416z" style="fill:rgb(213,86,212)"/><path d="M12.186457977267397,82.62104430097794L6.232667933586046,84.0276993401856L8.94341652816819,88.92660530688057z" style="fill:rgb(127,37,217)"/><path d="M160.12636853719164,8.328986220191306L168.15407518630542,0.19249394229649397L173.6369004333604,-8.707864570798748z" style="fill:rgb(83,212,212)"/><path d="M-15.317868889548299,101.65910492916682L-10.422494742016186,103.04007166883503L-13.24315825679862,98.19601893143015z" style="fill:rgb(64,34,187)"/><path d="M160.12636853719164,8.328986220191306L162.05569986905158,13.631537357360198L166.3351115655771,9.706809450907004z" style="fill:rgb(202,76,217)"/><path d="M132.62801984782865,21.94732525160568L134.69749365519337,27.17752732486108L140.66552556965715,25.4445818715163z" style="fill:rgb(134,39,219)"/><path d="M-13.24315825679862,98.19601893143015L-18.15400209609894,96.82462548976996L-15.317868889548299,101.65910492916682z" style="fill:rgb(64,34,187)"/><path d="M51.82335306149812,65.97684517193518L54.31267015523989,70.99192953349159L56.39661309367843,66.15104342525251z" style="fill:rgb(237,120,191)"/><path d="M155.31027620808842,11.936052635176589L157.2662623426741,17.225332882073893L162.05569986905158,13.631537357360198z" style="fill:rgb(190,67,220)"/><path d="M138.62440233189966,20.199247509751082L160.12636853719164,8.328986220191306L173.6369004333604,-8.707864570798748z" style="fill:rgb(83,212,212)"/><path d="M166.3351115655771,9.706809450907004L164.43076676961465,4.392107163470416L160.12636853719164,8.328986220191306z" style="fill:rgb(202,76,217)"/><path d="M138.62440233189966,20.199247509751082L140.66552556965715,25.4445818715163L146.48087119347005,23.182063366134752z" style="fill:rgb(149,44,221)"/><path d="M6.232667933586046,84.0276993401856L4.414378581978104,89.07051973099584L7.144280034157698,93.96127084440207z" style="fill:rgb(241,128,184)"/><path d="M56.39661309367843,66.15104342525251L53.926293806027154,61.127689731580205L51.82335306149812,65.97684517193518z" style="fill:rgb(237,120,191)"/><path d="M150.06178103024533,15.15179535941607L152.04562566174872,20.426937447809145L157.2662623426741,17.225332882073893z" style="fill:rgb(177,58,222)"/><path d="M144.46848211331775,17.921658705373602L146.48087119347005,23.182063366134752L152.04562566174872,20.426937447809145z" style="fill:rgb(163,50,222)"/><path d="M-13.24315825679862,98.19601893143015L-10.422494742016186,103.04007166883503L-5.151272912219246,103.82759071117076z" style="fill:rgb(77,32,196)"/><path d="M51.82335306149812,65.97684517193518L53.926293806027154,61.127689731580205L55.321010405225344,56.28633585577625zM160.12636853719164,8.328986220191306L164.43076676961465,4.392107163470416L168.15407518630542,0.19249394229649397z" style="fill:rgb(83,212,212)"/><path d="M140.66552556965715,25.4445818715163L138.62440233189966,20.199247509751082L132.62801984782865,21.94732525160568z" style="fill:rgb(134,39,219)"/><path d="M162.05569986905158,13.631537357360198L160.12636853719164,8.328986220191306L155.31027620808842,11.936052635176589z" style="fill:rgb(190,67,220)"/><path d="M146.48087119347005,23.182063366134752L144.46848211331775,17.921658705373602L138.62440233189966,20.199247509751082z" style="fill:rgb(149,44,221)"/><path d="M157.2662623426741,17.225332882073893L155.31027620808842,11.936052635176589L150.06178103024533,15.15179535941607z" style="fill:rgb(177,58,222)"/><path d="M152.04562566174872,20.426937447809145L150.06178103024533,15.15179535941607L144.46848211331775,17.921658705373602z" style="fill:rgb(163,50,222)"/><path d="M49.03945345910957,70.75467923510793L51.55043553052985,75.75984992089631L54.31267015523989,70.99192953349159z" style="fill:rgb(231,109,199)"/><path d="M-18.15400209609894,96.82462548976996L-13.24315825679862,98.19601893143015L-7.9533597840017505,98.97264820214596zM9.268608871804322,90.80266194995903L4.414378581978104,89.07051973099584L-18.15400209609894,96.82462548976996zM138.62440233189966,20.199247509751082L150.06178103024533,15.15179535941607L160.12636853719164,8.328986220191306zM150.06178103024533,15.15179535941607L155.31027620808842,11.936052635176589L160.12636853719164,8.328986220191306z" style="fill:rgb(83,212,212)"/><path d="M-5.151272912219246,103.82759071117076L-7.9533597840017505,98.97264820214596L-13.24315825679862,98.19601893143015z" style="fill:rgb(77,32,196)"/><path d="M54.31267015523989,70.99192953349159L51.82335306149812,65.97684517193518L49.03945345910957,70.75467923510793z" style="fill:rgb(231,109,199)"/><path d="M-7.9533597840017505,98.97264820214596L-5.151272912219246,103.82759071117076L0.412718984031442,104.00327117729175z" style="fill:rgb(91,32,204)"/><path d="M138.62440233189966,20.199247509751082L144.46848211331775,17.921658705373602L150.06178103024533,15.15179535941607zM45.61444323243065,75.38188391410466L51.82335306149812,65.97684517193518L55.321010405225344,56.28633585577625zM26.706515153403167,90.88333125590798L55.321010405225344,56.28633585577625L12.186457977267397,82.62104430097794z" style="fill:rgb(83,212,212)"/><path d="M48.14941574154693,80.3756807595628L51.55043553052985,75.75984992089631L49.03945345910957,70.75467923510793z" style="fill:rgb(223,97,206)"/><path d="M-18.15400209609894,96.82462548976996L-7.9533597840017505,98.97264820214596L3.422931008621733,98.67923296636397z" style="fill:rgb(83,212,212)"/><path d="M-2.3679777579178842,99.13625583296547L0.412718984031442,104.00327117729175L6.179783546012143,103.5593404978488z" style="fill:rgb(105,33,210)"/><path d="M0.412718984031442,104.00327117729175L-2.3679777579178842,99.13625583296547L-7.9533597840017505,98.97264820214596z" style="fill:rgb(91,32,204)"/><path d="M45.61444323243065,75.38188391410466L49.03945345910957,70.75467923510793L51.82335306149812,65.97684517193518zM26.706515153403167,90.88333125590798L12.186457977267397,82.62104430097794L14.08740659891557,86.79616486041313zM9.268608871804322,90.80266194995903L-18.15400209609894,96.82462548976996L26.706515153403167,90.88333125590798z" style="fill:rgb(83,212,212)"/><path d="M49.03945345910957,70.75467923510793L45.61444323243065,75.38188391410466L48.14941574154693,80.3756807595628z" style="fill:rgb(223,97,206)"/><path d="M26.706515153403167,90.88333125590798L45.61444323243065,75.38188391410466L55.321010405225344,56.28633585577625z" style="fill:rgb(83,212,212)"/><path d="M41.60029214538173,79.7805805322667L44.1612154005612,84.76176102572042L48.14941574154693,80.3756807595628z" style="fill:rgb(213,86,212)"/><path d="M3.422931008621733,98.67923296636397L6.179783546012143,103.5593404978488L12.055281689069389,102.49910496350417z" style="fill:rgb(120,35,215)"/><path d="M-18.15400209609894,96.82462548976996L3.422931008621733,98.67923296636397L26.706515153403167,90.88333125590798z" style="fill:rgb(83,212,212)"/><path d="M6.179783546012143,103.5593404978488L3.422931008621733,98.67923296636397L-2.3679777579178842,99.13625583296547z" style="fill:rgb(105,33,210)"/><path d="M48.14941574154693,80.3756807595628L45.61444323243065,75.38188391410466L41.60029214538173,79.7805805322667z" style="fill:rgb(213,86,212)"/><path d="M-7.9533597840017505,98.97264820214596L-2.3679777579178842,99.13625583296547L3.422931008621733,98.67923296636397zM26.706515153403167,90.88333125590798L14.08740659891557,86.79616486041313L9.268608871804322,90.80266194995903z" style="fill:rgb(83,212,212)"/><path d="M37.06035395886215,83.8759930222752L39.64875196313753,88.84356460388487L44.1612154005612,84.76176102572042z" style="fill:rgb(202,76,217)"/><path d="M9.32430983059931,97.60507926942518L12.055281689069389,102.49910496350417L17.94152114495492,100.83714081342077z" style="fill:rgb(134,39,219)"/><path d="M34.68517467237265,92.55134776515746L39.64875196313753,88.84356460388487L37.06035395886215,83.8759930222752z" style="fill:rgb(190,67,220)"/><path d="M12.055281689069389,102.49910496350417L9.32430983059931,97.60507926942518L3.422931008621733,98.67923296636397z" style="fill:rgb(120,35,215)"/><path d="M44.1612154005612,84.76176102572042L41.60029214538173,79.7805805322667L37.06035395886215,83.8759930222752z" style="fill:rgb(202,76,217)"/><path d="M15.237998577894725,95.92859181326322L17.94152114495492,100.83714081342077L23.739790814499543,98.5991850378255z" style="fill:rgb(149,44,221)"/><path d="M26.706515153403167,90.88333125590798L29.352474077945043,95.82174598522474L34.68517467237265,92.55134776515746z" style="fill:rgb(177,58,222)"/><path d="M21.064781499134604,93.67575200625481L23.739790814499543,98.5991850378255L29.352474077945043,95.82174598522474z" style="fill:rgb(163,50,222)"/><path d="M37.06035395886215,83.8759930222752L41.60029214538173,79.7805805322667L45.61444323243065,75.38188391410466z" style="fill:rgb(83,212,212)"/><path d="M17.94152114495492,100.83714081342077L15.237998577894725,95.92859181326322L9.32430983059931,97.60507926942518z" style="fill:rgb(134,39,219)"/><path d="M37.06035395886215,83.8759930222752L32.068263675852776,87.59812869533205L34.68517467237265,92.55134776515746z" style="fill:rgb(190,67,220)"/><path d="M26.706515153403167,90.88333125590798L37.06035395886215,83.8759930222752L45.61444323243065,75.38188391410466zM3.422931008621733,98.67923296636397L9.32430983059931,97.60507926942518L15.237998577894725,95.92859181326322z" style="fill:rgb(83,212,212)"/><path d="M23.739790814499543,98.5991850378255L21.064781499134604,93.67575200625481L15.237998577894725,95.92859181326322z" style="fill:rgb(149,44,221)"/><path d="M34.68517467237265,92.55134776515746L32.068263675852776,87.59812869533205L26.706515153403167,90.88333125590798z" style="fill:rgb(177,58,222)"/><path d="M29.352474077945043,95.82174598522474L26.706515153403167,90.88333125590798L21.064781499134604,93.67575200625481z" style="fill:rgb(163,50,222)"/><path d="M3.422931008621733,98.67923296636397L15.237998577894725,95.92859181326322L26.706515153403167,90.88333125590798zM26.706515153403167,90.88333125590798L32.068263675852776,87.59812869533205L37.06035395886215,83.8759930222752zM15.237998577894725,95.92859181326322L21.064781499134604,93.67575200625481L26.706515153403167,90.88333125590798z" style="fill:rgb(83,212,212)"/></svg>
