<?xml version="1.0" encoding="UTF-8"?>
<!-- Generated by jsxcad -->
<!DOCTYPE svg PUBLIC "-//W3C//DTD SVG 1.1 Tiny//EN" "http://www.w3.org/Graphics/SVG/1.1/DTD/svg11-tiny.dtd">
<svg viewBox="-250 -250 500 500" width="500" height="500" xmlns="http://www.w3.org/2000/svg"><path d="M14.538778993879554,-76.10233876899726L8.953732972093006,-81.09746973689019L12.172443074672785,-74.24222032907801z" style="fill:rgb(197,72,218)"/><path d="M16.944213886168697,-75.5540370618115L11.336734968344759,-82.96446473070844L14.538778993879554,-76.10233876899726z" style="fill:rgb(57,36,182)"/><path d="M14.538778993879554,-76.10233876899726L11.336734968344759,-82.96446473070844L8.953732972093006,-81.09746973689019z" style="fill:rgb(197,72,218)"/><path d="M8.953732972093006,-81.09746973689019L11.313390134568772,-84.93751117561425L8.924104526356519,-84.27423162043682zM11.336734968344759,-82.96446473070844L13.705491722295571,-85.601572745712L11.313390134568772,-84.93751117561425z" style="fill:rgb(83,212,212)"/><path d="M16.944213886168697,-75.5540370618115L13.75104842464741,-82.42546501807706L11.336734968344759,-82.96446473070844z" style="fill:rgb(57,36,182)"/><path d="M8.953732972093006,-81.09746973689019L11.336734968344759,-82.96446473070844L11.313390134568772,-84.93751117561425zM11.336734968344759,-82.96446473070844L13.75104842464741,-82.42546501807706L13.705491722295571,-85.601572745712zM5.486306453388056,-70.12446199684507L8.38027500138701,-84.123255718947L5.414417826854947,-82.84764814027295zM5.486306453388056,-70.12446199684507L8.924104526356519,-84.27423162043682L8.38027500138701,-84.123255718947zM1.8040679663929793,-65.53756513191762L2.665818374188324,-81.66547729306461L1.7752294753379798,-81.13245288850393zM1.8040679663929793,-65.53756513191762L5.414417826854947,-82.84764814027295L2.665818374188324,-81.66547729306461zM13.882795934419512,-73.24034216172035L14.250750280337405,-85.75293799874555L13.705491722295571,-85.601572745712zM13.882795934419512,-73.24034216172035L17.240277712483433,-86.12925677540935L14.250750280337405,-85.75293799874555zM-11.155176640495464,-61.483456593536616L-8.226234968689596,-73.72903490570806L-11.05089956796146,-70.64093068535732zM-12.925629591800726,-59.29390065342258L-11.05089956796146,-70.64093068535732L-11.126885664067768,-70.55786090742593zM9.039415523193535,-71.91059504582039L9.889153795540825,-79.39721346343016L8.953732972093006,-81.09746973689019zM17.469858313473875,-73.41214197985036L20.01866196930923,-86.47899872197884L17.240277712483433,-86.12925677540935zM-12.925629591800726,-59.29390065342258L-11.126885664067768,-70.55786090742593L-12.812360379244737,-67.89776379494583zM17.469858313473875,-73.41214197985036L20.924089861368113,-86.44280968510168L20.01866196930923,-86.47899872197884zM9.961371360422715,-72.37405230873495L11.374087164032689,-79.80755140167486L9.889153795540825,-79.39721346343016zM12.954090029541597,-73.1958559198877L13.75104842464741,-82.42546501807706L12.860107184601135,-80.21819869296787zM11.45316646917951,-73.12396807087171L12.860107184601135,-80.21819869296787L11.374087164032689,-79.80755140167486zM5.486306453388056,-70.12446199684507L9.039415523193535,-71.91059504582039L8.924104526356519,-84.27423162043682z" style="fill:rgb(83,212,212)"/><path d="M14.687175907111707,-66.25246810838462L5.486306453388056,-70.12446199684507L8.756860907967841,-63.27195316906023z" style="fill:rgb(164,51,222)"/><path d="M-4.9687937294929885,-54.79457142208045L-11.155176640495464,-61.483456593536616L-7.781778296061961,-54.68368526024709z" style="fill:rgb(90,32,203)"/><path d="M1.8040679663929793,-65.53756513191762L5.486306453388056,-70.12446199684507L5.414417826854947,-82.84764814027295zM-8.453485081667889,-47.004902772694976L1.7752294753379798,-81.13245288850393L-2.641940290245455,-78.48872447976075z" style="fill:rgb(83,212,212)"/><path d="M-7.781778296061961,-54.68368526024709L-12.925629591800726,-59.29390065342258L-9.53690267376878,-52.498779112781776z" style="fill:rgb(224,99,205)"/><path d="M-11.155176640495464,-61.483456593536616L-8.32933790313921,-61.604341760640665L-8.226234968689596,-73.72903490570806z" style="fill:rgb(83,212,212)"/><path d="M20.67593807914682,-66.51916688779356L11.45316646917951,-73.12396807087171L14.687175907111707,-66.25246810838462z" style="fill:rgb(90,32,203)"/><path d="M-8.453485081667889,-47.004902772694976L-2.641940290245455,-78.48872447976075L-7.309100242269505,-74.7317019852338zM-12.925629591800726,-59.29390065342258L-11.155176640495464,-61.483456593536616L-11.05089956796146,-70.64093068535732zM-15.046780194112248,-53.499228184076195L-12.812360379244737,-67.89776379494583L-13.919793360134769,-66.14995744808877zM9.039415523193535,-71.91059504582039L9.961371360422715,-72.37405230873495L9.889153795540825,-79.39721346343016z" style="fill:rgb(83,212,212)"/><path d="M8.756860907967841,-63.27195316906023L1.8040679663929793,-65.53756513191762L5.106367382889731,-58.69458422539722z" style="fill:rgb(224,99,205)"/><path d="M9.961371360422715,-72.37405230873495L11.45316646917951,-73.12396807087171L11.374087164032689,-79.80755140167486zM12.954090029541597,-73.1958559198877L13.882795934419512,-73.24034216172035L13.75104842464741,-82.42546501807706zM-8.453485081667889,-47.004902772694976L-7.309100242269505,-74.7317019852338L-8.226234968689596,-73.72903490570806zM13.882795934419512,-73.24034216172035L17.469858313473875,-73.41214197985036L17.240277712483433,-86.12925677540935z" style="fill:rgb(83,212,212)"/><path d="M14.687175907111707,-66.25246810838462L11.45316646917951,-73.12396807087171L5.486306453388056,-70.12446199684507z" style="fill:rgb(164,51,222)"/><path d="M11.45316646917951,-73.12396807087171L12.954090029541597,-73.1958559198877L12.860107184601135,-80.21819869296787z" style="fill:rgb(83,212,212)"/><path d="M-7.781778296061961,-54.68368526024709L-11.155176640495464,-61.483456593536616L-12.925629591800726,-59.29390065342258zM8.756860907967841,-63.27195316906023L5.486306453388056,-70.12446199684507L1.8040679663929793,-65.53756513191762z" style="fill:rgb(224,99,205)"/><path d="M-4.9687937294929885,-54.79457142208045L-8.32933790313921,-61.604341760640665L-11.155176640495464,-61.483456593536616z" style="fill:rgb(90,32,203)"/><path d="M-15.046780194112248,-53.499228184076195L-13.919793360134769,-66.14995744808877L-15.553112767509417,-61.70369635816473z" style="fill:rgb(83,212,212)"/><path d="M20.67593807914682,-66.51916688779356L17.469858313473875,-73.41214197985036L11.45316646917951,-73.12396807087171z" style="fill:rgb(90,32,203)"/><path d="M24.462841529604585,-63.950910176064276L17.469858313473875,-73.41214197985036L20.67593807914682,-66.51916688779356z" style="fill:rgb(30,49,155)"/><path d="M17.469858313473875,-73.41214197985036L21.265634452393304,-70.85963712994104L20.924089861368113,-86.44280968510168z" style="fill:rgb(83,212,212)"/><path d="M5.106367382889731,-58.69458422539722L1.8123067968165831,-61.082287555989566L5.129542380141096,-54.235913897469025z" style="fill:rgb(247,158,158)"/><path d="M-15.046780194112248,-53.499228184076195L-15.553112767509417,-61.70369635816473L-15.939877216456987,-57.420483162914486z" style="fill:rgb(83,212,212)"/><path d="M5.106367382889731,-58.69458422539722L1.8040679663929793,-65.53756513191762L1.8123067968165831,-61.082287555989566z" style="fill:rgb(247,158,158)"/><path d="M-15.046780194112248,-53.499228184076195L-13.043310749364878,-50.35491299822109L-12.812360379244737,-67.89776379494583z" style="fill:rgb(83,212,212)"/><path d="M-9.478112008318154,-43.32585527951158L-15.046780194112248,-53.499228184076195L-11.628655723670482,-46.70747532755827z" style="fill:rgb(16,65,132)"/><path d="M31.576124831053967,-72.50563591077363L34.12092266123201,-83.09035532047736L31.1814522821066,-84.61239248238805z" style="fill:rgb(83,212,212)"/><path d="M24.462841529604585,-63.950910176064276L21.265634452393304,-70.85963712994104L17.469858313473875,-73.41214197985036z" style="fill:rgb(30,49,155)"/><path d="M21.718467246492523,-50.19887071016066L25.42673273440582,-86.26287911446269L20.924089861368113,-86.44280968510168zM34.44652853140858,-73.94819336389574L34.20011380100066,-83.04934951306794L34.12092266123201,-83.09035532047736zM-13.043310749364878,-50.35491299822109L-11.194227099598155,-58.054091447664085L-12.925629591800726,-59.29390065342258zM34.44652853140858,-73.94819336389574L35.97784318501568,-81.31710861337659L34.20011380100066,-83.04934951306794zM-11.299059020333946,-48.847891354492866L-8.347359278765506,-59.48506645759442L-11.194227099598155,-58.054091447664085zM21.718467246492523,-50.19887071016066L30.228833435832215,-85.10564838399559L25.42673273440582,-86.26287911446269z" style="fill:rgb(83,212,212)"/><path d="M37.57353085942359,-66.99435521830969L31.576124831053967,-72.50563591077363L34.720910977225756,-65.56103484689098z" style="fill:rgb(164,51,222)"/><path d="M-9.478112008318154,-43.32585527951158L-12.898372714722797,-50.12744212918363L-15.046780194112248,-53.499228184076195z" style="fill:rgb(16,65,132)"/><path d="M39.4220758024626,-65.76686400395873L34.44652853140858,-73.94819336389574L37.57353085942359,-66.99435521830969z" style="fill:rgb(30,49,155)"/><path d="M-6.164522179006188,-40.65686286680496L-12.898372714722797,-50.12744212918363L-9.478112008318154,-43.32585527951158z" style="fill:rgb(28,51,152)"/><path d="M31.576124831053967,-72.50563591077363L34.44652853140858,-73.94819336389574L34.12092266123201,-83.09035532047736zM21.718467246492523,-50.19887071016066L31.1814522821066,-84.61239248238805L30.228833435832215,-85.10564838399559z" style="fill:rgb(83,212,212)"/><path d="M34.720910977225756,-65.56103484689098L31.64511961200195,-70.38919165312862L34.79630297784492,-63.44273681839585z" style="fill:rgb(247,158,158)"/><path d="M-13.043310749364878,-50.35491299822109L-11.299059020333946,-48.847891354492866L-11.194227099598155,-58.054091447664085zM-8.453485081667889,-47.004902772694976L1.8422963156744077,-44.86496690382393L1.7752294753379798,-81.13245288850393z" style="fill:rgb(83,212,212)"/><path d="M37.57353085942359,-66.99435521830969L34.44652853140858,-73.94819336389574L31.576124831053967,-72.50563591077363z" style="fill:rgb(164,51,222)"/><path d="M42.01805748691415,-69.64468314343705L39.41801080462069,-72.51413036362457L42.52649185059965,-65.54125358541174z" style="fill:rgb(247,163,153)"/><path d="M34.44652853140858,-73.94819336389574L36.29979158730469,-72.72833239478781L35.97784318501568,-81.31710861337659z" style="fill:rgb(83,212,212)"/><path d="M34.720910977225756,-65.56103484689098L31.576124831053967,-72.50563591077363L31.64511961200195,-70.38919165312862z" style="fill:rgb(247,158,158)"/><path d="M42.01805748691415,-69.64468314343705L38.92007268824216,-76.61258116026674L39.41801080462069,-72.51413036362457z" style="fill:rgb(247,163,153)"/><path d="M39.4220758024626,-65.76686400395873L36.29979158730469,-72.72833239478781L34.44652853140858,-73.94819336389574z" style="fill:rgb(30,49,155)"/><path d="M-11.299059020333946,-48.847891354492866L-8.453485081667889,-47.004902772694976L-8.347359278765506,-59.48506645759442zM36.6343528381571,-63.80306839572229L37.147549147665494,-80.17733610224323L35.97784318501568,-81.31710861337659zM-13.043310749364878,-50.35491299822109L-12.898372714722797,-50.12744212918363L-11.299059020333946,-48.847891354492866z" style="fill:rgb(83,212,212)"/><path d="M-6.164522179006188,-40.65686286680496L-9.579079873347904,-47.471795924645505L-12.898372714722797,-50.12744212918363z" style="fill:rgb(28,51,152)"/><path d="M-1.8311803801505495,-38.8374636701876L-9.579079873347904,-47.471795924645505L-6.164522179006188,-40.65686286680496z" style="fill:rgb(45,40,171)"/><path d="M36.6343528381571,-63.80306839572229L38.92007268824216,-76.61258116026674L37.147549147665494,-80.17733610224323z" style="fill:rgb(83,212,212)"/><path d="M42.52649185059965,-65.54125358541174L38.60082632236007,-68.07113392590827L41.72701160510788,-61.097993893056326z" style="fill:rgb(245,143,172)"/><path d="M1.8422963156744077,-44.86496690382393L5.552204975092666,-58.46143685753669L1.8123067968165831,-61.082287555989566z" style="fill:rgb(83,212,212)"/><path d="M42.52649185059965,-65.54125358541174L39.41801080462069,-72.51413036362457L38.60082632236007,-68.07113392590827z" style="fill:rgb(245,143,172)"/><path d="M-11.299059020333946,-48.847891354492866L-9.579079873347904,-47.471795924645505L-8.453485081667889,-47.004902772694976z" style="fill:rgb(83,212,212)"/><path d="M-1.8311803801505495,-38.8374636701876L-5.232290406965593,-45.66874124282691L-9.579079873347904,-47.471795924645505z" style="fill:rgb(45,40,171)"/><path d="M3.3244403207249333,-37.96592317162738L-5.232290406965593,-45.66874124282691L-1.8311803801505495,-38.8374636701876z" style="fill:rgb(65,34,188)"/><path d="M36.6343528381571,-63.80306839572229L39.41801080462069,-72.51413036362457L38.92007268824216,-76.61258116026674zM10.177893547894026,-51.317289409843156L11.623707546670973,-58.71026652629103L10.102514191960442,-58.6479263042945zM9.25323408704721,-48.984960882113754L10.102514191960442,-58.6479263042945L9.163470320543885,-58.60943589633792zM5.628474514203377,-44.962892098573285L9.163470320543885,-58.60943589633792L5.552204975092666,-58.46143685753669zM11.70630855731835,-51.72903753287378L13.137774074955535,-59.47111250652337L11.623707546670973,-58.71026652629103zM13.235874750198395,-52.14109645724257L14.073550800061058,-59.941350862642L13.137774074955535,-59.47111250652337z" style="fill:rgb(83,212,212)"/><path d="M41.72701160510788,-61.097993893056326L36.49224253186952,-63.49462488471723L39.64264392878632,-56.52598151492885z" style="fill:rgb(238,122,189)"/><path d="M34.89591520507253,-61.33059413241897L36.29979158730469,-72.72833239478781L34.568481561478535,-70.52407096895605z" style="fill:rgb(83,212,212)"/><path d="M16.530915461785074,-45.24828941326642L10.177893547894026,-51.317289409843156L13.489726212070572,-44.43482975939125z" style="fill:rgb(127,37,217)"/><path d="M21.718467246492523,-50.19887071016066L32.05148177406075,-57.923863685041496L31.1814522821066,-84.61239248238805zM32.05148177406075,-57.923863685041496L34.568481561478535,-70.52407096895605L31.64511961200195,-70.38919165312862z" style="fill:rgb(83,212,212)"/><path d="M41.72701160510788,-61.097993893056326L38.60082632236007,-68.07113392590827L36.49224253186952,-63.49462488471723z" style="fill:rgb(238,122,189)"/><path d="M17.923932857885017,-48.259676649131535L21.363219345169593,-66.40726491497733L17.68032479067699,-61.753812226978845z" style="fill:rgb(83,212,212)"/><path d="M13.489726212070572,-44.43482975939125L9.25323408704721,-48.984960882113754L12.577040719865918,-42.10445771287983z" style="fill:rgb(241,128,184)"/><path d="M17.50810375964698,-43.42088886905412L13.235874750198395,-52.14109645724257L16.530915461785074,-45.24828941326642z" style="fill:rgb(13,70,126)"/><path d="M36.6343528381571,-63.80306839572229L38.60082632236007,-68.07113392590827L39.41801080462069,-72.51413036362457zM14.259491689596762,-46.97798294677193L17.68032479067699,-61.753812226978845L14.073550800061058,-59.941350862642zM-8.453485081667889,-47.004902772694976L-5.232290406965593,-45.66874124282691L-0.056004071936067545,-44.81587135544239zM10.177893547894026,-51.317289409843156L11.70630855731835,-51.72903753287378L11.623707546670973,-58.71026652629103z" style="fill:rgb(83,212,212)"/><path d="M3.3244403207249333,-37.96592317162738L-0.056004071936067545,-44.81587135544239L-5.232290406965593,-45.66874124282691z" style="fill:rgb(65,34,188)"/><path d="M9.058890366673287,-38.09474870187679L-0.056004071936067545,-44.81587135544239L3.3244403207249333,-37.96592317162738z" style="fill:rgb(89,32,203)"/><path d="M9.25323408704721,-48.984960882113754L10.177893547894026,-51.317289409843156L10.102514191960442,-58.6479263042945zM11.70630855731835,-51.72903753287378L13.235874750198395,-52.14109645724257L13.137774074955535,-59.47111250652337z" style="fill:rgb(83,212,212)"/><path d="M16.530915461785074,-45.24828941326642L13.235874750198395,-52.14109645724257L10.177893547894026,-51.317289409843156z" style="fill:rgb(127,37,217)"/><path d="M13.489726212070572,-44.43482975939125L10.177893547894026,-51.317289409843156L9.25323408704721,-48.984960882113754z" style="fill:rgb(241,128,184)"/><path d="M34.89591520507253,-61.33059413241897L36.6343528381571,-63.80306839572229L36.29979158730469,-72.72833239478781zM1.8422963156744077,-44.86496690382393L5.628474514203377,-44.962892098573285L5.552204975092666,-58.46143685753669z" style="fill:rgb(83,212,212)"/><path d="M39.64264392878632,-56.52598151492885L33.18195234298023,-59.007088414293364L36.362037687969014,-52.04747720209008z" style="fill:rgb(226,102,203)"/><path d="M13.235874750198395,-52.14109645724257L14.211581406745136,-50.31816839350311L14.073550800061058,-59.941350862642zM-8.453485081667889,-47.004902772694976L-0.056004071936067545,-44.81587135544239L1.8422963156744077,-44.86496690382393z" style="fill:rgb(83,212,212)"/><path d="M7.812440762137436,-80.85964283139268L-21.810406097227585,-127.31689224039178L1.8044435267843093,-77.83874981981512z" style="fill:rgb(164,51,222)"/><path d="M17.50810375964698,-43.42088886905412L14.211581406745136,-50.31816839350311L13.235874750198395,-52.14109645724257z" style="fill:rgb(13,70,126)"/><path d="M39.64264392878632,-56.52598151492885L36.49224253186952,-63.49462488471723L33.18195234298023,-59.007088414293364z" style="fill:rgb(226,102,203)"/><path d="M32.05148177406075,-57.923863685041496L34.89591520507253,-61.33059413241897L34.568481561478535,-70.52407096895605zM5.628474514203377,-44.962892098573285L9.284390501126547,-45.644374468207786L9.163470320543885,-58.60943589633792z" style="fill:rgb(83,212,212)"/><path d="M15.09435455522324,-39.22590412658304L5.70538087161068,-44.9648797598401L9.058890366673287,-38.09474870187679z" style="fill:rgb(114,34,213)"/><path d="M9.058890366673287,-38.09474870187679L5.70538087161068,-44.9648797598401L-0.056004071936067545,-44.81587135544239z" style="fill:rgb(89,32,203)"/><path d="M13.860436721602897,-81.17228588988705L-15.538649034993513,-130.47514494856335L7.812440762137436,-80.85964283139268z" style="fill:rgb(90,32,203)"/><path d="M36.362037687969014,-52.04747720209008L28.823260749136015,-54.830551826735004L32.03707431507052,-47.88402307619103z" style="fill:rgb(209,83,214)"/><path d="M17.923932857885017,-48.259676649131535L21.718467246492523,-50.19887071016066L21.363219345169593,-66.40726491497733zM34.89591520507253,-61.33059413241897L36.49224253186952,-63.49462488471723L36.6343528381571,-63.80306839572229z" style="fill:rgb(83,212,212)"/><path d="M1.8044435267843093,-77.83874981981512L-25.761983318742864,-122.65956999537548L-1.9136664982902305,-73.24140943830876z" style="fill:rgb(224,99,205)"/><path d="M21.133494023285994,-41.30912641694092L11.772711841485894,-46.116799509932626L15.09435455522324,-39.22590412658304z" style="fill:rgb(140,41,220)"/><path d="M14.259491689596762,-46.97798294677193L17.923932857885017,-48.259676649131535L17.68032479067699,-61.753812226978845z" style="fill:rgb(83,212,212)"/><path d="M32.03707431507052,-47.88402307619103L23.626304698762198,-51.17387239050962L26.876210483463993,-44.24376523461838z" style="fill:rgb(189,66,220)"/><path d="M36.362037687969014,-52.04747720209008L33.18195234298023,-59.007088414293364L28.823260749136015,-54.830551826735004z" style="fill:rgb(209,83,214)"/><path d="M26.876210483463993,-44.24376523461838L17.847001497195542,-48.22035856619465L21.133494023285994,-41.30912641694092z" style="fill:rgb(165,51,222)"/><path d="M15.09435455522324,-39.22590412658304L11.772711841485894,-46.116799509932626L5.70538087161068,-44.9648797598401z" style="fill:rgb(114,34,213)"/><path d="M9.284390501126547,-45.644374468207786L11.746140063825846,-48.36258333509387L9.25323408704721,-48.984960882113754zM32.05148177406075,-57.923863685041496L33.18195234298023,-59.007088414293364L34.89591520507253,-61.33059413241897zM11.772711841485894,-46.116799509932626L14.211581406745136,-50.31816839350311L11.746140063825846,-48.36258333509387z" style="fill:rgb(83,212,212)"/><path d="M32.03707431507052,-47.88402307619103L28.823260749136015,-54.830551826735004L23.626304698762198,-51.17387239050962z" style="fill:rgb(189,66,220)"/><path d="M-25.761983318742864,-122.65956999537548L-1.9224669387530982,-68.79040981886902L-1.9136664982902305,-73.24140943830876z" style="fill:rgb(247,158,158)"/><path d="M5.628474514203377,-44.962892098573285L5.70538087161068,-44.9648797598401L9.284390501126547,-45.644374468207786z" style="fill:rgb(83,212,212)"/><path d="M17.66598772042534,-78.63798560089334L-9.293304599744243,-130.95211578565667L13.860436721602897,-81.17228588988705z" style="fill:rgb(30,49,155)"/><path d="M21.133494023285994,-41.30912641694092L17.847001497195542,-48.22035856619465L11.772711841485894,-46.116799509932626z" style="fill:rgb(140,41,220)"/><path d="M26.876210483463993,-44.24376523461838L23.626304698762198,-51.17387239050962L17.847001497195542,-48.22035856619465z" style="fill:rgb(165,51,222)"/><path d="M9.284390501126547,-45.644374468207786L11.772711841485894,-46.116799509932626L11.746140063825846,-48.36258333509387zM11.772711841485894,-46.116799509932626L14.259491689596762,-46.97798294677193L14.211581406745136,-50.31816839350311zM21.718467246492523,-50.19887071016066L28.823260749136015,-54.830551826735004L32.05148177406075,-57.923863685041496zM21.718467246492523,-50.19887071016066L23.626304698762198,-51.17387239050962L28.823260749136015,-54.830551826735004zM14.259491689596762,-46.97798294677193L17.847001497195542,-48.22035856619465L17.923932857885017,-48.259676649131535zM165.94579356992801,-53.11600432228299L-36.506596178876045,-75.93444183529415L-44.9610159375277,-71.47867757529231zM165.94579356992801,-53.11600432228299L-27.891749346652816,-80.0649183082708L-36.506596178876045,-75.93444183529415zM165.94579356992801,-53.11600432228299L-44.9610159375277,-71.47867757529231L-53.23249187074089,-66.70935611821818z" style="fill:rgb(83,212,212)"/><path d="M-3.2486422153459174,-62.07151501295303L-31.11885828112705,-113.85723133602463L-6.889233724520984,-64.49917075220911z" style="fill:rgb(31,48,157)"/><path d="M165.94579356992801,-53.11600432228299L-19.139209388625037,-83.85881602225254L-27.891749346652816,-80.0649183082708zM165.94579356992801,-53.11600432228299L-53.23249187074089,-66.70935611821818L-61.29870937478649,-61.63866565791971z" style="fill:rgb(83,212,212)"/><path d="M23.73285299032673,-81.23828361261599L1.4847244232972945,-127.29755931395384L24.40164958685855,-77.19014529967734z" style="fill:rgb(246,166,149)"/><path d="M165.94579356992801,-53.11600432228299L-10.271999547788349,-87.3052660644038L-19.139209388625037,-83.85881602225254zM165.94579356992801,-53.11600432228299L-61.29870937478649,-61.63866565791971L-69.13753196645811,-56.279265984237675zM165.94579356992801,-53.11600432228299L-1.3134500104545974,-90.39382163942996L-10.271999547788349,-87.3052660644038zM165.94579356992801,-53.11600432228299L-69.13753196645811,-56.279265984237675L-76.72695226848334,-50.64433896566114zM165.94579356992801,-53.11600432228299L7.712738616889629,-93.11441587100285L-1.3134500104545974,-90.39382163942996zM165.94579356992801,-53.11600432228299L-76.72695226848334,-50.64433896566114L-84.04508890376096,-44.74761673167851z" style="fill:rgb(83,212,212)"/><path d="M7.812440762137436,-80.85964283139268L-15.538649034993513,-130.47514494856335L-21.810406097227585,-127.31689224039178z" style="fill:rgb(164,51,222)"/><path d="M1.937561507305693,-61.21194061132337L-27.42695901335711,-111.54870361983897L-3.2486422153459174,-62.07151501295303z" style="fill:rgb(64,34,187)"/><path d="M165.94579356992801,-53.11600432228299L16.782476028961103,-95.45744080830875L7.712738616889629,-93.11441587100285z" style="fill:rgb(83,212,212)"/><path d="M1.8044435267843093,-77.83874981981512L-21.810406097227585,-127.31689224039178L-25.761983318742864,-122.65956999537548z" style="fill:rgb(224,99,205)"/><path d="M24.40164958685855,-77.19014529967734L-0.25645379004874264,-122.73763022232254L22.823253177387215,-72.63436710858872z" style="fill:rgb(242,132,181)"/><path d="M165.94579356992801,-53.11600432228299L-84.04508890376096,-44.74761673167851L-91.07015173612196,-38.60341655838629z" style="fill:rgb(83,212,212)"/><path d="M13.860436721602897,-81.17228588988705L-9.293304599744243,-130.95211578565667L-15.538649034993513,-130.47514494856335z" style="fill:rgb(90,32,203)"/><path d="M165.94579356992801,-53.11600432228299L25.871232209582825,-97.41370303067843L16.782476028961103,-95.45744080830875z" style="fill:rgb(83,212,212)"/><path d="M-0.25645379004874264,-122.73763022232254L19.191640398423086,-68.19659702551654L22.823253177387215,-72.63436710858872z" style="fill:rgb(223,97,206)"/><path d="M165.94579356992801,-53.11600432228299L-91.07015173612196,-38.60341655838629L-97.78045999457689,-32.22669124174964zM165.94579356992801,-53.11600432228299L34.953982954700095,-98.97445585832894L25.871232209582825,-97.41370303067843z" style="fill:rgb(83,212,212)"/><path d="M-15.856650069102328,-111.83871868403061L1.937561507305693,-61.21194061132337L7.965422647230254,-62.05604840442925z" style="fill:rgb(105,33,210)"/><path d="M165.94579356992801,-53.11600432228299L-97.78045999457689,-32.22669124174964L-104.15441405465742,-25.633083054366757z" style="fill:rgb(83,212,212)"/><path d="M13.998268687551915,-64.49713536506735L-15.856650069102328,-111.83871868403061L7.965422647230254,-62.05604840442925z" style="fill:rgb(149,44,221)"/><path d="M19.191640398423086,-68.19659702551654L-9.568282550355184,-114.42513401391082L13.998268687551915,-64.49713536506735z" style="fill:rgb(190,67,220)"/><path d="M-25.761983318742864,-122.65956999537548L-25.885732816503104,-118.24769225269658L-1.9224669387530982,-68.79040981886902z" style="fill:rgb(247,158,158)"/><path d="M17.66598772042534,-78.63798560089334L-5.430563396636389,-128.54648564594964L-9.293304599744243,-130.95211578565667z" style="fill:rgb(30,49,155)"/><path d="M165.94579356992801,-53.11600432228299L44.00520268190992,-100.1314692422857L34.953982954700095,-98.97445585832894zM165.94579356992801,-53.11600432228299L-104.15441405465742,-25.633083054366757L-110.17050268273344,-18.83895037359456zM165.94579356992801,-53.11600432228299L52.99881703802826,-100.8770134831319L44.00520268190992,-100.1314692422857z" style="fill:rgb(83,212,212)"/><path d="M23.73285299032673,-81.23828361261599L0.8937918112295462,-131.29071562564238L1.4847244232972945,-127.29755931395384z" style="fill:rgb(246,166,149)"/><path d="M165.94579356992801,-53.11600432228299L-110.17050268273344,-18.83895037359456L-115.80737540551522,-11.86143747401975zM-21.810406097227585,-127.31689224039178L-18.58001420433809,-133.57333423171283L-21.701621827764676,-131.8746770845335zM-21.810406097227585,-127.31689224039178L-15.47030300362975,-134.48055552244227L-18.58001420433809,-133.57333423171283zM-15.538649034993513,-130.47514494856335L-12.355785367427467,-135.38918735265077L-15.47030300362975,-134.48055552244227zM165.94579356992801,-53.11600432228299L61.908167804850514,-101.20396303844716L52.99881703802826,-100.8770134831319zM-25.761983318742864,-122.65956999537548L-21.701621827764676,-131.8746770845335L-24.406380048686405,-130.40285947994585zM-25.761983318742864,-122.65956999537548L-24.406380048686405,-130.40285947994585L-25.573626813343008,-129.37479389811793zM-15.538649034993513,-130.47514494856335L-9.246808691217563,-135.50581664860903L-12.355785367427467,-135.38918735265077z" style="fill:rgb(83,212,212)"/><path d="M-3.2486422153459174,-62.07151501295303L-27.42695901335711,-111.54870361983897L-31.11885828112705,-113.85723133602463z" style="fill:rgb(31,48,157)"/><path d="M-21.810406097227585,-127.31689224039178L-15.538649034993513,-130.47514494856335L-15.47030300362975,-134.48055552244227zM165.94579356992801,-53.11600432228299L-115.80737540551522,-11.86143747401975L-121.04379521363673,-4.718519438870715zM-25.761983318742864,-122.65956999537548L-21.810406097227585,-127.31689224039178L-21.701621827764676,-131.8746770845335z" style="fill:rgb(83,212,212)"/><path d="M24.40164958685855,-77.19014529967734L1.4847244232972945,-127.29755931395384L-0.25645379004874264,-122.73763022232254z" style="fill:rgb(242,132,181)"/><path d="M-9.293304599744243,-130.95211578565667L-6.545207003890582,-135.60716181524438L-9.246808691217563,-135.50581664860903zM165.94579356992801,-53.11600432228299L70.70599287926798,-101.10578334900144L61.908167804850514,-101.20396303844716zM-15.538649034993513,-130.47514494856335L-9.293304599744243,-130.95211578565667L-9.246808691217563,-135.50581664860903zM-31.11885828112705,-113.85723133602463L-25.573626813343008,-129.37479389811793L-29.076364315021493,-126.28968549760783zM-9.293304599744243,-130.95211578565667L-5.390658981892594,-135.25214959171993L-6.545207003890582,-135.60716181524438zM-1.2169248392485423,-8.865227515544117L-137.83951888314408,25.825992055203937L-138.1715711118725,26.696481092240496zM165.94579356992801,-53.11600432228299L-121.04379521363673,-4.718519438870715L-125.85874523241644,2.5709527367144345zM-7.294263612746434,-5.6858211530903935L-138.1715711118725,26.696481092240496L-138.82748167103443,28.41601063098205z" style="fill:rgb(83,212,212)"/><path d="M1.937561507305693,-61.21194061132337L-22.098591248398225,-110.83712790078003L-27.42695901335711,-111.54870361983897z" style="fill:rgb(64,34,187)"/><path d="M-31.11885828112705,-113.85723133602463L-29.076364315021493,-126.28968549760783L-31.972440273137963,-121.76697006152794zM-12.932631349483568,-1.8739914347930207L-138.82748167103443,28.41601063098205L-139.7909756822251,30.941905279755797zM165.94579356992801,-53.11600432228299L79.36445485806249,-100.57670076866587L70.70599287926798,-101.10578334900144zM-9.293304599744243,-130.95211578565667L-5.430563396636389,-128.54648564594964L-5.390658981892594,-135.25214959171993z" style="fill:rgb(83,212,212)"/><path d="M-15.856650069102328,-111.83871868403061L-22.098591248398225,-110.83712790078003L1.937561507305693,-61.21194061132337z" style="fill:rgb(105,33,210)"/><path d="M-0.25645379004874264,-122.73763022232254L-4.115030778347813,-118.23696447059106L19.191640398423086,-68.19659702551654z" style="fill:rgb(223,97,206)"/><path d="M-31.11885828112705,-113.85723133602463L-31.972440273137963,-121.76697006152794L-32.69466809929487,-117.42844919733909zM-17.98222503263156,2.4714214150620246L-139.7909756822251,30.941905279755797L-140.4936181775201,32.78391860775419zM165.94579356992801,-53.11600432228299L-125.85874523241644,2.5709527367144345L-130.23145195394198,9.987198582845448z" style="fill:rgb(83,212,212)"/><path d="M19.191640398423086,-68.19659702551654L-4.115030778347813,-118.23696447059106L-9.568282550355184,-114.42513401391082z" style="fill:rgb(190,67,220)"/><path d="M-17.98222503263156,2.4714214150620246L-140.4936181775201,32.78391860775419L-140.93004161752884,34.182983569964186z" style="fill:rgb(83,212,212)"/><path d="M13.998268687551915,-64.49713536506735L-9.568282550355184,-114.42513401391082L-15.856650069102328,-111.83871868403061z" style="fill:rgb(149,44,221)"/><path d="M-31.11885828112705,-113.85723133602463L-26.07868450956383,-111.36864662305679L-25.573626813343008,-129.37479389811793zM165.94579356992801,-53.11600432228299L87.85506302128759,-99.61168297507999L79.36445485806249,-100.57670076866587zM-5.497664989178902,-117.27050300601104L-1.918024682981673,-134.18434869391533L-5.390658981892594,-135.25214959171993zM-22.306202698357637,7.237907987710379L-140.93004161752884,34.182983569964186L-142.1318059297802,38.03544719436337zM165.94579356992801,-53.11600432228299L-130.23145195394198,9.987198582845448L-134.14144599598467,17.509463468798078zM165.94579356992801,-53.11600432228299L96.14876118695331,-98.20658058411394L87.85506302128759,-99.61168297507999zM-5.497664989178902,-117.27050300601104L0.8937918112295462,-131.29071562564238L-1.918024682981673,-134.18434869391533zM-25.78376875901693,12.30124639104334L-142.1318059297802,38.03544719436337L-142.89730448988743,40.489399016891376zM-26.07868450956383,-111.36864662305679L-22.08602917219756,-115.7690045030075L-25.885732816503104,-118.24769225269658zM-25.78376875901693,12.30124639104334L-142.89730448988743,40.489399016891376L-143.35840596831136,42.398316398120684zM165.94579356992801,-53.11600432228299L-134.14144599598467,17.509463468798078L-137.5686892229604,25.115975561544882zM-31.11885828112705,-113.85723133602463L-27.42695901335711,-111.54870361983897L-26.07868450956383,-111.36864662305679zM-7.294263612746434,-5.6858211530903935L-1.2169248392485423,-8.865227515544117L-138.1715711118725,26.696481092240496zM-1.2169248392485423,-8.865227515544117L5.1395265559628225,-11.328706131568884L-137.83951888314408,25.825992055203937zM-12.932631349483568,-1.8739914347930207L-7.294263612746434,-5.6858211530903935L-138.82748167103443,28.41601063098205zM-5.497664989178902,-117.27050300601104L1.4847244232972945,-127.29755931395384L0.8937918112295462,-131.29071562564238zM165.94579356992801,-53.11600432228299L104.21590340116794,-96.35820835486376L96.14876118695331,-98.20658058411394zM165.94579356992801,-53.11600432228299L-137.5686892229604,25.115975561544882L-137.83951888314408,25.825992055203937zM-26.07868450956383,-111.36864662305679L-22.20340807335555,-110.8511266877229L-22.08602917219756,-115.7690045030075zM-17.98222503263156,2.4714214150620246L-12.932631349483568,-1.8739914347930207L-139.7909756822251,30.941905279755797zM-22.20340807335555,-110.8511266877229L-15.782115378808456,-116.20681511915649L-22.08602917219756,-115.7690045030075zM-28.313160447262074,17.527660169007806L-143.35840596831136,42.398316398120684L-144.5032486004217,47.137906197467224zM-9.461290986839598,-114.49992516453426L-5.4567820346400335,-124.14061278531688L-9.41111605297353,-119.41393236604887zM-5.497664989178902,-117.27050300601104L-0.25645379004874264,-122.73763022232254L1.4847244232972945,-127.29755931395384zM-15.856650069102328,-111.83871868403061L-9.41111605297353,-119.41393236604887L-15.782115378808456,-116.20681511915649zM-22.306202698357637,7.237907987710379L-17.98222503263156,2.4714214150620246L-140.93004161752884,34.182983569964186zM-22.20340807335555,-110.8511266877229L-15.856650069102328,-111.83871868403061L-15.782115378808456,-116.20681511915649zM-9.461290986839598,-114.49992516453426L-5.497664989178902,-117.27050300601104L-5.4567820346400335,-124.14061278531688zM165.94579356992801,-53.11600432228299L112.02629813292747,-94.06446546859816L104.21590340116794,-96.35820835486376zM-29.814672653836734,22.776355053090253L-144.5032486004217,47.137906197467224L-144.7615964634172,48.2074343765902zM-22.20340807335555,-110.8511266877229L-22.098591248398225,-110.83712790078003L-15.856650069102328,-111.83871868403061zM-15.856650069102328,-111.83871868403061L-9.461290986839598,-114.49992516453426L-9.41111605297353,-119.41393236604887zM-5.497664989178902,-117.27050300601104L-4.115030778347813,-118.23696447059106L-0.25645379004874264,-122.73763022232254z" style="fill:rgb(83,212,212)"/><path d="M2.742748339772999,-1.1238536216237078L-7.294263612746434,-5.6858211530903935L-3.2896025705623497,2.0325031705555183z" style="fill:rgb(167,52,222)"/><path d="M9.055395622234359,-3.5631432618254193L-1.2169248392485423,-8.865227515544117L2.742748339772999,-1.1238536216237078z" style="fill:rgb(147,43,221)"/><path d="M-3.2896025705623497,2.0325031705555183L-12.932631349483568,-1.8739914347930207L-8.882871630769465,5.822971075912935z" style="fill:rgb(185,63,221)"/><path d="M-29.814672653836734,22.776355053090253L-144.7615964634172,48.2074343765902L-145.4219010420772,52.0980073969085zM-25.78376875901693,12.30124639104334L-22.306202698357637,7.237907987710379L-142.1318059297802,38.03544719436337z" style="fill:rgb(83,212,212)"/><path d="M15.482514253977978,-5.219382417297356L5.1395265559628225,-11.328706131568884L9.055395622234359,-3.5631432618254193z" style="fill:rgb(127,37,217)"/><path d="M-15.856650069102328,-111.83871868403061L-9.568282550355184,-114.42513401391082L-9.461290986839598,-114.49992516453426z" style="fill:rgb(83,212,212)"/><path d="M-8.882871630769465,5.822971075912935L-17.98222503263156,2.4714214150620246L-13.888354098825976,10.149197577488957z" style="fill:rgb(202,76,217)"/><path d="M2.742748339772999,-1.1238536216237078L-1.2169248392485423,-8.865227515544117L-7.294263612746434,-5.6858211530903935z" style="fill:rgb(167,52,222)"/><path d="M-3.2896025705623497,2.0325031705555183L-7.294263612746434,-5.6858211530903935L-12.932631349483568,-1.8739914347930207z" style="fill:rgb(185,63,221)"/><path d="M9.055395622234359,-3.5631432618254193L5.1395265559628225,-11.328706131568884L-1.2169248392485423,-8.865227515544117z" style="fill:rgb(147,43,221)"/><path d="M21.854282687223584,-6.044973201629815L11.608226593383517,-13.009669814196828L15.482514253977978,-5.219382417297356z" style="fill:rgb(107,33,211)"/><path d="M165.94579356992801,-53.11600432228299L119.5492886510847,-91.32441706273052L112.02629813292747,-94.06446546859816z" style="fill:rgb(83,212,212)"/><path d="M-8.882871630769465,5.822971075912935L-12.932631349483568,-1.8739914347930207L-17.98222503263156,2.4714214150620246z" style="fill:rgb(202,76,217)"/><path d="M-13.888354098825976,10.149197577488957L-22.306202698357637,7.237907987710379L-18.170319436722792,14.89910039752543z" style="fill:rgb(217,91,210)"/><path d="M15.482514253977978,-5.219382417297356L11.608226593383517,-13.009669814196828L5.1395265559628225,-11.328706131568884z" style="fill:rgb(127,37,217)"/><path d="M-30.233630567239487,27.902487937001787L-145.4219010420772,52.0980073969085L-146.06919778732555,55.91192588917408zM-28.313160447262074,17.527660169007806L-25.78376875901693,12.30124639104334L-143.35840596831136,42.398316398120684z" style="fill:rgb(83,212,212)"/><path d="M28.000209844197812,-6.01205373649646L18.01835179377262,-13.859869379403863L21.854282687223584,-6.044973201629815z" style="fill:rgb(87,32,202)"/><path d="M-13.888354098825976,10.149197577488957L-17.98222503263156,2.4714214150620246L-22.306202698357637,7.237907987710379z" style="fill:rgb(217,91,210)"/><path d="M-30.233630567239487,27.902487937001787L-146.06919778732555,55.91192588917408L-146.18957860497397,57.167652816645656z" style="fill:rgb(83,212,212)"/><path d="M21.854282687223584,-6.044973201629815L18.01835179377262,-13.859869379403863L11.608226593383517,-13.009669814196828z" style="fill:rgb(107,33,211)"/><path d="M-18.170319436722792,14.89910039752543L-25.78376875901693,12.30124639104334L-21.609087794861217,19.948821962211518z" style="fill:rgb(229,106,201)"/><path d="M165.94579356992801,-53.11600432228299L126.75375499143504,-88.1384704685103L119.5492886510847,-91.32441706273052z" style="fill:rgb(83,212,212)"/><path d="M-18.170319436722792,14.89910039752543L-22.306202698357637,7.237907987710379L-25.78376875901693,12.30124639104334z" style="fill:rgb(229,106,201)"/><path d="M-29.814672653836734,22.776355053090253L-28.313160447262074,17.527660169007806L-144.5032486004217,47.137906197467224z" style="fill:rgb(83,212,212)"/><path d="M33.75258608044885,-5.113691024468714L24.19846345737745,-13.850753177675173L28.000209844197812,-6.01205373649646z" style="fill:rgb(69,33,191)"/><path d="M28.000209844197812,-6.01205373649646L24.19846345737745,-13.850753177675173L18.01835179377262,-13.859869379403863z" style="fill:rgb(87,32,202)"/><path d="M-29.54313726203928,32.760564065840406L-146.18957860497397,57.167652816645656L-146.6695736659916,62.17440920435829z" style="fill:rgb(83,212,212)"/><path d="M-21.609087794861217,19.948821962211518L-28.313160447262074,17.527660169007806L-24.103978507067218,25.16489713767311zM-21.609087794861217,19.948821962211518L-25.78376875901693,12.30124639104334L-28.313160447262074,17.527660169007806z" style="fill:rgb(238,122,189)"/><path d="M165.94579356992801,-53.11600432228299L133.60828615401743,-84.5084212034724L126.75375499143504,-88.1384704685103z" style="fill:rgb(83,212,212)"/><path d="M33.75258608044885,-5.113691024468714L29.97995998720252,-12.974681454669717L24.19846345737745,-13.850753177675173z" style="fill:rgb(69,33,191)"/><path d="M38.9503014846634,-3.364882210789304L29.97995998720252,-12.974681454669717L33.75258608044885,-5.113691024468714z" style="fill:rgb(52,37,178)"/><path d="M-30.233630567239487,27.902487937001787L-29.814672653836734,22.776355053090253L-145.4219010420772,52.0980073969085zM-27.74646829371813,37.20833048411569L-146.6695736659916,62.17440920435829L-146.80390109632705,63.575679666615386z" style="fill:rgb(83,212,212)"/><path d="M-24.103978507067218,25.16489713767311L-29.814672653836734,22.776355053090253L-25.57633734330074,30.40677501949653z" style="fill:rgb(244,138,176)"/><path d="M-27.74646829371813,37.20833048411569L-146.80390109632705,63.575679666615386L-146.86969238737692,66.97840998910215z" style="fill:rgb(83,212,212)"/><path d="M-24.103978507067218,25.16489713767311L-28.313160447262074,17.527660169007806L-29.814672653836734,22.776355053090253z" style="fill:rgb(244,138,176)"/><path d="M165.94579356992801,-53.11600432228299L140.08126837059905,-80.43769631405681L133.60828615401743,-84.5084212034724z" style="fill:rgb(83,212,212)"/><path d="M38.9503014846634,-3.364882210789304L35.200914882538605,-11.24594601051082L29.97995998720252,-12.974681454669717z" style="fill:rgb(52,37,178)"/><path d="M43.44283754810824,-0.8032580689703331L35.200914882538605,-11.24594601051082L38.9503014846634,-3.364882210789304z" style="fill:rgb(37,44,163)"/><path d="M-29.54313726203928,32.760564065840406L-30.233630567239487,27.902487937001787L-146.18957860497397,57.167652816645656zM-24.878793174187447,41.111010372216846L-146.86969238737692,66.97840998910215L-146.95075550528003,71.17043494903854z" style="fill:rgb(83,212,212)"/><path d="M-25.57633734330074,30.40677501949653L-30.233630567239487,27.902487937001787L-25.97244100913441,35.52980048470845zM-25.57633734330074,30.40677501949653L-29.814672653836734,22.776355053090253L-30.233630567239487,27.902487937001787z" style="fill:rgb(247,154,162)"/><path d="M-24.878793174187447,41.111010372216846L-146.95075550528003,71.17043494903854L-146.932404889704,71.47322843615606zM166.34579384048644,-52.37464374258449L11.608226593383517,-13.009669814196828L18.01835179377262,-13.859869379403863z" style="fill:rgb(83,212,212)"/><path d="M43.44283754810824,-0.8032580689703331L39.710088877613224,-8.70149897592049L35.200914882538605,-11.24594601051082z" style="fill:rgb(37,44,163)"/><path d="M165.94579356992801,-53.11600432228299L146.1409711634473,-75.93139299223938L140.08126837059905,-80.43769631405681z" style="fill:rgb(83,212,212)"/><path d="M47.094705060856725,2.5106256746300213L39.710088877613224,-8.70149897592049L43.44283754810824,-0.8032580689703331z" style="fill:rgb(25,53,148)"/><path d="M-27.74646829371813,37.20833048411569L-29.54313726203928,32.760564065840406L-146.6695736659916,62.17440920435829zM167.13634929473116,-50.90940451067602L18.01835179377262,-13.859869379403863L24.19846345737745,-13.850753177675173zM-21.008055720387446,44.34586938725075L-146.932404889704,71.47322843615606L-146.6895100135987,75.47949550267454z" style="fill:rgb(83,212,212)"/><path d="M-25.97244100913441,35.52980048470845L-29.54313726203928,32.760564065840406L-25.266240332423543,40.38860500024247zM-25.97244100913441,35.52980048470845L-30.233630567239487,27.902487937001787L-29.54313726203928,32.760564065840406z" style="fill:rgb(246,169,146)"/><path d="M47.094705060856725,2.5106256746300213L43.37138309007643,-5.4012746182168625L39.710088877613224,-8.70149897592049z" style="fill:rgb(25,53,148)"/><path d="M165.94579356992801,-53.11600432228299L151.75578014571767,-70.99647428308275L146.1409711634473,-75.93139299223938zM168.2986583268305,-48.75515642635144L24.19846345737745,-13.850753177675173L29.97995998720252,-12.974681454669717z" style="fill:rgb(83,212,212)"/><path d="M49.78984624481248,6.493570006575672L43.37138309007643,-5.4012746182168625L47.094705060856725,2.5106256746300213z" style="fill:rgb(16,65,132)"/><path d="M-16.234837105112277,46.80689167205999L-146.6895100135987,75.47949550267454L-146.49628124065484,78.66688219401425zM-24.878793174187447,41.111010372216846L-27.74646829371813,37.20833048411569L-146.86969238737692,66.97840998910215zM-16.234837105112277,46.80689167205999L-146.49628124065484,78.66688219401425L-146.4556429830537,78.9472815395153z" style="fill:rgb(83,212,212)"/><path d="M-25.266240332423543,40.38860500024247L-27.74646829371813,37.20833048411569L-23.46168871779534,44.84098306801499zM-25.266240332423543,40.38860500024247L-29.54313726203928,32.760564065840406L-27.74646829371813,37.20833048411569z" style="fill:rgb(242,183,130)"/><path d="M169.67897122812428,-45.93146595346483L29.97995998720252,-12.974681454669717L35.200914882538605,-11.24594601051082zM-10.690769612235203,48.40931290601071L-146.4556429830537,78.9472815395153L-146.05396392344647,81.71926937495746z" style="fill:rgb(83,212,212)"/><path d="M49.78984624481248,6.493570006575672L46.06828392261633,-1.4279390217365966L43.37138309007643,-5.4012746182168625z" style="fill:rgb(16,65,132)"/><path d="M165.94579356992801,-53.11600432228299L156.89430420882178,-65.64191913648035L151.75578014571767,-70.99647428308275zM-21.008055720387446,44.34586938725075L-24.878793174187447,41.111010372216846L-146.932404889704,71.47322843615606zM166.34579384048644,-52.37464374258449L165.94579356992801,-53.11600432228299L11.608226593383517,-13.009669814196828zM-4.535536150489059,49.093651259285515L-146.05396392344647,81.71926937495746L-145.7570385980846,83.76838218862821zM167.13634929473116,-50.90940451067602L166.34579384048644,-52.37464374258449L18.01835179377262,-13.859869379403863zM171.14501421568124,-42.48286010121214L35.200914882538605,-11.24594601051082L39.710088877613224,-8.70149897592049zM2.047590750066259,48.82908793636574L-145.7570385980846,83.76838218862821L-145.57475972347638,85.02616019847945zM165.94579356992801,-53.11600432228299L161.52564544582845,-59.87880470336665L156.89430420882178,-65.64191913648035zM168.2986583268305,-48.75515642635144L167.13634929473116,-50.90940451067602L24.19846345737745,-13.850753177675173zM-16.234837105112277,46.80689167205999L-21.008055720387446,44.34586938725075L-146.6895100135987,75.47949550267454zM8.857688348490319,47.6157454550712L-145.57475972347638,85.02616019847945L-145.51332407703347,85.45021716322248zM172.65120565978813,-38.49466629173596L39.710088877613224,-8.70149897592049L43.37138309007643,-5.4012746182168625zM169.67897122812428,-45.93146595346483L168.2986583268305,-48.75515642635144L29.97995998720252,-12.974681454669717zM-10.690769612235203,48.40931290601071L-16.234837105112277,46.80689167205999L-146.4556429830537,78.9472815395153zM165.94579356992801,-53.11600432228299L165.61964797348364,-53.72050406055446L161.52564544582845,-59.87880470336665zM171.14501421568124,-42.48286010121214L169.67897122812428,-45.93146595346483L35.200914882538605,-11.24594601051082zM174.0710338053355,-34.04855717240447L43.37138309007643,-5.4012746182168625L46.06828392261633,-1.4279390217365966zM-4.535536150489059,49.093651259285515L-10.690769612235203,48.40931290601071L-146.05396392344647,81.71926937495746zM2.047590750066259,48.82908793636574L-4.535536150489059,49.093651259285515L-145.7570385980846,83.76838218862821zM172.65120565978813,-38.49466629173596L171.14501421568124,-42.48286010121214L39.710088877613224,-8.70149897592049zM175.2328022824699,-29.23017306829301L46.06828392261633,-1.4279390217365966L47.70839182921272,3.1140509090733746zM8.857688348490319,47.6157454550712L2.047590750066259,48.82908793636574L-145.57475972347638,85.02616019847945zM169.67897122812428,-45.93146595346483L169.1470285032462,-47.18275065969843L168.2986583268305,-48.75515642635144zM174.0710338053355,-34.04855717240447L172.65120565978813,-38.49466629173596L43.37138309007643,-5.4012746182168625zM176.22146041939743,-24.203016757173522L47.70839182921272,3.1140509090733746L48.227685711024904,8.100281323096734zM175.2328022824699,-29.23017306829301L174.0710338053355,-34.04855717240447L46.06828392261633,-1.4279390217365966zM176.87371380796853,-19.076692160359066L48.227685711024904,8.100281323096734L47.59428584062212,13.389122149402656zM172.65120565978813,-38.49466629173596L172.0798556534649,-40.283800749031684L171.14501421568124,-42.48286010121214z" style="fill:rgb(83,212,212)"/><path d="M174.91139375370696,-31.867839124014974L174.39167300237193,-33.04447911461983L177.2268254222242,-24.62066260881088zM174.91139375370696,-31.867839124014974L172.0798556534649,-40.283800749031684L174.39167300237193,-33.04447911461983z" style="fill:rgb(246,166,149)"/><path d="M-120.5441908219179,132.95375124266064L-130.62455185602434,119.82842044511693L-125.41774669352604,127.02697971058727z" style="fill:rgb(28,51,152)"/><path d="M176.22146041939743,-24.203016757173522L175.2328022824699,-29.23017306829301L47.70839182921272,3.1140509090733746zM177.19553106835284,-14.008718365724116L47.59428584062212,13.389122149402656L45.81138107395341,18.825491043137394z" style="fill:rgb(83,212,212)"/><path d="M-120.5441908219179,132.95375124266064L-125.75245091163892,125.74674685731799L-130.62455185602434,119.82842044511693z" style="fill:rgb(28,51,152)"/><path d="M177.2268254222242,-24.62066260881088L176.05794343693123,-25.48829047471003L178.90149137846092,-17.060108352592913zM177.2268254222242,-24.62066260881088L174.39167300237193,-33.04447911461983L176.05794343693123,-25.48829047471003z" style="fill:rgb(247,161,155)"/><path d="M177.35115014199013,-9.195982300689073L45.81138107395341,18.825491043137394L42.91896179305345,24.24554998253458zM176.87371380796853,-19.076692160359066L176.22146041939743,-24.203016757173522L48.227685711024904,8.100281323096734zM175.2328022824699,-29.23017306829301L174.39167300237193,-33.04447911461983L174.0710338053355,-34.04855717240447z" style="fill:rgb(83,212,212)"/><path d="M-115.04716488401954,138.52409478269755L-125.75245091163892,125.74674685731799L-120.5441908219179,132.95375124266064z" style="fill:rgb(32,47,158)"/><path d="M177.14072477109053,-4.7392574217473245L42.91896179305345,24.24554998253458L38.99406712559597,29.48222926256115zM21.18823811293916,152.79851940207368L-145.51332407703347,85.45021716322248L-145.42862013981622,86.03474425551511zM177.19553106835284,-14.008718365724116L176.87371380796853,-19.076692160359066L47.59428584062212,13.389122149402656z" style="fill:rgb(83,212,212)"/><path d="M-115.04716488401954,138.52409478269755L-120.25115361380848,131.30673971260896L-125.75245091163892,125.74674685731799z" style="fill:rgb(32,47,158)"/><path d="M176.93100090852565,-0.8692432494817031L38.99406712559597,29.48222926256115L34.14949156790539,34.37130762938356zM176.22146041939743,-24.203016757173522L176.05794343693123,-25.48829047471003L175.2328022824699,-29.23017306829301zM21.18823811293916,152.79851940207368L-145.42862013981622,86.03474425551511L-143.73782905630827,93.24282157557707z" style="fill:rgb(83,212,212)"/><path d="M178.90149137846092,-17.060108352592913L177.05632471830398,-17.641442246253348L179.9132473229546,-9.212514288498996zM178.90149137846092,-17.060108352592913L176.05794343693123,-25.48829047471003L177.05632471830398,-17.641442246253348z" style="fill:rgb(247,155,161)"/><path d="M176.5126148468836,2.3426007864490663L34.14949156790539,34.37130762938356L28.530576508985522,38.757784683931206z" style="fill:rgb(83,212,212)"/><path d="M-108.93709358914903,143.70488716421804L-120.25115361380848,131.30673971260896L-115.04716488401954,138.52409478269755z" style="fill:rgb(37,44,163)"/><path d="M177.35115014199013,-9.195982300689073L177.19553106835284,-14.008718365724116L45.81138107395341,18.825491043137394zM176.20344788520865,4.71601767513866L28.530576508985522,38.757784683931206L22.310368554328704,42.50205629979247zM175.9497542399652,6.663500969348294L15.683296548616294,45.485605505815L8.857688348490319,47.6157454550712zM176.01369837029358,6.172516909145553L22.310368554328704,42.50205629979247L15.683296548616294,45.485605505815zM21.18823811293916,152.79851940207368L-143.73782905630827,93.24282157557707L-141.41611829134578,100.259142854739zM177.14072477109053,-4.7392574217473245L177.35115014199013,-9.195982300689073L42.91896179305345,24.24554998253458z" style="fill:rgb(83,212,212)"/><path d="M-108.93709358914903,143.70488716421804L-114.13085228541368,136.4751884137482L-120.25115361380848,131.30673971260896z" style="fill:rgb(37,44,163)"/><path d="M179.9132473229546,-9.212514288498996L177.3670692568085,-9.532860780957234L180.24252409015736,-1.1069087179076569zM179.9132473229546,-9.212514288498996L177.05632471830398,-17.641442246253348L177.3670692568085,-9.532860780957234z" style="fill:rgb(246,149,166)"/><path d="M177.19553106835284,-14.008718365724116L177.05632471830398,-17.641442246253348L176.87371380796853,-19.076692160359066z" style="fill:rgb(83,212,212)"/><path d="M-102.22817521858404,148.46372768006768L-114.13085228541368,136.4751884137482L-108.93709358914903,143.70488716421804z" style="fill:rgb(42,41,169)"/><path d="M176.93100090852565,-0.8692432494817031L177.14072477109053,-4.7392574217473245L38.99406712559597,29.48222926256115zM21.18823811293916,152.79851940207368L-141.41611829134578,100.259142854739L-138.45804189709327,107.05102138133422zM176.5126148468836,2.3426007864490663L176.93100090852565,-0.8692432494817031L34.14949156790539,34.37130762938356z" style="fill:rgb(83,212,212)"/><path d="M-102.22817521858404,148.46372768006768L-107.4056061643597,141.21960686206995L-114.13085228541368,136.4751884137482z" style="fill:rgb(42,41,169)"/><path d="M177.35115014199013,-9.195982300689073L177.3670692568085,-9.532860780957234L177.19553106835284,-14.008718365724116zM176.20344788520865,4.71601767513866L176.5126148468836,2.3426007864490663L28.530576508985522,38.757784683931206z" style="fill:rgb(83,212,212)"/><path d="M180.24252409015736,-1.1069087179076569L176.97333000827436,-1.194199636322985L179.87265022526603,7.224983634293109z" style="fill:rgb(245,143,172)"/><path d="M21.18823811293916,152.79851940207368L-138.45804189709327,107.05102138133422L-134.860823188955,113.58529453546521z" style="fill:rgb(83,212,212)"/><path d="M180.24252409015736,-1.1069087179076569L177.3670692568085,-9.532860780957234L176.97333000827436,-1.194199636322985z" style="fill:rgb(245,143,172)"/><path d="M176.01369837029358,6.172516909145553L176.20344788520865,4.71601767513866L22.310368554328704,42.50205629979247zM175.9497542399652,6.663500969348294L176.01369837029358,6.172516909145553L15.683296548616294,45.485605505815z" style="fill:rgb(83,212,212)"/><path d="M-94.93857568633672,152.7691247118682L-107.4056061643597,141.21960686206995L-102.22817521858404,148.46372768006768z" style="fill:rgb(48,39,174)"/><path d="M21.18823811293916,152.79851940207368L-134.860823188955,113.58529453546521L-130.62455185602434,119.82842044511693z" style="fill:rgb(83,212,212)"/><path d="M-94.93857568633672,152.7691247118682L-100.09344478345251,145.50842104560385L-107.4056061643597,141.21960686206995z" style="fill:rgb(48,39,174)"/><path d="M176.93100090852565,-0.8692432494817031L176.97333000827436,-1.194199636322985L177.14072477109053,-4.7392574217473245z" style="fill:rgb(83,212,212)"/><path d="M179.87265022526603,7.224983634293109L175.86159682344365,7.340254372309837L178.79018181910754,15.74883689040798zM179.87265022526603,7.224983634293109L176.97333000827436,-1.194199636322985L175.86159682344365,7.340254372309837z" style="fill:rgb(244,137,177)"/><path d="M-87.09053349502007,156.5909258676441L-100.09344478345251,145.50842104560385L-94.93857568633672,152.7691247118682z" style="fill:rgb(54,37,179)"/><path d="M21.18823811293916,152.79851940207368L175.9497542399652,6.663500969348294L-145.51332407703347,85.45021716322248z" style="fill:rgb(83,212,212)"/><path d="M17.432414152494445,115.96327283785939L10.750350734863163,111.53588264454348L14.597027935697293,118.34600114392352z" style="fill:rgb(197,72,218)"/><path d="M20.32403004640819,117.04411035079688L13.609702493750513,109.14101025887861L17.432414152494445,115.96327283785939z" style="fill:rgb(57,36,182)"/><path d="M21.18823811293916,152.79851940207368L-130.62455185602434,119.82842044511693L-125.75245091163892,125.74674685731799z" style="fill:rgb(83,212,212)"/><path d="M14.597027935697293,118.34600114392352L11.878859968034881,114.101571514014L15.727624888203499,120.91122687649475z" style="fill:rgb(241,184,128)"/><path d="M17.432414152494445,115.96327283785939L13.609702493750513,109.14101025887861L10.750350734863163,111.53588264454348z" style="fill:rgb(197,72,218)"/><path d="M10.750350734863163,111.53588264454348L13.576072034823042,106.29864874190767L10.707667524043629,106.95938399832603zM13.609702493750513,109.14101025887861L16.448534065204328,105.63697855680091L13.576072034823042,106.29864874190767z" style="fill:rgb(83,212,212)"/><path d="M20.32403004640819,117.04411035079688L16.51419475212424,110.21469929964223L13.609702493750513,109.14101025887861z" style="fill:rgb(57,36,182)"/><path d="M14.597027935697293,118.34600114392352L10.750350734863163,111.53588264454348L11.878859968034881,114.101571514014z" style="fill:rgb(241,184,128)"/><path d="M-87.09053349502007,156.5909258676441L-92.21652600565533,149.31140268509043L-100.09344478345251,145.50842104560385z" style="fill:rgb(54,37,179)"/><path d="M10.750350734863163,111.53588264454348L13.609702493750513,109.14101025887861L13.576072034823042,106.29864874190767z" style="fill:rgb(83,212,212)"/><path d="M178.79018181910754,15.74883689040798L174.0219106327223,16.033654254465954L176.98532916389107,24.42779941174275z" style="fill:rgb(242,131,182)"/><path d="M13.609702493750513,109.14101025887861L16.51419475212424,110.21469929964223L16.448534065204328,105.63697855680091z" style="fill:rgb(83,212,212)"/><path d="M178.79018181910754,15.74883689040798L175.86159682344365,7.340254372309837L174.0219106327223,16.033654254465954z" style="fill:rgb(242,131,182)"/><path d="M21.18823811293916,152.79851940207368L-125.75245091163892,125.74674685731799L-120.25115361380848,131.30673971260896z" style="fill:rgb(83,212,212)"/><path d="M-78.71048897032559,159.90060346309292L-92.21652600565533,149.31140268509043L-87.09053349502007,156.5909258676441z" style="fill:rgb(60,35,184)"/><path d="M6.599779503679286,126.94321353774262L10.054879226661965,107.10976018319748L6.496025319187511,108.58031651469075zM6.599779503679286,126.94321353774262L10.707667524043629,106.95938399832603L10.054879226661965,107.10976018319748zM2.171430625048563,133.11977029902428L3.1981992336877547,109.94301999373596L2.1297871184737485,110.6003660229491zM2.171430625048563,133.11977029902428L6.496025319187511,108.58031651469075L3.1981992336877547,109.94301999373596zM16.704575269811674,123.48757798781132L17.103381234385264,105.48613722380209L16.448534065204328,105.63697855680091zM16.704575269811674,123.48757798781132L20.696336651606345,105.31156217633595L17.103381234385264,105.48613722380209zM-13.419387357499211,137.3566166310766L-9.873849127282357,120.02688598932501L-13.26876894445243,124.12950157783091zM-15.553339994952749,140.30534990982574L-13.26876894445243,124.12950157783091L-13.360127323181787,124.23990136460279zM10.874106066606993,124.80492407231998L11.878859968034881,114.101571514014L10.750350734863163,111.53588264454348zM21.028074121227217,123.68743306854854L24.037087953870877,105.14924016545395L20.696336651606345,105.31156217633595zM21.18823811293916,152.79851940207368L-120.25115361380848,131.30673971260896L-114.13085228541368,136.4751884137482zM-15.553339994952749,140.30534990982574L-13.360127323181787,124.23990136460279L-15.389627135966322,127.86981297326331z" style="fill:rgb(83,212,212)"/><path d="M-78.71048897032559,159.90060346309292L-83.80126580008829,152.5999573114169L-92.21652600565533,149.31140268509043z" style="fill:rgb(60,35,184)"/><path d="M21.028074121227217,123.68743306854854L25.12689088773777,105.31246035918258L24.037087953870877,105.14924016545395z" style="fill:rgb(83,212,212)"/><path d="M176.98532916389107,24.42779941174275L171.44840126608634,24.84673617388211L174.45219473550014,33.222641071702704z" style="fill:rgb(240,125,187)"/><path d="M11.98321494368117,124.25008532283807L13.663569628838225,113.69372949008006L11.878859968034881,114.101571514014zM15.585694779148637,123.43586550032182L16.51419475212424,110.21469929964223L15.449848436959579,113.28551876706263zM13.777848594679455,123.35229932373946L15.449848436959579,113.28551876706263L13.663569628838225,113.69372949008006zM6.599779503679286,126.94321353774262L10.874106066606993,124.80492407231998L10.707667524043629,106.95938399832603z" style="fill:rgb(83,212,212)"/><path d="M176.98532916389107,24.42779941174275L174.0219106327223,16.033654254465954L171.44840126608634,24.84673617388211z" style="fill:rgb(240,125,187)"/><path d="M17.646194144754855,130.15295760311932L6.599779503679286,126.94321353774262L10.520946794394073,133.7166811320801z" style="fill:rgb(164,51,222)"/><path d="M-69.82912511093117,162.6716454479606L-83.80126580008829,152.5999573114169L-78.71048897032559,159.90060346309292z" style="fill:rgb(66,34,189)"/><path d="M-5.971496857736005,144.24534861934222L-13.419387357499211,137.3566166310766L-9.349578037683935,144.05358608553243z" style="fill:rgb(90,32,203)"/><path d="M2.171430625048563,133.11977029902428L6.599779503679286,126.94321353774262L6.496025319187511,108.58031651469075zM-10.203067854836803,158.7423006686087L2.1297871184737485,110.6003660229491L-3.169845692391112,113.8610078527507z" style="fill:rgb(83,212,212)"/><path d="M-9.349578037683935,144.05358608553243L-15.553339994952749,140.30534990982574L-11.461320632415253,146.99094445010317z" style="fill:rgb(224,99,205)"/><path d="M-13.419387357499211,137.3566166310766L-10.02276242989298,137.53876759696473L-9.873849127282357,120.02688598932501z" style="fill:rgb(83,212,212)"/><path d="M24.85586127324731,130.50904122838742L13.777848594679455,123.35229932373946L17.646194144754855,130.15295760311932z" style="fill:rgb(90,32,203)"/><path d="M-10.203067854836803,158.7423006686087L-3.169845692391112,113.8610078527507L-8.772055582977183,118.69540675429563zM-15.553339994952749,140.30534990982574L-13.419387357499211,137.3566166310766L-13.26876894445243,124.12950157783091zM-18.123477828395707,148.44433515613315L-15.389627135966322,127.86981297326331L-16.7239246323463,130.2563150317127zM10.874106066606993,124.80492407231998L11.98321494368117,124.25008532283807L11.878859968034881,114.101571514014z" style="fill:rgb(83,212,212)"/><path d="M10.520946794394073,133.7166811320801L2.171430625048563,133.11977029902428L6.13845155510616,139.86972053380657z" style="fill:rgb(224,99,205)"/><path d="M11.98321494368117,124.25008532283807L13.777848594679455,123.35229932373946L13.663569628838225,113.69372949008006zM15.585694779148637,123.43586550032182L16.704575269811674,123.48757798781132L16.51419475212424,110.21469929964223z" style="fill:rgb(83,212,212)"/><path d="M17.646194144754855,130.15295760311932L13.777848594679455,123.35229932373946L6.599779503679286,126.94321353774262z" style="fill:rgb(164,51,222)"/><path d="M16.704575269811674,123.48757798781132L21.028074121227217,123.68743306854854L20.696336651606345,105.31156217633595zM-10.203067854836803,158.7423006686087L-8.772055582977183,118.69540675429563L-9.873849127282357,120.02688598932501zM13.777848594679455,123.35229932373946L15.585694779148637,123.43586550032182L15.449848436959579,113.28551876706263z" style="fill:rgb(83,212,212)"/><path d="M-9.349578037683935,144.05358608553243L-13.419387357499211,137.3566166310766L-15.553339994952749,140.30534990982574z" style="fill:rgb(224,99,205)"/><path d="M21.18823811293916,152.79851940207368L-114.13085228541368,136.4751884137482L-107.4056061643597,141.21960686206995z" style="fill:rgb(83,212,212)"/><path d="M10.520946794394073,133.7166811320801L6.599779503679286,126.94321353774262L2.171430625048563,133.11977029902428z" style="fill:rgb(224,99,205)"/><path d="M-5.971496857736005,144.24534861934222L-10.02276242989298,137.53876759696473L-13.419387357499211,137.3566166310766z" style="fill:rgb(90,32,203)"/><path d="M-18.123477828395707,148.44433515613315L-16.7239246323463,130.2563150317127L-18.70030979963437,136.482082659272z" style="fill:rgb(83,212,212)"/><path d="M24.85586127324731,130.50904122838742L21.028074121227217,123.68743306854854L13.777848594679455,123.35229932373946z" style="fill:rgb(90,32,203)"/><path d="M-69.82912511093117,162.6716454479606L-74.87836365109825,155.34751873289116L-83.80126580008829,152.5999573114169z" style="fill:rgb(66,34,189)"/><path d="M29.435623420730035,134.68636623292392L21.028074121227217,123.68743306854854L24.85586127324731,130.50904122838742z" style="fill:rgb(30,49,155)"/><path d="M174.45219473550014,33.222641071702704L168.1393823537678,33.738013128037004L171.18915817020005,42.091946874368475z" style="fill:rgb(237,120,191)"/><path d="M21.028074121227217,123.68743306854854L25.621039976785447,127.8583028579255L25.12689088773777,105.31246035918258z" style="fill:rgb(83,212,212)"/><path d="M174.45219473550014,33.222641071702704L171.44840126608634,24.84673617388211L168.1393823537678,33.738013128037004z" style="fill:rgb(237,120,191)"/><path d="M-60.481351523200075,164.87990262464544L-74.87836365109825,155.34751873289116L-69.82912511093117,162.6716454479606z" style="fill:rgb(73,33,193)"/><path d="M6.13845155510616,139.86972053380657L2.183377528820785,139.58025804947397L6.171972127150746,146.31880145361836z" style="fill:rgb(247,158,158)"/><path d="M-18.123477828395707,148.44433515613315L-18.70030979963437,136.482082659272L-19.181655623910643,142.63909241890187z" style="fill:rgb(83,212,212)"/><path d="M6.13845155510616,139.86972053380657L2.171430625048563,133.11977029902428L2.183377528820785,139.58025804947397z" style="fill:rgb(247,158,158)"/><path d="M21.18823811293916,152.79851940207368L-107.4056061643597,141.21960686206995L-100.09344478345251,145.50842104560385zM-18.123477828395707,148.44433515613315L-15.72404868132338,153.2722707071048L-15.389627135966322,127.86981297326331z" style="fill:rgb(83,212,212)"/><path d="M29.435623420730035,134.68636623292392L25.621039976785447,127.8583028579255L21.028074121227217,123.68743306854854z" style="fill:rgb(30,49,155)"/><path d="M38.072308333715576,126.76755666858506L41.06109482555814,111.77154289536732L37.50001000007994,109.2120667630548zM26.28123611492442,157.98013439320908L30.549805022065772,106.12460500441331L25.12689088773777,105.31246035918258zM41.53354446170434,125.03669406611928L41.15709481389395,111.84054365113514L41.06109482555814,111.77154289536732zM-15.72404868132338,153.2722707071048L-13.475939336612122,142.3229336263039L-15.553339994952749,140.30534990982574z" style="fill:rgb(83,212,212)"/><path d="M48.41158718070563,123.26035258671291L46.9239261200814,121.73621562377357L50.594168725259514,128.63797354574226z" style="fill:rgb(242,181,133)"/><path d="M-60.481351523200075,164.87990262464544L-65.48282479751809,157.5298994425554L-74.87836365109825,155.34751873289116z" style="fill:rgb(73,33,193)"/><path d="M171.18915817020005,42.091946874368475L164.09777792339494,42.66400074316423L167.1990871741645,50.992343162495104z" style="fill:rgb(234,114,195)"/><path d="M48.41158718070563,123.26035258671291L44.745042121754814,116.35595400114002L46.9239261200814,121.73621562377357z" style="fill:rgb(242,181,133)"/><path d="M41.53354446170434,125.03669406611928L43.32035938783819,114.56300080898278L41.15709481389395,111.84054365113514z" style="fill:rgb(83,212,212)"/><path d="M171.18915817020005,42.091946874368475L168.1393823537678,33.738013128037004L164.09777792339494,42.66400074316423z" style="fill:rgb(234,114,195)"/><path d="M-50.706264317299265,166.50397235786858L-65.48282479751809,157.5298994425554L-60.481351523200075,164.87990262464544z" style="fill:rgb(79,32,198)"/><path d="M21.18823811293916,152.79851940207368L175.86159682344365,7.340254372309837L175.9497542399652,6.663500969348294zM21.18823811293916,152.79851940207368L-100.09344478345251,145.50842104560385L-92.21652600565533,149.31140268509043zM-13.628152778893435,155.69011700272947L-10.048867984785643,140.6087251242694L-13.475939336612122,142.3229336263039zM26.28123611492442,157.98013439320908L36.34690550088661,108.38328199606038L30.549805022065772,106.12460500441331z" style="fill:rgb(83,212,212)"/><path d="M45.24586439557536,131.91671265108633L38.072308333715576,126.76755666858506L41.8104535351893,133.63430227405934z" style="fill:rgb(164,51,222)"/><path d="M47.49314308165651,133.92110202989622L41.53354446170434,125.03669406611928L45.24586439557536,131.91671265108633z" style="fill:rgb(30,49,155)"/><path d="M-7.42913057511356,164.5804454069187L-15.550303121249888,153.6218679009528L-11.412211171859749,160.28287384643366z" style="fill:rgb(28,51,152)"/><path d="M38.072308333715576,126.76755666858506L41.53354446170434,125.03669406611928L41.06109482555814,111.77154289536732zM21.18823811293916,152.79851940207368L174.0219106327223,16.033654254465954L175.86159682344365,7.340254372309837zM26.28123611492442,157.98013439320908L37.50001000007994,109.2120667630548L36.34690550088661,108.38328199606038z" style="fill:rgb(83,212,212)"/><path d="M41.8104535351893,133.63430227405934L38.17265715348703,129.8457994059144L41.91982554562858,136.7073296827196z" style="fill:rgb(247,158,158)"/><path d="M-15.72404868132338,153.2722707071048L-13.628152778893435,155.69011700272947L-13.475939336612122,142.3229336263039zM-10.203067854836803,158.7423006686087L2.227053019656884,163.19848590232823L2.1297871184737485,110.6003660229491z" style="fill:rgb(83,212,212)"/><path d="M45.24586439557536,131.91671265108633L41.53354446170434,125.03669406611928L38.072308333715576,126.76755666858506z" style="fill:rgb(164,51,222)"/><path d="M50.594168725259514,128.63797354574226L47.5675323578173,127.74071109657811L51.2523575174645,134.6337360610903z" style="fill:rgb(247,163,153)"/><path d="M41.53354446170434,125.03669406611928L43.7879801516033,127.03795745756052L43.32035938783819,114.56300080898278z" style="fill:rgb(83,212,212)"/><path d="M41.8104535351893,133.63430227405934L38.072308333715576,126.76755666858506L38.17265715348703,129.8457994059144z" style="fill:rgb(247,158,158)"/><path d="M167.1990871741645,50.992343162495104L159.33133945018656,51.57951975724208L162.4896205985703,59.87880261302788z" style="fill:rgb(230,108,199)"/><path d="M-50.706264317299265,166.50397235786858L-55.653878507463034,159.12567783397114L-65.48282479751809,157.5298994425554z" style="fill:rgb(79,32,198)"/><path d="M21.18823811293916,152.79851940207368L-92.21652600565533,149.31140268509043L-83.80126580008829,152.5999573114169z" style="fill:rgb(83,212,212)"/><path d="M50.594168725259514,128.63797354574226L46.9239261200814,121.73621562377357L47.5675323578173,127.74071109657811z" style="fill:rgb(247,163,153)"/><path d="M47.49314308165651,133.92110202989622L43.7879801516033,127.03795745756052L41.53354446170434,125.03669406611928z" style="fill:rgb(30,49,155)"/><path d="M-40.546985773218,167.52547499214947L-55.653878507463034,159.12567783397114L-50.706264317299265,166.50397235786858z" style="fill:rgb(86,32,201)"/><path d="M167.1990871741645,50.992343162495104L164.09777792339494,42.66400074316423L159.33133945018656,51.57951975724208z" style="fill:rgb(230,108,199)"/><path d="M-13.628152778893435,155.69011700272947L-10.203067854836803,158.7423006686087L-10.048867984785643,140.6087251242694zM44.27573736275949,140.05010954010208L44.745042121754814,116.35595400114002L43.32035938783819,114.56300080898278zM-15.72404868132338,153.2722707071048L-15.550303121249888,153.6218679009528L-13.628152778893435,155.69011700272947z" style="fill:rgb(83,212,212)"/><path d="M-7.42913057511356,164.5804454069187L-11.559093531285669,157.91645175886663L-15.550303121249888,153.6218679009528z" style="fill:rgb(28,51,152)"/><path d="M21.18823811293916,152.79851940207368L171.44840126608634,24.84673617388211L174.0219106327223,16.033654254465954z" style="fill:rgb(83,212,212)"/><path d="M-2.2086740519947847,167.78012169553836L-11.559093531285669,157.91645175886663L-7.42913057511356,164.5804454069187z" style="fill:rgb(45,40,171)"/><path d="M44.27573736275949,140.05010954010208L46.9239261200814,121.73621562377357L44.745042121754814,116.35595400114002zM21.18823811293916,152.79851940207368L-83.80126580008829,152.5999573114169L-74.87836365109825,155.34751873289116z" style="fill:rgb(83,212,212)"/><path d="M51.2523575174645,134.6337360610903L46.620604196658014,134.09058207341897L50.33057738276908,140.96908095289626z" style="fill:rgb(245,143,172)"/><path d="M2.227053019656884,163.19848590232823L6.695374301941653,143.86203404640463L2.183377528820785,139.58025804947397z" style="fill:rgb(83,212,212)"/><path d="M162.4896205985703,59.87880261302788L153.85277247733393,60.4380019645661L157.07331626747802,68.70494058939352z" style="fill:rgb(226,102,203)"/><path d="M51.2523575174645,134.6337360610903L47.5675323578173,127.74071109657811L46.620604196658014,134.09058207341897z" style="fill:rgb(245,143,172)"/><path d="M-40.546985773218,167.52547499214947L-45.43487426530284,160.1164775136499L-55.653878507463034,159.12567783397114z" style="fill:rgb(86,32,201)"/><path d="M-13.628152778893435,155.69011700272947L-11.559093531285669,157.91645175886663L-10.203067854836803,158.7423006686087z" style="fill:rgb(83,212,212)"/><path d="M-30.05051460061603,167.92950874705846L-45.43487426530284,160.1164775136499L-40.546985773218,167.52547499214947z" style="fill:rgb(94,32,205)"/><path d="M162.4896205985703,59.87880261302788L159.33133945018656,51.57951975724208L153.85277247733393,60.4380019645661z" style="fill:rgb(226,102,203)"/><path d="M21.18823811293916,152.79851940207368L168.1393823537678,33.738013128037004L171.44840126608634,24.84673617388211z" style="fill:rgb(83,212,212)"/><path d="M-2.2086740519947847,167.78012169553836L-6.319152134154122,161.1076750691535L-11.559093531285669,157.91645175886663z" style="fill:rgb(45,40,171)"/><path d="M4.012678168526101,169.71003040881394L-6.319152134154122,161.1076750691535L-2.2086740519947847,167.78012169553836z" style="fill:rgb(65,34,188)"/><path d="M44.27573736275949,140.05010954010208L47.5675323578173,127.74071109657811L46.9239261200814,121.73621562377357zM12.29793976897546,154.8570466572453L14.025394210786693,144.27423016716185L12.188056425172967,144.17090957431208zM11.185021272322862,158.1412566686745L12.188056425172967,144.17090957431208L11.05413052612826,144.10714108653283zM6.806598666305463,163.54704348017793L11.05413052612826,144.10714108653283L6.695374301941653,143.86203404640463zM21.18823811293916,152.79851940207368L-74.87836365109825,155.34751873289116L-65.48282479751809,157.5298994425554zM14.145832424370226,154.45336407841785L15.852357706890398,143.36074400141885L14.025394210786693,144.27423016716185zM15.995407332779662,154.04930507972895L16.981529088384708,142.79615135541724L15.852357706890398,143.36074400141885z" style="fill:rgb(83,212,212)"/><path d="M50.33057738276908,140.96908095289626L44.106158019908136,140.48111122144684L47.85091298536721,147.33997477653324z" style="fill:rgb(238,122,189)"/><path d="M42.18862470105192,143.4296251149964L43.7879801516033,127.03795745756052L41.71096999361499,130.01833935120047z" style="fill:rgb(83,212,212)"/><path d="M19.951211718512525,160.79988736088754L12.29793976897546,154.8570466572453L16.278270265766533,161.59539312398314z" style="fill:rgb(127,37,217)"/><path d="M26.28123611492442,157.98013439320908L38.7655230213536,148.0322121223501L37.50001000007994,109.2120667630548zM38.7655230213536,148.0322121223501L41.71096999361499,130.01833935120047L38.17265715348703,129.8457994059144z" style="fill:rgb(83,212,212)"/><path d="M157.07331626747802,68.70494058939352L147.679954281836,69.1918770039322L150.96783776295266,77.42342873209037z" style="fill:rgb(222,96,207)"/><path d="M50.33057738276908,140.96908095289626L46.620604196658014,134.09058207341897L44.106158019908136,140.48111122144684z" style="fill:rgb(238,122,189)"/><path d="M16.278270265766533,161.59539312398314L11.185021272322862,158.1412566686745L15.182736498026179,164.86967073215183z" style="fill:rgb(241,128,184)"/><path d="M21.689456521373756,160.32326323076694L25.76282427889367,134.32728991027938L21.33375631364831,140.62002892031649zM21.18823811293916,152.79851940207368L164.09777792339494,42.66400074316423L168.1393823537678,33.738013128037004z" style="fill:rgb(83,212,212)"/><path d="M-30.05051460061603,167.92950874705846L-34.87308566686424,160.48742619621186L-45.43487426530284,160.1164775136499z" style="fill:rgb(94,32,205)"/><path d="M-19.267417389667195,167.70483262630418L-34.87308566686424,160.48742619621186L-30.05051460061603,167.92950874705846z" style="fill:rgb(101,32,208)"/><path d="M44.27573736275949,140.05010954010208L46.620604196658014,134.09058207341897L47.5675323578173,127.74071109657811zM17.252990657636442,161.7218330463779L21.33375631364831,140.62002892031649L16.981529088384708,142.79615135541724zM-10.203067854836803,158.7423006686087L-6.319152134154122,161.1076750691535L-0.06768715902451639,163.0238253996492zM12.29793976897546,154.8570466572453L14.145832424370226,154.45336407841785L14.025394210786693,144.27423016716185z" style="fill:rgb(83,212,212)"/><path d="M157.07331626747802,68.70494058939352L153.85277247733393,60.4380019645661L147.679954281836,69.1918770039322z" style="fill:rgb(222,96,207)"/><path d="M4.012678168526101,169.71003040881394L-0.06768715902451639,163.0238253996492L-6.319152134154122,161.1076750691535z" style="fill:rgb(65,34,188)"/><path d="M10.940657286733092,170.25897328392261L-0.06768715902451639,163.0238253996492L4.012678168526101,169.71003040881394z" style="fill:rgb(89,32,203)"/><path d="M11.185021272322862,158.1412566686745L12.29793976897546,154.8570466572453L12.188056425172967,144.17090957431208zM14.145832424370226,154.45336407841785L15.995407332779662,154.04930507972895L15.852357706890398,143.36074400141885z" style="fill:rgb(83,212,212)"/><path d="M19.951211718512525,160.79988736088754L15.995407332779662,154.04930507972895L12.29793976897546,154.8570466572453z" style="fill:rgb(127,37,217)"/><path d="M16.278270265766533,161.59539312398314L12.29793976897546,154.8570466572453L11.185021272322862,158.1412566686745z" style="fill:rgb(241,128,184)"/><path d="M42.18862470105192,143.4296251149964L44.27573736275949,140.05010954010208L43.7879801516033,127.03795745756052zM21.18823811293916,152.79851940207368L-65.48282479751809,157.5298994425554L-55.653878507463034,159.12567783397114zM2.227053019656884,163.19848590232823L6.806598666305463,163.54704348017793L6.695374301941653,143.86203404640463z" style="fill:rgb(83,212,212)"/><path d="M47.85091298536721,147.33997477653324L40.12858491675621,146.59728763141493L43.9162799580351,153.4324457624112z" style="fill:rgb(226,102,203)"/><path d="M15.995407332779662,154.04930507972895L17.18290273269539,156.83546532160335L16.981529088384708,142.79615135541724zM-10.203067854836803,158.7423006686087L-0.06768715902451639,163.0238253996492L2.227053019656884,163.19848590232823z" style="fill:rgb(83,212,212)"/><path d="M-18.88984612481299,65.92155059321622L2.1737257359981057,119.29759422486362L9.411411457850184,115.67597758323554z" style="fill:rgb(164,51,222)"/><path d="M47.85091298536721,147.33997477653324L44.106158019908136,140.48111122144684L40.12858491675621,146.59728763141493z" style="fill:rgb(226,102,203)"/><path d="M38.7655230213536,148.0322121223501L42.18862470105192,143.4296251149964L41.71096999361499,130.01833935120047zM21.18823811293916,152.79851940207368L159.33133945018656,51.57951975724208L164.09777792339494,42.66400074316423zM6.806598666305463,163.54704348017793L11.230576622486353,163.02570120815886L11.05413052612826,144.10714108653283z" style="fill:rgb(83,212,212)"/><path d="M18.237269827815197,169.38572904333577L6.8996570266326325,163.55412385120724L10.940657286733092,170.25897328392261z" style="fill:rgb(114,34,213)"/><path d="M150.96783776295266,77.42342873209037L140.83590606445472,77.79298331865472L144.19592069510395,85.986351137786z" style="fill:rgb(217,91,210)"/><path d="M10.940657286733092,170.25897328392261L6.8996570266326325,163.55412385120724L-0.06768715902451639,163.0238253996492z" style="fill:rgb(89,32,203)"/><path d="M16.707179214056307,115.98705362128342L-18.88984612481299,65.92155059321622L9.411411457850184,115.67597758323554z" style="fill:rgb(90,32,203)"/><path d="M-8.251532672846654,166.84421477783044L-24.01941580258184,160.22734042915766L-19.267417389667195,167.70483262630418z" style="fill:rgb(108,33,211)"/><path d="M-19.267417389667195,167.70483262630418L-24.01941580258184,160.22734042915766L-34.87308566686424,160.48742619621186z" style="fill:rgb(101,32,208)"/><path d="M43.9162799580351,153.4324457624112L34.87152696538057,152.131504938336L38.708262250181534,158.94016364377018z" style="fill:rgb(209,83,214)"/><path d="M21.689456521373756,160.32326323076694L26.28123611492442,157.98013439320908L25.76282427889367,134.32728991027938z" style="fill:rgb(83,212,212)"/><path d="M150.96783776295266,77.42342873209037L147.679954281836,69.1918770039322L140.83590606445472,77.79298331865472z" style="fill:rgb(217,91,210)"/><path d="M42.18862470105192,143.4296251149964L44.106158019908136,140.48111122144684L44.27573736275949,140.05010954010208zM21.18823811293916,152.79851940207368L-55.653878507463034,159.12567783397114L-45.43487426530284,160.1164775136499z" style="fill:rgb(83,212,212)"/><path d="M2.1737257359981057,119.29759422486362L-31.33715305971732,76.10441735854444L-2.3066152290270283,125.5003079051148z" style="fill:rgb(224,99,205)"/><path d="M25.539264940971254,167.1241317702231L14.242910313993475,162.65814235347764L18.237269827815197,169.38572904333577z" style="fill:rgb(140,41,220)"/><path d="M17.252990657636442,161.7218330463779L21.689456521373756,160.32326323076694L21.33375631364831,140.62002892031649z" style="fill:rgb(83,212,212)"/><path d="M38.708262250181534,158.94016364377018L28.589927026713703,156.80204674844512L32.479325787845305,163.58292936380914z" style="fill:rgb(189,66,220)"/><path d="M43.9162799580351,153.4324457624112L40.12858491675621,146.59728763141493L34.87152696538057,152.131504938336z" style="fill:rgb(209,83,214)"/><path d="M32.479325787845305,163.58292936380914L21.59636190730128,160.37077246167766L25.539264940971254,167.1241317702231z" style="fill:rgb(165,51,222)"/><path d="M21.18823811293916,152.79851940207368L153.85277247733393,60.4380019645661L159.33133945018656,51.57951975724208z" style="fill:rgb(83,212,212)"/><path d="M18.237269827815197,169.38572904333577L14.242910313993475,162.65814235347764L6.8996570266326325,163.55412385120724z" style="fill:rgb(114,34,213)"/><path d="M11.230576622486353,163.02570120815886L14.204036295803098,159.37260842653995L11.185021272322862,158.1412566686745z" style="fill:rgb(83,212,212)"/><path d="M144.19592069510395,85.986351137786L133.3488597437554,86.19302693292877L136.78549065341082,94.34570613370218z" style="fill:rgb(212,85,213)"/><path d="M38.7655230213536,148.0322121223501L40.12858491675621,146.59728763141493L42.18862470105192,143.4296251149964zM14.242910313993475,162.65814235347764L17.18290273269539,156.83546532160335L14.204036295803098,159.37260842653995z" style="fill:rgb(83,212,212)"/><path d="M2.9404473080717346,165.34464798973815L-12.928109313660052,159.32907696981326L-8.251532672846654,166.84421477783044z" style="fill:rgb(116,34,214)"/><path d="M38.708262250181534,158.94016364377018L34.87152696538057,152.131504938336L28.589927026713703,156.80204674844512z" style="fill:rgb(189,66,220)"/><path d="M6.806598666305463,163.54704348017793L6.8996570266326325,163.55412385120724L11.230576622486353,163.02570120815886zM21.18823811293916,152.79851940207368L-45.43487426530284,160.1164775136499L-34.87308566686424,160.48742619621186z" style="fill:rgb(83,212,212)"/><path d="M-8.251532672846654,166.84421477783044L-12.928109313660052,159.32907696981326L-24.01941580258184,160.22734042915766z" style="fill:rgb(108,33,211)"/><path d="M25.539264940971254,167.1241317702231L21.59636190730128,160.37077246167766L14.242910313993475,162.65814235347764z" style="fill:rgb(140,41,220)"/><path d="M21.314676413165643,120.14994812905024L-11.30497157310208,66.06586210966819L16.707179214056307,115.98705362128342z" style="fill:rgb(30,49,155)"/><path d="M32.479325787845305,163.58292936380914L28.589927026713703,156.80204674844512L21.59636190730128,160.37077246167766z" style="fill:rgb(165,51,222)"/><path d="M11.230576622486353,163.02570120815886L14.242910313993475,162.65814235347764L14.204036295803098,159.37260842653995z" style="fill:rgb(83,212,212)"/><path d="M144.19592069510395,85.986351137786L140.83590606445472,77.79298331865472L133.3488597437554,86.19302693292877z" style="fill:rgb(212,85,213)"/><path d="M14.242910313993475,162.65814235347764L17.252990657636442,161.7218330463779L17.18290273269539,156.83546532160335zM21.18823811293916,152.79851940207368L147.679954281836,69.1918770039322L153.85277247733393,60.4380019645661zM26.28123611492442,157.98013439320908L34.87152696538057,152.131504938336L38.7655230213536,148.0322121223501z" style="fill:rgb(83,212,212)"/><path d="M-2.3066152290270283,125.5003079051148L-31.52045033856525,82.63926190597543L-2.3194129461779105,131.97301053955928z" style="fill:rgb(247,158,158)"/><path d="M136.78549065341082,94.34570613370218L125.25218226682556,94.34400126769995L128.76948773787865,102.45382273450865z" style="fill:rgb(206,80,215)"/><path d="M26.28123611492442,157.98013439320908L28.589927026713703,156.80204674844512L34.87152696538057,152.131504938336zM17.252990657636442,161.7218330463779L21.59636190730128,160.37077246167766L21.689456521373756,160.32326323076694z" style="fill:rgb(83,212,212)"/><path d="M14.249410037096665,163.2074825494576L-1.6563224947944852,157.7897499201004L2.9404473080717346,165.34464798973815z" style="fill:rgb(123,36,216)"/><path d="M21.18823811293916,152.79851940207368L-34.87308566686424,160.48742619621186L-24.01941580258184,160.22734042915766z" style="fill:rgb(83,212,212)"/><path d="M2.9404473080717346,165.34464798973815L-1.6563224947944852,157.7897499201004L-12.928109313660052,159.32907696981326z" style="fill:rgb(116,34,214)"/><path d="M136.78549065341082,94.34570613370218L133.3488597437554,86.19302693292877L125.25218226682556,94.34400126769995z" style="fill:rgb(206,80,215)"/><path d="M21.18823811293916,152.79851940207368L140.83590606445472,77.79298331865472L147.679954281836,69.1918770039322z" style="fill:rgb(83,212,212)"/><path d="M128.76948773787865,102.45382273450865L116.58413695949548,102.19873237655352L120.18572669852806,110.2638503887397z" style="fill:rgb(200,75,217)"/><path d="M21.18823811293916,152.79851940207368L-24.01941580258184,160.22734042915766L-12.928109313660052,159.32907696981326z" style="fill:rgb(83,212,212)"/><path d="M25.614361949587927,160.4386270977483L9.736312939586771,155.61086473153867L14.249410037096665,163.2074825494576z" style="fill:rgb(131,38,218)"/><path d="M14.249410037096665,163.2074825494576L9.736312939586771,155.61086473153867L-1.6563224947944852,157.7897499201004z" style="fill:rgb(123,36,216)"/><path d="M21.18823811293916,152.79851940207368L133.3488597437554,86.19302693292877L140.83590606445472,77.79298331865472z" style="fill:rgb(83,212,212)"/><path d="M128.76948773787865,102.45382273450865L125.25218226682556,94.34400126769995L116.58413695949548,102.19873237655352z" style="fill:rgb(200,75,217)"/><path d="M-3.9244491074610237,141.59679892805985L-37.90810121554945,88.4442015183789L-8.314771365381596,137.58499448256669z" style="fill:rgb(31,48,157)"/><path d="M120.18572669852806,110.2638503887397L107.38771502284416,109.71136786319408L111.07669331379724,117.73030318738395z" style="fill:rgb(194,70,219)"/><path d="M36.97297972324483,157.04852495908185L21.18823811293916,152.79851940207368L25.614361949587927,160.4386270977483z" style="fill:rgb(138,40,220)"/><path d="M28.637755842343154,117.14116853311168L1.8100962538595167,72.96249801556674L29.472295786278707,123.11313728742216z" style="fill:rgb(246,166,149)"/><path d="M21.18823811293916,152.79851940207368L-12.928109313660052,159.32907696981326L-1.6563224947944852,157.7897499201004zM21.18823811293916,152.79851940207368L125.25218226682556,94.34400126769995L133.3488597437554,86.19302693292877z" style="fill:rgb(83,212,212)"/><path d="M25.614361949587927,160.4386270977483L21.18823811293916,152.79851940207368L9.736312939586771,155.61086473153867z" style="fill:rgb(131,38,218)"/><path d="M111.07669331379724,117.73030318738395L97.71028493695732,116.83784594556248L101.48918663766942,124.8094880700721z" style="fill:rgb(188,65,220)"/><path d="M120.18572669852806,110.2638503887397L116.58413695949548,102.19873237655352L107.38771502284416,109.71136786319408z" style="fill:rgb(194,70,219)"/><path d="M48.26220291156706,153.0522430288635L32.63652516240375,149.36338018387784L36.97297972324483,157.04852495908185z" style="fill:rgb(146,43,221)"/><path d="M21.18823811293916,152.79851940207368L-1.6563224947944852,157.7897499201004L9.736312939586771,155.61086473153867z" style="fill:rgb(83,212,212)"/><path d="M101.48918663766942,124.8094880700721L87.60318758406386,123.53638358401291L91.47397859100668,131.4599968575633z" style="fill:rgb(181,61,221)"/><path d="M59.418884637625446,148.46930804040394L44.017466967255444,145.32076976788844L48.26220291156706,153.0522430288635z" style="fill:rgb(153,46,222)"/><path d="M21.18823811293916,152.79851940207368L116.58413695949548,102.19873237655352L125.25218226682556,94.34400126769995z" style="fill:rgb(83,212,212)"/><path d="M36.97297972324483,157.04852495908185L32.63652516240375,149.36338018387784L21.18823811293916,152.79851940207368z" style="fill:rgb(138,40,220)"/><path d="M-18.88984612481299,65.92155059321622L-26.51378234479455,69.7424405503106L2.1737257359981057,119.29759422486362z" style="fill:rgb(164,51,222)"/><path d="M91.47397859100668,131.4599968575633L77.12133508980789,129.76797786537728L81.08531056486245,137.6432003035156z" style="fill:rgb(175,57,222)"/><path d="M111.07669331379724,117.73030318738395L107.38771502284416,109.71136786319408L97.71028493695732,116.83784594556248z" style="fill:rgb(188,65,220)"/><path d="M70.38039621195846,143.3236110279808L55.267249361574315,140.69050019129907L59.418884637625446,148.46930804040394z" style="fill:rgb(160,49,222)"/><path d="M81.08531056486245,137.6432003035156L66.32258051154624,135.49677502436867L70.38039621195846,143.3236110279808z" style="fill:rgb(168,53,222)"/><path d="M2.3423869007360105,143.52496062731632L-33.44443556100594,92.39856804501278L-3.9244491074610237,141.59679892805985z" style="fill:rgb(64,34,187)"/><path d="M2.1737257359981057,119.29759422486362L-26.51378234479455,69.7424405503106L-31.33715305971732,76.10441735854444z" style="fill:rgb(224,99,205)"/><path d="M29.472295786278707,123.11313728742216L-0.31292940078060283,79.50550046965488L27.58788648068785,129.54816722457488z" style="fill:rgb(242,132,181)"/><path d="M21.18823811293916,152.79851940207368L107.38771502284416,109.71136786319408L116.58413695949548,102.19873237655352z" style="fill:rgb(83,212,212)"/><path d="M48.26220291156706,153.0522430288635L44.017466967255444,145.32076976788844L32.63652516240375,149.36338018387784z" style="fill:rgb(146,43,221)"/><path d="M101.48918663766942,124.8094880700721L97.71028493695732,116.83784594556248L87.60318758406386,123.53638358401291z" style="fill:rgb(181,61,221)"/><path d="M16.707179214056307,115.98705362128342L-11.30497157310208,66.06586210966819L-18.88984612481299,65.92155059321622z" style="fill:rgb(90,32,203)"/><path d="M59.418884637625446,148.46930804040394L55.267249361574315,140.69050019129907L44.017466967255444,145.32076976788844z" style="fill:rgb(153,46,222)"/><path d="M21.18823811293916,152.79851940207368L97.71028493695732,116.83784594556248L107.38771502284416,109.71136786319408z" style="fill:rgb(83,212,212)"/><path d="M91.47397859100668,131.4599968575633L87.60318758406386,123.53638358401291L77.12133508980789,129.76797786537728z" style="fill:rgb(175,57,222)"/><path d="M21.18823811293916,152.79851940207368L32.63652516240375,149.36338018387784L44.017466967255444,145.32076976788844z" style="fill:rgb(83,212,212)"/><path d="M70.38039621195846,143.3236110279808L66.32258051154624,135.49677502436867L55.267249361574315,140.69050019129907z" style="fill:rgb(160,49,222)"/><path d="M81.08531056486245,137.6432003035156L77.12133508980789,129.76797786537728L66.32258051154624,135.49677502436867z" style="fill:rgb(168,53,222)"/><path d="M21.18823811293916,152.79851940207368L87.60318758406386,123.53638358401291L97.71028493695732,116.83784594556248zM21.18823811293916,152.79851940207368L44.017466967255444,145.32076976788844L55.267249361574315,140.69050019129907zM21.18823811293916,152.79851940207368L77.12133508980789,129.76797786537728L87.60318758406386,123.53638358401291zM21.18823811293916,152.79851940207368L55.267249361574315,140.69050019129907L66.32258051154624,135.49677502436867z" style="fill:rgb(83,212,212)"/><path d="M9.634316617697248,143.07410564250955L-26.969348470442405,94.20607532402656L2.3423869007360105,143.52496062731632z" style="fill:rgb(105,33,210)"/><path d="M21.18823811293916,152.79851940207368L66.32258051154624,135.49677502436867L77.12133508980789,129.76797786537728z" style="fill:rgb(83,212,212)"/><path d="M27.58788648068785,129.54816722457488L-5.024262637407189,85.6768527341057L23.210827667927393,135.5560788449456z" style="fill:rgb(223,97,206)"/><path d="M-2.3066152290270283,125.5003079051148L-31.33715305971732,76.10441735854444L-31.52045033856525,82.63926190597543z" style="fill:rgb(247,158,158)"/><path d="M23.210827667927393,135.5560788449456L-11.685249818098493,90.60389796619289L16.93354416775994,140.28872725913433z" style="fill:rgb(190,67,220)"/><path d="M-11.685249818098493,90.60389796619289L9.634316617697248,143.07410564250955L16.93354416775994,140.28872725913433z" style="fill:rgb(149,44,221)"/><path d="M21.314676413165643,120.14994812905024L-6.613032369996904,70.15959926782082L-11.30497157310208,66.06586210966819z" style="fill:rgb(30,49,155)"/><path d="M28.637755842343154,117.14116853311168L1.0885420882014953,66.95328780228917L1.8100962538595167,72.96249801556674z" style="fill:rgb(246,166,149)"/><path d="M-26.51378234479455,69.7424405503106L-22.56199830052256,60.927235038426495L-26.353193470410794,63.01418587820304zM-26.51378234479455,69.7424405503106L-18.788936767527428,60.007764030099985L-22.56199830052256,60.927235038426495zM-18.88984612481299,65.92155059321622L-15.008791615862739,59.086567108604484L-18.788936767527428,60.007764030099985zM-31.33715305971732,76.10441735854444L-26.353193470410794,63.01418587820304L-29.63825925673826,64.82251441189496zM-31.33715305971732,76.10441735854444L-29.63825925673826,64.82251441189496L-31.058890842427008,66.18390580443445zM-18.88984612481299,65.92155059321622L-11.23624217533534,59.33465461411735L-15.008791615862739,59.086567108604484z" style="fill:rgb(83,212,212)"/><path d="M-3.9244491074610237,141.59679892805985L-33.44443556100594,92.39856804501278L-37.90810121554945,88.4442015183789z" style="fill:rgb(31,48,157)"/><path d="M-26.51378234479455,69.7424405503106L-18.88984612481299,65.92155059321622L-18.788936767527428,60.007764030099985zM-31.33715305971732,76.10441735854444L-26.51378234479455,69.7424405503106L-26.353193470410794,63.01418587820304zM-11.30497157310208,66.06586210966819L-7.955845303346521,59.55036826918699L-11.23624217533534,59.33465461411735z" style="fill:rgb(83,212,212)"/><path d="M29.472295786278707,123.11313728742216L1.8100962538595167,72.96249801556674L-0.31292940078060283,79.50550046965488z" style="fill:rgb(242,132,181)"/><path d="M-18.88984612481299,65.92155059321622L-11.30497157310208,66.06586210966819L-11.23624217533534,59.33465461411735zM-37.90810121554945,88.4442015183789L-31.058890842427008,66.18390580443445L-35.32373937386668,70.27090401843657zM-11.30497157310208,66.06586210966819L-6.553952687963511,60.23165520338203L-7.955845303346521,59.55036826918699z" style="fill:rgb(83,212,212)"/><path d="M2.3423869007360105,143.52496062731632L-26.969348470442405,94.20607532402656L-33.44443556100594,92.39856804501278z" style="fill:rgb(64,34,187)"/><path d="M-37.90810121554945,88.4442015183789L-35.32373937386668,70.27090401843657L-38.87021077985899,76.57458771380504z" style="fill:rgb(83,212,212)"/><path d="M27.58788648068785,129.54816722457488L-0.31292940078060283,79.50550046965488L-5.024262637407189,85.6768527341057z" style="fill:rgb(223,97,206)"/><path d="M-11.30497157310208,66.06586210966819L-6.613032369996904,70.15959926782082L-6.553952687963511,60.23165520338203zM-37.90810121554945,88.4442015183789L-38.87021077985899,76.57458771380504L-39.78596366803136,82.91449953998492z" style="fill:rgb(83,212,212)"/><path d="M9.634316617697248,143.07410564250955L-19.36188746476403,93.58549835580716L-26.969348470442405,94.20607532402656z" style="fill:rgb(105,33,210)"/><path d="M23.210827667927393,135.5560788449456L-5.024262637407189,85.6768527341057L-11.685249818098493,90.60389796619289z" style="fill:rgb(190,67,220)"/><path d="M-11.685249818098493,90.60389796619289L-19.36188746476403,93.58549835580716L9.634316617697248,143.07410564250955z" style="fill:rgb(149,44,221)"/><path d="M-37.90810121554945,88.4442015183789L-31.807011766275853,92.85565405737192L-31.058890842427008,66.18390580443445zM-6.712805647895746,86.92584330777822L-2.333522687277656,62.28267011309028L-6.553952687963511,60.23165520338203zM-6.712805647895746,86.92584330777822L1.0885420882014953,66.95328780228917L-2.333522687277656,62.28267011309028zM-31.807011766275853,92.85565405737192L-26.92221109227319,86.85456300730232L-31.52045033856525,82.63926190597543zM-37.90810121554945,88.4442015183789L-33.44443556100594,92.39856804501278L-31.807011766275853,92.85565405737192zM-6.712805647895746,86.92584330777822L1.8100962538595167,72.96249801556674L1.0885420882014953,66.95328780228917zM-31.807011766275853,92.85565405737192L-27.096826377251954,94.1704880508394L-26.92221109227319,86.85456300730232zM-27.096826377251954,94.1704880508394L-19.250872812775125,87.07949702780675L-26.92221109227319,86.85456300730232zM-11.554531844210443,90.50720785672883L-6.651952907210686,76.69993246236751L-11.47978696185136,83.18686836697576zM-6.712805647895746,86.92584330777822L-0.31292940078060283,79.50550046965488L1.8100962538595167,72.96249801556674zM-19.36188746476403,93.58549835580716L-11.47978696185136,83.18686836697576L-19.250872812775125,87.07949702780675zM-27.096826377251954,94.1704880508394L-19.36188746476403,93.58549835580716L-19.250872812775125,87.07949702780675zM-11.554531844210443,90.50720785672883L-6.712805647895746,86.92584330777822L-6.651952907210686,76.69993246236751zM-27.096826377251954,94.1704880508394L-26.969348470442405,94.20607532402656L-19.36188746476403,93.58549835580716zM-19.36188746476403,93.58549835580716L-11.554531844210443,90.50720785672883L-11.47978696185136,83.18686836697576zM-6.712805647895746,86.92584330777822L-5.024262637407189,85.6768527341057L-0.31292940078060283,79.50550046965488zM-19.36188746476403,93.58549835580716L-11.685249818098493,90.60389796619289L-11.554531844210443,90.50720785672883z" style="fill:rgb(83,212,212)"/></svg>
