<?xml version="1.0" encoding="UTF-8"?>
<!-- Generated by jsxcad -->
<!DOCTYPE svg PUBLIC "-//W3C//DTD SVG 1.1 Tiny//EN" "http://www.w3.org/Graphics/SVG/1.1/DTD/svg11-tiny.dtd">
<svg viewBox="-250 -250 500 500" width="500" height="500" xmlns="http://www.w3.org/2000/svg"><path d="M56.211020398266925,-40.63208259669231L-22.563191459608316,-69.46731418316963L-27.092953289562036,-67.29768752265474zM56.211020398266925,-40.63208259669231L-13.889449520269654,-73.21745562900557L-22.563191459608316,-69.46731418316963zM56.211020398266925,-40.63208259669231L-5.10005052445002,-76.61884792277925L-13.889449520269654,-73.21745562900557zM56.211020398266925,-40.63208259669231L3.781776917534334,-79.66113106553918L-5.10005052445002,-76.61884792277925zM56.211020398266925,-40.63208259669231L12.732435340466287,-82.33433727278243L3.781776917534334,-79.66113106553918zM56.211020398266925,-40.63208259669231L21.72793767191827,-84.62897044673963L12.732435340466287,-82.33433727278243zM56.211020398266925,-40.63208259669231L30.743857035105297,-86.53596233602725L21.72793767191827,-84.62897044673963zM56.211020398266925,-40.63208259669231L39.75528425994382,-88.04670592290466L30.743857035105297,-86.53596233602725zM56.211020398266925,-40.63208259669231L48.736812105856764,-89.1531245906651L39.75528425994382,-88.04670592290466z" style="fill:rgb(83,212,212)"/><path d="M56.211020398266925,-40.63208259669231L56.76330300880609,-81.78898952548707L53.46425684731399,-89.52097762818046z" style="fill:rgb(247,158,158)"/><path d="M56.211020398266925,-40.63208259669231L53.46425684731399,-89.52097762818046L48.736812105856764,-89.1531245906651zM56.211020398266925,-40.63208259669231L-27.092953289562036,-67.29768752265474L-28.45614788804035,-18.299529172070123z" style="fill:rgb(83,212,212)"/><path d="M56.211020398266925,-40.63208259669231L59.658604953053384,-32.85696204938774L56.76330300880609,-81.78898952548707z" style="fill:rgb(247,158,158)"/><path d="M57.09145743278266,-36.26565878728263L-28.45614788804035,-18.299529172070123L-29.18236308770285,-13.60600099791378zM4.310323140673883,1.940839824358517L-131.1437941639493,35.91790616977072L-131.4678800370934,36.786760393959185zM-1.7042183184566095,5.088069985970779L-131.4678800370934,36.786760393959185L-132.10805781588795,38.50302068325971zM59.20413126117594,-32.35741487973903L-29.18236308770285,-13.60600099791378L-31.090821232234315,-8.739769401995378zM-7.2796479092512385,8.870053592338259L-132.10805781588795,38.50302068325971L-133.04841776605355,41.02402719273551zM57.09145743278266,-36.26565878728263L56.211020398266925,-40.63208259669231L-28.45614788804035,-18.299529172070123zM-12.26769525284995,13.18863043315835L-133.04841776605355,41.02402719273551L-133.73415082446556,42.86241146727504zM-12.26769525284995,13.18863043315835L-133.73415082446556,42.86241146727504L-134.15837183853407,44.259181927781974z" style="fill:rgb(83,212,212)"/><path d="M-108.4086418301148,38.57164433212834L-115.22907455733352,34.09586946792554L-111.00698038200977,40.62678258218792z" style="fill:rgb(197,72,218)"/><path d="M62.48519779672536,-29.064816531417353L-31.090821232234315,-8.739769401995378L-34.118186562116286,-3.8947173499722476z" style="fill:rgb(83,212,212)"/><path d="M-106.09456418957475,39.37741395493101L-112.61080747841018,32.03193815722183L-108.4086418301148,38.57164433212834z" style="fill:rgb(57,36,182)"/><path d="M59.658604953053384,-32.85696204938774L57.09145743278266,-36.26565878728263L60.54871141125521,-28.48591448147614z" style="fill:rgb(246,167,149)"/><path d="M-111.00698038200977,40.62678258218792L-114.53382512414468,36.178571362234216L-110.30617234865528,42.71154043839777z" style="fill:rgb(241,184,128)"/><path d="M59.658604953053384,-32.85696204938774L56.211020398266925,-40.63208259669231L57.09145743278266,-36.26565878728263z" style="fill:rgb(246,167,149)"/><path d="M-108.4086418301148,38.57164433212834L-112.61080747841018,32.03193815722183L-115.22907455733352,34.09586946792554z" style="fill:rgb(197,72,218)"/><path d="M59.20413126117594,-32.35741487973903L57.09145743278266,-36.26565878728263L-29.18236308770285,-13.60600099791378zM-16.533070917035502,17.93189121109619L-134.15837183853407,44.259181927781974L-135.32645615462056,48.10515711289483zM-115.22907455733352,34.09586946792554L-112.36457662718529,29.685424577848583L-114.82420941050042,30.31803523068732zM-112.61080747841018,32.03193815722183L-109.90186399553998,29.05202179382784L-112.36457662718529,29.685424577848583z" style="fill:rgb(83,212,212)"/><path d="M-106.09456418957475,39.37741395493101L-110.28986048899012,32.8301330765075L-112.61080747841018,32.03193815722183z" style="fill:rgb(57,36,182)"/><path d="M-111.00698038200977,40.62678258218792L-115.22907455733352,34.09586946792554L-114.53382512414468,36.178571362234216z" style="fill:rgb(241,184,128)"/><path d="M-115.22907455733352,34.09586946792554L-112.61080747841018,32.03193815722183L-112.36457662718529,29.685424577848583zM66.82283837841389,-26.525585728781397L-34.118186562116286,-3.8947173499722476L-38.152217727080604,0.7321141417630698zM-112.61080747841018,32.03193815722183L-110.28986048899012,32.8301330765075L-109.90186399553998,29.05202179382784zM-19.95653481598247,22.976125305621835L-135.32645615462056,48.10515711289483L-136.07046203526974,50.55484658311677zM-120.17072873521411,46.922341703420535L-115.3840262139553,30.462017979552108L-118.49881851162809,31.78468418494367zM-120.17072873521411,46.922341703420535L-114.82420941050042,30.31803523068732L-115.3840262139553,30.462017979552108zM-19.95653481598247,22.976125305621835L-136.07046203526974,50.55484658311677L-136.51570446638655,52.461061128480104zM-124.45348481673444,52.1413065358086L-121.38534630128231,33.01042472128264L-122.34118141181249,33.58584108622082zM-124.45348481673444,52.1413065358086L-118.49881851162809,31.78468418494367L-121.38534630128231,33.01042472128264zM72.05927235137642,-24.85069776801994L-38.152217727080604,0.7321141417630698L-43.03533502964785,4.949829442218551zM62.48519779672536,-29.064816531417353L59.20413126117594,-32.35741487973903L-31.090821232234315,-8.739769401995378zM-1.7042183184566095,5.088069985970779L4.310323140673883,1.940839824358517L-131.4678800370934,36.786760393959185zM4.310323140673883,1.940839824358517L10.60561670621842,-0.48889859186844736L-131.1437941639493,35.91790616977072zM-111.41282512381096,43.764994232668194L-109.3404927623869,28.90763702303999L-109.90186399553998,29.05202179382784zM169.90591239697736,-41.40346433487893L-129.09452584400992,31.170617189755173L-130.87944337913063,35.20921594075037zM-111.41282512381096,43.764994232668194L-106.3241718303075,28.65501387844125L-109.3404927623869,28.90763702303999zM-137.86530691422254,56.11445676443088L-133.271383722394,41.73369189935664L-136.4966153641164,45.221426138064665zM-7.2796479092512385,8.870053592338259L-1.7042183184566095,5.088069985970779L-132.10805781588795,38.50302068325971zM169.90591239697736,-41.40346433487893L-130.87944337913063,35.20921594075037L-131.1437941639493,35.91790616977072zM77.99534804888692,-24.1181425327576L-43.03533502964785,4.949829442218551L-48.571046978413094,8.583039181446948zM-139.92360149193047,58.60543199002443L-136.4966153641164,45.221426138064665L-136.58338778893784,45.31526546258292zM-116.40084277838899,45.029741172601994L-114.53382512414468,36.178571362234216L-115.22907455733352,34.09586946792554zM-107.82902431475635,43.79595618984115L-103.52047982759042,28.420200173624938L-106.3241718303075,28.65501387844125zM-12.26769525284995,13.18863043315835L-7.2796479092512385,8.870053592338259L-133.04841776605355,41.02402719273551zM-139.92360149193047,58.60543199002443L-136.58338778893784,45.31526546258292L-138.6212121070012,48.36937164233304zM-22.437834362502162,28.187989184456736L-136.51570446638655,52.461061128480104L-137.62112898033564,57.19366125171143zM-107.82902431475635,43.79595618984115L-102.6271278932896,28.522141515314516L-103.52047982759042,28.420200173624938zM84.39765297370732,-24.367703114233613L-48.571046978413094,8.583039181446948L-54.53278672182586,11.480757137684993zM-115.4226369578524,44.53865653664811L-113.00491274559347,35.78764810719717L-114.53382512414468,36.178571362234216zM-112.34057100090382,43.75698597762832L-110.28986048899012,32.8301330765075L-111.47482005890225,35.39642086718668zM91.00825132625457,-25.59756640186576L-54.53278672182586,11.480757137684993L-60.67492905844631,13.524059480721725zM-113.83981569967783,43.74403553920464L-111.47482005890225,35.39642086718668L-113.00491274559347,35.78764810719717zM-120.17072873521411,46.922341703420535L-116.40084277838899,45.029741172601994L-114.82420941050042,30.31803523068732z" style="fill:rgb(83,212,212)"/><path d="M-109.5840413353486,50.277949759693776L-120.17072873521411,46.922341703420535L-115.87382102448852,53.434942343158546z" style="fill:rgb(164,51,222)"/><path d="M66.82283837841389,-26.525585728781397L62.48519779672536,-29.064816531417353L-34.118186562116286,-3.8947173499722476z" style="fill:rgb(83,212,212)"/><path d="M-130.6455213994718,62.61910480928688L-137.86530691422254,56.11445676443088L-133.4521736861828,62.5673998361471z" style="fill:rgb(90,32,203)"/><path d="M-124.45348481673444,52.1413065358086L-120.17072873521411,46.922341703420535L-118.49881851162809,31.78468418494367zM-137.18768436958982,73.55423405727944L-122.34118141181249,33.58584108622082L-127.08208907096439,36.43986746585368z" style="fill:rgb(83,212,212)"/><path d="M-133.4521736861828,62.5673998361471L-139.92360149193047,58.60543199002443L-135.49085520319517,65.05098307683382z" style="fill:rgb(224,99,205)"/><path d="M-137.86530691422254,56.11445676443088L-135.04654055176243,56.1571128300988L-133.271383722394,41.73369189935664zM-16.533070917035502,17.93189121109619L-12.26769525284995,13.18863043315835L-134.15837183853407,44.259181927781974z" style="fill:rgb(83,212,212)"/><path d="M-103.5997631891457,50.349428736852865L-113.83981569967783,43.74403553920464L-109.5840413353486,50.277949759693776z" style="fill:rgb(90,32,203)"/><path d="M-137.18768436958982,73.55423405727944L-127.08208907096439,36.43986746585368L-132.2243393734236,40.601420419284274zM-139.92360149193047,58.60543199002443L-137.86530691422254,56.11445676443088L-136.4966153641164,45.221426138064665zM-142.82961316937588,65.36999981397696L-138.6212121070012,48.36937164233304L-139.96040518601166,50.376453748450956zM-116.40084277838899,45.029741172601994L-115.4226369578524,44.53865653664811L-114.53382512414468,36.178571362234216z" style="fill:rgb(83,212,212)"/><path d="M-115.87382102448852,53.434942343158546L-124.45348481673444,52.1413065358086L-120.11592052910414,58.638641158933396z" style="fill:rgb(224,99,205)"/><path d="M-115.4226369578524,44.53865653664811L-113.83981569967783,43.74403553920464L-113.00491274559347,35.78764810719717zM-23.898727205585402,33.42703384171936L-137.62112898033564,57.19366125171143L-137.87057760363209,58.26156325150415zM-112.34057100090382,43.75698597762832L-111.41282512381096,43.764994232668194L-110.28986048899012,32.8301330765075zM-137.18768436958982,73.55423405727944L-132.2243393734236,40.601420419284274L-133.271383722394,41.73369189935664zM-111.41282512381096,43.764994232668194L-107.82902431475635,43.79595618984115L-106.3241718303075,28.65501387844125z" style="fill:rgb(83,212,212)"/><path d="M-109.5840413353486,50.277949759693776L-113.83981569967783,43.74403553920464L-120.17072873521411,46.922341703420535z" style="fill:rgb(164,51,222)"/><path d="M-113.83981569967783,43.74403553920464L-112.34057100090382,43.75698597762832L-111.47482005890225,35.39642086718668z" style="fill:rgb(83,212,212)"/><path d="M-133.4521736861828,62.5673998361471L-137.86530691422254,56.11445676443088L-139.92360149193047,58.60543199002443z" style="fill:rgb(224,99,205)"/><path d="M8.189238233671343,9.524328257912902L-1.7042183184566095,5.088069985970779L2.2187635125134326,12.64897109874374z" style="fill:rgb(167,52,222)"/><path d="M14.441559430327475,7.118162961226591L4.310323140673883,1.940839824358517L8.189238233671343,9.524328257912902z" style="fill:rgb(147,43,221)"/><path d="M-115.87382102448852,53.434942343158546L-120.17072873521411,46.922341703420535L-124.45348481673444,52.1413065358086z" style="fill:rgb(224,99,205)"/><path d="M-130.6455213994718,62.61910480928688L-135.04654055176243,56.1571128300988L-137.86530691422254,56.11445676443088z" style="fill:rgb(90,32,203)"/><path d="M-142.82961316937588,65.36999981397696L-139.96040518601166,50.376453748450956L-142.19470482781287,55.56179796760132z" style="fill:rgb(83,212,212)"/><path d="M2.2187635125134326,12.64897109874374L-7.2796479092512385,8.870053592338259L-3.3125585803671402,16.40989255854136z" style="fill:rgb(185,63,221)"/><path d="M-23.898727205585402,33.42703384171936L-137.87057760363209,58.26156325150415L-138.5003016095906,62.147441855898805zM-19.95653481598247,22.976125305621835L-16.533070917035502,17.93189121109619L-135.32645615462056,48.10515711289483zM72.05927235137642,-24.85069776801994L66.82283837841389,-26.525585728781397L-38.152217727080604,0.7321141417630698z" style="fill:rgb(83,212,212)"/><path d="M20.811336290757392,5.495631945261853L10.60561670621842,-0.48889859186844736L14.441559430327475,7.118162961226591z" style="fill:rgb(127,37,217)"/><path d="M-103.5997631891457,50.349428736852865L-107.82902431475635,43.79595618984115L-113.83981569967783,43.74403553920464z" style="fill:rgb(90,32,203)"/><path d="M-100.18083026241013,53.64826730877846L-107.82902431475635,43.79595618984115L-103.5997631891457,50.349428736852865z" style="fill:rgb(30,49,155)"/><path d="M-3.3125585803671402,16.40989255854136L-12.26769525284995,13.18863043315835L-8.257534108313912,20.70941542385866z" style="fill:rgb(202,76,217)"/><path d="M-107.82902431475635,43.79595618984115L-104.40811104469759,47.084568083651924L-102.6271278932896,28.522141515314516z" style="fill:rgb(83,212,212)"/><path d="M8.189238233671343,9.524328257912902L4.310323140673883,1.940839824358517L-1.7042183184566095,5.088069985970779z" style="fill:rgb(167,52,222)"/><path d="M2.2187635125134326,12.64897109874374L-1.7042183184566095,5.088069985970779L-7.2796479092512385,8.870053592338259z" style="fill:rgb(185,63,221)"/><path d="M14.441559430327475,7.118162961226591L10.60561670621842,-0.48889859186844736L4.310323140673883,1.940839824358517z" style="fill:rgb(147,43,221)"/><path d="M27.13012678964221,4.703441423644544L17.01624847600776,-2.135400450984829L20.811336290757392,5.495631945261853z" style="fill:rgb(107,33,211)"/><path d="M-120.11592052910414,58.638641158933396L-125.05772550609534,57.44924123526225L-120.6952534602337,63.94288793622592z" style="fill:rgb(247,158,158)"/><path d="M-142.82961316937588,65.36999981397696L-142.19470482781287,55.56179796760132L-143.17160418300978,60.63781831391497z" style="fill:rgb(83,212,212)"/><path d="M-120.11592052910414,58.638641158933396L-124.45348481673444,52.1413065358086L-125.05772550609534,57.44924123526225z" style="fill:rgb(247,158,158)"/><path d="M-3.3125585803671402,16.40989255854136L-7.2796479092512385,8.870053592338259L-12.26769525284995,13.18863043315835z" style="fill:rgb(202,76,217)"/><path d="M-8.257534108313912,20.70941542385866L-16.533070917035502,17.93189121109619L-12.48196138672529,25.436052669052437z" style="fill:rgb(217,91,210)"/><path d="M20.811336290757392,5.495631945261853L17.01624847600776,-2.135400450984829L10.60561670621842,-0.48889859186844736z" style="fill:rgb(127,37,217)"/><path d="M77.99534804888692,-24.1181425327576L72.05927235137642,-24.85069776801994L-43.03533502964785,4.949829442218551zM-24.285868242906545,38.548681548185115L-138.5003016095906,62.147441855898805L-139.11758429014412,65.95649082558926zM-22.437834362502162,28.187989184456736L-19.95653481598247,22.976125305621835L-136.51570446638655,52.461061128480104zM-142.82961316937588,65.36999981397696L-141.2782374017358,69.25212113105286L-138.6212121070012,48.36937164233304z" style="fill:rgb(83,212,212)"/><path d="M33.22875439479563,4.768516527393114L23.37279488777303,-2.951325136557114L27.13012678964221,4.703441423644544z" style="fill:rgb(87,32,202)"/><path d="M-100.18083026241013,53.64826730877846L-104.40811104469759,47.084568083651924L-107.82902431475635,43.79595618984115z" style="fill:rgb(30,49,155)"/><path d="M-93.94245701484141,45.802125854142695L-89.98163983900477,33.368882464082624L-92.69479993938657,31.36667025793842z" style="fill:rgb(83,212,212)"/><path d="M-8.257534108313912,20.70941542385866L-12.26769525284995,13.18863043315835L-16.533070917035502,17.93189121109619z" style="fill:rgb(217,91,210)"/><path d="M-24.285868242906545,38.548681548185115L-139.11758429014412,65.95649082558926L-139.2286985346733,67.21102052328449z" style="fill:rgb(83,212,212)"/><path d="M27.13012678964221,4.703441423644544L23.37279488777303,-2.951325136557114L17.01624847600776,-2.135400450984829z" style="fill:rgb(107,33,211)"/><path d="M-106.77498506753561,71.75348554387949L-98.18368802362292,29.029166395025516L-102.6271278932896,28.522141515314516zM-90.89475483884546,44.27253684689275L-89.90854001962711,33.422835845715305L-89.98163983900477,33.368882464082624zM84.39765297370732,-24.367703114233613L77.99534804888692,-24.1181425327576L-48.571046978413094,8.583039181446948zM-141.2782374017358,69.25212113105286L-138.37827807617026,60.19704979067228L-139.92360149193047,58.60543199002443z" style="fill:rgb(83,212,212)"/><path d="M-12.48196138672529,25.436052669052437L-19.95653481598247,22.976125305621835L-15.867684499005527,30.466465245275796z" style="fill:rgb(229,106,201)"/><path d="M-83.25894864128338,43.65488566083603L-86.0886861627867,41.393071491043614L-81.96757443389868,48.018026586022906zM-83.25894864128338,43.65488566083603L-87.36869880587449,37.03300325403048L-86.0886861627867,41.393071491043614z" style="fill:rgb(242,181,133)"/><path d="M-90.89475483884546,44.27253684689275L-88.37681930738755,35.60004229965077L-89.90854001962711,33.422835845715305zM91.00825132625457,-25.59756640186576L84.39765297370732,-24.367703114233613L-54.53278672182586,11.480757137684993z" style="fill:rgb(83,212,212)"/><path d="M-12.48196138672529,25.436052669052437L-16.533070917035502,17.93189121109619L-19.95653481598247,22.976125305621835z" style="fill:rgb(229,106,201)"/><path d="M-23.898727205585402,33.42703384171936L-22.437834362502162,28.187989184456736L-137.62112898033564,57.19366125171143zM-139.75647344742654,71.16571421477305L-135.35710293689237,58.680479741617106L-138.37827807617026,60.19704979067228zM-106.77498506753561,71.75348554387949L-93.57385210401515,30.71796669261531L-98.18368802362292,29.029166395025516z" style="fill:rgb(83,212,212)"/><path d="M38.94074238172089,5.696830843795258L29.505141701744815,-2.90908098352198L33.22875439479563,4.768516527393114z" style="fill:rgb(69,33,191)"/><path d="M-86.7402036035985,50.88098365898909L-93.94245701484141,45.802125854142695L-89.76786561263945,52.4001905515774z" style="fill:rgb(164,51,222)"/><path d="M33.22875439479563,4.768516527393114L29.505141701744815,-2.90908098352198L23.37279488777303,-2.951325136557114z" style="fill:rgb(87,32,202)"/><path d="M-23.57353857045728,43.40761650495334L-139.2286985346733,67.21102052328449L-139.67172016556862,72.21270614884614z" style="fill:rgb(83,212,212)"/><path d="M-85.06481461841737,52.460828776676564L-90.89475483884546,44.27253684689275L-86.7402036035985,50.88098365898909z" style="fill:rgb(30,49,155)"/><path d="M-133.7536111971507,79.36694723766975L-141.16596581613288,69.53304901300847L-136.68091891713496,75.97032761228499z" style="fill:rgb(28,51,152)"/><path d="M-93.94245701484141,45.802125854142695L-90.89475483884546,44.27253684689275L-89.98163983900477,33.368882464082624zM-106.77498506753561,71.75348554387949L-92.69479993938657,31.36667025793842L-93.57385210401515,30.71796669261531z" style="fill:rgb(83,212,212)"/><path d="M-15.867684499005527,30.466465245275796L-22.437834362502162,28.187989184456736L-18.315515983543296,35.66762089045623z" style="fill:rgb(238,122,189)"/><path d="M-89.76786561263945,52.4001905515774L-94.16076913224461,48.32800773438544L-89.97509091104584,54.92452776367772z" style="fill:rgb(247,158,158)"/><path d="M-141.2782374017358,69.25212113105286L-139.75647344742654,71.16571421477305L-138.37827807617026,60.19704979067228zM-137.18768436958982,73.55423405727944L-127.2601066528313,76.79599638190383L-122.34118141181249,33.58584108622082z" style="fill:rgb(83,212,212)"/><path d="M-86.7402036035985,50.88098365898909L-90.89475483884546,44.27253684689275L-93.94245701484141,45.802125854142695z" style="fill:rgb(164,51,222)"/><path d="M-15.867684499005527,30.466465245275796L-19.95653481598247,22.976125305621835L-22.437834362502162,28.187989184456736z" style="fill:rgb(238,122,189)"/><path d="M-81.96757443389868,48.018026586022906L-86.14718015851521,46.30771291520607L-82.00642800424156,52.930922837664546z" style="fill:rgb(247,163,153)"/><path d="M-90.89475483884546,44.27253684689275L-89.21792431296635,45.847433496296304L-88.37681930738755,35.60004229965077z" style="fill:rgb(83,212,212)"/><path d="M-89.76786561263945,52.4001905515774L-93.94245701484141,45.802125854142695L-94.16076913224461,48.32800773438544z" style="fill:rgb(247,158,158)"/><path d="M-81.96757443389868,48.018026586022906L-86.0886861627867,41.393071491043614L-86.14718015851521,46.30771291520607z" style="fill:rgb(247,163,153)"/><path d="M38.94074238172089,5.696830843795258L35.245933224197614,-2.002013603868082L29.505141701744815,-2.90908098352198z" style="fill:rgb(69,33,191)"/><path d="M44.1061099619869,7.472432837064833L35.245933224197614,-2.002013603868082L38.94074238172089,5.696830843795258z" style="fill:rgb(52,37,178)"/><path d="M-85.06481461841737,52.460828776676564L-89.21792431296635,45.847433496296304L-90.89475483884546,44.27253684689275z" style="fill:rgb(30,49,155)"/><path d="M-24.285868242906545,38.548681548185115L-23.898727205585402,33.42703384171936L-138.5003016095906,62.147441855898805zM-139.75647344742654,71.16571421477305L-137.18768436958982,73.55423405727944L-135.35710293689237,58.680479741617106zM-21.765954860343218,47.86165890238174L-139.67172016556862,72.21270614884614L-139.79570091629498,73.61247247119907zM-90.09298684986891,56.508535488901636L-87.36869880587449,37.03300325403048L-88.37681930738755,35.60004229965077zM-141.2782374017358,69.25212113105286L-141.16596581613288,69.53304901300847L-139.75647344742654,71.16571421477305z" style="fill:rgb(83,212,212)"/><path d="M-133.7536111971507,79.36694723766975L-138.24020012020662,72.92205966834659L-141.16596581613288,69.53304901300847z" style="fill:rgb(28,51,152)"/><path d="M-129.69603020631087,81.82025224083209L-138.24020012020662,72.92205966834659L-133.7536111971507,79.36694723766975z" style="fill:rgb(45,40,171)"/><path d="M-18.315515983543296,35.66762089045623L-23.898727205585402,33.42703384171936L-19.74822143185685,40.89932713894497z" style="fill:rgb(244,138,176)"/><path d="M-21.765954860343218,47.86165890238174L-139.79570091629498,73.61247247119907L-139.83810971613346,77.01268446756545zM-90.09298684986891,56.508535488901636L-86.0886861627867,41.393071491043614L-87.36869880587449,37.03300325403048z" style="fill:rgb(83,212,212)"/><path d="M-18.315515983543296,35.66762089045623L-22.437834362502162,28.187989184456736L-23.898727205585402,33.42703384171936z" style="fill:rgb(244,138,176)"/><path d="M-82.00642800424156,52.930922837664546L-87.5600444489312,51.549103489835865L-83.39204003662066,58.165754112670946z" style="fill:rgb(245,143,172)"/><path d="M44.1061099619869,7.472432837064833L40.43438418020096,-0.24539629910526936L35.245933224197614,-2.002013603868082z" style="fill:rgb(52,37,178)"/><path d="M-127.2601066528313,76.79599638190383L-121.70573969682665,60.82050035433039L-125.05772550609534,57.44924123526225z" style="fill:rgb(83,212,212)"/><path d="M48.57535107623981,10.056780411081814L40.43438418020096,-0.24539629910526936L44.1061099619869,7.472432837064833z" style="fill:rgb(37,44,163)"/><path d="M-82.00642800424156,52.930922837664546L-86.14718015851521,46.30771291520607L-87.5600444489312,51.549103489835865z" style="fill:rgb(245,143,172)"/><path d="M-139.75647344742654,71.16571421477305L-138.24020012020662,72.92205966834659L-137.18768436958982,73.55423405727944zM169.90591239697736,-41.40346433487893L167.40725064374536,-45.30214311341876L-129.09452584400992,31.170617189755173zM-23.57353857045728,43.40761650495334L-24.285868242906545,38.548681548185115L-139.2286985346733,67.21102052328449z" style="fill:rgb(83,212,212)"/><path d="M-129.69603020631087,81.82025224083209L-134.17482833404128,75.36384874743594L-138.24020012020662,72.92205966834659z" style="fill:rgb(45,40,171)"/><path d="M-124.69052942726037,83.19919173934989L-134.17482833404128,75.36384874743594L-129.69603020631087,81.82025224083209z" style="fill:rgb(65,34,188)"/><path d="M-18.898940982772036,51.77601152275485L-139.83810971613346,77.01268446756545L-139.89036255482392,81.2012972479512zM-90.09298684986891,56.508535488901636L-86.14718015851521,46.30771291520607L-86.0886861627867,41.393071491043614z" style="fill:rgb(83,212,212)"/><path d="M-19.74822143185685,40.89932713894497L-24.285868242906545,38.548681548185115L-20.113389605567413,46.01720587326746z" style="fill:rgb(247,154,162)"/><path d="M-118.09230877703767,69.64936134488784L-115.6428141797738,60.92609299697113L-117.16207177724421,60.899630223753825z" style="fill:rgb(83,212,212)"/><path d="M-113.83981569967783,43.74403553920464L-156.1634045381635,-7.629974003957899L-120.17072873521411,46.922341703420535z" style="fill:rgb(164,51,222)"/><path d="M-119.33104105209813,72.37167741758834L-117.16207177724421,60.899630223753825L-118.09984763817883,60.88330404344925zM-123.48521833057177,76.93209853772194L-118.09984763817883,60.88330404344925L-121.70573969682665,60.82050035433039zM-116.51730183669055,69.25970685916246L-114.03490603471533,60.11919131674935L-115.6428141797738,60.92609299697113zM-114.94104043149498,68.86973531839486L-113.04111821105933,59.62048805544364L-114.03490603471533,60.11919131674935z" style="fill:rgb(83,212,212)"/><path d="M-19.74822143185685,40.89932713894497L-23.898727205585402,33.42703384171936L-24.285868242906545,38.548681548185115z" style="fill:rgb(247,154,162)"/><path d="M-83.39204003662066,58.165754112670946L-90.276075445448,56.86702270068886L-86.07436795315198,63.47259124053821z" style="fill:rgb(238,122,189)"/><path d="M-92.15679449966694,59.34276250363574L-89.21792431296635,45.847433496296304L-91.23703684647886,48.35978266375471zM-18.898940982772036,51.77601152275485L-139.89036255482392,81.2012972479512L-139.87008826344672,81.5039498040825z" style="fill:rgb(83,212,212)"/><path d="M-110.57671510054078,75.39052467111259L-118.09230877703767,69.64936134488784L-113.71034824218926,76.15973181958323z" style="fill:rgb(127,37,217)"/><path d="M-156.1634045381635,-7.629974003957899L-124.45348481673444,52.1413065358086L-120.17072873521411,46.922341703420535z" style="fill:rgb(224,99,205)"/><path d="M-106.77498506753561,71.75348554387949L-95.44780427862896,63.21906735194939L-92.69479993938657,31.36667025793842z" style="fill:rgb(83,212,212)"/><path d="M-107.82902431475635,43.79595618984115L-149.48819817317369,-10.98710988713315L-113.83981569967783,43.74403553920464z" style="fill:rgb(90,32,203)"/><path d="M170.30508628069938,-40.659813499297826L17.01624847600776,-2.135400450984829L23.37279488777303,-2.951325136557114zM-95.44780427862896,63.21906735194939L-91.23703684647886,48.35978266375471L-94.16076913224461,48.32800773438544z" style="fill:rgb(83,212,212)"/><path d="M48.57535107623981,10.056780411081814L44.92026386516076,2.322875047905266L40.43438418020096,-0.24539629910526936z" style="fill:rgb(37,44,163)"/><path d="M-83.39204003662066,58.165754112670946L-87.5600444489312,51.549103489835865L-90.276075445448,56.86702270068886z" style="fill:rgb(238,122,189)"/><path d="M-110.81271808506155,73.81614450136807L-104.9176318564298,52.39508646251846L-109.21077245139357,57.698298795302286z" style="fill:rgb(83,212,212)"/><path d="M-113.71034824218926,76.15973181958323L-119.33104105209813,72.37167741758834L-114.93212442221959,78.8766202287796z" style="fill:rgb(241,128,184)"/><path d="M52.213806816625905,13.388489405002067L44.92026386516076,2.322875047905266L48.57535107623981,10.056780411081814z" style="fill:rgb(25,53,148)"/><path d="M-90.09298684986891,56.508535488901636L-87.5600444489312,51.549103489835865L-86.14718015851521,46.30771291520607zM-114.63102457581171,75.10219366161073L-109.21077245139357,57.698298795302286L-113.04111821105933,59.62048805544364zM-137.18768436958982,73.55423405727944L-134.17482833404128,75.36384874743594L-129.15241154803945,76.72776767205984zM-118.09230877703767,69.64936134488784L-116.51730183669055,69.25970685916246L-115.6428141797738,60.92609299697113z" style="fill:rgb(83,212,212)"/><path d="M-124.69052942726037,83.19919173934989L-129.15241154803945,76.72776767205984L-134.17482833404128,75.36384874743594z" style="fill:rgb(65,34,188)"/><path d="M-118.97195111556165,83.42424088246281L-129.15241154803945,76.72776767205984L-124.69052942726037,83.19919173934989z" style="fill:rgb(89,32,203)"/><path d="M-119.33104105209813,72.37167741758834L-118.09230877703767,69.64936134488784L-117.16207177724421,60.899630223753825zM-116.51730183669055,69.25970685916246L-114.94104043149498,68.86973531839486L-114.03490603471533,60.11919131674935zM-21.765954860343218,47.86165890238174L-23.57353857045728,43.40761650495334L-139.67172016556862,72.21270614884614z" style="fill:rgb(83,212,212)"/><path d="M-110.57671510054078,75.39052467111259L-114.94104043149498,68.86973531839486L-118.09230877703767,69.64936134488784z" style="fill:rgb(127,37,217)"/><path d="M-113.71034824218926,76.15973181958323L-118.09230877703767,69.64936134488784L-119.33104105209813,72.37167741758834z" style="fill:rgb(241,128,184)"/><path d="M-92.15679449966694,59.34276250363574L-90.09298684986891,56.508535488901636L-89.21792431296635,45.847433496296304zM171.09398617227424,-39.190098070714896L23.37279488777303,-2.951325136557114L29.505141701744815,-2.90908098352198zM-15.040754517134848,55.027787751408574L-139.87008826344672,81.5039498040825L-139.60187956787374,85.50817063998228zM-127.2601066528313,76.79599638190383L-123.48521833057177,76.93209853772194L-121.70573969682665,60.82050035433039z" style="fill:rgb(83,212,212)"/><path d="M-86.07436795315198,63.47259124053821L-94.17648301213212,62.0014250784303L-89.93611278081804,68.59195897225284z" style="fill:rgb(226,102,203)"/><path d="M-114.94104043149498,68.86973531839486L-114.2211076420756,71.11062781034198L-113.04111821105933,59.62048805544364zM-137.18768436958982,73.55423405727944L-129.15241154803945,76.72776767205984L-127.2601066528313,76.79599638190383z" style="fill:rgb(83,212,212)"/><path d="M-20.113389605567413,46.01720587326746L-23.57353857045728,43.40761650495334L-19.38611157002843,50.87608112766939z" style="fill:rgb(246,169,146)"/><path d="M-104.40811104469759,47.084568083651924L-143.26190111920587,-11.109313457114618L-107.82902431475635,43.79595618984115z" style="fill:rgb(30,49,155)"/><path d="M-86.07436795315198,63.47259124053821L-90.276075445448,56.86702270068886L-94.17648301213212,62.0014250784303z" style="fill:rgb(226,102,203)"/><path d="M-95.44780427862896,63.21906735194939L-92.15679449966694,59.34276250363574L-91.23703684647886,48.35978266375471z" style="fill:rgb(83,212,212)"/><path d="M-20.113389605567413,46.01720587326746L-24.285868242906545,38.548681548185115L-23.57353857045728,43.40761650495334z" style="fill:rgb(246,169,146)"/><path d="M-123.48521833057177,76.93209853772194L-119.75873801859862,76.36255294824225L-118.09984763817883,60.88330404344925z" style="fill:rgb(83,212,212)"/><path d="M-112.81676635207786,82.47405897925549L-123.40852558174434,76.93486092256103L-118.97195111556165,83.42424088246281z" style="fill:rgb(114,34,213)"/><path d="M-118.97195111556165,83.42424088246281L-123.40852558174434,76.93486092256103L-129.15241154803945,76.72776767205984z" style="fill:rgb(89,32,203)"/><path d="M-89.93611278081804,68.59195897225284L-99.0787072413474,66.69666325235956L-94.79662068293933,73.26902433329256z" style="fill:rgb(209,83,214)"/><path d="M52.213806816625905,13.388489405002067L48.56832410591675,5.642003651941838L44.92026386516076,2.322875047905266z" style="fill:rgb(25,53,148)"/><path d="M-124.45348481673444,52.1413065358086L-161.61719192599816,3.029608791686682L-125.05772550609534,57.44924123526225z" style="fill:rgb(247,158,158)"/><path d="M-110.81271808506155,73.81614450136807L-106.77498506753561,71.75348554387949L-104.9176318564298,52.39508646251846zM172.25380777356906,-37.02936856288784L29.505141701744815,-2.90908098352198L35.245933224197614,-2.002013603868082zM-92.15679449966694,59.34276250363574L-90.276075445448,56.86702270068886L-90.09298684986891,56.508535488901636z" style="fill:rgb(83,212,212)"/><path d="M54.906063254658484,17.38365366706603L48.56832410591675,5.642003651941838L52.213806816625905,13.388489405002067z" style="fill:rgb(16,65,132)"/><path d="M-106.5283997114342,80.38866295166429L-117.22088007894126,75.96460308011712L-112.81676635207786,82.47405897925549z" style="fill:rgb(140,41,220)"/><path d="M-100.4368660866163,40.63912022069015L-133.16955434682427,-10.778005222217086L-98.0719577557614,44.41050971927748z" style="fill:rgb(234,195,114)"/><path d="M-114.63102457581171,75.10219366161073L-110.81271808506155,73.81614450136807L-109.21077245139357,57.698298795302286zM-10.291885192875515,57.510683634496914L-139.60187956787374,85.50817063998228L-139.38851078964558,88.69369722266472z" style="fill:rgb(83,212,212)"/><path d="M-94.79662068293933,73.26902433329256L-104.74486999709686,70.71641236550724L-100.42010148459477,77.26846039241636z" style="fill:rgb(189,66,220)"/><path d="M-89.93611278081804,68.59195897225284L-94.17648301213212,62.0014250784303L-99.0787072413474,66.69666325235956z" style="fill:rgb(209,83,214)"/><path d="M-18.898940982772036,51.77601152275485L-21.765954860343218,47.86165890238174L-139.83810971613346,77.01268446756545z" style="fill:rgb(83,212,212)"/><path d="M-100.42010148459477,77.26846039241636L-110.89457597163103,73.857966339956L-106.5283997114342,80.38866295166429z" style="fill:rgb(165,51,222)"/><path d="M-112.81676635207786,82.47405897925549L-117.22088007894126,75.96460308011712L-123.40852558174434,76.93486092256103z" style="fill:rgb(114,34,213)"/><path d="M-10.291885192875515,57.510683634496914L-139.38851078964558,88.69369722266472L-139.34627580092553,88.97403859002404zM-119.75873801859862,76.36255294824225L-116.93927580641547,73.2809975362785L-119.33104105209813,72.37167741758834zM-95.44780427862896,63.21906735194939L-94.17648301213212,62.0014250784303L-92.15679449966694,59.34276250363574z" style="fill:rgb(83,212,212)"/><path d="M-19.38611157002843,50.87608112766939L-21.765954860343218,47.86165890238174L-17.571256223219542,55.33384666700637z" style="fill:rgb(242,183,130)"/><path d="M-117.22088007894126,75.96460308011712L-114.2211076420756,71.11062781034198L-116.93927580641547,73.2809975362785z" style="fill:rgb(83,212,212)"/><path d="M-94.79662068293933,73.26902433329256L-99.0787072413474,66.69666325235956L-104.74486999709686,70.71641236550724z" style="fill:rgb(189,66,220)"/><path d="M-123.48521833057177,76.93209853772194L-123.40852558174434,76.93486092256103L-119.75873801859862,76.36255294824225z" style="fill:rgb(83,212,212)"/><path d="M-106.5283997114342,80.38866295166429L-110.89457597163103,73.857966339956L-117.22088007894126,75.96460308011712z" style="fill:rgb(140,41,220)"/><path d="M-60.06588131044319,89.64610819632834L-137.36545189878345,99.87073470742514L-132.336393922963,106.90299840201355z" style="fill:rgb(127,37,217)"/><path d="M-19.38611157002843,50.87608112766939L-23.57353857045728,43.40761650495334L-21.765954860343218,47.86165890238174z" style="fill:rgb(242,183,130)"/><path d="M-100.42010148459477,77.26846039241636L-104.74486999709686,70.71641236550724L-110.89457597163103,73.857966339956z" style="fill:rgb(165,51,222)"/><path d="M-119.75873801859862,76.36255294824225L-117.22088007894126,75.96460308011712L-116.93927580641547,73.2809975362785zM173.6320425213814,-34.19815447107481L35.245933224197614,-2.002013603868082L40.43438418020096,-0.24539629910526936z" style="fill:rgb(83,212,212)"/><path d="M-133.16955434682427,-10.778005222217086L-97.94689121722465,49.28519732267569L-98.0719577557614,44.41050971927748z" style="fill:rgb(246,166,149)"/><path d="M-117.22088007894126,75.96460308011712L-114.63102457581171,75.10219366161073L-114.2211076420756,71.11062781034198zM-4.783453747549271,59.13949339178242L-139.34627580092553,88.97403859002404L-138.92872439002335,91.74536143473307z" style="fill:rgb(83,212,212)"/><path d="M54.906063254658484,17.38365366706603L51.26269463758304,9.62858376611887L48.56832410591675,5.642003651941838z" style="fill:rgb(16,65,132)"/><path d="M-106.77498506753561,71.75348554387949L-99.0787072413474,66.69666325235956L-95.44780427862896,63.21906735194939z" style="fill:rgb(83,212,212)"/><path d="M-127.26649752134297,65.3737750973355L-167.46987893753212,7.954586109085551L-130.5341845841709,62.21828381872866z" style="fill:rgb(31,48,157)"/><path d="M-106.77498506753561,71.75348554387949L-104.74486999709686,70.71641236550724L-99.0787072413474,66.69666325235956zM-114.63102457581171,75.10219366161073L-110.89457597163103,73.857966339956L-110.81271808506155,73.81614450136807zM-15.040754517134848,55.027787751408574L-18.898940982772036,51.77601152275485L-139.87008826344672,81.5039498040825zM170.30508628069938,-40.659813499297826L169.90591239697736,-41.40346433487893L17.01624847600776,-2.135400450984829zM1.325807351651677,59.85413041163977L-138.92872439002335,91.74536143473307L-138.62008782429726,93.7938763633595zM171.09398617227424,-39.190098070714896L170.30508628069938,-40.659813499297826L23.37279488777303,-2.951325136557114zM175.0973892729497,-30.74183640022201L40.43438418020096,-0.24539629910526936L44.92026386516076,2.322875047905266z" style="fill:rgb(83,212,212)"/><path d="M-133.21432545907481,-5.910154890954506L-100.1095862448272,54.609608248102795L-97.94689121722465,49.28519732267569z" style="fill:rgb(242,132,181)"/><path d="M-122.26111007032394,66.76784318827418L-164.20227458095167,11.018346718157236L-127.26649752134297,65.3737750973355z" style="fill:rgb(64,34,187)"/><path d="M7.854000967959178,59.62300461790528L-138.62008782429726,93.7938763633595L-138.43063691437987,95.05124333480646zM172.25380777356906,-37.02936856288784L171.09398617227424,-39.190098070714896L29.505141701744815,-2.90908098352198zM-10.291885192875515,57.510683634496914L-15.040754517134848,55.027787751408574L-139.60187956787374,85.50817063998228zM14.60196050268271,58.445308431232185L-138.43063691437987,95.05124333480646L-138.36677217760527,95.47514496343415z" style="fill:rgb(83,212,212)"/><path d="M-113.83981569967783,43.74403553920464L-149.48819817317369,-10.98710988713315L-156.1634045381635,-7.629974003957899z" style="fill:rgb(164,51,222)"/><path d="M-60.06588131044319,89.64610819632834L-64.6346228303728,82.35074795386711L-137.36545189878345,99.87073470742514z" style="fill:rgb(127,37,217)"/><path d="M176.60431380395696,-26.746119430769838L44.92026386516076,2.322875047905266L48.56832410591675,5.642003651941838z" style="fill:rgb(83,212,212)"/><path d="M-100.1095862448272,54.609608248102795L-140.16350762361458,4.637498034065357L-104.28654249230968,59.65016972588502z" style="fill:rgb(223,97,206)"/><path d="M-156.1634045381635,-7.629974003957899L-160.7933449071451,-2.292948865335387L-124.45348481673444,52.1413065358086z" style="fill:rgb(224,99,205)"/><path d="M173.6320425213814,-34.19815447107481L172.25380777356906,-37.02936856288784L35.245933224197614,-2.002013603868082z" style="fill:rgb(83,212,212)"/><path d="M-107.82902431475635,43.79595618984115L-143.26190111920587,-11.109313457114618L-149.48819817317369,-10.98710988713315z" style="fill:rgb(90,32,203)"/><path d="M-152.754111670117,11.518440757615906L-122.26111007032394,66.76784318827418L-116.19490381027408,66.18734407407572z" style="fill:rgb(105,33,210)"/><path d="M-4.783453747549271,59.13949339178242L-10.291885192875515,57.510683634496914L-139.34627580092553,88.97403859002404z" style="fill:rgb(83,212,212)"/><path d="M-140.16350762361458,4.637498034065357L-109.9096887478693,63.69979461141971L-104.28654249230968,59.65016972588502z" style="fill:rgb(190,67,220)"/><path d="M-109.9096887478693,63.69979461141971L-152.754111670117,11.518440757615906L-116.19490381027408,66.18734407407572z" style="fill:rgb(149,44,221)"/><path d="M-124.45348481673444,52.1413065358086L-160.7933449071451,-2.292948865335387L-161.61719192599816,3.029608791686682z" style="fill:rgb(247,158,158)"/><path d="M169.90591239697736,-41.40346433487893L169.5804350220378,-42.009833592488405L167.40725064374536,-45.30214311341876z" style="fill:rgb(83,212,212)"/><path d="M-53.62165770717816,88.62942127642506L-64.6346228303728,82.35074795386711L-60.06588131044319,89.64610819632834z" style="fill:rgb(115,34,214)"/><path d="M-100.4368660866163,40.63912022069015L-135.48621727170425,-14.476438415130758L-133.16955434682427,-10.778005222217086z" style="fill:rgb(234,195,114)"/><path d="M175.0973892729497,-30.74183640022201L173.6320425213814,-34.19815447107481L40.43438418020096,-0.24539629910526936zM178.02716912107545,-22.293487969800193L48.56832410591675,5.642003651941838L51.26269463758304,9.62858376611887zM1.325807351651677,59.85413041163977L-4.783453747549271,59.13949339178242L-138.92872439002335,91.74536143473307z" style="fill:rgb(83,212,212)"/><path d="M-104.40811104469759,47.084568083651924L-139.83518300834538,-7.922999945757448L-143.26190111920587,-11.109313457114618z" style="fill:rgb(30,49,155)"/><path d="M-47.44408035308057,88.70661130393576L-58.15053359626107,81.31087922707712L-53.62165770717816,88.62942127642506z" style="fill:rgb(92,32,204)"/><path d="M-53.62165770717816,88.62942127642506L-58.15053359626107,81.31087922707712L-64.6346228303728,82.35074795386711z" style="fill:rgb(115,34,214)"/><path d="M7.854000967959178,59.62300461790528L1.325807351651677,59.85413041163977L-138.62008782429726,93.7938763633595zM176.60431380395696,-26.746119430769838L175.0973892729497,-30.74183640022201L44.92026386516076,2.322875047905266z" style="fill:rgb(83,212,212)"/><path d="M-41.75921177480209,89.88448955032142L-51.93885478619482,81.36687218147941L-47.44408035308057,88.70661130393576z" style="fill:rgb(71,33,192)"/><path d="M179.1955028110241,-17.470602660342575L51.26269463758304,9.62858376611887L52.91135778076005,14.17758647536811z" style="fill:rgb(83,212,212)"/><path d="M-47.44408035308057,88.70661130393576L-51.93885478619482,81.36687218147941L-58.15053359626107,81.31087922707712z" style="fill:rgb(92,32,204)"/><path d="M14.60196050268271,58.445308431232185L7.854000967959178,59.62300461790528L-138.43063691437987,95.05124333480646z" style="fill:rgb(83,212,212)"/><path d="M144.10121306788625,-25.73821569917863L138.7838686921348,-30.998235666560113L141.5245310284822,-23.599184673756763z" style="fill:rgb(197,72,218)"/><path d="M147.0880579545584,-25.014149402391965L141.38050320382362,-33.146560289031555L144.10121306788625,-25.73821569917863z" style="fill:rgb(57,36,182)"/><path d="M-133.16955434682427,-10.778005222217086L-133.21432545907481,-5.910154890954506L-97.94689121722465,49.28519732267569z" style="fill:rgb(246,166,149)"/><path d="M-127.26649752134297,65.3737750973355L-164.20227458095167,11.018346718157236L-167.46987893753212,7.954586109085551z" style="fill:rgb(31,48,157)"/><path d="M173.6320425213814,-34.19815447107481L173.10032222397825,-35.45230674615806L172.25380777356906,-37.02936856288784z" style="fill:rgb(83,212,212)"/><path d="M144.10121306788625,-25.73821569917863L141.38050320382362,-33.146560289031555L138.7838686921348,-30.998235666560113z" style="fill:rgb(197,72,218)"/><path d="M-156.1634045381635,-7.629974003957899L-151.99192992933246,-14.946840063107578L-155.33330306358638,-13.123570706135451zM-156.1634045381635,-7.629974003957899L-148.7874288975207,-15.816140462552388L-151.99192992933246,-14.946840063107578zM138.7838686921348,-30.998235666560113L141.05145180764882,-35.49252661693849L138.26485235113634,-34.7758210132764zM141.38050320382362,-33.146560289031555L143.84176488569688,-36.21018735369595L141.05145180764882,-35.49252661693849z" style="fill:rgb(83,212,212)"/><path d="M-41.75921177480209,89.88448955032142L-46.226846803816706,82.5263985043631L-51.93885478619482,81.36687218147941z" style="fill:rgb(71,33,192)"/><path d="M-36.780777524875795,92.1320686235961L-46.226846803816706,82.5263985043631L-41.75921177480209,89.88448955032142z" style="fill:rgb(51,38,177)"/><path d="M178.02716912107545,-22.293487969800193L176.60431380395696,-26.746119430769838L48.56832410591675,5.642003651941838zM-149.48819817317369,-10.98710988713315L-145.57765002256554,-16.68687260787812L-148.7874288975207,-15.816140462552388zM179.00084815230815,23.661853979209337L-138.36677217760527,95.47514496343415L-138.27873360341826,96.05947332419466z" style="fill:rgb(83,212,212)"/><path d="M147.0880579545584,-25.014149402391965L144.38243803159,-32.43294030734488L141.38050320382362,-33.146560289031555z" style="fill:rgb(57,36,182)"/><path d="M-160.7933449071451,-2.292948865335387L-155.33330306358638,-13.123570706135451L-158.2285152442825,-11.543760991435738zM-160.7933449071451,-2.292948865335387L-158.2285152442825,-11.543760991435738L-159.54039140852305,-10.387798609347726zM138.7838686921348,-30.998235666560113L141.38050320382362,-33.146560289031555L141.05145180764882,-35.49252661693849zM-149.48819817317369,-10.98710988713315L-142.49786688802592,-16.6024768040056L-145.57765002256554,-16.68687260787812zM-156.1634045381635,-7.629974003957899L-149.48819817317369,-10.98710988713315L-148.7874288975207,-15.816140462552388zM180.1929543770345,-12.440510435732822L52.91135778076005,14.17758647536811L53.450388396140326,19.16423363665048zM141.38050320382362,-33.146560289031555L144.38243803159,-32.43294030734488L143.84176488569688,-36.21018735369595zM179.00084815230815,23.661853979209337L-138.27873360341826,96.05947332419466L-137.36545189878345,99.87073470742514z" style="fill:rgb(83,212,212)"/><path d="M-133.21432545907481,-5.910154890954506L-135.64861811337695,-0.5242913625639396L-100.1095862448272,54.609608248102795z" style="fill:rgb(242,132,181)"/><path d="M-160.7933449071451,-2.292948865335387L-156.1634045381635,-7.629974003957899L-155.33330306358638,-13.123570706135451z" style="fill:rgb(83,212,212)"/><path d="M-122.26111007032394,66.76784318827418L-159.06578610707317,12.271456087801502L-164.20227458095167,11.018346718157236z" style="fill:rgb(64,34,187)"/><path d="M136.25853877580928,-18.035983715366207L137.63064803992103,-34.61270602876359L134.24082491204172,-33.18574443957354zM136.25853877580928,-18.035983715366207L138.26485235113634,-34.7758210132764L137.63064803992103,-34.61270602876359zM-143.26190111920587,-11.109313457114618L-139.82109736099895,-16.52913051092131L-142.49786688802592,-16.6024768040056zM-149.48819817317369,-10.98710988713315L-143.26190111920587,-11.109313457114618L-142.49786688802592,-16.6024768040056zM-167.46987893753212,7.954586109085551L-159.54039140852305,-10.387798609347726L-163.47764589266572,-6.918482041079245zM132.49788510996297,-12.678431669980139L131.0995305244814,-31.863394796006965L130.10437651360988,-31.25666016225274zM132.49788510996297,-12.678431669980139L134.24082491204172,-33.18574443957354L131.0995305244814,-31.863394796006965zM-143.26190111920587,-11.109313457114618L-138.7397110966161,-16.01706190677811L-139.82109736099895,-16.52913051092131z" style="fill:rgb(83,212,212)"/><path d="M-36.780777524875795,92.1320686235961L-41.22926969453687,84.75928554313819L-46.226846803816706,82.5263985043631z" style="fill:rgb(51,38,177)"/><path d="M-100.1095862448272,54.609608248102795L-135.64861811337695,-0.5242913625639396L-140.16350762361458,4.637498034065357z" style="fill:rgb(223,97,206)"/><path d="M145.94867841699354,-21.490881320082295L144.47784449071824,-36.373787025631984L143.84176488569688,-36.21018735369595z" style="fill:rgb(83,212,212)"/><path d="M-32.70266028790672,95.37970267164441L-41.22926969453687,84.75928554313819L-36.780777524875795,92.1320686235961z" style="fill:rgb(34,46,160)"/><path d="M179.1955028110241,-17.470602660342575L178.02716912107545,-22.293487969800193L51.26269463758304,9.62858376611887zM145.94867841699354,-21.490881320082295L148.03533724448803,-36.73182488285085L144.47784449071824,-36.373787025631984z" style="fill:rgb(83,212,212)"/><path d="M-152.754111670117,11.518440757615906L-159.06578610707317,12.271456087801502L-122.26111007032394,66.76784318827418z" style="fill:rgb(105,33,210)"/><path d="M117.43086579011904,-8.249211230791635L119.13910504749784,-22.755338692407772L116.18970009953767,-19.165929585156444zM-167.46987893753212,7.954586109085551L-163.47764589266572,-6.918482041079245L-167.04801124996223,-1.6679286882523667zM180.85734118392028,-7.313679687358241L53.450388396140326,19.16423363665048L52.847673896536236,24.446767484779055zM115.61735580451428,-5.690950989485883L116.18970009953767,-19.165929585156444L116.11033951037618,-19.0693465901125zM140.28734359833862,-20.05541000284046L140.17390561963128,-28.947123316996873L138.7838686921348,-30.998235666560113zM150.2678425949894,-21.584803417938975L151.34258055703378,-37.06467551607099L148.03533724448803,-36.73182488285085zM176.60431380395696,-26.746119430769838L176.03172279494288,-28.538005810921476L175.0973892729497,-30.74183640022201z" style="fill:rgb(83,212,212)"/><path d="M178.80234194024732,-20.303110844938644L178.3484903450658,-21.28800050418969L181.12218362675478,-13.046791383582116zM178.80234194024732,-20.303110844938644L176.03172279494288,-28.538005810921476L178.3484903450658,-21.28800050418969z" style="fill:rgb(246,166,149)"/><path d="M115.61735580451428,-5.690950989485883L116.11033951037618,-19.0693465901125L114.47150886905344,-15.952726519825465zM-143.26190111920587,-11.109313457114618L-139.83518300834538,-7.922999945757448L-138.7397110966161,-16.01706190677811z" style="fill:rgb(83,212,212)"/><path d="M-140.16350762361458,4.637498034065357L-146.1438759433908,8.85016345045297L-109.9096887478693,63.69979461141971z" style="fill:rgb(190,67,220)"/><path d="M150.2678425949894,-21.584803417938975L152.44369549157784,-36.994678484117145L151.34258055703378,-37.06467551607099z" style="fill:rgb(83,212,212)"/><path d="M-109.9096887478693,63.69979461141971L-146.1438759433908,8.85016345045297L-152.754111670117,11.518440757615906z" style="fill:rgb(149,44,221)"/><path d="M141.3327389033312,-20.579405918620857L141.90735941170124,-29.390347580956046L140.17390561963128,-28.947123316996873zM144.83073834585983,-21.46656512596173L144.38243803159,-32.43294030734488L143.642240016784,-29.833936715438853zM143.0242790530548,-21.42728606291299L143.642240016784,-29.833936715438853L141.90735941170124,-29.390347580956046zM136.25853877580928,-18.035983715366207L140.28734359833862,-20.05541000284046L138.26485235113634,-34.7758210132764zM-167.46987893753212,7.954586109085551L-167.04801124996223,-1.6679286882523667L-168.45106058549095,3.52144830923722z" style="fill:rgb(83,212,212)"/><path d="M145.7649388330328,-14.01512700829215L136.25853877580928,-18.035983715366207L139.04615599711576,-10.648084893593536z" style="fill:rgb(164,51,222)"/><path d="M123.72973075861456,-0.9716013986138013L117.43086579011904,-8.249211230791635L120.35001588597281,-0.9289083398418051z" style="fill:rgb(90,32,203)"/><path d="M90.20492546397737,45.593228991677755L-64.6346228303728,82.35074795386711L-58.15053359626107,81.31087922707712z" style="fill:rgb(83,212,212)"/><path d="M-32.70266028790672,95.37970267164441L-37.14084278512671,87.99661074950806L-41.22926969453687,84.75928554313819z" style="fill:rgb(34,46,160)"/><path d="M132.49788510996297,-12.678431669980139L136.25853877580928,-18.035983715366207L134.24082491204172,-33.18574443957354zM122.87301540795116,9.16088251830771L130.10437651360988,-31.25666016225274L125.1682901936331,-28.247188053255524z" style="fill:rgb(83,212,212)"/><path d="M120.35001588597281,-0.9289083398418051L115.61735580451428,-5.690950989485883L118.55347863664086,1.6222901623763086z" style="fill:rgb(224,99,205)"/><path d="M117.43086579011904,-8.249211230791635L120.82983381125477,-8.303553924893949L119.13910504749784,-22.755338692407772z" style="fill:rgb(83,212,212)"/><path d="M152.96672562121597,-14.14750444473968L143.0242790530548,-21.42728606291299L145.7649388330328,-14.01512700829215z" style="fill:rgb(90,32,203)"/><path d="M-29.6913264576792,99.51937195040928L-37.14084278512671,87.99661074950806L-32.70266028790672,95.37970267164441z" style="fill:rgb(21,57,142)"/><path d="M122.87301540795116,9.16088251830771L125.1682901936331,-28.247188053255524L120.09645670146014,-23.920435977611962zM115.61735580451428,-5.690950989485883L117.43086579011904,-8.249211230791635L116.18970009953767,-19.165929585156444zM180.1929543770345,-12.440510435732822L179.1955028110241,-17.470602660342575L52.91135778076005,14.17758647536811zM113.91649205900556,1.1672077787108275L114.47150886905344,-15.952726519825465L113.39429727570986,-13.904133340804414zM140.28734359833862,-20.05541000284046L141.3327389033312,-20.579405918620857L140.17390561963128,-28.947123316996873zM-167.46987893753212,7.954586109085551L-162.90279117222204,11.335368661064111L-159.54039140852305,-10.387798609347726z" style="fill:rgb(83,212,212)"/><path d="M139.04615599711576,-10.648084893593536L132.49788510996297,-12.678431669980139L135.320460836312,-5.3050400111487255z" style="fill:rgb(224,99,205)"/><path d="M141.3327389033312,-20.579405918620857L143.0242790530548,-21.42728606291299L141.90735941170124,-29.390347580956046zM83.58685225814054,48.79071482807187L-58.15053359626107,81.31087922707712L-51.93885478619482,81.36687218147941zM144.83073834585983,-21.46656512596173L145.94867841699354,-21.490881320082295L144.38243803159,-32.43294030734488z" style="fill:rgb(83,212,212)"/><path d="M145.7649388330328,-14.01512700829215L143.0242790530548,-21.42728606291299L136.25853877580928,-18.035983715366207z" style="fill:rgb(164,51,222)"/><path d="M145.94867841699354,-21.490881320082295L150.2678425949894,-21.584803417938975L148.03533724448803,-36.73182488285085zM122.87301540795116,9.16088251830771L120.09645670146014,-23.920435977611962L119.13910504749784,-22.755338692407772zM181.194095124427,-2.247481674474742L52.847673896536236,24.446767484779055L51.10579125353959,29.870233234587563zM143.0242790530548,-21.42728606291299L144.83073834585983,-21.46656512596173L143.642240016784,-29.833936715438853z" style="fill:rgb(83,212,212)"/><path d="M120.35001588597281,-0.9289083398418051L117.43086579011904,-8.249211230791635L115.61735580451428,-5.690950989485883zM139.04615599711576,-10.648084893593536L136.25853877580928,-18.035983715366207L132.49788510996297,-12.678431669980139z" style="fill:rgb(224,99,205)"/><path d="M123.72973075861456,-0.9716013986138013L120.82983381125477,-8.303553924893949L117.43086579011904,-8.249211230791635z" style="fill:rgb(90,32,203)"/><path d="M-141.6797044196448,5.705529720275717L-135.48621727170425,-14.476438415130758L-138.7397110966161,-16.01706190677811zM113.91649205900556,1.1672077787108275L113.39429727570986,-13.904133340804414L112.0826702772122,-8.652098388410558z" style="fill:rgb(83,212,212)"/><path d="M152.96672562121597,-14.14750444473968L150.2678425949894,-21.584803417938975L143.0242790530548,-21.42728606291299z" style="fill:rgb(90,32,203)"/><path d="M77.56858473568201,52.84821147852825L-51.93885478619482,81.36687218147941L-46.226846803816706,82.5263985043631z" style="fill:rgb(83,212,212)"/><path d="M157.9412096640246,-10.96771839594828L150.2678425949894,-21.584803417938975L152.96672562121597,-14.14750444473968z" style="fill:rgb(30,49,155)"/><path d="M150.2678425949894,-21.584803417938975L155.2634545869981,-18.421380393157275L152.44369549157784,-36.994678484117145z" style="fill:rgb(83,212,212)"/><path d="M-29.6913264576792,99.51937195040928L-34.12861975135535,92.13093718157258L-37.14084278512671,87.99661074950806z" style="fill:rgb(21,57,142)"/><path d="M181.12218362675478,-13.046791383582116L180.02638353450143,-13.725998667105001L182.80782762114023,-5.481890947559177zM181.12218362675478,-13.046791383582116L178.3484903450658,-21.28800050418969L180.02638353450143,-13.725998667105001z" style="fill:rgb(247,161,155)"/><path d="M-141.6797044196448,5.705529720275717L-133.16955434682427,-10.778005222217086L-135.48621727170425,-14.476438415130758zM181.36527152427695,2.562278895112481L51.10579125353959,29.870233234587563L48.26371793177755,35.27118909527018z" style="fill:rgb(83,212,212)"/><path d="M135.320460836312,-5.3050400111487255L133.18354569777338,-7.3563875793958715L136.01580494298176,0.017477572669856497z" style="fill:rgb(247,158,158)"/><path d="M180.85734118392028,-7.313679687358241L180.1929543770345,-12.440510435732822L53.450388396140326,19.16423363665048zM113.91649205900556,1.1672077787108275L112.0826702772122,-8.652098388410558L112.25236834744166,-3.5496156811497426z" style="fill:rgb(83,212,212)"/><path d="M135.320460836312,-5.3050400111487255L132.49788510996297,-12.678431669980139L133.18354569777338,-7.3563875793958715z" style="fill:rgb(247,158,158)"/><path d="M179.1955028110241,-17.470602660342575L178.3484903450658,-21.28800050418969L178.02716912107545,-22.293487969800193zM-162.90279117222204,11.335368661064111L-158.26905522275703,6.305185997780385L-161.61719192599816,3.029608791686682zM72.36508282851516,57.623967022193334L-46.226846803816706,82.5263985043631L-41.22926969453687,84.75928554313819zM113.91649205900556,1.1672077787108275L116.81065082387506,4.995752982114217L114.47150886905344,-15.952726519825465zM-167.46987893753212,7.954586109085551L-164.20227458095167,11.018346718157236L-162.90279117222204,11.335368661064111z" style="fill:rgb(83,212,212)"/><path d="M119.97748717655237,12.586256944510728L113.91649205900556,1.1672077787108275L116.88048770734527,8.471974324987016z" style="fill:rgb(16,65,132)"/><path d="M157.9412096640246,-10.96771839594828L155.2634545869981,-18.421380393157275L150.2678425949894,-21.584803417938975z" style="fill:rgb(30,49,155)"/><path d="M167.51974456532162,-20.065731200815677L168.95163504848196,-32.61027195417363L165.14980997569867,-34.51073863771859zM-141.6797044196448,5.705529720275717L-133.21432545907481,-5.910154890954506L-133.16955434682427,-10.778005222217086zM181.17257586213097,7.0139496270061406L48.26371793177755,35.27118909527018L44.397126708607225,40.48320441197116zM159.02065217859305,6.326673180099601L157.92168360430887,-36.64646748833558L152.44369549157784,-36.994678484117145zM170.77953918968592,-21.699141841299998L169.05409215561238,-32.55904869236904L168.95163504848196,-32.61027195417363zM116.81065082387506,4.995752982114217L117.89645631134054,-4.1540927246909405L115.61735580451428,-5.690950989485883zM-162.90279117222204,11.335368661064111L-159.1668530035283,12.246796852193802L-158.26905522275703,6.305185997780385zM-159.1668530035283,12.246796852193802L-151.98783698057434,6.23800839954142L-158.26905522275703,6.305185997780385zM181.194095124427,-2.247481674474742L180.85734118392028,-7.313679687358241L52.847673896536236,24.446767484779055zM170.77953918968592,-21.699141841299998L171.48226356256833,-30.441691061939878L169.05409215561238,-32.55904869236904zM68.16639198062359,62.9515884345067L-41.22926969453687,84.75928554313819L-37.14084278512671,87.99661074950806zM119.14847650161728,6.8580961882739215L121.12592464302494,-5.772668187881161L117.89645631134054,-4.1540927246909405zM-146.026532297134,8.767502816154469L-140.5555322369522,-2.6005891787287116L-145.20008522672993,2.825612217138299zM159.02065217859305,6.326673180099601L163.91841065350854,-35.12630153420778L157.92168360430887,-36.64646748833558z" style="fill:rgb(83,212,212)"/><path d="M173.35906537315975,-14.190730819847792L167.51974456532162,-20.065731200815677L170.1222064933201,-12.569153169482654z" style="fill:rgb(164,51,222)"/><path d="M119.97748717655237,12.586256944510728L117.02015886049249,5.272891187942208L113.91649205900556,1.1672077787108275z" style="fill:rgb(16,65,132)"/><path d="M180.97851638708914,10.87911990236436L44.397126708607225,40.48320441197116L39.617062299741356,45.34292139145531zM-141.6797044196448,5.705529720275717L-135.64861811337695,-0.5242913625639396L-133.21432545907481,-5.910154890954506zM180.1929543770345,-12.440510435732822L180.02638353450143,-13.725998667105001L179.1955028110241,-17.470602660342575zM-152.754111670117,11.518440757615906L-145.20008522672993,2.825612217138299L-151.98783698057434,6.23800839954142zM90.20492546397737,45.593228991677755L97.18889455141534,43.369382764624675L-64.6346228303728,82.35074795386711zM83.58685225814054,48.79071482807187L90.20492546397737,45.593228991677755L-58.15053359626107,81.31087922707712z" style="fill:rgb(83,212,212)"/><path d="M175.79119975398302,-12.668576722773762L170.77953918968592,-21.699141841299998L173.35906537315975,-14.190730819847792z" style="fill:rgb(30,49,155)"/><path d="M182.80782762114023,-5.481890947559177L181.04333630472897,-5.878387332561699L183.83740091969568,2.3650876799062557zM182.80782762114023,-5.481890947559177L180.02638353450143,-13.725998667105001L181.04333630472897,-5.878387332561699z" style="fill:rgb(247,155,161)"/><path d="M124.37949734479058,15.89045746037759L117.02015886049249,5.272891187942208L119.97748717655237,12.586256944510728z" style="fill:rgb(28,51,152)"/><path d="M167.51974456532162,-20.065731200815677L170.77953918968592,-21.699141841299998L168.95163504848196,-32.61027195417363zM-159.1668530035283,12.246796852193802L-152.754111670117,11.518440757615906L-151.98783698057434,6.23800839954142zM-146.026532297134,8.767502816154469L-141.6797044196448,5.705529720275717L-140.5555322369522,-2.6005891787287116zM159.02065217859305,6.326673180099601L165.14980997569867,-34.51073863771859L163.91841065350854,-35.12630153420778z" style="fill:rgb(83,212,212)"/><path d="M170.1222064933201,-12.569153169482654L167.93485868594533,-17.53556572424192L170.54078509515077,-10.0384547835637z" style="fill:rgb(247,158,158)"/><path d="M77.56858473568201,52.84821147852825L83.58685225814054,48.79071482807187L-51.93885478619482,81.36687218147941zM-159.1668530035283,12.246796852193802L-159.06578610707317,12.271456087801502L-152.754111670117,11.518440757615906zM180.57545719836114,14.085436692252783L39.617062299741356,45.34292139145531L34.06683674944285,49.69638937101127zM116.81065082387506,4.995752982114217L119.14847650161728,6.8580961882739215L117.89645631134054,-4.1540927246909405zM122.87301540795116,9.16088251830771L135.68639174981487,12.070508581350778L130.10437651360988,-31.25666016225274zM-152.754111670117,11.518440757615906L-146.026532297134,8.767502816154469L-145.20008522672993,2.825612217138299z" style="fill:rgb(83,212,212)"/><path d="M173.35906537315975,-14.190730819847792L170.77953918968592,-21.699141841299998L167.51974456532162,-20.065731200815677z" style="fill:rgb(164,51,222)"/><path d="M-141.6797044196448,5.705529720275717L-140.16350762361458,4.637498034065357L-135.64861811337695,-0.5242913625639396z" style="fill:rgb(83,212,212)"/><path d="M178.33746866150838,-17.21474635126131L177.04599061737187,-19.832101500524473L179.59285916367227,-12.302649915239614z" style="fill:rgb(247,163,153)"/><path d="M181.36527152427695,2.562278895112481L181.194095124427,-2.247481674474742L51.10579125353959,29.870233234587563zM170.77953918968592,-21.699141841299998L173.22253900221216,-20.184928315054748L171.48226356256833,-30.441691061939878z" style="fill:rgb(83,212,212)"/><path d="M170.1222064933201,-12.569153169482654L167.51974456532162,-20.065731200815677L167.93485868594533,-17.53556572424192z" style="fill:rgb(247,158,158)"/><path d="M180.27763188643334,16.454645586022384L34.06683674944285,49.69638937101127L27.91722760688454,53.40516308449848zM180.03325443526097,18.39859803348671L21.36029200757202,56.35195571489408L14.60196050268271,58.445308431232185z" style="fill:rgb(83,212,212)"/><path d="M178.33746866150838,-17.21474635126131L175.79439042071613,-24.741527301008166L177.04599061737187,-19.832101500524473z" style="fill:rgb(247,163,153)"/><path d="M65.1319091414952,68.6439990383714L-37.14084278512671,87.99661074950806L-34.12861975135535,92.13093718157258zM180.09484916189353,17.908510654740233L27.91722760688454,53.40516308449848L21.36029200757202,56.35195571489408zM72.36508282851516,57.623967022193334L77.56858473568201,52.84821147852825L-46.226846803816706,82.5263985043631z" style="fill:rgb(83,212,212)"/><path d="M175.79119975398302,-12.668576722773762L173.22253900221216,-20.184928315054748L170.77953918968592,-21.699141841299998z" style="fill:rgb(30,49,155)"/><path d="M-152.754111670117,11.518440757615906L-146.1438759433908,8.85016345045297L-146.026532297134,8.767502816154469zM119.14847650161728,6.8580961882739215L122.87301540795116,9.16088251830771L121.12592464302494,-5.772668187881161zM175.03538451825074,-9.500453884593476L173.08088643570903,-29.047684019294692L171.48226356256833,-30.441691061939878zM116.81065082387506,4.995752982114217L117.02015886049249,5.272891187942208L119.14847650161728,6.8580961882739215z" style="fill:rgb(83,212,212)"/><path d="M124.37949734479058,15.89045746037759L121.43873229748911,8.563917077960204L117.02015886049249,5.272891187942208z" style="fill:rgb(28,51,152)"/><path d="M179.00084815230815,23.661853979209337L180.03325443526097,18.39859803348671L-138.36677217760527,95.47514496343415z" style="fill:rgb(83,212,212)"/><path d="M129.8946656146745,18.214058210833386L121.43873229748911,8.563917077960204L124.37949734479058,15.89045746037759z" style="fill:rgb(45,40,171)"/><path d="M181.17257586213097,7.0139496270061406L181.36527152427695,2.562278895112481L48.26371793177755,35.27118909527018zM68.16639198062359,62.9515884345067L72.36508282851516,57.623967022193334L-41.22926969453687,84.75928554313819zM175.03538451825074,-9.500453884593476L175.79439042071613,-24.741527301008166L173.08088643570903,-29.047684019294692z" style="fill:rgb(83,212,212)"/><path d="M93.7284764944371,53.46412534596735L83.58685225814054,48.79071482807187L87.16206185575288,56.63490791576675z" style="fill:rgb(162,50,222)"/><path d="M179.59285916367227,-12.302649915239614L176.75389803746776,-14.54612081065138L179.31450358975317,-7.019828846604778z" style="fill:rgb(245,143,172)"/><path d="M87.16206185575288,56.63490791576675L77.56858473568201,52.84821147852825L81.19439354476992,60.66691159296437z" style="fill:rgb(183,62,221)"/><path d="M100.66141359313407,51.267320685092464L90.20492546397737,45.593228991677755L93.7284764944371,53.46412534596735z" style="fill:rgb(139,40,220)"/><path d="M183.83740091969568,2.3650876799062557L181.37985018291488,2.2257664916368447L184.1915800280572,10.464984285607528z" style="fill:rgb(246,149,166)"/><path d="M135.68639174981487,12.070508581350778L138.114270202691,-4.1024493368445265L133.18354569777338,-7.3563875793958715z" style="fill:rgb(83,212,212)"/><path d="M183.83740091969568,2.3650876799062557L181.04333630472897,-5.878387332561699L181.37985018291488,2.2257664916368447z" style="fill:rgb(246,149,166)"/><path d="M179.59285916367227,-12.302649915239614L177.04599061737187,-19.832101500524473L176.75389803746776,-14.54612081065138z" style="fill:rgb(245,143,172)"/><path d="M63.38458886645695,74.49801668432728L-34.12861975135535,92.13093718157258L-32.32419451379143,97.01785046701896zM119.14847650161728,6.8580961882739215L121.43873229748911,8.563917077960204L122.87301540795116,9.16088251830771zM181.194095124427,-2.247481674474742L181.04333630472897,-5.878387332561699L180.85734118392028,-7.313679687358241z" style="fill:rgb(83,212,212)"/><path d="M81.19439354476992,60.66691159296437L72.36508282851516,57.623967022193334L76.03877167607604,65.419179717269z" style="fill:rgb(203,77,216)"/><path d="M129.8946656146745,18.214058210833386L126.97985069846351,10.870212756062703L121.43873229748911,8.563917077960204z" style="fill:rgb(45,40,171)"/><path d="M93.7284764944371,53.46412534596735L90.20492546397737,45.593228991677755L83.58685225814054,48.79071482807187z" style="fill:rgb(162,50,222)"/><path d="M87.16206185575288,56.63490791576675L83.58685225814054,48.79071482807187L77.56858473568201,52.84821147852825z" style="fill:rgb(183,62,221)"/><path d="M180.97851638708914,10.87911990236436L181.17257586213097,7.0139496270061406L44.397126708607225,40.48320441197116z" style="fill:rgb(83,212,212)"/><path d="M136.2700320748762,19.430719032857994L126.97985069846351,10.870212756062703L129.8946656146745,18.214058210833386z" style="fill:rgb(65,34,188)"/><path d="M175.03538451825074,-9.500453884593476L177.04599061737187,-19.832101500524473L175.79439042071613,-24.741527301008166zM65.1319091414952,68.6439990383714L68.16639198062359,62.9515884345067L-37.14084278512671,87.99661074950806z" style="fill:rgb(83,212,212)"/><path d="M100.66141359313407,51.267320685092464L97.18889455141534,43.369382764624675L90.20492546397737,45.593228991677755z" style="fill:rgb(139,40,220)"/><path d="M144.820477937325,4.604906980010578L145.4399557388308,-4.204756039871436L143.60399103160708,-4.179118798844536zM144.05569534150396,7.371997710145458L143.60399103160708,-4.179118798844536L142.47082025730586,-4.163288637402743zM140.26942970161255,12.079303509393103L142.47082025730586,-4.163288637402743L138.114270202691,-4.1024493368445265z" style="fill:rgb(83,212,212)"/><path d="M143.0242790530548,-21.42728606291299L112.81435993325735,-80.16921064588577L136.25853877580928,-18.035983715366207z" style="fill:rgb(164,51,222)"/><path d="M81.19439354476992,60.66691159296437L77.56858473568201,52.84821147852825L72.36508282851516,57.623967022193334z" style="fill:rgb(203,77,216)"/><path d="M146.61340592605333,4.161339141235741L147.16017945842333,-5.066628428057981L145.4399557388308,-4.204756039871436zM148.4078585956711,3.7173913398140632L148.2233893850934,-5.599308648568054L147.16017945842333,-5.066628428057981z" style="fill:rgb(83,212,212)"/><path d="M179.31450358975317,-7.019828846604778L174.9111357889846,-9.135642461975383L177.49509577505563,-1.6182262355736774z" style="fill:rgb(238,122,189)"/><path d="M76.03877167607604,65.419179717269L68.16639198062359,62.9515884345067L71.88359707132732,70.72603235045882z" style="fill:rgb(220,94,208)"/><path d="M173.30993558269793,-6.594694185754973L173.22253900221216,-20.184928315054748L171.4653568317724,-17.60535784217788z" style="fill:rgb(83,212,212)"/><path d="M151.17951332012734,11.137670727049782L144.820477937325,4.604906980010578L147.61540730509722,12.012545507256402z" style="fill:rgb(127,37,217)"/><path d="M159.02065217859305,6.326673180099601L170.38471267366958,-2.603440318020849L165.14980997569867,-34.51073863771859z" style="fill:rgb(83,212,212)"/><path d="M112.81435993325735,-80.16921064588577L132.49788510996297,-12.678431669980139L136.25853877580928,-18.035983715366207z" style="fill:rgb(224,99,205)"/><path d="M150.2678425949894,-21.584803417938975L119.97480514592614,-83.76486276074296L143.0242790530548,-21.42728606291299z" style="fill:rgb(90,32,203)"/><path d="M170.38471267366958,-2.603440318020849L171.4653568317724,-17.60535784217788L167.93485868594533,-17.53556572424192z" style="fill:rgb(83,212,212)"/><path d="M179.31450358975317,-7.019828846604778L176.75389803746776,-14.54612081065138L174.9111357889846,-9.135642461975383z" style="fill:rgb(238,122,189)"/><path d="M180.57545719836114,14.085436692252783L180.97851638708914,10.87911990236436L39.617062299741356,45.34292139145531zM154.70636212228558,8.52950665161799L156.07132402842802,-13.10007476154292L152.32131776763063,-7.6524583611252455z" style="fill:rgb(83,212,212)"/><path d="M147.61540730509722,12.012545507256402L144.05569534150396,7.371997710145458L146.86197852193976,14.775408504530754z" style="fill:rgb(241,128,184)"/><path d="M152.6429754835584,13.359909912482726L148.4078585956711,3.7173913398140632L151.17951332012734,11.137670727049782z" style="fill:rgb(13,70,126)"/><path d="M76.03877167607604,65.419179717269L72.36508282851516,57.623967022193334L68.16639198062359,62.9515884345067z" style="fill:rgb(220,94,208)"/><path d="M175.03538451825074,-9.500453884593476L176.75389803746776,-14.54612081065138L177.04599061737187,-19.832101500524473zM63.00543957522228,80.29993058182095L-32.32419451379143,97.01785046701896L-31.816375617436055,102.47924339843787zM150.44867918835453,9.94699936928007L152.32131776763063,-7.6524583611252455L148.2233893850934,-5.599308648568054zM122.87301540795116,9.16088251830771L126.97985069846351,10.870212756062703L133.38942846297388,12.0660988950563zM144.820477937325,4.604906980010578L146.61340592605333,4.161339141235741L145.4399557388308,-4.204756039871436z" style="fill:rgb(83,212,212)"/><path d="M136.2700320748762,19.430719032857994L133.38942846297388,12.0660988950563L126.97985069846351,10.870212756062703z" style="fill:rgb(65,34,188)"/><path d="M143.2022975720933,19.467489297125482L133.38942846297388,12.0660988950563L136.2700320748762,19.430719032857994z" style="fill:rgb(89,32,203)"/><path d="M144.05569534150396,7.371997710145458L144.820477937325,4.604906980010578L143.60399103160708,-4.179118798844536zM146.61340592605333,4.161339141235741L148.4078585956711,3.7173913398140632L147.16017945842333,-5.066628428057981z" style="fill:rgb(83,212,212)"/><path d="M151.17951332012734,11.137670727049782L148.4078585956711,3.7173913398140632L144.820477937325,4.604906980010578z" style="fill:rgb(127,37,217)"/><path d="M181.36527152427695,2.562278895112481L181.37985018291488,2.2257664916368447L181.194095124427,-2.247481674474742z" style="fill:rgb(83,212,212)"/><path d="M147.61540730509722,12.012545507256402L144.820477937325,4.604906980010578L144.05569534150396,7.371997710145458z" style="fill:rgb(241,128,184)"/><path d="M173.30993558269793,-6.594694185754973L175.03538451825074,-9.500453884593476L173.22253900221216,-20.184928315054748zM180.27763188643334,16.454645586022384L180.57545719836114,14.085436692252783L34.06683674944285,49.69638937101127zM63.38458886645695,74.49801668432728L65.1319091414952,68.6439990383714L-34.12861975135535,92.13093718157258zM135.68639174981487,12.070508581350778L140.26942970161255,12.079303509393103L138.114270202691,-4.1024493368445265z" style="fill:rgb(83,212,212)"/><path d="M71.88359707132732,70.72603235045882L65.1319091414952,68.6439990383714L68.88668000973176,76.4010220617928z" style="fill:rgb(233,112,197)"/><path d="M181.8813631014581,31.873458190116125L97.18889455141534,43.369382764624675L100.66141359313407,51.267320685092464z" style="fill:rgb(127,37,217)"/><path d="M177.49509577505563,-1.6182262355736774L171.59007580500827,-3.865459357920972L174.20601431168038,3.6378173900521213z" style="fill:rgb(226,102,203)"/><path d="M148.4078585956711,3.7173913398140632L149.87454680558184,5.935998417486797L148.2233893850934,-5.599308648568054z" style="fill:rgb(83,212,212)"/><path d="M184.1915800280572,10.464984285607528L181.01929569939273,10.554711265296177L183.85390593412393,18.78598657188569zM184.1915800280572,10.464984285607528L181.37985018291488,2.2257664916368447L181.01929569939273,10.554711265296177z" style="fill:rgb(245,143,172)"/><path d="M122.87301540795116,9.16088251830771L133.38942846297388,12.0660988950563L135.68639174981487,12.070508581350778zM180.09484916189353,17.908510654740233L180.27763188643334,16.454645586022384L27.91722760688454,53.40516308449848z" style="fill:rgb(83,212,212)"/><path d="M155.2634545869981,-18.421380393157275L127.56494158987039,-84.1472210295855L150.2678425949894,-21.584803417938975z" style="fill:rgb(30,49,155)"/><path d="M180.03325443526097,18.39859803348671L180.09484916189353,17.908510654740233L21.36029200757202,56.35195571489408z" style="fill:rgb(83,212,212)"/><path d="M152.6429754835584,13.359909912482726L149.87454680558184,5.935998417486797L148.4078585956711,3.7173913398140632z" style="fill:rgb(13,70,126)"/><path d="M177.49509577505563,-1.6182262355736774L174.9111357889846,-9.135642461975383L171.59007580500827,-3.865459357920972z" style="fill:rgb(226,102,203)"/><path d="M71.88359707132732,70.72603235045882L68.16639198062359,62.9515884345067L65.1319091414952,68.6439990383714z" style="fill:rgb(233,112,197)"/><path d="M170.38471267366958,-2.603440318020849L173.30993558269793,-6.594694185754973L171.4653568317724,-17.60535784217788zM140.26942970161255,12.079303509393103L144.6067690085915,11.382908877859117L142.47082025730586,-4.163288637402743z" style="fill:rgb(83,212,212)"/><path d="M150.35268050795798,18.31141592041039L140.3625539731826,12.079485286984808L143.2022975720933,19.467489297125482z" style="fill:rgb(114,34,213)"/><path d="M143.2022975720933,19.467489297125482L140.3625539731826,12.079485286984808L133.38942846297388,12.0660988950563z" style="fill:rgb(89,32,203)"/><path d="M174.20601431168038,3.6378173900521213L166.94175811129088,1.0013935316936506L169.59682283169093,8.486038989779368z" style="fill:rgb(209,83,214)"/><path d="M132.49788510996297,-12.678431669980139L109.35082280944351,-69.40545926439067L133.18354569777338,-7.3563875793958715z" style="fill:rgb(247,158,158)"/><path d="M154.70636212228558,8.52950665161799L159.02065217859305,6.326673180099601L156.07132402842802,-13.10007476154292z" style="fill:rgb(83,212,212)"/><path d="M127.86487537037522,-2.4029365642064193L101.12950651806159,-68.63552888854633L125.34417245891572,-6.826620537163688z" style="fill:rgb(12,73,122)"/><path d="M173.30993558269793,-6.594694185754973L174.9111357889846,-9.135642461975383L175.03538451825074,-9.500453884593476z" style="fill:rgb(83,212,212)"/><path d="M157.3655837595288,16.012390963797895L147.55837435964912,10.898477150746224L150.35268050795798,18.31141592041039z" style="fill:rgb(140,41,220)"/><path d="M150.44867918835453,9.94699936928007L154.70636212228558,8.52950665161799L152.32131776763063,-7.6524583611252455z" style="fill:rgb(83,212,212)"/><path d="M169.59682283169093,8.486038989779368L161.1898185179866,5.21911526115667L163.88925088051388,12.681670856589912z" style="fill:rgb(189,66,220)"/><path d="M68.88668000973176,76.4010220617928L63.38458886645695,74.49801668432728L67.16948849212389,82.24150694518202z" style="fill:rgb(242,130,183)"/><path d="M174.20601431168038,3.6378173900521213L171.59007580500827,-3.865459357920972L166.94175811129088,1.0013935316936506z" style="fill:rgb(209,83,214)"/><path d="M163.88925088051388,12.681670856589912L154.61889870847824,8.574170395785991L157.3655837595288,16.012390963797895z" style="fill:rgb(165,51,222)"/><path d="M63.00543957522228,80.29993058182095L63.38458886645695,74.49801668432728L-32.32419451379143,97.01785046701896z" style="fill:rgb(83,212,212)"/><path d="M150.35268050795798,18.31141592041039L147.55837435964912,10.898477150746224L140.3625539731826,12.079485286984808z" style="fill:rgb(114,34,213)"/><path d="M68.88668000973176,76.4010220617928L65.1319091414952,68.6439990383714L63.38458886645695,74.49801668432728z" style="fill:rgb(242,130,183)"/><path d="M144.6067690085915,11.382908877859117L147.1800629313248,8.201312202580217L144.05569534150396,7.371997710145458zM170.38471267366958,-2.603440318020849L171.59007580500827,-3.865459357920972L173.30993558269793,-6.594694185754973zM147.55837435964912,10.898477150746224L149.87454680558184,5.935998417486797L147.1800629313248,8.201312202580217z" style="fill:rgb(83,212,212)"/><path d="M169.59682283169093,8.486038989779368L166.94175811129088,1.0013935316936506L161.1898185179866,5.21911526115667z" style="fill:rgb(189,66,220)"/><path d="M140.26942970161255,12.079303509393103L140.3625539731826,12.079485286984808L144.6067690085915,11.382908877859117z" style="fill:rgb(83,212,212)"/><path d="M157.3655837595288,16.012390963797895L154.61889870847824,8.574170395785991L147.55837435964912,10.898477150746224z" style="fill:rgb(140,41,220)"/><path d="M163.88925088051388,12.681670856589912L161.1898185179866,5.21911526115667L154.61889870847824,8.574170395785991z" style="fill:rgb(165,51,222)"/><path d="M144.6067690085915,11.382908877859117L147.55837435964912,10.898477150746224L147.1800629313248,8.201312202580217zM180.97851638708914,10.87911990236436L181.01929569939273,10.554711265296177L181.17257586213097,7.0139496270061406zM147.55837435964912,10.898477150746224L150.44867918835453,9.94699936928007L149.87454680558184,5.935998417486797z" style="fill:rgb(83,212,212)"/><path d="M140.03605187656171,-84.24428217161389L163.63175570606998,-16.448082267612342L162.17430278958238,-21.31131303666299z" style="fill:rgb(246,166,149)"/><path d="M183.85390593412393,18.78598657188569L179.94833646850196,19.074108709191844L182.81110714193014,27.293725904343656zM183.85390593412393,18.78598657188569L181.01929569939273,10.554711265296177L179.94833646850196,19.074108709191844z" style="fill:rgb(244,137,177)"/><path d="M159.02065217859305,6.326673180099601L166.94175811129088,1.0013935316936506L170.38471267366958,-2.603440318020849z" style="fill:rgb(83,212,212)"/><path d="M132.6355988876282,0.640118243527337L103.6661031625165,-64.29049017871375L127.86487537037522,-2.4029365642064193z" style="fill:rgb(31,48,157)"/><path d="M67.16948849212389,82.24150694518202L63.00543957522228,80.29993058182095L66.81172279927041,88.03424415783594z" style="fill:rgb(246,149,167)"/><path d="M159.02065217859305,6.326673180099601L161.1898185179866,5.21911526115667L166.94175811129088,1.0013935316936506zM150.44867918835453,9.94699936928007L154.61889870847824,8.574170395785991L154.70636212228558,8.52950665161799z" style="fill:rgb(83,212,212)"/><path d="M181.8813631014581,31.873458190116125L179.00084815230815,23.661853979209337L97.18889455141534,43.369382764624675z" style="fill:rgb(127,37,217)"/><path d="M67.16948849212389,82.24150694518202L63.38458886645695,74.49801668432728L63.00543957522228,80.29993058182095z" style="fill:rgb(246,149,167)"/><path d="M182.81110714193014,27.293725904343656L179.00084815230815,23.661853979209337L181.8813631014581,31.873458190116125z" style="fill:rgb(242,131,182)"/><path d="M141.46093590439256,-79.43079513340527L162.45489425889872,-11.053311370980898L163.63175570606998,-16.448082267612342z" style="fill:rgb(242,132,181)"/><path d="M139.03151356997853,1.8636815295508045L108.59348712518822,-61.392526941536126L132.6355988876282,0.640118243527337z" style="fill:rgb(64,34,187)"/><path d="M182.81110714193014,27.293725904343656L179.94833646850196,19.074108709191844L179.00084815230815,23.661853979209337z" style="fill:rgb(242,131,182)"/><path d="M143.0242790530548,-21.42728606291299L119.97480514592614,-83.76486276074296L112.81435993325735,-80.16921064588577z" style="fill:rgb(164,51,222)"/><path d="M179.00084815230815,23.661853979209337L179.94833646850196,19.074108709191844L180.03325443526097,18.39859803348671z" style="fill:rgb(83,212,212)"/><path d="M162.45489425889872,-11.053311370980898L136.1411780144183,-68.7047848871043L158.77458969305502,-5.8703061550049975z" style="fill:rgb(223,97,206)"/><path d="M112.81435993325735,-80.16921064588577L108.7547366849902,-74.70238864926321L132.49788510996297,-12.678431669980139z" style="fill:rgb(224,99,205)"/><path d="M150.2678425949894,-21.584803417938975L127.56494158987039,-84.1472210295855L119.97480514592614,-83.76486276074296z" style="fill:rgb(90,32,203)"/><path d="M122.78141198532136,-61.36925233535435L139.03151356997853,1.8636815295508045L146.18065181318687,1.0760266462639476z" style="fill:rgb(105,33,210)"/><path d="M136.1411780144183,-68.7047848871043L153.0854635762475,-1.6272699859687307L158.77458969305502,-5.8703061550049975z" style="fill:rgb(190,67,220)"/><path d="M153.0854635762475,-1.6272699859687307L122.78141198532136,-61.36925233535435L146.18065181318687,1.0760266462639476z" style="fill:rgb(149,44,221)"/><path d="M132.49788510996297,-12.678431669980139L108.7547366849902,-74.70238864926321L109.35082280944351,-69.40545926439067z" style="fill:rgb(247,158,158)"/><path d="M155.2634545869981,-18.421380393157275L132.73043633752613,-81.14304585129199L127.56494158987039,-84.1472210295855z" style="fill:rgb(30,49,155)"/><path d="M127.86487537037522,-2.4029365642064193L103.6661031625165,-64.29049017871375L101.12950651806159,-68.63552888854633z" style="fill:rgb(12,73,122)"/><path d="M27.363575663286685,163.45801595252127L63.00543957522228,80.29993058182095L-31.816375617436055,102.47924339843787z" style="fill:rgb(83,212,212)"/><path d="M140.03605187656171,-84.24428217161389L141.46093590439256,-79.43079513340527L163.63175570606998,-16.448082267612342z" style="fill:rgb(246,166,149)"/><path d="M132.6355988876282,0.640118243527337L108.59348712518822,-61.392526941536126L103.6661031625165,-64.29049017871375z" style="fill:rgb(31,48,157)"/><path d="M112.81435993325735,-80.16921064588577L115.71329460132377,-87.56851613410501L112.17345816929003,-85.6283821584427zM112.81435993325735,-80.16921064588577L119.37369441247228,-88.56149038076404L115.71329460132377,-87.56851613410501zM119.97480514592614,-83.76486276074296L123.04053807520829,-89.5562126820088L119.37369441247228,-88.56149038076404zM108.7547366849902,-74.70238864926321L112.17345816929003,-85.6283821584427L109.10622871330696,-83.94728334255286zM108.7547366849902,-74.70238864926321L109.10622871330696,-83.94728334255286L107.84898746135103,-82.75103556928921zM119.97480514592614,-83.76486276074296L126.83768590094118,-89.60296371127482L123.04053807520829,-89.5562126820088zM112.81435993325735,-80.16921064588577L119.97480514592614,-83.76486276074296L119.37369441247228,-88.56149038076404z" style="fill:rgb(83,212,212)"/><path d="M141.46093590439256,-79.43079513340527L140.11220574126529,-74.00167432068352L162.45489425889872,-11.053311370980898z" style="fill:rgb(242,132,181)"/><path d="M108.7547366849902,-74.70238864926321L112.81435993325735,-80.16921064588577L112.17345816929003,-85.6283821584427z" style="fill:rgb(83,212,212)"/><path d="M66.85534868132882,148.82341237329706L66.81172279927041,88.03424415783594L63.00543957522228,80.29993058182095z" style="fill:rgb(247,158,158)"/><path d="M139.03151356997853,1.8636815295508045L115.2685702431922,-60.363173827923134L108.59348712518822,-61.392526941536126z" style="fill:rgb(64,34,187)"/><path d="M127.56494158987039,-84.1472210295855L130.1386934112513,-89.64360385445089L126.83768590094118,-89.60296371127482zM119.97480514592614,-83.76486276074296L127.56494158987039,-84.1472210295855L126.83768590094118,-89.60296371127482zM103.6661031625165,-64.29049017871375L107.84898746135103,-82.75103556928921L104.07517841368885,-79.16032991180619zM127.56494158987039,-84.1472210295855L131.61868384756306,-89.1838021986897L130.1386934112513,-89.64360385445089z" style="fill:rgb(83,212,212)"/><path d="M162.45489425889872,-11.053311370980898L140.11220574126529,-74.00167432068352L136.1411780144183,-68.7047848871043z" style="fill:rgb(223,97,206)"/><path d="M122.78141198532136,-61.36925233535435L115.2685702431922,-60.363173827923134L139.03151356997853,1.8636815295508045z" style="fill:rgb(105,33,210)"/><path d="M103.6661031625165,-64.29049017871375L104.07517841368885,-79.16032991180619L101.28549621210863,-73.82407576457459zM127.56494158987039,-84.1472210295855L132.73043633752613,-81.14304585129199L131.61868384756306,-89.1838021986897zM27.363575663286685,163.45801595252127L-31.816375617436055,102.47924339843787L-33.71296379232853,170.64950157211427z" style="fill:rgb(83,212,212)"/><path d="M136.1411780144183,-68.7047848871043L130.08209618196975,-64.28530287772399L153.0854635762475,-1.6272699859687307z" style="fill:rgb(190,67,220)"/><path d="M153.0854635762475,-1.6272699859687307L130.08209618196975,-64.28530287772399L122.78141198532136,-61.36925233535435z" style="fill:rgb(149,44,221)"/><path d="M103.6661031625165,-64.29049017871375L101.28549621210863,-73.82407576457459L101.12950651806159,-68.63552888854633zM103.6661031625165,-64.29049017871375L110.28185193138721,-61.13216567159218L107.84898746135103,-82.75103556928921zM134.60511941805612,-67.58438957193302L136.07281170171245,-87.79999952675735L131.61868384756306,-89.1838021986897z" style="fill:rgb(83,212,212)"/><path d="M-23.434188207733204,178.13968545448958L-33.71296379232853,170.64950157211427L-28.968603990599696,177.90118987342336z" style="fill:rgb(94,32,205)"/><path d="M134.60511941805612,-67.58438957193302L140.03605187656171,-84.24428217161389L136.07281170171245,-87.79999952675735zM110.28185193138721,-61.13216567159218L114.442197493319,-66.30336577763543L109.35082280944351,-69.40545926439067zM103.6661031625165,-64.29049017871375L108.59348712518822,-61.392526941536126L110.28185193138721,-61.13216567159218z" style="fill:rgb(83,212,212)"/><path d="M-12.74850212631657,177.96266486777375L-28.144222327485643,170.8712574034061L-23.434188207733204,178.13968545448958z" style="fill:rgb(101,32,208)"/><path d="M-23.434188207733204,178.13968545448958L-28.144222327485643,170.8712574034061L-33.71296379232853,170.64950157211427z" style="fill:rgb(94,32,205)"/><path d="M134.60511941805612,-67.58438957193302L141.46093590439256,-79.43079513340527L140.03605187656171,-84.24428217161389z" style="fill:rgb(83,212,212)"/><path d="M66.85534868132882,148.82341237329706L70.85937427761097,156.44154036019827L66.81172279927041,88.03424415783594z" style="fill:rgb(247,158,158)"/><path d="M110.28185193138721,-61.13216567159218L115.13719201756078,-60.383434640861225L114.442197493319,-66.30336577763543zM115.13719201756078,-60.383434640861225L122.12214064430873,-66.62996865926576L114.442197493319,-66.30336577763543zM130.20099338580295,-64.37202983735389L133.46215436860695,-75.8508909372841L129.41224273492813,-70.28909677363872z" style="fill:rgb(83,212,212)"/><path d="M-1.8366036072521,177.15285103623876L-17.389121090915967,170.6604214666508L-12.74850212631657,177.96266486777375z" style="fill:rgb(108,33,211)"/><path d="M-12.74850212631657,177.96266486777375L-17.389121090915967,170.6604214666508L-28.144222327485643,170.8712574034061z" style="fill:rgb(101,32,208)"/><path d="M134.60511941805612,-67.58438957193302L140.11220574126529,-74.00167432068352L141.46093590439256,-79.43079513340527zM122.78141198532136,-61.36925233535435L129.41224273492813,-70.28909677363872L122.12214064430873,-66.62996865926576zM27.363575663286685,163.45801595252127L66.85534868132882,148.82341237329706L63.00543957522228,80.29993058182095zM115.13719201756078,-60.383434640861225L122.78141198532136,-61.36925233535435L122.12214064430873,-66.62996865926576zM130.20099338580295,-64.37202983735389L134.60511941805612,-67.58438957193302L133.46215436860695,-75.8508909372841zM115.13719201756078,-60.383434640861225L115.2685702431922,-60.363173827923134L122.78141198532136,-61.36925233535435zM122.78141198532136,-61.36925233535435L130.20099338580295,-64.37202983735389L129.41224273492813,-70.28909677363872zM134.60511941805612,-67.58438957193302L136.1411780144183,-68.7047848871043L140.11220574126529,-74.00167432068352z" style="fill:rgb(83,212,212)"/><path d="M9.245450404742265,175.70706647664815L-6.403135581186428,169.81454134110754L-1.8366036072521,177.15285103623876z" style="fill:rgb(116,34,214)"/><path d="M-1.8366036072521,177.15285103623876L-6.403135581186428,169.81454134110754L-17.389121090915967,170.6604214666508z" style="fill:rgb(108,33,211)"/><path d="M122.78141198532136,-61.36925233535435L130.08209618196975,-64.28530287772399L130.20099338580295,-64.37202983735389zM27.363575663286685,163.45801595252127L-33.71296379232853,170.64950157211427L-28.144222327485643,170.8712574034061z" style="fill:rgb(83,212,212)"/><path d="M20.43925851737511,173.6264849661007L4.757224245506242,168.33056292656102L9.245450404742265,175.70706647664815z" style="fill:rgb(123,36,216)"/><path d="M27.363575663286685,163.45801595252127L-28.144222327485643,170.8712574034061L-17.389121090915967,170.6604214666508z" style="fill:rgb(83,212,212)"/><path d="M9.245450404742265,175.70706647664815L4.757224245506242,168.33056292656102L-6.403135581186428,169.81454134110754z" style="fill:rgb(116,34,214)"/><path d="M27.363575663286685,163.45801595252127L-17.389121090915967,170.6604214666508L-6.403135581186428,169.81454134110754z" style="fill:rgb(83,212,212)"/><path d="M31.684605245294513,170.9167206601757L16.03305076954959,166.20977620680844L20.43925851737511,173.6264849661007z" style="fill:rgb(131,38,218)"/><path d="M20.43925851737511,173.6264849661007L16.03305076954959,166.20977620680844L4.757224245506242,168.33056292656102z" style="fill:rgb(123,36,216)"/><path d="M42.92000668643875,167.5879468403935L27.363575663286685,163.45801595252127L31.684605245294513,170.9167206601757z" style="fill:rgb(138,40,220)"/><path d="M27.363575663286685,163.45801595252127L-6.403135581186428,169.81454134110754L4.757224245506242,168.33056292656102z" style="fill:rgb(83,212,212)"/><path d="M31.684605245294513,170.9167206601757L27.363575663286685,163.45801595252127L16.03305076954959,166.20977620680844z" style="fill:rgb(131,38,218)"/><path d="M54.08326804330715,163.654874289052L38.68671503045249,160.08563828691405L42.92000668643875,167.5879468403935z" style="fill:rgb(146,43,221)"/><path d="M27.363575663286685,163.45801595252127L4.757224245506242,168.33056292656102L16.03305076954959,166.20977620680844z" style="fill:rgb(83,212,212)"/><path d="M65.11215130399354,159.13664272647037L49.93966138156797,156.10760983550512L54.08326804330715,163.654874289052z" style="fill:rgb(153,46,222)"/><path d="M42.92000668643875,167.5879468403935L38.68671503045249,160.08563828691405L27.363575663286685,163.45801595252127z" style="fill:rgb(138,40,220)"/><path d="M70.85937427761097,156.44154036019827L61.059530065932734,151.54334530416054L65.11215130399354,159.13664272647037z" style="fill:rgb(160,49,222)"/><path d="M54.08326804330715,163.654874289052L49.93966138156797,156.10760983550512L38.68671503045249,160.08563828691405z" style="fill:rgb(146,43,221)"/><path d="M65.11215130399354,159.13664272647037L61.059530065932734,151.54334530416054L49.93966138156797,156.10760983550512z" style="fill:rgb(153,46,222)"/><path d="M70.85937427761097,156.44154036019827L66.85534868132882,148.82341237329706L61.059530065932734,151.54334530416054z" style="fill:rgb(160,49,222)"/><path d="M27.363575663286685,163.45801595252127L38.68671503045249,160.08563828691405L49.93966138156797,156.10760983550512zM27.363575663286685,163.45801595252127L49.93966138156797,156.10760983550512L61.059530065932734,151.54334530416054zM27.363575663286685,163.45801595252127L61.059530065932734,151.54334530416054L66.85534868132882,148.82341237329706z" style="fill:rgb(83,212,212)"/></svg>
