<?xml version="1.0" encoding="UTF-8"?>
<!-- Generated by jsxcad -->
<!DOCTYPE svg PUBLIC "-//W3C//DTD SVG 1.1 Tiny//EN" "http://www.w3.org/Graphics/SVG/1.1/DTD/svg11-tiny.dtd">
<svg viewBox="-250 -250 500 500" width="500" height="500" xmlns="http://www.w3.org/2000/svg"><path d="M12.764706302082582,-79.90425787747283L7.148411668988422,-84.94247062577834L10.389139919101778,-78.04031930320903z" style="fill:rgb(197,72,218)"/><path d="M15.175070277267185,-79.36108737845827L9.540772880456231,-86.81328647294153L12.764706302082582,-79.90425787747283z" style="fill:rgb(57,36,182)"/><path d="M12.764706302082582,-79.90425787747283L9.540772880456231,-86.81328647294153L7.148411668988422,-84.94247062577834z" style="fill:rgb(197,72,218)"/><path d="M7.148411668988422,-84.94247062577834L9.521059222595627,-88.78511948823693L7.124676449469106,-88.11730249680852zM9.540772880456231,-86.81328647294153L11.920277017222894,-89.45372653522342L9.521059222595627,-88.78511948823693z" style="fill:rgb(83,212,212)"/><path d="M15.175070277267185,-79.36108737845827L11.960035486073023,-86.27958363851147L9.540772880456231,-86.81328647294153z" style="fill:rgb(57,36,182)"/><path d="M7.148411668988422,-84.94247062577834L9.540772880456231,-86.81328647294153L9.521059222595627,-88.78511948823693zM9.540772880456231,-86.81328647294153L11.960035486073023,-86.27958363851147L11.920277017222894,-89.45372653522342zM3.6517403107522126,-73.96826512356323L6.579233379103844,-87.96530234846986L3.603727247460882,-86.68433603300323zM3.6517403107522126,-73.96826512356323L7.124676449469106,-88.11730249680852L6.579233379103844,-87.96530234846986zM-0.048353977606351406,-69.37612910420312L0.8461907498171258,-85.49720100803378L-0.04757838974757328,-84.96264803625056zM-0.048353977606351406,-69.37612910420312L3.603727247460882,-86.68433603300323L0.8461907498171258,-85.49720100803378zM12.075020173824706,-77.09970723951233L12.467158663559841,-89.60612757833306L11.920277017222894,-89.45372653522342zM12.075020173824706,-77.09970723951233L15.464755295219398,-89.98840304916357L12.467158663559841,-89.60612757833306zM-13.047431765032655,-65.29768363708826L-10.08753961179282,-77.54293509739509L-12.925048450788392,-74.45075484326938zM-14.826507489335382,-63.105570659374585L-12.925048450788392,-74.45075484326938L-13.00138147533954,-74.36756592518839zM7.21705477875351,-75.76074250097784L8.08294694879434,-83.24509570446281L7.148411668988422,-84.94247062577834zM15.671406293316574,-77.27875405750456L18.250662754442473,-90.34368247425303L15.464755295219398,-89.98840304916357zM-14.826507489335382,-63.105570659374585L-13.00138147533954,-74.36756592518839L-14.696134562428742,-71.70544574896903zM15.671406293316574,-77.27875405750456L19.15827106350491,-90.3093958109863L18.250662754442473,-90.34368247425303zM8.1421784955068,-76.22584679233145L9.57231570089072,-83.65826505158266L8.08294694879434,-83.24509570446281zM11.143906107477088,-77.0533457979168L11.960035486073023,-86.27958363851147L11.062778445950464,-84.07172917287004zM9.63909817413466,-76.97843498720722L11.062778445950464,-84.07172917287004L9.57231570089072,-83.65826505158266zM3.6517403107522126,-73.96826512356323L7.21705477875351,-75.76074250097784L7.124676449469106,-88.11730249680852z" style="fill:rgb(83,212,212)"/><path d="M12.895443053961305,-70.05947262664365L3.6517403107522126,-73.96826512356323L6.944881243902262,-67.06843683522021z" style="fill:rgb(164,51,222)"/><path d="M-6.830622811815024,-58.567361758924335L-13.047431765032655,-65.29768363708826L-9.650735697095126,-58.450950261604476z" style="fill:rgb(90,32,203)"/><path d="M-0.048353977606351406,-69.37612910420312L3.6517403107522126,-73.96826512356323L3.603727247460882,-86.68433603300323zM-10.367187741075249,-50.830613689844256L-0.04757838974757328,-84.96264803625056L-4.480528812940559,-82.31138575732693z" style="fill:rgb(83,212,212)"/><path d="M-9.650735697095126,-58.450950261604476L-14.826507489335382,-63.105570659374585L-11.414345501859327,-56.263452395095264z" style="fill:rgb(224,99,205)"/><path d="M-13.047431765032655,-65.29768363708826L-10.21440895734578,-65.42422868566327L-10.08753961179282,-77.54293509739509z" style="fill:rgb(83,212,212)"/><path d="M18.899693580243856,-70.33803895486912L9.63909817413466,-76.97843498720722L12.895443053961305,-70.05947262664365z" style="fill:rgb(90,32,203)"/><path d="M-10.367187741075249,-50.830613689844256L-4.480528812940559,-82.31138575732693L-9.166241297017296,-78.54692073769299zM-14.826507489335382,-63.105570659374585L-13.047431765032655,-65.29768363708826L-12.925048450788392,-74.45075484326938zM-16.964238555156424,-57.30918325664215L-14.696134562428742,-71.70544574896903L-15.809677425857098,-69.95628546219048zM7.21705477875351,-75.76074250097784L8.1421784955068,-76.22584679233145L8.08294694879434,-83.24509570446281z" style="fill:rgb(83,212,212)"/><path d="M6.944881243902262,-67.06843683522021L-0.048353977606351406,-69.37612910420312L3.2768139239936804,-62.485760560122074z" style="fill:rgb(224,99,205)"/><path d="M8.1421784955068,-76.22584679233145L9.63909817413466,-76.97843498720722L9.57231570089072,-83.65826505158266zM11.143906107477088,-77.0533457979168L12.075020173824706,-77.09970723951233L11.960035486073023,-86.27958363851147zM-10.367187741075249,-50.830613689844256L-9.166241297017296,-78.54692073769299L-10.08753961179282,-77.54293509739509zM12.075020173824706,-77.09970723951233L15.671406293316574,-77.27875405750456L15.464755295219398,-89.98840304916357z" style="fill:rgb(83,212,212)"/><path d="M12.895443053961305,-70.05947262664365L9.63909817413466,-76.97843498720722L3.6517403107522126,-73.96826512356323z" style="fill:rgb(164,51,222)"/><path d="M9.63909817413466,-76.97843498720722L11.143906107477088,-77.0533457979168L11.062778445950464,-84.07172917287004z" style="fill:rgb(83,212,212)"/><path d="M-9.650735697095126,-58.450950261604476L-13.047431765032655,-65.29768363708826L-14.826507489335382,-63.105570659374585zM6.944881243902262,-67.06843683522021L3.6517403107522126,-73.96826512356323L-0.048353977606351406,-69.37612910420312z" style="fill:rgb(224,99,205)"/><path d="M-6.830622811815024,-58.567361758924335L-10.21440895734578,-65.42422868566327L-13.047431765032655,-65.29768363708826z" style="fill:rgb(90,32,203)"/><path d="M-16.964238555156424,-57.30918325664215L-15.809677425857098,-69.95628546219048L-17.45569442893025,-65.50892184716118zM56.211020398266925,-40.63208259669231L-22.563191459608316,-69.46731418316963L-27.092953289562036,-67.29768752265474zM56.211020398266925,-40.63208259669231L-13.889449520269654,-73.21745562900557L-22.563191459608316,-69.46731418316963z" style="fill:rgb(83,212,212)"/><path d="M18.899693580243856,-70.33803895486912L15.671406293316574,-77.27875405750456L9.63909817413466,-76.97843498720722z" style="fill:rgb(90,32,203)"/><path d="M56.211020398266925,-40.63208259669231L-5.10005052445002,-76.61884792277925L-13.889449520269654,-73.21745562900557z" style="fill:rgb(83,212,212)"/><path d="M22.691534402850227,-67.77846069091201L15.671406293316574,-77.27875405750456L18.899693580243856,-70.33803895486912z" style="fill:rgb(30,49,155)"/><path d="M15.671406293316574,-77.27875405750456L19.47208166986685,-74.7352651831877L19.15827106350491,-90.3093958109863zM56.211020398266925,-40.63208259669231L3.781776917534334,-79.66113106553918L-5.10005052445002,-76.61884792277925z" style="fill:rgb(83,212,212)"/><path d="M3.2768139239936804,-62.485760560122074L-0.04857557006733831,-64.92292393965215L3.291737061192672,-58.028922140625305z" style="fill:rgb(247,158,158)"/><path d="M-16.964238555156424,-57.30918325664215L-17.45569442893025,-65.50892184716118L-17.851825504012922,-61.22692736218529z" style="fill:rgb(83,212,212)"/><path d="M3.2768139239936804,-62.485760560122074L-0.048353977606351406,-69.37612910420312L-0.04857557006733831,-64.92292393965215z" style="fill:rgb(247,158,158)"/><path d="M56.211020398266925,-40.63208259669231L12.732435340466287,-82.33433727278243L3.781776917534334,-79.66113106553918zM-16.964238555156424,-57.30918325664215L-14.961966827355054,-54.170173025825804L-14.696134562428742,-71.70544574896903z" style="fill:rgb(83,212,212)"/><path d="M-11.372976300872022,-47.09401485361544L-16.964238555156424,-57.30918325664215L-13.522361450923967,-50.470234153517104z" style="fill:rgb(16,65,132)"/><path d="M56.211020398266925,-40.63208259669231L21.72793767191827,-84.62897044673963L12.732435340466287,-82.33433727278243zM29.81191216368888,-76.40152190199669L32.38219915020575,-86.98609815140497L29.438003671358643,-88.5012220210756z" style="fill:rgb(83,212,212)"/><path d="M22.691534402850227,-67.77846069091201L19.47208166986685,-74.7352651831877L15.671406293316574,-77.27875405750456z" style="fill:rgb(30,49,155)"/><path d="M19.888198008936932,-54.083795507990715L23.671805156838843,-90.1388830729495L19.15827106350491,-90.3093958109863zM32.69229358106538,-77.84927010385388L32.46151840225459,-86.94527792961439L32.38219915020575,-86.98609815140497zM-14.961966827355054,-54.170173025825804L-13.093264963866469,-61.86981724943393L-14.826507489335382,-63.105570659374585zM56.211020398266925,-40.63208259669231L30.743857035105297,-86.53596233602725L21.72793767191827,-84.62897044673963zM32.69229358106538,-77.84927010385388L34.24068990355284,-85.21762750812204L32.46151840225459,-86.94527792961439zM-13.21631042033542,-52.66722838790401L-10.236585488351949,-63.30589181854328L-13.093264963866469,-61.86981724943393zM19.888198008936932,-54.083795507990715L28.483869865832883,-88.9922331503673L23.671805156838843,-90.1388830729495z" style="fill:rgb(83,212,212)"/><path d="M35.84113943243733,-70.84685790587902L29.81191216368888,-76.40152190199669L32.97866474285855,-69.40842023223472z" style="fill:rgb(164,51,222)"/><path d="M-11.372976300872022,-47.09401485361544L-14.817113101532849,-53.943081908269484L-16.964238555156424,-57.30918325664215z" style="fill:rgb(16,65,132)"/><path d="M56.211020398266925,-40.63208259669231L39.75528425994382,-88.04670592290466L30.743857035105297,-86.53596233602725z" style="fill:rgb(83,212,212)"/><path d="M37.69230587587916,-69.62357026384345L32.69229358106538,-77.84927010385388L35.84113943243733,-70.84685790587902z" style="fill:rgb(30,49,155)"/><path d="M-8.056203832903877,-44.432369737168244L-14.817113101532849,-53.943081908269484L-11.372976300872022,-47.09401485361544z" style="fill:rgb(28,51,152)"/><path d="M29.81191216368888,-76.40152190199669L32.69229358106538,-77.84927010385388L32.38219915020575,-86.98609815140497zM19.888198008936932,-54.083795507990715L29.438003671358643,-88.5012220210756L28.483869865832883,-88.9922331503673z" style="fill:rgb(83,212,212)"/><path d="M32.97866474285855,-69.40842023223472L29.87728014615049,-74.28621026452774L33.05052334191407,-67.29112421369511z" style="fill:rgb(247,158,158)"/><path d="M-14.961966827355054,-54.170173025825804L-13.21631042033542,-52.66722838790401L-13.093264963866469,-61.86981724943393zM-10.367187741075249,-50.830613689844256L-0.04938223062963376,-48.71195579463506L-0.04757838974757328,-84.96264803625056z" style="fill:rgb(83,212,212)"/><path d="M35.84113943243733,-70.84685790587902L32.69229358106538,-77.84927010385388L29.81191216368888,-76.40152190199669z" style="fill:rgb(164,51,222)"/><path d="M56.211020398266925,-40.63208259669231L48.736812105856764,-89.1531245906651L39.75528425994382,-88.04670592290466z" style="fill:rgb(83,212,212)"/><path d="M40.30173734255651,-73.50497725633639L37.67409411928405,-76.426042039617L40.804379685720285,-69.40426034120335z" style="fill:rgb(247,163,153)"/><path d="M32.69229358106538,-77.84927010385388L34.548167010892264,-76.63376517861613L34.24068990355284,-85.21762750812204z" style="fill:rgb(83,212,212)"/><path d="M32.97866474285855,-69.40842023223472L29.81191216368888,-76.40152190199669L29.87728014615049,-74.28621026452774zM56.211020398266925,-40.63208259669231L56.76330300880609,-81.78898952548707L53.46425684731399,-89.52097762818046z" style="fill:rgb(247,158,158)"/><path d="M40.30173734255651,-73.50497725633639L37.18212588454686,-80.521533752484L37.67409411928405,-76.426042039617z" style="fill:rgb(247,163,153)"/><path d="M37.69230587587916,-69.62357026384345L34.548167010892264,-76.63376517861613L32.69229358106538,-77.84927010385388z" style="fill:rgb(30,49,155)"/><path d="M-13.21631042033542,-52.66722838790401L-10.367187741075249,-50.830613689844256L-10.236585488351949,-63.30589181854328zM34.867710852699666,-67.71305620534461L35.41136072667419,-84.08084897591601L34.24068990355284,-85.21762750812204zM-14.961966827355054,-54.170173025825804L-14.817113101532849,-53.943081908269484L-13.21631042033542,-52.66722838790401zM56.211020398266925,-40.63208259669231L53.46425684731399,-89.52097762818046L48.736812105856764,-89.1531245906651z" style="fill:rgb(83,212,212)"/><path d="M-8.056203832903877,-44.432369737168244L-11.494703354937174,-51.29508828912704L-14.817113101532849,-53.943081908269484z" style="fill:rgb(28,51,152)"/><path d="M-3.715390918573428,-42.621982462598865L-11.494703354937174,-51.29508828912704L-8.056203832903877,-44.432369737168244z" style="fill:rgb(45,40,171)"/><path d="M34.867710852699666,-67.71305620534461L37.18212588454686,-80.521533752484L35.41136072667419,-84.08084897591601z" style="fill:rgb(83,212,212)"/><path d="M40.804379685720285,-69.40426034120335L36.8469098752284,-71.98334881238364L39.99510901544297,-64.9611026211702z" style="fill:rgb(245,143,172)"/><path d="M-0.04938223062963376,-48.71195579463506L3.695756488034256,-62.310761228784L-0.04857557006733831,-64.92292393965215z" style="fill:rgb(83,212,212)"/><path d="M40.804379685720285,-69.40426034120335L37.67409411928405,-76.426042039617L36.8469098752284,-71.98334881238364z" style="fill:rgb(245,143,172)"/><path d="M-13.21631042033542,-52.66722838790401L-11.494703354937174,-51.29508828912704L-10.367187741075249,-50.830613689844256zM56.211020398266925,-40.63208259669231L-27.092953289562036,-67.29768752265474L-28.45614788804035,-18.299529172070123z" style="fill:rgb(83,212,212)"/><path d="M-3.715390918573428,-42.621982462598865L-7.140447086545581,-49.50135555781272L-11.494703354937174,-51.29508828912704z" style="fill:rgb(45,40,171)"/><path d="M1.4516971527460516,-41.76074778183038L-7.140447086545581,-49.50135555781272L-3.715390918573428,-42.621982462598865z" style="fill:rgb(65,34,188)"/><path d="M34.867710852699666,-67.71305620534461L37.67409411928405,-76.426042039617L37.18212588454686,-80.521533752484zM8.319783638551298,-55.17870593079161L9.783130969149004,-62.5717377221978L8.257949688448495,-62.50635329240564z" style="fill:rgb(83,212,212)"/><path d="M9.63909817413466,-76.97843498720722L-23.83895726743401,-131.5671452023755L3.6517403107522126,-73.96826512356323z" style="fill:rgb(164,51,222)"/><path d="M7.388371549693187,-52.845346922747886L8.257949688448495,-62.50635329240564L7.316447131160317,-62.46598413984361zM3.746704498958839,-48.81739388629467L7.316447131160317,-62.46598413984361L3.695756488034256,-62.310761228784zM9.852898112534987,-55.59336987721712L11.30247693885621,-63.33532575689181L9.783130969149004,-62.5717377221978zM11.38717174907993,-56.008347056490145L12.241517838876462,-63.807259212016454L11.30247693885621,-63.33532575689181z" style="fill:rgb(83,212,212)"/><path d="M39.99510901544297,-64.9611026211702L34.724676563310766,-67.40444763753466L37.89734471208032,-60.38656104393043z" style="fill:rgb(238,122,189)"/><path d="M33.1203057348379,-65.23803603415334L34.548167010892264,-76.63376517861613L32.80844246965842,-74.42698218966318z" style="fill:rgb(83,212,212)"/><path d="M14.705482464726954,-49.06686277130571L8.319783638551298,-55.17870593079161L11.654987734916357,-48.24767879570602z" style="fill:rgb(127,37,217)"/><path d="M-23.83895726743401,-131.5671452023755L-0.048353977606351406,-69.37612910420312L3.6517403107522126,-73.96826512356323z" style="fill:rgb(224,99,205)"/><path d="M19.888198008936932,-54.083795507990715L30.262303044241957,-61.82684734165832L29.438003671358643,-88.5012220210756z" style="fill:rgb(83,212,212)"/><path d="M15.671406293316574,-77.27875405750456L-17.544549885173314,-134.73721244803352L9.63909817413466,-76.97843498720722z" style="fill:rgb(90,32,203)"/><path d="M30.262303044241957,-61.82684734165832L32.80844246965842,-74.42698218966318L29.87728014615049,-74.28621026452774z" style="fill:rgb(83,212,212)"/><path d="M39.99510901544297,-64.9611026211702L36.8469098752284,-71.98334881238364L34.724676563310766,-67.40444763753466z" style="fill:rgb(238,122,189)"/><path d="M16.080185010382372,-52.137646895002405L19.56174911619753,-70.28515261878194L15.86086863262831,-65.62625433960424z" style="fill:rgb(83,212,212)"/><path d="M11.654987734916357,-48.24767879570602L7.388371549693187,-52.845346922747886L10.735677274844296,-45.91620273776868z" style="fill:rgb(241,128,184)"/><path d="M15.68186291911132,-47.24191705559321L11.38717174907993,-56.008347056490145L14.705482464726954,-49.06686277130571z" style="fill:rgb(13,70,126)"/><path d="M34.867710852699666,-67.71305620534461L36.8469098752284,-71.98334881238364L37.67409411928405,-76.426042039617zM12.40382894075663,-50.84904814426914L15.86086863262831,-65.62625433960424L12.241517838876462,-63.807259212016454zM-10.367187741075249,-50.830613689844256L-7.140447086545581,-49.50135555781272L-1.9526318573539267,-48.659094163137645zM8.319783638551298,-55.17870593079161L9.852898112534987,-55.59336987721712L9.783130969149004,-62.5717377221978z" style="fill:rgb(83,212,212)"/><path d="M1.4516971527460516,-41.76074778183038L-1.9526318573539267,-48.659094163137645L-7.140447086545581,-49.50135555781272z" style="fill:rgb(65,34,188)"/><path d="M7.20108380598242,-41.90072409298991L-1.9526318573539267,-48.659094163137645L1.4516971527460516,-41.76074778183038z" style="fill:rgb(89,32,203)"/><path d="M7.388371549693187,-52.845346922747886L8.319783638551298,-55.17870593079161L8.257949688448495,-62.50635329240564zM9.852898112534987,-55.59336987721712L11.38717174907993,-56.008347056490145L11.30247693885621,-63.33532575689181z" style="fill:rgb(83,212,212)"/><path d="M14.705482464726954,-49.06686277130571L11.38717174907993,-56.008347056490145L8.319783638551298,-55.17870593079161z" style="fill:rgb(127,37,217)"/><path d="M11.654987734916357,-48.24767879570602L8.319783638551298,-55.17870593079161L7.388371549693187,-52.845346922747886z" style="fill:rgb(241,128,184)"/><path d="M33.1203057348379,-65.23803603415334L34.867710852699666,-67.71305620534461L34.548167010892264,-76.63376517861613zM-0.04938223062963376,-48.71195579463506L3.746704498958839,-48.81739388629467L3.695756488034256,-62.310761228784z" style="fill:rgb(83,212,212)"/><path d="M37.89734471208032,-60.38656104393043L31.397687330966185,-62.911951014883726L34.60030784777704,-55.903022674140956z" style="fill:rgb(226,102,203)"/><path d="M11.38717174907993,-56.008347056490145L12.36200586566619,-54.18802020623148L12.241517838876462,-63.807259212016454zM-10.367187741075249,-50.830613689844256L-1.9526318573539267,-48.659094163137645L-0.04938223062963376,-48.71195579463506z" style="fill:rgb(83,212,212)"/><path d="M19.47208166986685,-74.7352651831877L-11.28253127051038,-135.22889550998207L15.671406293316574,-77.27875405750456z" style="fill:rgb(30,49,155)"/><path d="M15.68186291911132,-47.24191705559321L12.36200586566619,-54.18802020623148L11.38717174907993,-56.008347056490145z" style="fill:rgb(13,70,126)"/><path d="M37.89734471208032,-60.38656104393043L34.724676563310766,-67.40444763753466L31.397687330966185,-62.911951014883726z" style="fill:rgb(226,102,203)"/><path d="M30.262303044241957,-61.82684734165832L33.1203057348379,-65.23803603415334L32.80844246965842,-74.42698218966318zM3.746704498958839,-48.81739388629467L7.413337117145011,-49.50594325050074L7.316447131160317,-62.46598413984361z" style="fill:rgb(83,212,212)"/><path d="M13.254211531844359,-43.043361481386476L3.823812901993152,-48.81953416764356L7.20108380598242,-41.90072409298991z" style="fill:rgb(114,34,213)"/><path d="M7.20108380598242,-41.90072409298991L3.823812901993152,-48.81953416764356L-1.9526318573539267,-48.659094163137645z" style="fill:rgb(89,32,203)"/><path d="M34.60030784777704,-55.903022674140956L27.020033961914173,-58.72814865578569L30.256667961436296,-51.73230000597799z" style="fill:rgb(209,83,214)"/><path d="M-0.048353977606351406,-69.37612910420312L-27.944944298741444,-122.49766186851286L-0.04857557006733831,-64.92292393965215z" style="fill:rgb(247,158,158)"/><path d="M16.080185010382372,-52.137646895002405L19.888198008936932,-54.083795507990715L19.56174911619753,-70.28515261878194zM33.1203057348379,-65.23803603415334L34.724676563310766,-67.40444763753466L34.867710852699666,-67.71305620534461z" style="fill:rgb(83,212,212)"/><path d="M19.312830666219373,-45.137839141067325L9.90898672271458,-49.98317953903059L13.254211531844359,-43.043361481386476z" style="fill:rgb(140,41,220)"/><path d="M12.40382894075663,-50.84904814426914L16.080185010382372,-52.137646895002405L15.86086863262831,-65.62625433960424z" style="fill:rgb(83,212,212)"/><path d="M30.256667961436296,-51.73230000597799L21.80280972885915,-55.06229369637216L25.07581444452058,-48.082934030049834z" style="fill:rgb(189,66,220)"/><path d="M34.60030784777704,-55.903022674140956L31.397687330966185,-62.911951014883726L27.020033961914173,-58.72814865578569z" style="fill:rgb(209,83,214)"/><path d="M56.211020398266925,-40.63208259669231L59.658604953053384,-32.85696204938774L56.76330300880609,-81.78898952548707z" style="fill:rgb(247,158,158)"/><path d="M25.07581444452058,-48.082934030049834L16.0029814630028,-52.09818783808676L19.312830666219373,-45.137839141067325z" style="fill:rgb(165,51,222)"/><path d="M13.254211531844359,-43.043361481386476L9.90898672271458,-49.98317953903059L3.823812901993152,-48.81953416764356z" style="fill:rgb(114,34,213)"/><path d="M7.413337117145011,-49.50594325050074L9.886542089588946,-52.22817055678382L7.388371549693187,-52.845346922747886zM30.262303044241957,-61.82684734165832L31.397687330966185,-62.911951014883726L33.1203057348379,-65.23803603415334zM9.90898672271458,-49.98317953903059L12.36200586566619,-54.18802020623148L9.886542089588946,-52.22817055678382z" style="fill:rgb(83,212,212)"/><path d="M30.256667961436296,-51.73230000597799L27.020033961914173,-58.72814865578569L21.80280972885915,-55.06229369637216z" style="fill:rgb(189,66,220)"/><path d="M3.746704498958839,-48.81739388629467L3.823812901993152,-48.81953416764356L7.413337117145011,-49.50594325050074z" style="fill:rgb(83,212,212)"/><path d="M19.312830666219373,-45.137839141067325L16.0029814630028,-52.09818783808676L9.90898672271458,-49.98317953903059z" style="fill:rgb(140,41,220)"/><path d="M25.07581444452058,-48.082934030049834L21.80280972885915,-55.06229369637216L16.0029814630028,-52.09818783808676z" style="fill:rgb(165,51,222)"/><path d="M7.413337117145011,-49.50594325050074L9.90898672271458,-49.98317953903059L9.886542089588946,-52.22817055678382z" style="fill:rgb(83,212,212)"/><path d="M-1.0688890052481137,-135.59198908398318L26.193261956912195,-73.27282305261683L25.518765728700153,-77.32440013261652z" style="fill:rgb(246,166,149)"/><path d="M9.90898672271458,-49.98317953903059L12.40382894075663,-50.84904814426914L12.36200586566619,-54.18802020623148zM19.888198008936932,-54.083795507990715L27.020033961914173,-58.72814865578569L30.262303044241957,-61.82684734165832z" style="fill:rgb(83,212,212)"/><path d="M-1.3584984396452924,-58.203627752677185L-33.20114070328517,-118.0990410806398L-4.994676043861,-60.63977550535599z" style="fill:rgb(31,48,157)"/><path d="M19.888198008936932,-54.083795507990715L21.80280972885915,-55.06229369637216L27.020033961914173,-58.72814865578569zM12.40382894075663,-50.84904814426914L16.0029814630028,-52.09818783808676L16.080185010382372,-52.137646895002405z" style="fill:rgb(83,212,212)"/><path d="M-0.48507852149449016,-131.60449082004644L24.627259783443883,-68.7180896178604L26.193261956912195,-73.27282305261683z" style="fill:rgb(242,132,181)"/><path d="M3.8162637746812607,-57.3331604112741L-29.505274981188414,-115.80166225280233L-1.3584984396452924,-58.203627752677185z" style="fill:rgb(64,34,187)"/><path d="M9.63909817413466,-76.97843498720722L-17.544549885173314,-134.73721244803352L-23.83895726743401,-131.5671452023755z" style="fill:rgb(164,51,222)"/><path d="M57.09145743278266,-36.26565878728263L-28.45614788804035,-18.299529172070123L-29.18236308770285,-13.60600099791378z" style="fill:rgb(83,212,212)"/><path d="M24.627259783443883,-68.7180896178604L-6.118964137266259,-122.5394953753382L21.013156040990978,-64.2857326390292z" style="fill:rgb(223,97,206)"/><path d="M-23.83895726743401,-131.5671452023755L-27.81086332205019,-126.90522892078374L-0.048353977606351406,-69.37612910420312z" style="fill:rgb(224,99,205)"/><path d="M15.671406293316574,-77.27875405750456L-11.28253127051038,-135.22889550998207L-17.544549885173314,-134.73721244803352z" style="fill:rgb(90,32,203)"/><path d="M-17.90493454402004,-116.11916058549183L3.8162637746812607,-57.3331604112741L9.827183920688752,-58.16539428220833z" style="fill:rgb(105,33,210)"/><path d="M-6.118964137266259,-122.5394953753382L15.840000318261158,-60.59525101981286L21.013156040990978,-64.2857326390292z" style="fill:rgb(190,67,220)"/><path d="M15.840000318261158,-60.59525101981286L-17.90493454402004,-116.11916058549183L9.827183920688752,-58.16539428220833z" style="fill:rgb(149,44,221)"/><path d="M4.310323140673883,1.940839824358517L-131.1437941639493,35.91790616977072L-131.4678800370934,36.786760393959185z" style="fill:rgb(83,212,212)"/><path d="M-0.048353977606351406,-69.37612910420312L-27.81086332205019,-126.90522892078374L-27.944944298741444,-122.49766186851286z" style="fill:rgb(247,158,158)"/><path d="M-1.7042183184566095,5.088069985970779L-131.4678800370934,36.786760393959185L-132.10805781588795,38.50302068325971zM59.20413126117594,-32.35741487973903L-29.18236308770285,-13.60600099791378L-31.090821232234315,-8.739769401995378zM-7.2796479092512385,8.870053592338259L-132.10805781588795,38.50302068325971L-133.04841776605355,41.02402719273551z" style="fill:rgb(83,212,212)"/><path d="M19.47208166986685,-74.7352651831877L-7.415319973150108,-132.83526985043554L-11.28253127051038,-135.22889550998207z" style="fill:rgb(30,49,155)"/><path d="M57.09145743278266,-36.26565878728263L56.211020398266925,-40.63208259669231L-28.45614788804035,-18.299529172070123zM-12.26769525284995,13.18863043315835L-133.04841776605355,41.02402719273551L-133.73415082446556,42.86241146727504zM-12.26769525284995,13.18863043315835L-133.73415082446556,42.86241146727504L-134.15837183853407,44.259181927781974zM62.48519779672536,-29.064816531417353L-31.090821232234315,-8.739769401995378L-34.118186562116286,-3.8947173499722476z" style="fill:rgb(83,212,212)"/><path d="M59.658604953053384,-32.85696204938774L57.09145743278266,-36.26565878728263L60.54871141125521,-28.48591448147614zM59.658604953053384,-32.85696204938774L56.211020398266925,-40.63208259669231L57.09145743278266,-36.26565878728263z" style="fill:rgb(246,167,149)"/><path d="M59.20413126117594,-32.35741487973903L57.09145743278266,-36.26565878728263L-29.18236308770285,-13.60600099791378zM-16.533070917035502,17.93189121109619L-134.15837183853407,44.259181927781974L-135.32645615462056,48.10515711289483z" style="fill:rgb(83,212,212)"/><path d="M-1.0688890052481137,-135.59198908398318L-0.48507852149449016,-131.60449082004644L26.193261956912195,-73.27282305261683z" style="fill:rgb(246,166,149)"/><path d="M66.82283837841389,-26.525585728781397L-34.118186562116286,-3.8947173499722476L-38.152217727080604,0.7321141417630698z" style="fill:rgb(83,212,212)"/><path d="M-1.3584984396452924,-58.203627752677185L-29.505274981188414,-115.80166225280233L-33.20114070328517,-118.0990410806398z" style="fill:rgb(31,48,157)"/><path d="M-23.83895726743401,-131.5671452023755L-20.58651686773364,-137.8245022847016L-23.719624950834454,-136.12014461207062zM-23.83895726743401,-131.5671452023755L-17.46710167453776,-138.73831078341254L-20.58651686773364,-137.8245022847016zM-19.95653481598247,22.976125305621835L-135.32645615462056,48.10515711289483L-136.07046203526974,50.55484658311677zM-17.544549885173314,-134.73721244803352L-14.342848664181414,-139.65353648315724L-17.46710167453776,-138.73831078341254zM-27.81086332205019,-126.90522892078374L-23.719624950834454,-136.12014461207062L-26.434349930949434,-134.64338021272047zM-27.81086332205019,-126.90522892078374L-26.434349930949434,-134.64338021272047L-27.60679039173003,-133.61360799337942zM-17.544549885173314,-134.73721244803352L-11.22587807078895,-139.77763935752677L-14.342848664181414,-139.65353648315724zM-19.95653481598247,22.976125305621835L-136.07046203526974,50.55484658311677L-136.51570446638655,52.461061128480104zM-23.83895726743401,-131.5671452023755L-17.544549885173314,-134.73721244803352L-17.46710167453776,-138.73831078341254zM72.05927235137642,-24.85069776801994L-38.152217727080604,0.7321141417630698L-43.03533502964785,4.949829442218551zM62.48519779672536,-29.064816531417353L59.20413126117594,-32.35741487973903L-31.090821232234315,-8.739769401995378z" style="fill:rgb(83,212,212)"/><path d="M-0.48507852149449016,-131.60449082004644L-2.2406185409350017,-127.04501766297749L24.627259783443883,-68.7180896178604z" style="fill:rgb(242,132,181)"/><path d="M-1.7042183184566095,5.088069985970779L4.310323140673883,1.940839824358517L-131.4678800370934,36.786760393959185zM4.310323140673883,1.940839824358517L10.60561670621842,-0.48889859186844736L-131.1437941639493,35.91790616977072zM-27.81086332205019,-126.90522892078374L-23.83895726743401,-131.5671452023755L-23.719624950834454,-136.12014461207062zM169.90591239697736,-41.40346433487893L-129.09452584400992,31.170617189755173L-130.87944337913063,35.20921594075037zM-7.2796479092512385,8.870053592338259L-1.7042183184566095,5.088069985970779L-132.10805781588795,38.50302068325971z" style="fill:rgb(83,212,212)"/><path d="M3.8162637746812607,-57.3331604112741L-24.16505267754459,-115.10354896569977L-29.505274981188414,-115.80166225280233z" style="fill:rgb(64,34,187)"/><path d="M-11.28253127051038,-135.22889550998207L-8.517299712459636,-139.88549673219438L-11.22587807078895,-139.77763935752677zM-17.544549885173314,-134.73721244803352L-11.28253127051038,-135.22889550998207L-11.22587807078895,-139.77763935752677zM169.90591239697736,-41.40346433487893L-130.87944337913063,35.20921594075037L-131.1437941639493,35.91790616977072zM77.99534804888692,-24.1181425327576L-43.03533502964785,4.949829442218551L-48.571046978413094,8.583039181446948zM-33.20114070328517,-118.0990410806398L-27.60679039173003,-133.61360799337942L-31.12514056244515,-130.52339526430873zM-11.28253127051038,-135.22889550998207L-7.360633086300541,-139.53371090061816L-8.517299712459636,-139.88549673219438zM-12.26769525284995,13.18863043315835L-7.2796479092512385,8.870053592338259L-133.04841776605355,41.02402719273551z" style="fill:rgb(83,212,212)"/><path d="M24.627259783443883,-68.7180896178604L-2.2406185409350017,-127.04501766297749L-6.118964137266259,-122.5394953753382z" style="fill:rgb(223,97,206)"/><path d="M-22.437834362502162,28.187989184456736L-136.51570446638655,52.461061128480104L-137.62112898033564,57.19366125171143zM84.39765297370732,-24.367703114233613L-48.571046978413094,8.583039181446948L-54.53278672182586,11.480757137684993z" style="fill:rgb(83,212,212)"/><path d="M-17.90493454402004,-116.11916058549183L-24.16505267754459,-115.10354896569977L3.8162637746812607,-57.3331604112741z" style="fill:rgb(105,33,210)"/><path d="M91.00825132625457,-25.59756640186576L-54.53278672182586,11.480757137684993L-60.67492905844631,13.524059480721725zM-33.20114070328517,-118.0990410806398L-31.12514056244515,-130.52339526430873L-34.038677510763634,-125.99853675578859zM66.82283837841389,-26.525585728781397L62.48519779672536,-29.064816531417353L-34.118186562116286,-3.8947173499722476zM-16.533070917035502,17.93189121109619L-12.26769525284995,13.18863043315835L-134.15837183853407,44.259181927781974zM-11.28253127051038,-135.22889550998207L-7.415319973150108,-132.83526985043554L-7.360633086300541,-139.53371090061816z" style="fill:rgb(83,212,212)"/><path d="M-6.118964137266259,-122.5394953753382L-11.594664881355683,-118.71821369332778L15.840000318261158,-60.59525101981286z" style="fill:rgb(190,67,220)"/><path d="M15.840000318261158,-60.59525101981286L-11.594664881355683,-118.71821369332778L-17.90493454402004,-116.11916058549183z" style="fill:rgb(149,44,221)"/><path d="M-23.898727205585402,33.42703384171936L-137.62112898033564,57.19366125171143L-137.87057760363209,58.26156325150415zM-33.20114070328517,-118.0990410806398L-34.038677510763634,-125.99853675578859L-34.77265523103405,-121.66283293768326z" style="fill:rgb(83,212,212)"/><path d="M8.189238233671343,9.524328257912902L-1.7042183184566095,5.088069985970779L2.2187635125134326,12.64897109874374z" style="fill:rgb(167,52,222)"/><path d="M14.441559430327475,7.118162961226591L4.310323140673883,1.940839824358517L8.189238233671343,9.524328257912902z" style="fill:rgb(147,43,221)"/><path d="M2.2187635125134326,12.64897109874374L-7.2796479092512385,8.870053592338259L-3.3125585803671402,16.40989255854136z" style="fill:rgb(185,63,221)"/><path d="M-23.898727205585402,33.42703384171936L-137.87057760363209,58.26156325150415L-138.5003016095906,62.147441855898805zM-19.95653481598247,22.976125305621835L-16.533070917035502,17.93189121109619L-135.32645615462056,48.10515711289483zM72.05927235137642,-24.85069776801994L66.82283837841389,-26.525585728781397L-38.152217727080604,0.7321141417630698z" style="fill:rgb(83,212,212)"/><path d="M20.811336290757392,5.495631945261853L10.60561670621842,-0.48889859186844736L14.441559430327475,7.118162961226591z" style="fill:rgb(127,37,217)"/><path d="M-33.20114070328517,-118.0990410806398L-28.154014330118205,-115.6250158281733L-27.60679039173003,-133.61360799337942z" style="fill:rgb(83,212,212)"/><path d="M-3.3125585803671402,16.40989255854136L-12.26769525284995,13.18863043315835L-8.257534108313912,20.70941542385866z" style="fill:rgb(202,76,217)"/><path d="M8.189238233671343,9.524328257912902L4.310323140673883,1.940839824358517L-1.7042183184566095,5.088069985970779z" style="fill:rgb(167,52,222)"/><path d="M-7.507285793625316,-121.57063393472475L-3.88157494413579,-138.4755893970312L-7.360633086300541,-139.53371090061816z" style="fill:rgb(83,212,212)"/><path d="M2.2187635125134326,12.64897109874374L-1.7042183184566095,5.088069985970779L-7.2796479092512385,8.870053592338259z" style="fill:rgb(185,63,221)"/><path d="M14.441559430327475,7.118162961226591L10.60561670621842,-0.48889859186844736L4.310323140673883,1.940839824358517z" style="fill:rgb(147,43,221)"/><path d="M27.13012678964221,4.703441423644544L17.01624847600776,-2.135400450984829L20.811336290757392,5.495631945261853z" style="fill:rgb(107,33,211)"/><path d="M-3.3125585803671402,16.40989255854136L-7.2796479092512385,8.870053592338259L-12.26769525284995,13.18863043315835z" style="fill:rgb(202,76,217)"/><path d="M-8.257534108313912,20.70941542385866L-16.533070917035502,17.93189121109619L-12.48196138672529,25.436052669052437z" style="fill:rgb(217,91,210)"/><path d="M20.811336290757392,5.495631945261853L17.01624847600776,-2.135400450984829L10.60561670621842,-0.48889859186844736z" style="fill:rgb(127,37,217)"/><path d="M77.99534804888692,-24.1181425327576L72.05927235137642,-24.85069776801994L-43.03533502964785,4.949829442218551zM-24.285868242906545,38.548681548185115L-138.5003016095906,62.147441855898805L-139.11758429014412,65.95649082558926zM-22.437834362502162,28.187989184456736L-19.95653481598247,22.976125305621835L-136.51570446638655,52.461061128480104zM-7.507285793625316,-121.57063393472475L-1.0688890052481137,-135.59198908398318L-3.88157494413579,-138.4755893970312z" style="fill:rgb(83,212,212)"/><path d="M33.22875439479563,4.768516527393114L23.37279488777303,-2.951325136557114L27.13012678964221,4.703441423644544z" style="fill:rgb(87,32,202)"/><path d="M-8.257534108313912,20.70941542385866L-12.26769525284995,13.18863043315835L-16.533070917035502,17.93189121109619z" style="fill:rgb(217,91,210)"/><path d="M-24.285868242906545,38.548681548185115L-139.11758429014412,65.95649082558926L-139.2286985346733,67.21102052328449z" style="fill:rgb(83,212,212)"/><path d="M27.13012678964221,4.703441423644544L23.37279488777303,-2.951325136557114L17.01624847600776,-2.135400450984829z" style="fill:rgb(107,33,211)"/><path d="M-28.154014330118205,-115.6250158281733L-24.14132495570627,-120.03063407600196L-27.944944298741444,-122.49766186851286zM84.39765297370732,-24.367703114233613L77.99534804888692,-24.1181425327576L-48.571046978413094,8.583039181446948z" style="fill:rgb(83,212,212)"/><path d="M-12.48196138672529,25.436052669052437L-19.95653481598247,22.976125305621835L-15.867684499005527,30.466465245275796z" style="fill:rgb(229,106,201)"/><path d="M-33.20114070328517,-118.0990410806398L-29.505274981188414,-115.80166225280233L-28.154014330118205,-115.6250158281733zM91.00825132625457,-25.59756640186576L84.39765297370732,-24.367703114233613L-54.53278672182586,11.480757137684993z" style="fill:rgb(83,212,212)"/><path d="M-12.48196138672529,25.436052669052437L-16.533070917035502,17.93189121109619L-19.95653481598247,22.976125305621835z" style="fill:rgb(229,106,201)"/><path d="M-7.507285793625316,-121.57063393472475L-0.48507852149449016,-131.60449082004644L-1.0688890052481137,-135.59198908398318zM-23.898727205585402,33.42703384171936L-22.437834362502162,28.187989184456736L-137.62112898033564,57.19366125171143z" style="fill:rgb(83,212,212)"/><path d="M38.94074238172089,5.696830843795258L29.505141701744815,-2.90908098352198L33.22875439479563,4.768516527393114z" style="fill:rgb(69,33,191)"/><path d="M33.22875439479563,4.768516527393114L29.505141701744815,-2.90908098352198L23.37279488777303,-2.951325136557114z" style="fill:rgb(87,32,202)"/><path d="M-23.57353857045728,43.40761650495334L-139.2286985346733,67.21102052328449L-139.67172016556862,72.21270614884614zM-28.154014330118205,-115.6250158281733L-24.270101955328848,-115.11728293110988L-24.14132495570627,-120.03063407600196zM-24.270101955328848,-115.11728293110988L-17.820460952221644,-120.48320577672952L-24.14132495570627,-120.03063407600196z" style="fill:rgb(83,212,212)"/><path d="M-15.867684499005527,30.466465245275796L-22.437834362502162,28.187989184456736L-18.315515983543296,35.66762089045623z" style="fill:rgb(238,122,189)"/><path d="M-11.487232455468252,-118.79319040666276L-7.451252831488523,-128.43395194702836L-11.426088552366508,-123.70250685144542zM-7.507285793625316,-121.57063393472475L-2.2406185409350017,-127.04501766297749L-0.48507852149449016,-131.60449082004644zM-17.90493454402004,-116.11916058549183L-11.426088552366508,-123.70250685144542L-17.820460952221644,-120.48320577672952z" style="fill:rgb(83,212,212)"/><path d="M-15.867684499005527,30.466465245275796L-19.95653481598247,22.976125305621835L-22.437834362502162,28.187989184456736z" style="fill:rgb(238,122,189)"/><path d="M-24.270101955328848,-115.11728293110988L-17.90493454402004,-116.11916058549183L-17.820460952221644,-120.48320577672952z" style="fill:rgb(83,212,212)"/><path d="M38.94074238172089,5.696830843795258L35.245933224197614,-2.002013603868082L29.505141701744815,-2.90908098352198z" style="fill:rgb(69,33,191)"/><path d="M-11.487232455468252,-118.79319040666276L-7.507285793625316,-121.57063393472475L-7.451252831488523,-128.43395194702836z" style="fill:rgb(83,212,212)"/><path d="M44.1061099619869,7.472432837064833L35.245933224197614,-2.002013603868082L38.94074238172089,5.696830843795258z" style="fill:rgb(52,37,178)"/><path d="M-24.285868242906545,38.548681548185115L-23.898727205585402,33.42703384171936L-138.5003016095906,62.147441855898805zM-21.765954860343218,47.86165890238174L-139.67172016556862,72.21270614884614L-139.79570091629498,73.61247247119907zM-24.270101955328848,-115.11728293110988L-24.16505267754459,-115.10354896569977L-17.90493454402004,-116.11916058549183zM-17.90493454402004,-116.11916058549183L-11.487232455468252,-118.79319040666276L-11.426088552366508,-123.70250685144542zM-7.507285793625316,-121.57063393472475L-6.118964137266259,-122.5394953753382L-2.2406185409350017,-127.04501766297749z" style="fill:rgb(83,212,212)"/><path d="M-18.315515983543296,35.66762089045623L-23.898727205585402,33.42703384171936L-19.74822143185685,40.89932713894497z" style="fill:rgb(244,138,176)"/><path d="M-21.765954860343218,47.86165890238174L-139.79570091629498,73.61247247119907L-139.83810971613346,77.01268446756545zM-17.90493454402004,-116.11916058549183L-11.594664881355683,-118.71821369332778L-11.487232455468252,-118.79319040666276z" style="fill:rgb(83,212,212)"/><path d="M-18.315515983543296,35.66762089045623L-22.437834362502162,28.187989184456736L-23.898727205585402,33.42703384171936z" style="fill:rgb(244,138,176)"/><path d="M44.1061099619869,7.472432837064833L40.43438418020096,-0.24539629910526936L35.245933224197614,-2.002013603868082z" style="fill:rgb(52,37,178)"/><path d="M48.57535107623981,10.056780411081814L40.43438418020096,-0.24539629910526936L44.1061099619869,7.472432837064833z" style="fill:rgb(37,44,163)"/><path d="M169.90591239697736,-41.40346433487893L167.40725064374536,-45.30214311341876L-129.09452584400992,31.170617189755173zM-23.57353857045728,43.40761650495334L-24.285868242906545,38.548681548185115L-139.2286985346733,67.21102052328449zM-18.898940982772036,51.77601152275485L-139.83810971613346,77.01268446756545L-139.89036255482392,81.2012972479512z" style="fill:rgb(83,212,212)"/><path d="M-19.74822143185685,40.89932713894497L-24.285868242906545,38.548681548185115L-20.113389605567413,46.01720587326746zM-19.74822143185685,40.89932713894497L-23.898727205585402,33.42703384171936L-24.285868242906545,38.548681548185115z" style="fill:rgb(247,154,162)"/><path d="M-18.898940982772036,51.77601152275485L-139.89036255482392,81.2012972479512L-139.87008826344672,81.5039498040825zM170.30508628069938,-40.659813499297826L17.01624847600776,-2.135400450984829L23.37279488777303,-2.951325136557114z" style="fill:rgb(83,212,212)"/><path d="M48.57535107623981,10.056780411081814L44.92026386516076,2.322875047905266L40.43438418020096,-0.24539629910526936z" style="fill:rgb(37,44,163)"/><path d="M52.213806816625905,13.388489405002067L44.92026386516076,2.322875047905266L48.57535107623981,10.056780411081814z" style="fill:rgb(25,53,148)"/><path d="M-21.765954860343218,47.86165890238174L-23.57353857045728,43.40761650495334L-139.67172016556862,72.21270614884614zM171.09398617227424,-39.190098070714896L23.37279488777303,-2.951325136557114L29.505141701744815,-2.90908098352198zM-15.040754517134848,55.027787751408574L-139.87008826344672,81.5039498040825L-139.60187956787374,85.50817063998228z" style="fill:rgb(83,212,212)"/><path d="M-20.113389605567413,46.01720587326746L-23.57353857045728,43.40761650495334L-19.38611157002843,50.87608112766939zM-20.113389605567413,46.01720587326746L-24.285868242906545,38.548681548185115L-23.57353857045728,43.40761650495334z" style="fill:rgb(246,169,146)"/><path d="M52.213806816625905,13.388489405002067L48.56832410591675,5.642003651941838L44.92026386516076,2.322875047905266z" style="fill:rgb(25,53,148)"/><path d="M172.25380777356906,-37.02936856288784L29.505141701744815,-2.90908098352198L35.245933224197614,-2.002013603868082z" style="fill:rgb(83,212,212)"/><path d="M54.906063254658484,17.38365366706603L48.56832410591675,5.642003651941838L52.213806816625905,13.388489405002067z" style="fill:rgb(16,65,132)"/><path d="M-10.291885192875515,57.510683634496914L-139.60187956787374,85.50817063998228L-139.38851078964558,88.69369722266472zM-18.898940982772036,51.77601152275485L-21.765954860343218,47.86165890238174L-139.83810971613346,77.01268446756545zM-10.291885192875515,57.510683634496914L-139.38851078964558,88.69369722266472L-139.34627580092553,88.97403859002404z" style="fill:rgb(83,212,212)"/><path d="M-19.38611157002843,50.87608112766939L-21.765954860343218,47.86165890238174L-17.571256223219542,55.33384666700637z" style="fill:rgb(242,183,130)"/><path d="M-60.06588131044319,89.64610819632834L-137.36545189878345,99.87073470742514L-132.336393922963,106.90299840201355z" style="fill:rgb(127,37,217)"/><path d="M-19.38611157002843,50.87608112766939L-23.57353857045728,43.40761650495334L-21.765954860343218,47.86165890238174z" style="fill:rgb(242,183,130)"/><path d="M173.6320425213814,-34.19815447107481L35.245933224197614,-2.002013603868082L40.43438418020096,-0.24539629910526936zM-4.783453747549271,59.13949339178242L-139.34627580092553,88.97403859002404L-138.92872439002335,91.74536143473307z" style="fill:rgb(83,212,212)"/><path d="M54.906063254658484,17.38365366706603L51.26269463758304,9.62858376611887L48.56832410591675,5.642003651941838z" style="fill:rgb(16,65,132)"/><path d="M-15.040754517134848,55.027787751408574L-18.898940982772036,51.77601152275485L-139.87008826344672,81.5039498040825zM170.30508628069938,-40.659813499297826L169.90591239697736,-41.40346433487893L17.01624847600776,-2.135400450984829zM1.325807351651677,59.85413041163977L-138.92872439002335,91.74536143473307L-138.62008782429726,93.7938763633595zM171.09398617227424,-39.190098070714896L170.30508628069938,-40.659813499297826L23.37279488777303,-2.951325136557114zM175.0973892729497,-30.74183640022201L40.43438418020096,-0.24539629910526936L44.92026386516076,2.322875047905266zM7.854000967959178,59.62300461790528L-138.62008782429726,93.7938763633595L-138.43063691437987,95.05124333480646zM172.25380777356906,-37.02936856288784L171.09398617227424,-39.190098070714896L29.505141701744815,-2.90908098352198zM-10.291885192875515,57.510683634496914L-15.040754517134848,55.027787751408574L-139.60187956787374,85.50817063998228zM14.60196050268271,58.445308431232185L-138.43063691437987,95.05124333480646L-138.36677217760527,95.47514496343415z" style="fill:rgb(83,212,212)"/><path d="M-60.06588131044319,89.64610819632834L-64.6346228303728,82.35074795386711L-137.36545189878345,99.87073470742514z" style="fill:rgb(127,37,217)"/><path d="M176.60431380395696,-26.746119430769838L44.92026386516076,2.322875047905266L48.56832410591675,5.642003651941838zM173.6320425213814,-34.19815447107481L172.25380777356906,-37.02936856288784L35.245933224197614,-2.002013603868082zM-4.783453747549271,59.13949339178242L-10.291885192875515,57.510683634496914L-139.34627580092553,88.97403859002404zM169.90591239697736,-41.40346433487893L169.5804350220378,-42.009833592488405L167.40725064374536,-45.30214311341876z" style="fill:rgb(83,212,212)"/><path d="M-53.62165770717816,88.62942127642506L-64.6346228303728,82.35074795386711L-60.06588131044319,89.64610819632834z" style="fill:rgb(115,34,214)"/><path d="M175.0973892729497,-30.74183640022201L173.6320425213814,-34.19815447107481L40.43438418020096,-0.24539629910526936zM178.02716912107545,-22.293487969800193L48.56832410591675,5.642003651941838L51.26269463758304,9.62858376611887zM1.325807351651677,59.85413041163977L-4.783453747549271,59.13949339178242L-138.92872439002335,91.74536143473307z" style="fill:rgb(83,212,212)"/><path d="M-47.44408035308057,88.70661130393576L-58.15053359626107,81.31087922707712L-53.62165770717816,88.62942127642506z" style="fill:rgb(92,32,204)"/><path d="M-53.62165770717816,88.62942127642506L-58.15053359626107,81.31087922707712L-64.6346228303728,82.35074795386711z" style="fill:rgb(115,34,214)"/><path d="M7.854000967959178,59.62300461790528L1.325807351651677,59.85413041163977L-138.62008782429726,93.7938763633595zM176.60431380395696,-26.746119430769838L175.0973892729497,-30.74183640022201L44.92026386516076,2.322875047905266z" style="fill:rgb(83,212,212)"/><path d="M-41.75921177480209,89.88448955032142L-51.93885478619482,81.36687218147941L-47.44408035308057,88.70661130393576z" style="fill:rgb(71,33,192)"/><path d="M179.1955028110241,-17.470602660342575L51.26269463758304,9.62858376611887L52.91135778076005,14.17758647536811z" style="fill:rgb(83,212,212)"/><path d="M-47.44408035308057,88.70661130393576L-51.93885478619482,81.36687218147941L-58.15053359626107,81.31087922707712z" style="fill:rgb(92,32,204)"/><path d="M14.60196050268271,58.445308431232185L7.854000967959178,59.62300461790528L-138.43063691437987,95.05124333480646zM173.6320425213814,-34.19815447107481L173.10032222397825,-35.45230674615806L172.25380777356906,-37.02936856288784z" style="fill:rgb(83,212,212)"/><path d="M-41.75921177480209,89.88448955032142L-46.226846803816706,82.5263985043631L-51.93885478619482,81.36687218147941z" style="fill:rgb(71,33,192)"/><path d="M-36.780777524875795,92.1320686235961L-46.226846803816706,82.5263985043631L-41.75921177480209,89.88448955032142z" style="fill:rgb(51,38,177)"/><path d="M178.02716912107545,-22.293487969800193L176.60431380395696,-26.746119430769838L48.56832410591675,5.642003651941838zM179.00084815230815,23.661853979209337L-138.36677217760527,95.47514496343415L-138.27873360341826,96.05947332419466zM180.1929543770345,-12.440510435732822L52.91135778076005,14.17758647536811L53.450388396140326,19.16423363665048zM179.00084815230815,23.661853979209337L-138.27873360341826,96.05947332419466L-137.36545189878345,99.87073470742514z" style="fill:rgb(83,212,212)"/><path d="M-36.780777524875795,92.1320686235961L-41.22926969453687,84.75928554313819L-46.226846803816706,82.5263985043631z" style="fill:rgb(51,38,177)"/><path d="M-32.70266028790672,95.37970267164441L-41.22926969453687,84.75928554313819L-36.780777524875795,92.1320686235961z" style="fill:rgb(34,46,160)"/><path d="M179.1955028110241,-17.470602660342575L178.02716912107545,-22.293487969800193L51.26269463758304,9.62858376611887zM180.85734118392028,-7.313679687358241L53.450388396140326,19.16423363665048L52.847673896536236,24.446767484779055zM176.60431380395696,-26.746119430769838L176.03172279494288,-28.538005810921476L175.0973892729497,-30.74183640022201z" style="fill:rgb(83,212,212)"/><path d="M178.80234194024732,-20.303110844938644L178.3484903450658,-21.28800050418969L181.12218362675478,-13.046791383582116zM178.80234194024732,-20.303110844938644L176.03172279494288,-28.538005810921476L178.3484903450658,-21.28800050418969z" style="fill:rgb(246,166,149)"/><path d="M90.20492546397737,45.593228991677755L-64.6346228303728,82.35074795386711L-58.15053359626107,81.31087922707712z" style="fill:rgb(83,212,212)"/><path d="M-32.70266028790672,95.37970267164441L-37.14084278512671,87.99661074950806L-41.22926969453687,84.75928554313819z" style="fill:rgb(34,46,160)"/><path d="M-29.6913264576792,99.51937195040928L-37.14084278512671,87.99661074950806L-32.70266028790672,95.37970267164441z" style="fill:rgb(21,57,142)"/><path d="M180.1929543770345,-12.440510435732822L179.1955028110241,-17.470602660342575L52.91135778076005,14.17758647536811zM83.58685225814054,48.79071482807187L-58.15053359626107,81.31087922707712L-51.93885478619482,81.36687218147941zM181.194095124427,-2.247481674474742L52.847673896536236,24.446767484779055L51.10579125353959,29.870233234587563zM77.56858473568201,52.84821147852825L-51.93885478619482,81.36687218147941L-46.226846803816706,82.5263985043631z" style="fill:rgb(83,212,212)"/><path d="M-29.6913264576792,99.51937195040928L-34.12861975135535,92.13093718157258L-37.14084278512671,87.99661074950806z" style="fill:rgb(21,57,142)"/><path d="M181.12218362675478,-13.046791383582116L180.02638353450143,-13.725998667105001L182.80782762114023,-5.481890947559177zM181.12218362675478,-13.046791383582116L178.3484903450658,-21.28800050418969L180.02638353450143,-13.725998667105001z" style="fill:rgb(247,161,155)"/><path d="M181.36527152427695,2.562278895112481L51.10579125353959,29.870233234587563L48.26371793177755,35.27118909527018zM180.85734118392028,-7.313679687358241L180.1929543770345,-12.440510435732822L53.450388396140326,19.16423363665048zM179.1955028110241,-17.470602660342575L178.3484903450658,-21.28800050418969L178.02716912107545,-22.293487969800193zM72.36508282851516,57.623967022193334L-46.226846803816706,82.5263985043631L-41.22926969453687,84.75928554313819zM181.17257586213097,7.0139496270061406L48.26371793177755,35.27118909527018L44.397126708607225,40.48320441197116zM181.194095124427,-2.247481674474742L180.85734118392028,-7.313679687358241L52.847673896536236,24.446767484779055zM68.16639198062359,62.9515884345067L-41.22926969453687,84.75928554313819L-37.14084278512671,87.99661074950806zM180.97851638708914,10.87911990236436L44.397126708607225,40.48320441197116L39.617062299741356,45.34292139145531zM180.1929543770345,-12.440510435732822L180.02638353450143,-13.725998667105001L179.1955028110241,-17.470602660342575zM90.20492546397737,45.593228991677755L97.18889455141534,43.369382764624675L-64.6346228303728,82.35074795386711zM83.58685225814054,48.79071482807187L90.20492546397737,45.593228991677755L-58.15053359626107,81.31087922707712z" style="fill:rgb(83,212,212)"/><path d="M182.80782762114023,-5.481890947559177L181.04333630472897,-5.878387332561699L183.83740091969568,2.3650876799062557zM182.80782762114023,-5.481890947559177L180.02638353450143,-13.725998667105001L181.04333630472897,-5.878387332561699z" style="fill:rgb(247,155,161)"/><path d="M77.56858473568201,52.84821147852825L83.58685225814054,48.79071482807187L-51.93885478619482,81.36687218147941zM180.57545719836114,14.085436692252783L39.617062299741356,45.34292139145531L34.06683674944285,49.69638937101127zM181.36527152427695,2.562278895112481L181.194095124427,-2.247481674474742L51.10579125353959,29.870233234587563zM180.27763188643334,16.454645586022384L34.06683674944285,49.69638937101127L27.91722760688454,53.40516308449848zM180.03325443526097,18.39859803348671L21.36029200757202,56.35195571489408L14.60196050268271,58.445308431232185zM65.1319091414952,68.6439990383714L-37.14084278512671,87.99661074950806L-34.12861975135535,92.13093718157258zM180.09484916189353,17.908510654740233L27.91722760688454,53.40516308449848L21.36029200757202,56.35195571489408zM72.36508282851516,57.623967022193334L77.56858473568201,52.84821147852825L-46.226846803816706,82.5263985043631zM179.00084815230815,23.661853979209337L180.03325443526097,18.39859803348671L-138.36677217760527,95.47514496343415zM181.17257586213097,7.0139496270061406L181.36527152427695,2.562278895112481L48.26371793177755,35.27118909527018zM68.16639198062359,62.9515884345067L72.36508282851516,57.623967022193334L-41.22926969453687,84.75928554313819z" style="fill:rgb(83,212,212)"/><path d="M93.7284764944371,53.46412534596735L83.58685225814054,48.79071482807187L87.16206185575288,56.63490791576675z" style="fill:rgb(162,50,222)"/><path d="M87.16206185575288,56.63490791576675L77.56858473568201,52.84821147852825L81.19439354476992,60.66691159296437z" style="fill:rgb(183,62,221)"/><path d="M100.66141359313407,51.267320685092464L90.20492546397737,45.593228991677755L93.7284764944371,53.46412534596735z" style="fill:rgb(139,40,220)"/><path d="M183.83740091969568,2.3650876799062557L181.37985018291488,2.2257664916368447L184.1915800280572,10.464984285607528zM183.83740091969568,2.3650876799062557L181.04333630472897,-5.878387332561699L181.37985018291488,2.2257664916368447z" style="fill:rgb(246,149,166)"/><path d="M63.38458886645695,74.49801668432728L-34.12861975135535,92.13093718157258L-32.32419451379143,97.01785046701896zM181.194095124427,-2.247481674474742L181.04333630472897,-5.878387332561699L180.85734118392028,-7.313679687358241z" style="fill:rgb(83,212,212)"/><path d="M81.19439354476992,60.66691159296437L72.36508282851516,57.623967022193334L76.03877167607604,65.419179717269z" style="fill:rgb(203,77,216)"/><path d="M93.7284764944371,53.46412534596735L90.20492546397737,45.593228991677755L83.58685225814054,48.79071482807187z" style="fill:rgb(162,50,222)"/><path d="M87.16206185575288,56.63490791576675L83.58685225814054,48.79071482807187L77.56858473568201,52.84821147852825z" style="fill:rgb(183,62,221)"/><path d="M180.97851638708914,10.87911990236436L181.17257586213097,7.0139496270061406L44.397126708607225,40.48320441197116zM65.1319091414952,68.6439990383714L68.16639198062359,62.9515884345067L-37.14084278512671,87.99661074950806z" style="fill:rgb(83,212,212)"/><path d="M100.66141359313407,51.267320685092464L97.18889455141534,43.369382764624675L90.20492546397737,45.593228991677755z" style="fill:rgb(139,40,220)"/><path d="M81.19439354476992,60.66691159296437L77.56858473568201,52.84821147852825L72.36508282851516,57.623967022193334z" style="fill:rgb(203,77,216)"/><path d="M76.03877167607604,65.419179717269L68.16639198062359,62.9515884345067L71.88359707132732,70.72603235045882z" style="fill:rgb(220,94,208)"/><path d="M180.57545719836114,14.085436692252783L180.97851638708914,10.87911990236436L39.617062299741356,45.34292139145531z" style="fill:rgb(83,212,212)"/><path d="M76.03877167607604,65.419179717269L72.36508282851516,57.623967022193334L68.16639198062359,62.9515884345067z" style="fill:rgb(220,94,208)"/><path d="M63.00543957522228,80.29993058182095L-32.32419451379143,97.01785046701896L-31.816375617436055,102.47924339843787zM181.36527152427695,2.562278895112481L181.37985018291488,2.2257664916368447L181.194095124427,-2.247481674474742zM180.27763188643334,16.454645586022384L180.57545719836114,14.085436692252783L34.06683674944285,49.69638937101127zM63.38458886645695,74.49801668432728L65.1319091414952,68.6439990383714L-34.12861975135535,92.13093718157258z" style="fill:rgb(83,212,212)"/><path d="M71.88359707132732,70.72603235045882L65.1319091414952,68.6439990383714L68.88668000973176,76.4010220617928z" style="fill:rgb(233,112,197)"/><path d="M181.8813631014581,31.873458190116125L97.18889455141534,43.369382764624675L100.66141359313407,51.267320685092464z" style="fill:rgb(127,37,217)"/><path d="M184.1915800280572,10.464984285607528L181.01929569939273,10.554711265296177L183.85390593412393,18.78598657188569zM184.1915800280572,10.464984285607528L181.37985018291488,2.2257664916368447L181.01929569939273,10.554711265296177z" style="fill:rgb(245,143,172)"/><path d="M180.09484916189353,17.908510654740233L180.27763188643334,16.454645586022384L27.91722760688454,53.40516308449848zM180.03325443526097,18.39859803348671L180.09484916189353,17.908510654740233L21.36029200757202,56.35195571489408z" style="fill:rgb(83,212,212)"/><path d="M71.88359707132732,70.72603235045882L68.16639198062359,62.9515884345067L65.1319091414952,68.6439990383714z" style="fill:rgb(233,112,197)"/><path d="M68.88668000973176,76.4010220617928L63.38458886645695,74.49801668432728L67.16948849212389,82.24150694518202z" style="fill:rgb(242,130,183)"/><path d="M63.00543957522228,80.29993058182095L63.38458886645695,74.49801668432728L-32.32419451379143,97.01785046701896z" style="fill:rgb(83,212,212)"/><path d="M68.88668000973176,76.4010220617928L65.1319091414952,68.6439990383714L63.38458886645695,74.49801668432728z" style="fill:rgb(242,130,183)"/><path d="M180.97851638708914,10.87911990236436L181.01929569939273,10.554711265296177L181.17257586213097,7.0139496270061406z" style="fill:rgb(83,212,212)"/><path d="M183.85390593412393,18.78598657188569L179.94833646850196,19.074108709191844L182.81110714193014,27.293725904343656zM183.85390593412393,18.78598657188569L181.01929569939273,10.554711265296177L179.94833646850196,19.074108709191844z" style="fill:rgb(244,137,177)"/><path d="M67.16948849212389,82.24150694518202L63.00543957522228,80.29993058182095L66.81172279927041,88.03424415783594z" style="fill:rgb(246,149,167)"/><path d="M181.8813631014581,31.873458190116125L179.00084815230815,23.661853979209337L97.18889455141534,43.369382764624675z" style="fill:rgb(127,37,217)"/><path d="M67.16948849212389,82.24150694518202L63.38458886645695,74.49801668432728L63.00543957522228,80.29993058182095z" style="fill:rgb(246,149,167)"/><path d="M182.81110714193014,27.293725904343656L179.00084815230815,23.661853979209337L181.8813631014581,31.873458190116125zM182.81110714193014,27.293725904343656L179.94833646850196,19.074108709191844L179.00084815230815,23.661853979209337z" style="fill:rgb(242,131,182)"/><path d="M179.00084815230815,23.661853979209337L179.94833646850196,19.074108709191844L180.03325443526097,18.39859803348671z" style="fill:rgb(83,212,212)"/><path d="M15.315619408294475,112.18550055147452L8.58868389108888,107.70888235465726L12.466968023677925,114.57496770194403z" style="fill:rgb(197,72,218)"/><path d="M18.214382033952212,113.26241169609264L11.46152287515922,105.30723628669287L15.315619408294475,112.18550055147452z" style="fill:rgb(57,36,182)"/><path d="M27.363575663286685,163.45801595252127L63.00543957522228,80.29993058182095L-31.816375617436055,102.47924339843787z" style="fill:rgb(83,212,212)"/><path d="M12.466968023677925,114.57496770194403L9.715953363795494,110.27472841299723L13.596429065919374,117.14047902078603z" style="fill:rgb(241,184,128)"/><path d="M15.315619408294475,112.18550055147452L11.46152287515922,105.30723628669287L8.58868389108888,107.70888235465726z" style="fill:rgb(197,72,218)"/><path d="M8.58868389108888,107.70888235465726L11.43308454242404,102.46272900226637L8.554443640135927,103.12889353639343zM11.46152287515922,105.30723628669287L14.315815389083385,101.795617988193L11.43308454242404,102.46272900226637z" style="fill:rgb(83,212,212)"/><path d="M18.214382033952212,113.26241169609264L14.37319800360466,106.3767958741937L11.46152287515922,105.30723628669287z" style="fill:rgb(57,36,182)"/><path d="M12.466968023677925,114.57496770194403L8.58868389108888,107.70888235465726L9.715953363795494,110.27472841299723z" style="fill:rgb(241,184,128)"/><path d="M8.58868389108888,107.70888235465726L11.46152287515922,105.30723628669287L11.43308454242404,102.46272900226637zM11.46152287515922,105.30723628669287L14.37319800360466,106.3767958741937L14.315815389083385,101.795617988193zM4.3959639869577956,123.13632095535614L7.899328703517447,103.28049500600613L4.32657255294863,104.75827956742266zM4.3959639869577956,123.13632095535614L8.554443640135927,103.12889353639343L7.899328703517447,103.28049500600613zM-0.05824142767025686,129.325954732802L1.0158725115259417,106.12767774264967L-0.05711990376081038,106.78736883965304zM-0.05824142767025686,129.325954732802L4.32657255294863,104.75827956742266L1.0158725115259417,106.12767774264967zM14.53958721456335,119.6605853995117L14.973005650935725,101.64353576436038L14.315815389083385,101.795617988193z" style="fill:rgb(83,212,212)"/><path d="M66.85534868132882,148.82341237329706L66.81172279927041,88.03424415783594L63.00543957522228,80.29993058182095z" style="fill:rgb(247,158,158)"/><path d="M14.53958721456335,119.6605853995117L18.577630429863486,101.46265064172026L14.973005650935725,101.64353576436038zM-15.70674541948086,133.5927042883761L-12.116249154099409,116.24180959484933L-15.529728238295561,120.3535677508656zM-17.853223191340856,136.54776233710936L-15.529728238295561,120.3535677508656L-15.62158811195283,120.46422433964334zM8.687966261585277,120.98892949417765L9.715953363795494,110.27472841299723L8.58868389108888,107.70888235465726zM18.87665147921522,119.85333169200378L21.929272824532028,101.2944595388631L18.577630429863486,101.46265064172026zM-17.853223191340856,136.54776233710936L-15.62158811195283,120.46422433964334L-17.664526760116456,124.10064964874877zM18.87665147921522,119.85333169200378L23.022242187835033,101.45592318193188L21.929272824532028,101.2944595388631zM9.801662654092848,120.43172879658987L11.50707479611115,109.86350306254023L9.715953363795494,110.27472841299723zM13.41720671770096,119.6107131535436L14.37319800360466,106.3767958741937L13.29977813860423,109.45192425505695zM11.603717969583013,119.53011088768494L13.29977813860423,109.45192425505695L11.50707479611115,109.86350306254023zM4.3959639869577956,123.13632095535614L8.687966261585277,120.98892949417765L8.554443640135927,103.12889353639343z" style="fill:rgb(83,212,212)"/><path d="M15.504216424073773,126.3873047926358L4.3959639869577956,123.13632095535614L8.349720645772699,129.96608323039897z" style="fill:rgb(164,51,222)"/><path d="M-8.214748016842977,140.53180378403286L-15.70674541948086,133.5927042883761L-11.603109112498506,140.34534783476798z" style="fill:rgb(90,32,203)"/><path d="M-0.05824142767025686,129.325954732802L4.3959639869577956,123.13632095535614L4.32657255294863,104.75827956742266zM-12.521949951269454,154.99483153393385L-0.05711990376081038,106.78736883965304L-5.379484752830161,110.05959208767001z" style="fill:rgb(83,212,212)"/><path d="M-11.603109112498506,140.34534783476798L-17.853223191340856,136.54776233710936L-13.727137704711934,143.2890237278079z" style="fill:rgb(224,99,205)"/><path d="M-15.70674541948086,133.5927042883761L-12.299743341647142,133.76939728498277L-12.116249154099409,116.24180959484933z" style="fill:rgb(83,212,212)"/><path d="M22.736366383557026,126.73182700655956L11.603717969583013,119.53011088768494L15.504216424073773,126.3873047926358z" style="fill:rgb(90,32,203)"/><path d="M27.363575663286685,163.45801595252127L-31.816375617436055,102.47924339843787L-33.71296379232853,170.64950157211427zM-12.521949951269454,154.99483153393385L-5.379484752830161,110.05959208767001L-11.008444234458418,114.90738778047931zM-17.853223191340856,136.54776233710936L-15.70674541948086,133.5927042883761L-15.529728238295561,120.3535677508656zM-20.44755639935566,144.6989614963633L-17.664526760116456,124.10064964874877L-19.007682137371727,126.49147058720872zM8.687966261585277,120.98892949417765L9.801662654092848,120.43172879658987L9.715953363795494,110.27472841299723z" style="fill:rgb(83,212,212)"/><path d="M8.349720645772699,129.96608323039897L-0.05824142767025686,129.325954732802L3.9418593754558895,136.13218134891525z" style="fill:rgb(224,99,205)"/><path d="M9.801662654092848,120.43172879658987L11.603717969583013,119.53011088768494L11.50707479611115,109.86350306254023zM13.41720671770096,119.6107131535436L14.53958721456335,119.6605853995117L14.37319800360466,106.3767958741937z" style="fill:rgb(83,212,212)"/><path d="M15.504216424073773,126.3873047926358L11.603717969583013,119.53011088768494L4.3959639869577956,123.13632095535614z" style="fill:rgb(164,51,222)"/><path d="M14.53958721456335,119.6605853995117L18.87665147921522,119.85333169200378L18.577630429863486,101.46265064172026zM-12.521949951269454,154.99483153393385L-11.008444234458418,114.90738778047931L-12.116249154099409,116.24180959484933zM11.603717969583013,119.53011088768494L13.41720671770096,119.6107131535436L13.29977813860423,109.45192425505695z" style="fill:rgb(83,212,212)"/><path d="M-11.603109112498506,140.34534783476798L-15.70674541948086,133.5927042883761L-17.853223191340856,136.54776233710936zM8.349720645772699,129.96608323039897L4.3959639869577956,123.13632095535614L-0.05824142767025686,129.325954732802z" style="fill:rgb(224,99,205)"/><path d="M-8.214748016842977,140.53180378403286L-12.299743341647142,133.76939728498277L-15.70674541948086,133.5927042883761z" style="fill:rgb(90,32,203)"/><path d="M-20.44755639935566,144.6989614963633L-19.007682137371727,126.49147058720872L-21.002540478945367,132.72613067153054z" style="fill:rgb(83,212,212)"/><path d="M22.736366383557026,126.73182700655956L18.87665147921522,119.85333169200378L11.603717969583013,119.53011088768494z" style="fill:rgb(90,32,203)"/><path d="M27.32347742769558,130.90565180020602L18.87665147921522,119.85333169200378L22.736366383557026,126.73182700655956z" style="fill:rgb(30,49,155)"/><path d="M18.87665147921522,119.85333169200378L23.476902810459357,124.02031005896569L23.022242187835033,101.45592318193188z" style="fill:rgb(83,212,212)"/><path d="M3.9418593754558895,136.13218134891525L-0.05856320939261509,135.79261189304515L3.963474614514015,142.5876464443682z" style="fill:rgb(247,158,158)"/><path d="M-20.44755639935566,144.6989614963633L-21.002540478945367,132.72613067153054L-21.49759058103971,138.88974948192808z" style="fill:rgb(83,212,212)"/><path d="M3.9418593754558895,136.13218134891525L-0.05824142767025686,129.325954732802L-0.05856320939261509,135.79261189304515z" style="fill:rgb(247,158,158)"/><path d="M-20.44755639935566,144.6989614963633L-18.050000695622632,149.5279273746035L-17.664526760116456,124.10064964874877z" style="fill:rgb(83,212,212)"/><path d="M-23.434188207733204,178.13968545448958L-33.71296379232853,170.64950157211427L-28.968603990599696,177.90118987342336z" style="fill:rgb(94,32,205)"/><path d="M27.32347742769558,130.90565180020602L23.476902810459357,124.02031005896569L18.87665147921522,119.85333169200378z" style="fill:rgb(30,49,155)"/><path d="M35.97102235641433,122.90763491308864L38.99619235858094,107.89298090331486L35.42806298860126,105.33743882997739zM24.084456415527885,154.17263447662344L28.46099627889589,102.2593883352064L23.022242187835033,101.45592318193188zM39.44677636971084,121.16929214156652L39.09238372880646,107.9618767175091L38.99619235858094,107.89298090331486zM-18.050000695622632,149.5279273746035L-15.773213489944524,138.56386437098362L-17.853223191340856,136.54776233710936z" style="fill:rgb(83,212,212)"/><path d="M46.381403138982,119.43734881843216L44.86082500023566,117.85661342227893L48.5619722664746,124.81650613828117z" style="fill:rgb(242,181,133)"/><path d="M-12.74850212631657,177.96266486777375L-28.144222327485643,170.8712574034061L-23.434188207733204,178.13968545448958z" style="fill:rgb(101,32,208)"/><path d="M46.381403138982,119.43734881843216L42.68414430505639,112.47513317451221L44.86082500023566,117.85661342227893z" style="fill:rgb(242,181,133)"/><path d="M39.44677636971084,121.16929214156652L41.25792949111446,110.68300476823529L39.09238372880646,107.9618767175091z" style="fill:rgb(83,212,212)"/><path d="M-23.434188207733204,178.13968545448958L-28.144222327485643,170.8712574034061L-33.71296379232853,170.64950157211427z" style="fill:rgb(94,32,205)"/><path d="M-15.952128265905051,151.94492230951283L-12.331913512390907,136.84232021433542L-15.773213489944524,138.56386437098362zM24.084456415527885,154.17263447662344L34.27270456643801,104.5099549109316L28.46099627889589,102.2593883352064z" style="fill:rgb(83,212,212)"/><path d="M66.85534868132882,148.82341237329706L70.85937427761097,156.44154036019827L66.81172279927041,88.03424415783594z" style="fill:rgb(247,158,158)"/><path d="M43.19037672036996,128.10728818796295L35.97102235641433,122.90763491308864L39.74066366936713,129.8322217040711z" style="fill:rgb(164,51,222)"/><path d="M45.4416328774027,130.10997626232663L39.44677636971084,121.16929214156652L43.19037672036996,128.10728818796295z" style="fill:rgb(30,49,155)"/><path d="M-9.71583104098385,160.89068606274438L-17.876386786959003,149.87760653158716L-13.70345330762782,156.59470714999193z" style="fill:rgb(28,51,152)"/><path d="M35.97102235641433,122.90763491308864L39.44677636971084,121.16929214156652L38.99619235858094,107.89298090331486zM24.084456415527885,154.17263447662344L35.42806298860126,105.33743882997739L34.27270456643801,104.5099549109316z" style="fill:rgb(83,212,212)"/><path d="M39.74066366936713,129.8322217040711L36.0662334952983,125.988672793005L39.84505800058938,132.908175100883z" style="fill:rgb(247,158,158)"/><path d="M-18.050000695622632,149.5279273746035L-15.952128265905051,151.94492230951283L-15.773213489944524,138.56386437098362zM-12.521949951269454,154.99483153393385L-0.059739704579827725,159.43591207685458L-0.05711990376081038,106.78736883965304z" style="fill:rgb(83,212,212)"/><path d="M43.19037672036996,128.10728818796295L39.44677636971084,121.16929214156652L35.97102235641433,122.90763491308864z" style="fill:rgb(164,51,222)"/><path d="M-1.8366036072521,177.15285103623876L-17.389121090915967,170.6604214666508L-12.74850212631657,177.96266486777375z" style="fill:rgb(108,33,211)"/><path d="M-12.74850212631657,177.96266486777375L-17.389121090915967,170.6604214666508L-28.144222327485643,170.8712574034061z" style="fill:rgb(101,32,208)"/><path d="M48.5619722664746,124.81650613828117L45.49609667434763,123.86577532115915L49.21212570540758,130.8171728957717z" style="fill:rgb(247,163,153)"/><path d="M39.44677636971084,121.16929214156652L41.7051715218755,123.16869326609746L41.25792949111446,110.68300476823529z" style="fill:rgb(83,212,212)"/><path d="M39.74066366936713,129.8322217040711L35.97102235641433,122.90763491308864L36.0662334952983,125.988672793005z" style="fill:rgb(247,158,158)"/><path d="M27.363575663286685,163.45801595252127L66.85534868132882,148.82341237329706L63.00543957522228,80.29993058182095z" style="fill:rgb(83,212,212)"/><path d="M48.5619722664746,124.81650613828117L44.86082500023566,117.85661342227893L45.49609667434763,123.86577532115915z" style="fill:rgb(247,163,153)"/><path d="M45.4416328774027,130.10997626232663L41.7051715218755,123.16869326609746L39.44677636971084,121.16929214156652z" style="fill:rgb(30,49,155)"/><path d="M-15.952128265905051,151.94492230951283L-12.521949951269454,154.99483153393385L-12.331913512390907,136.84232021433542zM42.171716149157206,136.19323309128967L42.68414430505639,112.47513317451221L41.25792949111446,110.68300476823529zM-18.050000695622632,149.5279273746035L-17.876386786959003,149.87760653158716L-15.952128265905051,151.94492230951283z" style="fill:rgb(83,212,212)"/><path d="M-9.71583104098385,160.89068606274438L-13.880753110964068,154.1702933122055L-17.876386786959003,149.87760653158716z" style="fill:rgb(28,51,152)"/><path d="M-4.4845487472914165,164.08574378036846L-13.880753110964068,154.1702933122055L-9.71583104098385,160.89068606274438z" style="fill:rgb(45,40,171)"/><path d="M9.245450404742265,175.70706647664815L-6.403135581186428,169.81454134110754L-1.8366036072521,177.15285103623876z" style="fill:rgb(116,34,214)"/><path d="M-1.8366036072521,177.15285103623876L-6.403135581186428,169.81454134110754L-17.389121090915967,170.6604214666508z" style="fill:rgb(108,33,211)"/><path d="M42.171716149157206,136.19323309128967L44.86082500023566,117.85661342227893L42.68414430505639,112.47513317451221zM27.363575663286685,163.45801595252127L-33.71296379232853,170.64950157211427L-28.144222327485643,170.8712574034061z" style="fill:rgb(83,212,212)"/><path d="M49.21212570540758,130.8171728957717L44.534913583342664,130.22358821971676L48.27645321217648,137.16062368158774z" style="fill:rgb(245,143,172)"/><path d="M-0.059739704579827725,159.43591207685458L4.459906390628471,140.07120412469777L-0.05856320939261509,135.79261189304515z" style="fill:rgb(83,212,212)"/><path d="M49.21212570540758,130.8171728957717L45.49609667434763,123.86577532115915L44.534913583342664,130.22358821971676z" style="fill:rgb(245,143,172)"/><path d="M-15.952128265905051,151.94492230951283L-13.880753110964068,154.1702933122055L-12.521949951269454,154.99483153393385z" style="fill:rgb(83,212,212)"/><path d="M20.43925851737511,173.6264849661007L4.757224245506242,168.33056292656102L9.245450404742265,175.70706647664815z" style="fill:rgb(123,36,216)"/><path d="M27.363575663286685,163.45801595252127L-28.144222327485643,170.8712574034061L-17.389121090915967,170.6604214666508z" style="fill:rgb(83,212,212)"/><path d="M-4.4845487472914165,164.08574378036846L-8.629994321040465,157.35654474575668L-13.880753110964068,154.1702933122055z" style="fill:rgb(45,40,171)"/><path d="M9.245450404742265,175.70706647664815L4.757224245506242,168.33056292656102L-6.403135581186428,169.81454134110754z" style="fill:rgb(116,34,214)"/><path d="M1.75350896895876,166.00809292706793L-8.629994321040465,157.35654474575668L-4.4845487472914165,164.08574378036846z" style="fill:rgb(65,34,188)"/><path d="M42.171716149157206,136.19323309128967L45.49609667434763,123.86577532115915L44.86082500023566,117.85661342227893zM10.060191425542783,151.06874401018845L11.81308472257972,140.47174318763007L9.969921989142696,140.3713423987473zM8.937438570500001,154.35843916470606L9.969921989142696,140.3713423987473L8.832407077149291,140.30938719447465zM4.534313029257105,159.77748670677647L8.832407077149291,140.30938719447465L4.459906390628471,140.07120412469777z" style="fill:rgb(83,212,212)"/><path d="M11.603717969583013,119.53011088768494L-29.002529364874302,65.44334654141613L4.3959639869577956,123.13632095535614z" style="fill:rgb(164,51,222)"/><path d="M11.914959097324301,150.66159507769993L13.64774078117551,139.5542984609939L11.81308472257972,140.47174318763007zM13.77142288911941,150.25408240444906L14.781668120932482,138.98727004317035L13.64774078117551,139.5542984609939z" style="fill:rgb(83,212,212)"/><path d="M48.27645321217648,137.16062368158774L42.000804855270665,136.62496190301366L45.77756303570248,143.54244373847183z" style="fill:rgb(238,122,189)"/><path d="M40.071610420069035,139.5798171566447L41.7051715218755,123.16869326609746L39.61600203028651,126.15546928001709z" style="fill:rgb(83,212,212)"/><path d="M17.76100313483219,157.06229423295918L10.060191425542783,151.06874401018845L14.07447677394591,157.86456306821455z" style="fill:rgb(127,37,217)"/><path d="M27.363575663286685,163.45801595252127L-17.389121090915967,170.6604214666508L-6.403135581186428,169.81454134110754z" style="fill:rgb(83,212,212)"/><path d="M31.684605245294513,170.9167206601757L16.03305076954959,166.20977620680844L20.43925851737511,173.6264849661007z" style="fill:rgb(131,38,218)"/><path d="M24.084456415527885,154.17263447662344L36.62879096704244,144.1930646361288L35.42806298860126,105.33743882997739z" style="fill:rgb(83,212,212)"/><path d="M-29.002529364874302,65.44334654141613L-0.05824142767025686,129.325954732802L4.3959639869577956,123.13632095535614z" style="fill:rgb(224,99,205)"/><path d="M18.87665147921522,119.85333169200378L-21.345097421412635,61.60514712347787L11.603717969583013,119.53011088768494z" style="fill:rgb(90,32,203)"/><path d="M36.62879096704244,144.1930646361288L39.61600203028651,126.15546928001709L36.0662334952983,125.988672793005z" style="fill:rgb(83,212,212)"/><path d="M20.43925851737511,173.6264849661007L16.03305076954959,166.20977620680844L4.757224245506242,168.33056292656102z" style="fill:rgb(123,36,216)"/><path d="M48.27645321217648,137.16062368158774L44.534913583342664,130.22358821971676L42.000804855270665,136.62496190301366z" style="fill:rgb(238,122,189)"/><path d="M14.07447677394591,157.86456306821455L8.937438570500001,154.35843916470606L12.969333177186746,161.14436774585567z" style="fill:rgb(241,128,184)"/><path d="M19.472924940386513,156.5259121884591L23.60737055467616,130.4953037333447L19.152221658429976,136.8017096359804zM42.171716149157206,136.19323309128967L44.534913583342664,130.22358821971676L45.49609667434763,123.86577532115915zM15.018980886112214,157.93328707249225L19.152221658429976,136.8017096359804L14.781668120932482,138.98727004317035zM-12.521949951269454,154.99483153393385L-8.629994321040465,157.35654474575668L-2.361716072026185,159.26476412517812zM10.060191425542783,151.06874401018845L11.914959097324301,150.66159507769993L11.81308472257972,140.47174318763007z" style="fill:rgb(83,212,212)"/><path d="M1.75350896895876,166.00809292706793L-2.361716072026185,159.26476412517812L-8.629994321040465,157.35654474575668z" style="fill:rgb(65,34,188)"/><path d="M8.703309362189863,166.5467508247255L-2.361716072026185,159.26476412517812L1.75350896895876,166.00809292706793z" style="fill:rgb(89,32,203)"/><path d="M42.92000668643875,167.5879468403935L27.363575663286685,163.45801595252127L31.684605245294513,170.9167206601757z" style="fill:rgb(138,40,220)"/><path d="M27.363575663286685,163.45801595252127L-6.403135581186428,169.81454134110754L4.757224245506242,168.33056292656102zM8.937438570500001,154.35843916470606L10.060191425542783,151.06874401018845L9.969921989142696,140.3713423987473zM11.914959097324301,150.66159507769993L13.77142288911941,150.25408240444906L13.64774078117551,139.5542984609939z" style="fill:rgb(83,212,212)"/><path d="M17.76100313483219,157.06229423295918L13.77142288911941,150.25408240444906L10.060191425542783,151.06874401018845z" style="fill:rgb(127,37,217)"/><path d="M14.07447677394591,157.86456306821455L10.060191425542783,151.06874401018845L8.937438570500001,154.35843916470606z" style="fill:rgb(241,128,184)"/><path d="M40.071610420069035,139.5798171566447L42.171716149157206,136.19323309128967L41.7051715218755,123.16869326609746zM-0.059739704579827725,159.43591207685458L4.534313029257105,159.77748670677647L4.459906390628471,140.07120412469777z" style="fill:rgb(83,212,212)"/><path d="M45.77756303570248,143.54244373847183L37.999010169938416,142.75432729939484L41.81917981218837,149.6480785947294z" style="fill:rgb(226,102,203)"/><path d="M13.77142288911941,150.25408240444906L14.95770681602006,153.04143233158695L14.781668120932482,138.98727004317035z" style="fill:rgb(83,212,212)"/><path d="M31.684605245294513,170.9167206601757L27.363575663286685,163.45801595252127L16.03305076954959,166.20977620680844z" style="fill:rgb(131,38,218)"/><path d="M-12.521949951269454,154.99483153393385L-2.361716072026185,159.26476412517812L-0.059739704579827725,159.43591207685458z" style="fill:rgb(83,212,212)"/><path d="M54.08326804330715,163.654874289052L38.68671503045249,160.08563828691405L42.92000668643875,167.5879468403935z" style="fill:rgb(146,43,221)"/><path d="M27.363575663286685,163.45801595252127L4.757224245506242,168.33056292656102L16.03305076954959,166.20977620680844z" style="fill:rgb(83,212,212)"/><path d="M23.476902810459357,124.02031005896569L-13.735639864829977,61.73410519275211L18.87665147921522,119.85333169200378z" style="fill:rgb(30,49,155)"/><path d="M45.77756303570248,143.54244373847183L42.000804855270665,136.62496190301366L37.999010169938416,142.75432729939484z" style="fill:rgb(226,102,203)"/><path d="M36.62879096704244,144.1930646361288L40.071610420069035,139.5798171566447L39.61600203028651,126.15546928001709zM4.534313029257105,159.77748670677647L8.973996190582294,159.24840014744797L8.832407077149291,140.30938719447465z" style="fill:rgb(83,212,212)"/><path d="M16.025762443918474,165.66094812560453L4.627667411761515,159.78443545894018L8.703309362189863,166.5467508247255z" style="fill:rgb(114,34,213)"/><path d="M65.11215130399354,159.13664272647037L49.93966138156797,156.10760983550512L54.08326804330715,163.654874289052z" style="fill:rgb(153,46,222)"/><path d="M42.92000668643875,167.5879468403935L38.68671503045249,160.08563828691405L27.363575663286685,163.45801595252127z" style="fill:rgb(138,40,220)"/><path d="M8.703309362189863,166.5467508247255L4.627667411761515,159.78443545894018L-2.361716072026185,159.26476412517812z" style="fill:rgb(89,32,203)"/><path d="M70.85937427761097,156.44154036019827L61.059530065932734,151.54334530416054L65.11215130399354,159.13664272647037z" style="fill:rgb(160,49,222)"/><path d="M41.81917981218837,149.6480785947294L32.71431585391333,148.3033205631083L36.58402592394725,155.17050282060399z" style="fill:rgb(209,83,214)"/><path d="M-0.05824142767025686,129.325954732802L-34.055068309386215,78.35714466460873L-0.05856320939261509,135.79261189304515z" style="fill:rgb(247,158,158)"/><path d="M19.472924940386513,156.5259121884591L24.084456415527885,154.17263447662344L23.60737055467616,130.4953037333447zM40.071610420069035,139.5798171566447L42.000804855270665,136.62496190301366L42.171716149157206,136.19323309128967z" style="fill:rgb(83,212,212)"/><path d="M23.356258123467132,163.38510272069206L11.997079207329548,158.87556261107054L16.025762443918474,165.66094812560453z" style="fill:rgb(140,41,220)"/><path d="M54.08326804330715,163.654874289052L49.93966138156797,156.10760983550512L38.68671503045249,160.08563828691405z" style="fill:rgb(146,43,221)"/><path d="M15.018980886112214,157.93328707249225L19.472924940386513,156.5259121884591L19.152221658429976,136.8017096359804z" style="fill:rgb(83,212,212)"/><path d="M36.58402592394725,155.17050282060399L26.403075267088848,152.9894277559596L30.325940522213696,159.8286512728724z" style="fill:rgb(189,66,220)"/><path d="M41.81917981218837,149.6480785947294L37.999010169938416,142.75432729939484L32.71431585391333,148.3033205631083z" style="fill:rgb(209,83,214)"/><path d="M30.325940522213696,159.8286512728724L19.379431183778664,156.5736274080892L23.356258123467132,163.38510272069206z" style="fill:rgb(165,51,222)"/><path d="M65.11215130399354,159.13664272647037L61.059530065932734,151.54334530416054L49.93966138156797,156.10760983550512z" style="fill:rgb(153,46,222)"/><path d="M16.025762443918474,165.66094812560453L11.997079207329548,158.87556261107054L4.627667411761515,159.78443545894018z" style="fill:rgb(114,34,213)"/><path d="M70.85937427761097,156.44154036019827L66.85534868132882,148.82341237329706L61.059530065932734,151.54334530416054z" style="fill:rgb(160,49,222)"/><path d="M8.973996190582294,159.24840014744797L11.964194208920379,155.58628336976207L8.937438570500001,154.35843916470606zM27.363575663286685,163.45801595252127L38.68671503045249,160.08563828691405L49.93966138156797,156.10760983550512zM36.62879096704244,144.1930646361288L37.999010169938416,142.75432729939484L40.071610420069035,139.5798171566447zM11.997079207329548,158.87556261107054L14.95770681602006,153.04143233158695L11.964194208920379,155.58628336976207z" style="fill:rgb(83,212,212)"/><path d="M36.58402592394725,155.17050282060399L32.71431585391333,148.3033205631083L26.403075267088848,152.9894277559596z" style="fill:rgb(189,66,220)"/><path d="M27.363575663286685,163.45801595252127L49.93966138156797,156.10760983550512L61.059530065932734,151.54334530416054zM4.534313029257105,159.77748670677647L4.627667411761515,159.78443545894018L8.973996190582294,159.24840014744797z" style="fill:rgb(83,212,212)"/><path d="M23.356258123467132,163.38510272069206L19.379431183778664,156.5736274080892L11.997079207329548,158.87556261107054z" style="fill:rgb(140,41,220)"/><path d="M27.363575663286685,163.45801595252127L61.059530065932734,151.54334530416054L66.85534868132882,148.82341237329706z" style="fill:rgb(83,212,212)"/><path d="M30.325940522213696,159.8286512728724L26.403075267088848,152.9894277559596L19.379431183778664,156.5736274080892z" style="fill:rgb(165,51,222)"/><path d="M8.973996190582294,159.24840014744797L11.997079207329548,158.87556261107054L11.964194208920379,155.58628336976207zM11.997079207329548,158.87556261107054L15.018980886112214,157.93328707249225L14.95770681602006,153.04143233158695z" style="fill:rgb(83,212,212)"/><path d="M-1.3028327139618616,62.5967917712546L31.61320126951466,126.99452344515736L30.770597408397176,121.02668699610025z" style="fill:rgb(246,166,149)"/><path d="M24.084456415527885,154.17263447662344L32.71431585391333,148.3033205631083L36.62879096704244,144.1930646361288z" style="fill:rgb(83,212,212)"/><path d="M-1.6399078241265277,145.4042388430882L-40.477098967061245,84.17828995386459L-6.023837598605515,141.38917904259458z" style="fill:rgb(31,48,157)"/><path d="M24.084456415527885,154.17263447662344L26.403075267088848,152.9894277559596L32.71431585391333,148.3033205631083zM15.018980886112214,157.93328707249225L19.379431183778664,156.5736274080892L19.472924940386513,156.5259121884591z" style="fill:rgb(83,212,212)"/><path d="M-0.59185960655243,68.60783251196578L29.746673591726758,133.42015205143423L31.61320126951466,126.99452344515736z" style="fill:rgb(242,132,181)"/><path d="M4.610228684479312,147.34074424623523L-36.00787233429479,88.12632239403176L-1.6399078241265277,145.4042388430882z" style="fill:rgb(64,34,187)"/><path d="M11.603717969583013,119.53011088768494L-21.345097421412635,61.60514712347787L-29.002529364874302,65.44334654141613z" style="fill:rgb(164,51,222)"/><path d="M29.746673591726758,133.42015205143423L-7.477101686809361,81.3437431443371L25.395069501799533,139.41469466838998z" style="fill:rgb(223,97,206)"/><path d="M-29.002529364874302,65.44334654141613L-33.85615289908602,71.81830065013776L-0.05824142767025686,129.325954732802z" style="fill:rgb(224,99,205)"/><path d="M18.87665147921522,119.85333169200378L-13.735639864829977,61.73410519275211L-21.345097421412635,61.60514712347787z" style="fill:rgb(90,32,203)"/><path d="M-21.8809123438135,89.28620775066562L4.610228684479312,147.34074424623523L11.877375974472644,146.90240226437874z" style="fill:rgb(105,33,210)"/><path d="M-7.477101686809361,81.3437431443371L19.147301547028352,144.13200418593712L25.395069501799533,139.41469466838998z" style="fill:rgb(190,67,220)"/><path d="M19.147301547028352,144.13200418593712L-21.8809123438135,89.28620775066562L11.877375974472644,146.90240226437874z" style="fill:rgb(149,44,221)"/><path d="M-0.05824142767025686,129.325954732802L-33.85615289908602,71.81830065013776L-34.055068309386215,78.35714466460873z" style="fill:rgb(247,158,158)"/><path d="M23.476902810459357,124.02031005896569L-9.037169088749001,65.82041547134828L-13.735639864829977,61.73410519275211z" style="fill:rgb(30,49,155)"/><path d="M-1.3028327139618616,62.5967917712546L-0.59185960655243,68.60783251196578L31.61320126951466,126.99452344515736z" style="fill:rgb(246,166,149)"/><path d="M-1.6399078241265277,145.4042388430882L-36.00787233429479,88.12632239403176L-40.477098967061245,84.17828995386459z" style="fill:rgb(31,48,157)"/><path d="M-29.002529364874302,65.44334654141613L-25.017922576327326,56.61607355081467L-28.82609424512657,58.71166120804801zM-29.002529364874302,65.44334654141613L-21.230570361359334,55.6884961695723L-25.017922576327326,56.61607355081467zM-21.345097421412635,61.60514712347787L-17.436077700333644,54.759169989728925L-21.230570361359334,55.6884961695723zM-33.85615289908602,71.81830065013776L-28.82609424512657,58.71166120804801L-32.12587401640613,60.527476514506795zM-33.85615289908602,71.81830065013776L-32.12587401640613,60.527476514506795L-33.55419979012633,61.89236470847447zM-21.345097421412635,61.60514712347787L-13.651764339150843,54.999639830830894L-17.436077700333644,54.759169989728925zM-29.002529364874302,65.44334654141613L-21.345097421412635,61.60514712347787L-21.230570361359334,55.6884961695723z" style="fill:rgb(83,212,212)"/><path d="M-0.59185960655243,68.60783251196578L-2.736271234544949,75.15901417735147L29.746673591726758,133.42015205143423z" style="fill:rgb(242,132,181)"/><path d="M-33.85615289908602,71.81830065013776L-29.002529364874302,65.44334654141613L-28.82609424512657,58.71166120804801z" style="fill:rgb(83,212,212)"/><path d="M4.610228684479312,147.34074424623523L-29.515364749423533,89.92224871708865L-36.00787233429479,88.12632239403176z" style="fill:rgb(64,34,187)"/><path d="M-13.735639864829977,61.73410519275211L-10.361084119195326,55.20873412967668L-13.651764339150843,54.999639830830894zM-21.345097421412635,61.60514712347787L-13.735639864829977,61.73410519275211L-13.651764339150843,54.999639830830894zM-40.477098967061245,84.17828995386459L-33.55419979012633,61.89236470847447L-37.84219402959901,65.98990418491373zM-13.735639864829977,61.73410519275211L-8.956075263564648,55.88745839680818L-10.361084119195326,55.20873412967668z" style="fill:rgb(83,212,212)"/><path d="M29.746673591726758,133.42015205143423L-2.736271234544949,75.15901417735147L-7.477101686809361,81.3437431443371z" style="fill:rgb(223,97,206)"/><path d="M-21.8809123438135,89.28620775066562L-29.515364749423533,89.92224871708865L4.610228684479312,147.34074424623523z" style="fill:rgb(105,33,210)"/><path d="M-40.477098967061245,84.17828995386459L-37.84219402959901,65.98990418491373L-41.414721408591085,72.30387171899692zM-13.735639864829977,61.73410519275211L-9.037169088749001,65.82041547134828L-8.956075263564648,55.88745839680818z" style="fill:rgb(83,212,212)"/><path d="M-7.477101686809361,81.3437431443371L-14.171610738301004,86.28735153646467L19.147301547028352,144.13200418593712z" style="fill:rgb(190,67,220)"/><path d="M19.147301547028352,144.13200418593712L-14.171610738301004,86.28735153646467L-21.8809123438135,89.28620775066562z" style="fill:rgb(149,44,221)"/><path d="M-40.477098967061245,84.17828995386459L-41.414721408591085,72.30387171899692L-42.34821332940629,78.64905912190241zM-40.477098967061245,84.17828995386459L-34.36606789352271,88.58046580050966L-33.55419979012633,61.89236470847447zM-9.174134615020863,82.59692743622266L-4.726169934436266,57.93080466085396L-8.956075263564648,55.88745839680818zM-9.174134615020863,82.59692743622266L-1.3028327139618616,62.5967917712546L-4.726169934436266,57.93080466085396zM-34.36606789352271,88.58046580050966L-29.45130308054762,82.5658208166018L-34.055068309386215,78.35714466460873zM-40.477098967061245,84.17828995386459L-36.00787233429479,88.12632239403176L-34.36606789352271,88.58046580050966zM-9.174134615020863,82.59692743622266L-0.59185960655243,68.60783251196578L-1.3028327139618616,62.5967917712546zM-34.36606789352271,88.58046580050966L-29.64318556515988,89.88688344948287L-29.45130308054762,82.5658208166018zM-29.64318556515988,89.88688344948287L-21.754888942766907,82.77563202542785L-29.45130308054762,82.5658208166018zM-14.040234002685079,86.19033493839501L-9.090595708840002,72.36448469380585L-13.948999966102235,78.86503519577406zM-9.174134615020863,82.59692743622266L-2.736271234544949,75.15901417735147L-0.59185960655243,68.60783251196578zM-21.8809123438135,89.28620775066562L-13.948999966102235,78.86503519577406L-21.754888942766907,82.77563202542785zM-29.64318556515988,89.88688344948287L-21.8809123438135,89.28620775066562L-21.754888942766907,82.77563202542785zM-14.040234002685079,86.19033493839501L-9.174134615020863,82.59692743622266L-9.090595708840002,72.36448469380585zM-29.64318556515988,89.88688344948287L-29.515364749423533,89.92224871708865L-21.8809123438135,89.28620775066562zM-21.8809123438135,89.28620775066562L-14.040234002685079,86.19033493839501L-13.948999966102235,78.86503519577406zM-9.174134615020863,82.59692743622266L-7.477101686809361,81.3437431443371L-2.736271234544949,75.15901417735147zM-21.8809123438135,89.28620775066562L-14.171610738301004,86.28735153646467L-14.040234002685079,86.19033493839501z" style="fill:rgb(83,212,212)"/></svg>
