<?xml version="1.0" encoding="UTF-8"?>
<!-- Generated by jsxcad -->
<!DOCTYPE svg PUBLIC "-//W3C//DTD SVG 1.1 Tiny//EN" "http://www.w3.org/Graphics/SVG/1.1/DTD/svg11-tiny.dtd">
<svg viewBox="-250 -250 500 500" width="500" height="500" xmlns="http://www.w3.org/2000/svg"><path d="M7.359563197089943,-93.87287753753787L-33.1002367234012,-71.03876802006491L-34.51183536963281,-29.668656621174534zM50.95392560847348,-52.48807574214028L48.82727065344756,-93.75029320351497L7.359563197089943,-93.87287753753787zM3.7088829493026156,-40.46260782771611L7.359563197089943,-93.87287753753787L-34.51183536963281,-29.668656621174534zM7.359563197089943,-93.87287753753787L5.239614392267479,-44.30703204491547L10.24238719199665,-45.64774544579759zM3.7088829493026156,-40.46260782771611L5.239614392267479,-44.30703204491547L7.359563197089943,-93.87287753753787z" style="fill:rgb(83,212,212)"/><path d="M50.86817957136657,-88.99480855837345L48.82727065344756,-93.75029320351497L50.95392560847348,-52.48807574214028z" style="fill:rgb(247,158,158)"/><path d="M7.359563197089943,-93.87287753753787L10.24238719199665,-45.64774544579759L11.831475096067646,-42.63252745578914zM55.1096502030813,-42.84468717830548L7.359563197089943,-93.87287753753787L11.831475096067646,-42.63252745578914zM51.54534941837587,-48.96948939915202L50.95392560847348,-52.48807574214028L7.359563197089943,-93.87287753753787z" style="fill:rgb(83,212,212)"/><path d="M5.239614392267479,-44.30703204491547L7.524592220490882,-39.63287557826793L12.508613080561576,-40.96206416828582z" style="fill:rgb(127,37,217)"/><path d="M52.93891207563775,-45.727375410422006L51.54534941837587,-48.96948939915202L7.359563197089943,-93.87287753753787z" style="fill:rgb(83,212,212)"/><path d="M50.95392560847348,-52.48807574214028L53.074042672188675,-47.706707393901034L50.86817957136657,-88.99480855837345z" style="fill:rgb(247,158,158)"/><path d="M3.7088829493026156,-40.46260782771611L6.00742788505729,-35.79081830996202L7.524592220490882,-39.63287557826793z" style="fill:rgb(241,128,184)"/><path d="M7.782675018217313,-39.41447892782945L-34.51183536963281,-29.668656621174534L-35.02346404983821,-25.93321941250524z" style="fill:rgb(83,212,212)"/><path d="M12.508613080561576,-40.96206416828582L10.24238719199665,-45.64774544579759L5.239614392267479,-44.30703204491547z" style="fill:rgb(127,37,217)"/><path d="M7.524592220490882,-39.63287557826793L5.239614392267479,-44.30703204491547L3.7088829493026156,-40.46260782771611z" style="fill:rgb(241,128,184)"/><path d="M10.24238719199665,-45.64774544579759L12.508613080561576,-40.96206416828582L14.099468722621273,-37.94202159140643z" style="fill:rgb(13,70,126)"/><path d="M55.1096502030813,-42.84468717830548L52.93891207563775,-45.727375410422006L7.359563197089943,-93.87287753753787zM7.782675018217313,-39.41447892782945L3.7088829493026156,-40.46260782771611L-34.51183536963281,-29.668656621174534zM7.782675018217313,-39.41447892782945L-35.02346404983821,-25.93321941250524L-36.30366526710059,-22.058261499199844z" style="fill:rgb(83,212,212)"/><path d="M14.099468722621273,-37.94202159140643L11.831475096067646,-42.63252745578914L10.24238719199665,-45.64774544579759z" style="fill:rgb(13,70,126)"/><path d="M7.782675018217313,-39.41447892782945L-36.30366526710059,-22.058261499199844L-38.3269362455366,-18.142011115787973zM7.782675018217313,-39.41447892782945L-38.3269362455366,-18.142011115787973L-41.04722341226047,-14.285585789193611zM-125.23146912345526,17.489565362848477L-106.56924639247393,25.742609038767604L-103.49215444008715,24.94927393378382zM-107.75296821818687,28.30811425243981L-106.56924639247393,25.742609038767604L-125.23146912345526,17.489565362848477zM-107.75296821818687,28.30811425243981L-125.23146912345526,17.489565362848477L-108.17325003475904,32.407820028011464z" style="fill:rgb(83,212,212)"/><path d="M-103.76851203920845,30.169689783591586L-100.70267213156829,29.383257419059515L-103.49215444008715,24.94927393378382z" style="fill:rgb(127,37,217)"/><path d="M-104.94167464410815,32.73251274285631L-103.76851203920845,30.169689783591586L-106.56924639247393,25.742609038767604z" style="fill:rgb(241,128,184)"/><path d="M-113.08498940921857,34.814467741155894L-108.17325003475904,32.407820028011464L-125.23146912345526,17.489565362848477zM-117.4659371907492,38.13468879158116L-113.08498940921857,34.814467741155894L-125.23146912345526,17.489565362848477z" style="fill:rgb(83,212,212)"/><path d="M-103.49215444008715,24.94927393378382L-106.56924639247393,25.742609038767604L-103.76851203920845,30.169689783591586z" style="fill:rgb(127,37,217)"/><path d="M-120.93890428421537,42.08665990620437L-117.4659371907492,38.13468879158116L-125.23146912345526,17.489565362848477z" style="fill:rgb(83,212,212)"/><path d="M-106.56924639247393,25.742609038767604L-107.75296821818687,28.30811425243981L-104.94167464410815,32.73251274285631z" style="fill:rgb(241,128,184)"/><path d="M-123.19868324665002,46.33337348227176L-120.93890428421537,42.08665990620437L-125.23146912345526,17.489565362848477zM-67.17406586621395,2.3277841970406956L-125.23146912345526,17.489565362848477L-73.85157674539218,34.088348019649196zM-132.35615584464563,52.25650685976887L-125.23146912345526,17.489565362848477L-146.55865911542523,55.2046815568513zM-125.23146912345526,17.489565362848477L-131.1112904856303,49.61578783245003L-128.01936977721982,48.83248738219883zM-132.35615584464563,52.25650685976887L-131.1112904856303,49.61578783245003L-125.23146912345526,17.489565362848477z" style="fill:rgb(83,212,212)"/><path d="M51.54534941837587,-48.96948939915202L53.67082348738622,-44.18562404043098L53.074042672188675,-47.706707393901034zM53.074042672188675,-47.706707393901034L50.95392560847348,-52.48807574214028L51.54534941837587,-48.96948939915202z" style="fill:rgb(246,165,151)"/><path d="M-73.85157674539218,34.088348019649196L-125.23146912345526,17.489565362848477L-103.49215444008715,24.94927393378382z" style="fill:rgb(83,212,212)"/><path d="M-113.08498940921857,34.814467741155894L-110.23995062393348,39.22669179284523L-105.34940318961377,36.83112120395553z" style="fill:rgb(162,50,222)"/><path d="M-125.23146912345526,17.489565362848477L-128.01936977721982,48.83248738219883L-127.342679463283,50.98937941952547z" style="fill:rgb(83,212,212)"/><path d="M-108.17325003475904,32.407820028011464L-105.34940318961377,36.83112120395553L-100.34504002693829,35.55537541828918z" style="fill:rgb(127,37,217)"/><path d="M-124.03786911178292,50.5078073622899L-123.19868324665002,46.33337348227176L-125.23146912345526,17.489565362848477z" style="fill:rgb(83,212,212)"/><path d="M-117.4659371907492,38.13468879158116L-114.5987035691748,42.53694687754672L-110.23995062393348,39.22669179284523z" style="fill:rgb(194,70,219)"/><path d="M-105.40160568657934,29.106083066625295L-107.75296821818687,28.30811425243981L-108.17325003475904,32.407820028011464zM-124.03786911178292,50.5078073622899L-125.23146912345526,17.489565362848477L-127.342679463283,50.98937941952547zM7.782675018217313,-39.41447892782945L-41.04722341226047,-14.285585789193611L-73.85157674539218,34.088348019649196z" style="fill:rgb(83,212,212)"/><path d="M-105.34940318961377,36.83112120395553L-108.17325003475904,32.407820028011464L-113.08498940921857,34.814467741155894z" style="fill:rgb(162,50,222)"/><path d="M-102.76358184373571,27.0246158476571L-105.40160568657934,29.106083066625295L-108.17325003475904,32.407820028011464zM-103.49215444008715,24.94927393378382L-102.76358184373571,27.0246158476571L-98.44714033802305,31.06804591836816z" style="fill:rgb(83,212,212)"/><path d="M-118.05034523634149,46.480854414053525L-114.5987035691748,42.53694687754672L-117.4659371907492,38.13468879158116z" style="fill:rgb(221,95,207)"/><path d="M-110.23995062393348,39.22669179284523L-113.08498940921857,34.814467741155894L-117.4659371907492,38.13468879158116z" style="fill:rgb(194,70,219)"/><path d="M-41.04722341226047,-14.285585789193611L-44.398637911465585,-10.590044465881787L-73.85157674539218,34.088348019649196z" style="fill:rgb(83,212,212)"/><path d="M-103.1504368122667,31.12081133277769L-100.34504002693829,35.55537541828918L-95.65594393927049,35.51310023963353z" style="fill:rgb(92,32,204)"/><path d="M-100.34504002693829,35.55537541828918L-103.1504368122667,31.12081133277769L-108.17325003475904,32.407820028011464z" style="fill:rgb(127,37,217)"/><path d="M-102.76358184373571,27.0246158476571L-108.17325003475904,32.407820028011464L-103.1504368122667,31.12081133277769zM-44.398637911465585,-10.590044465881787L-48.296926141818915,-7.153290049268076L-73.85157674539218,34.088348019649196z" style="fill:rgb(83,212,212)"/><path d="M52.93891207563775,-45.727375410422006L55.066473971610264,-40.93928027474858L53.67082348738622,-44.18562404043098zM53.67082348738622,-44.18562404043098L51.54534941837587,-48.96948939915202L52.93891207563775,-45.727375410422006z" style="fill:rgb(244,178,136)"/><path d="M-62.20656533512292,0.7369047834620083L-67.17406586621395,2.3277841970406956L-73.85157674539218,34.088348019649196zM-102.76358184373571,27.0246158476571L-103.1504368122667,31.12081133277769L-98.44714033802305,31.06804591836816z" style="fill:rgb(83,212,212)"/><path d="M-117.4659371907492,38.13468879158116L-120.93890428421537,42.08665990620437L-118.05034523634149,46.480854414053525z" style="fill:rgb(221,95,207)"/><path d="M-48.296926141818915,-7.153290049268076L-52.64170733801057,-4.06695492910009L-73.85157674539218,34.088348019649196z" style="fill:rgb(83,212,212)"/><path d="M-120.29147292068942,50.72205411846193L-118.05034523634149,46.480854414053525L-120.93890428421537,42.08665990620437z" style="fill:rgb(239,123,189)"/><path d="M-57.319374904896414,-1.4134137949003842L-62.20656533512292,0.7369047834620083L-73.85157674539218,34.088348019649196zM-52.64170733801057,-4.06695492910009L-57.319374904896414,-1.4134137949003842L-73.85157674539218,34.088348019649196z" style="fill:rgb(83,212,212)"/><path d="M-95.65594393927049,35.51310023963353L-98.44714033802305,31.06804591836816L-103.1504368122667,31.12081133277769z" style="fill:rgb(92,32,204)"/><path d="M-98.44714033802305,31.06804591836816L-95.65594393927049,35.51310023963353L-91.68945966235302,36.716280470245096z" style="fill:rgb(60,35,184)"/><path d="M-103.49215444008715,24.94927393378382L-98.44714033802305,31.06804591836816L-94.47191992850767,32.26245893880287zM0.48861352955576537,-14.367323317736531L5.417700722636141,-16.520299360110364L7.782675018217313,-39.41447892782945zM-4.038457488921066,-11.498794696340632L0.48861352955576537,-14.367323317736531L7.782675018217313,-39.41447892782945zM5.417700722636141,-16.520299360110364L10.496283961337129,-17.84644200080934L7.782675018217313,-39.41447892782945zM58.01262975468299,-40.397345751858936L55.1096502030813,-42.84468717830548L11.831475096067646,-42.63252745578914zM7.782675018217313,-39.41447892782945L-7.930454681443332,-8.060888101628462L-4.038457488921066,-11.498794696340632z" style="fill:rgb(83,212,212)"/><path d="M-128.17143780257368,53.98663369931487L-125.09084092061285,53.21021951338255L-128.01936977721982,48.83248738219883z" style="fill:rgb(127,37,217)"/><path d="M-129.40508627969956,56.62419923037289L-128.17143780257368,53.98663369931487L-131.1112904856303,49.61578783245003z" style="fill:rgb(241,128,184)"/><path d="M-120.93890428421537,42.08665990620437L-123.19868324665002,46.33337348227176L-120.29147292068942,50.72205411846193z" style="fill:rgb(239,123,189)"/><path d="M10.496283961337129,-17.84644200080934L15.46329626880527,-18.27437652331208L7.782675018217313,-39.41447892782945z" style="fill:rgb(83,212,212)"/><path d="M-128.01936977721982,48.83248738219883L-131.1112904856303,49.61578783245003L-128.17143780257368,53.98663369931487z" style="fill:rgb(127,37,217)"/><path d="M-91.68945966235302,36.716280470245096L-94.47191992850767,32.26245893880287L-98.44714033802305,31.06804591836816z" style="fill:rgb(60,35,184)"/><path d="M-121.11635799669149,54.893980516299116L-120.29147292068942,50.72205411846193L-123.19868324665002,46.33337348227176z" style="fill:rgb(246,151,164)"/><path d="M7.782675018217313,-39.41447892782945L-17.57206337308684,0.9437728002521254L-7.930454681443332,-8.060888101628462z" style="fill:rgb(83,212,212)"/><path d="M-131.1112904856303,49.61578783245003L-132.35615584464563,52.25650685976887L-129.40508627969956,56.62419923037289z" style="fill:rgb(241,128,184)"/><path d="M15.46329626880527,-18.27437652331208L20.06057756623155,-17.776429881430126L7.782675018217313,-39.41447892782945z" style="fill:rgb(83,212,212)"/><path d="M0.48861352955576537,-14.367323317736531L2.857180345955077,-9.69756795146091L7.765341659484405,-11.839280864544495z" style="fill:rgb(155,46,222)"/><path d="M-85.38055490301103,38.03042560686301L-103.49215444008715,24.94927393378382L-94.47191992850767,32.26245893880287z" style="fill:rgb(83,212,212)"/><path d="M-91.68945966235302,36.716280470245096L-88.7982308921692,39.07146059240289L-91.57825862179274,34.61143313727784z" style="fill:rgb(33,47,159)"/><path d="M-4.038457488921066,-11.498794696340632L-1.6486226859829454,-6.8392948115908325L2.857180345955077,-9.69756795146091z" style="fill:rgb(181,60,221)"/><path d="M-130.0278405878179,53.11133412517564L-132.35615584464563,52.25650685976887L-146.55865911542523,55.2046815568513zM7.782675018217313,-39.41447892782945L-21.149022348973308,4.616693110209283L-17.57206337308684,0.9437728002521254z" style="fill:rgb(83,212,212)"/><path d="M-91.57825862179274,34.61143313727784L-94.47191992850767,32.26245893880287L-91.68945966235302,36.716280470245096z" style="fill:rgb(33,47,159)"/><path d="M5.417700722636141,-16.520299360110364L7.765341659484405,-11.839280864544495L12.824358301100967,-13.153707987994828z" style="fill:rgb(127,37,217)"/><path d="M-123.19868324665002,46.33337348227176L-124.03786911178292,50.5078073622899L-121.11635799669149,54.893980516299116z" style="fill:rgb(246,151,164)"/><path d="M-7.930454681443332,-8.060888101628462L-5.520052416077309,-3.4101436831897964L-1.6486226859829454,-6.8392948115908325z" style="fill:rgb(204,78,216)"/><path d="M2.857180345955077,-9.69756795146091L0.48861352955576537,-14.367323317736531L-4.038457488921066,-11.498794696340632z" style="fill:rgb(181,60,221)"/><path d="M7.765341659484405,-11.839280864544495L5.417700722636141,-16.520299360110364L0.48861352955576537,-14.367323317736531z" style="fill:rgb(155,46,222)"/><path d="M7.782675018217313,-39.41447892782945L-24.22829125562533,8.503876299928633L-21.149022348973308,4.616693110209283z" style="fill:rgb(83,212,212)"/><path d="M-120.43737641265844,58.628815103439095L-121.11635799669149,54.893980516299116L-124.03786911178292,50.5078073622899z" style="fill:rgb(244,177,137)"/><path d="M10.496283961337129,-17.84644200080934L12.824358301100967,-13.153707987994828L17.774117653542287,-13.570076130314952z" style="fill:rgb(99,32,208)"/><path d="M-1.6486226859829454,-6.8392948115908325L-4.038457488921066,-11.498794696340632L-7.930454681443332,-8.060888101628462z" style="fill:rgb(204,78,216)"/><path d="M12.824358301100967,-13.153707987994828L10.496283961337129,-17.84644200080934L5.417700722636141,-16.520299360110364z" style="fill:rgb(127,37,217)"/><path d="M7.782675018217313,-39.41447892782945L-73.85157674539218,34.088348019649196L-68.7612616809341,32.7974664273527z" style="fill:rgb(83,212,212)"/><path d="M-10.926813769097638,-4.300394552474883L-8.497932185231425,0.3436330209566764L-5.520052416077309,-3.4101436831897964z" style="fill:rgb(223,98,206)"/><path d="M-103.49215444008715,24.94927393378382L-85.38055490301103,38.03042560686301L-82.21595788865883,37.22871353974756z" style="fill:rgb(83,212,212)"/><path d="M-5.520052416077309,-3.4101436831897964L-7.930454681443332,-8.060888101628462L-10.926813769097638,-4.300394552474883z" style="fill:rgb(223,98,206)"/><path d="M-13.558785422381073,-2.455692001334347L-11.117061820034081,2.1823376491316684L-8.497932185231425,0.3436330209566764z" style="fill:rgb(188,65,220)"/><path d="M17.774117653542287,-13.570076130314952L15.46329626880527,-18.27437652331208L10.496283961337129,-17.84644200080934z" style="fill:rgb(99,32,208)"/><path d="M15.46329626880527,-18.27437652331208L17.774117653542287,-13.570076130314952L22.357327939189545,-13.061333124085111z" style="fill:rgb(73,33,194)"/><path d="M-123.36745221405754,54.24190311938064L-124.03786911178292,50.5078073622899L-127.342679463283,50.98937941952547zM7.782675018217313,-39.41447892782945L-68.7612616809341,32.7974664273527L-67.42601481994534,36.23883510827096z" style="fill:rgb(83,212,212)"/><path d="M-124.03786911178292,50.5078073622899L-123.36745221405754,54.24190311938064L-120.43737641265844,58.628815103439095z" style="fill:rgb(244,177,137)"/><path d="M-17.57206337308684,0.9437728002521254L-15.109344440134086,5.572650651228241L-11.117061820034081,2.1823376491316684z" style="fill:rgb(201,75,217)"/><path d="M-85.38055490301103,38.03042560686301L-94.47191992850767,32.26245893880287L-91.57825862179274,34.61143313727784zM-75.69123132706949,38.3270069666208L-103.49215444008715,24.94927393378382L-82.21595788865883,37.22871353974756z" style="fill:rgb(83,212,212)"/><path d="M-8.497932185231425,0.3436330209566764L-10.926813769097638,-4.300394552474883L-13.558785422381073,-2.455692001334347z" style="fill:rgb(188,65,220)"/><path d="M-75.69123132706949,38.3270069666208L-73.85157674539218,34.088348019649196L-103.49215444008715,24.94927393378382z" style="fill:rgb(83,212,212)"/><path d="M-11.117061820034081,2.1823376491316684L-13.558785422381073,-2.455692001334347L-17.57206337308684,0.9437728002521254z" style="fill:rgb(201,75,217)"/><path d="M-13.558785422381073,-2.455692001334347L-10.926813769097638,-4.300394552474883L-7.930454681443332,-8.060888101628462zM86.80206201538729,-2.7262300294621733L11.831475096067646,-42.63252745578914L7.782675018217313,-39.41447892782945z" style="fill:rgb(83,212,212)"/><path d="M-21.149022348973308,4.616693110209283L-18.66601487000131,9.237376031796382L-15.109344440134086,5.572650651228241z" style="fill:rgb(213,86,212)"/><path d="M22.357327939189545,-13.061333124085111L20.06057756623155,-17.776429881430126L15.46329626880527,-18.27437652331208z" style="fill:rgb(73,33,194)"/><path d="M-17.57206337308684,0.9437728002521254L-13.558785422381073,-2.455692001334347L-7.930454681443332,-8.060888101628462zM-121.22958887676472,57.19819363916384L-123.36745221405754,54.24190311938064L-127.342679463283,50.98937941952547z" style="fill:rgb(83,212,212)"/><path d="M20.06057756623155,-17.776429881430126L22.357327939189545,-13.061333124085111L26.331381078278994,-11.646511245976331z" style="fill:rgb(50,38,176)"/><path d="M-15.109344440134086,5.572650651228241L-17.57206337308684,0.9437728002521254L-21.149022348973308,4.616693110209283z" style="fill:rgb(213,86,212)"/><path d="M-82.61038121702677,42.50373838754149L-79.45769897297566,41.70916082022811L-82.21595788865883,37.22871353974756z" style="fill:rgb(127,37,217)"/><path d="M-83.76870218594793,45.14943246778777L-82.61038121702677,42.50373838754149L-85.38055490301103,38.03042560686301z" style="fill:rgb(241,128,184)"/><path d="M-86.5495594894811,40.67914391611559L-91.57825862179274,34.61143313727784L-90.03315490646185,37.92046204638072z" style="fill:rgb(83,212,212)"/><path d="M-24.22829125562533,8.503876299928633L-21.726034288676654,13.117433681886618L-18.66601487000131,9.237376031796382z" style="fill:rgb(223,98,205)"/><path d="M-86.5495594894811,40.67914391611559L-85.38055490301103,38.03042560686301L-91.57825862179274,34.61143313727784z" style="fill:rgb(83,212,212)"/><path d="M-82.21595788865883,37.22871353974756L-85.38055490301103,38.03042560686301L-82.61038121702677,42.50373838754149z" style="fill:rgb(127,37,217)"/><path d="M-18.66601487000131,9.237376031796382L-21.149022348973308,4.616693110209283L-24.22829125562533,8.503876299928633z" style="fill:rgb(223,98,205)"/><path d="M26.331381078278994,-11.646511245976331L24.044776854086578,-16.371025788823893L20.06057756623155,-17.776429881430126z" style="fill:rgb(50,38,176)"/><path d="M-73.85157674539218,34.088348019649196L-71.12758392740388,38.587837188030356L-66.0565576554265,37.30846570703447z" style="fill:rgb(127,37,217)"/><path d="M-85.38055490301103,38.03042560686301L-86.5495594894811,40.67914391611559L-83.76870218594793,45.14943246778777z" style="fill:rgb(241,128,184)"/><path d="M24.044776854086578,-16.371025788823893L26.331381078278994,-11.646511245976331L29.42127353765043,-9.43376374793743z" style="fill:rgb(31,48,156)"/><path d="M-86.5495594894811,40.67914391611559L-90.03315490646185,37.92046204638072L-89.99019507493925,41.90551596608264zM-130.0278405878179,53.11133412517564L-146.55865911542523,55.2046815568513L-133.3705984084424,86.2912276178162z" style="fill:rgb(83,212,212)"/><path d="M-26.75536594831846,12.54212042631167L-24.235218091223143,17.149718089393847L-21.726034288676654,13.117433681886618z" style="fill:rgb(232,111,197)"/><path d="M-75.69123132706949,38.3270069666208L-72.95038514709002,42.82171962075588L-71.12758392740388,38.587837188030356z" style="fill:rgb(241,128,184)"/><path d="M-21.726034288676654,13.117433681886618L-24.22829125562533,8.503876299928633L-26.75536594831846,12.54212042631167z" style="fill:rgb(232,111,197)"/><path d="M-66.0565576554265,37.30846570703447L-68.7612616809341,32.7974664273527L-73.85157674539218,34.088348019649196z" style="fill:rgb(127,37,217)"/><path d="M-71.12758392740388,38.587837188030356L-73.85157674539218,34.088348019649196L-75.69123132706949,38.3270069666208z" style="fill:rgb(241,128,184)"/><path d="M-127.342679463283,50.98937941952547L-130.0278405878179,53.11133412517564L-133.3705984084424,86.2912276178162zM-84.10113279541503,41.52053850965218L-86.5495594894811,40.67914391611559L-89.99019507493925,41.90551596608264z" style="fill:rgb(83,212,212)"/><path d="M29.42127353765043,-9.43376374793743L27.140208508620283,-14.16561968330822L24.044776854086578,-16.371025788823893z" style="fill:rgb(31,48,156)"/><path d="M27.140208508620283,-14.16561968330822L29.42127353765043,-9.43376374793743L32.11690606880706,-8.952996601219784z" style="fill:rgb(66,34,189)"/><path d="M-84.10113279541503,41.52053850965218L-89.99019507493925,41.90551596608264L-91.47028513594857,46.21468717565375z" style="fill:rgb(83,212,212)"/><path d="M-28.68352418811141,16.664926492892757L-26.147164153579375,21.267814847580045L-24.235218091223143,17.149718089393847zM-24.235218091223143,17.149718089393847L-26.75536594831846,12.54212042631167L-28.68352418811141,16.664926492892757z" style="fill:rgb(239,123,188)"/><path d="M86.80206201538729,-2.7262300294621733L58.01262975468299,-40.397345751858936L11.831475096067646,-42.63252745578914zM-71.72134778343585,39.671437993897094L-82.21595788865883,37.22871353974756L-81.41797503441013,39.38216524586224zM7.782675018217313,-39.41447892782945L-66.35803260726733,70.2668830503633L-24.22829125562533,8.503876299928633zM-71.72134778343585,39.671437993897094L-75.69123132706949,38.3270069666208L-82.21595788865883,37.22871353974756zM24.044776854086578,-16.371025788823893L27.140208508620283,-14.16561968330822L29.84391043871102,-13.691166010060412zM-121.22958887676472,57.19819363916384L-127.342679463283,50.98937941952547L-133.3705984084424,86.2912276178162z" style="fill:rgb(83,212,212)"/><path d="M32.11690606880706,-8.952996601219784L29.84391043871102,-13.691166010060412L27.140208508620283,-14.16561968330822z" style="fill:rgb(66,34,189)"/><path d="M-71.72134778343585,39.671437993897094L-81.41797503441013,39.38216524586224L-84.10113279541503,41.52053850965218z" style="fill:rgb(83,212,212)"/><path d="M29.84391043871102,-13.691166010060412L32.11690606880706,-8.952996601219784L36.251376069492714,-7.62571582727961z" style="fill:rgb(53,37,179)"/><path d="M20.06057756623155,-17.776429881430126L86.80206201538729,-2.7262300294621733L7.782675018217313,-39.41447892782945zM-71.72134778343585,39.671437993897094L-84.10113279541503,41.52053850965218L-91.47028513594857,46.21468717565375zM-111.48267309182158,65.3246252733194L-117.7999168859358,59.101588750521934L-121.22958887676472,57.19819363916384zM7.782675018217313,-39.41447892782945L-67.42601481994534,36.23883510827096L-66.35803260726733,70.2668830503633zM24.044776854086578,-16.371025788823893L29.84391043871102,-13.691166010060412L33.9895675905477,-12.373560645779886z" style="fill:rgb(83,212,212)"/><path d="M-29.974747036813145,20.803296081833633L-27.42415922616955,25.402798607687647L-26.147164153579375,21.267814847580045zM-26.147164153579375,21.267814847580045L-28.68352418811141,16.664926492892757L-29.974747036813145,20.803296081833633z" style="fill:rgb(244,136,178)"/><path d="M36.251376069492714,-7.62571582727961L33.9895675905477,-12.373560645779886L29.84391043871102,-13.691166010060412z" style="fill:rgb(53,37,179)"/><path d="M-111.48267309182158,65.3246252733194L-113.3769983050179,59.76808056111252L-117.7999168859358,59.101588750521934z" style="fill:rgb(83,212,212)"/><path d="M33.9895675905477,-12.373560645779886L36.251376069492714,-7.62571582727961L39.96185556192765,-5.788419451833997z" style="fill:rgb(41,42,168)"/><path d="M-107.33697197688124,67.00978944080445L-104.16848724621772,66.22592578905711L-107.07011617473866,61.80562801962717z" style="fill:rgb(127,37,217)"/><path d="M-108.35817197115264,59.12635016507762L-113.3769983050179,59.76808056111252L-110.25061594181652,62.59661017144555z" style="fill:rgb(83,212,212)"/><path d="M-111.48267309182158,65.3246252733194L-108.55766293484542,69.73426811343394L-107.33697197688124,67.00978944080445z" style="fill:rgb(241,128,184)"/><path d="M-103.20281185439538,57.22845144633076L-108.35817197115264,59.12635016507762L-110.25061594181652,62.59661017144555zM-98.38677781911699,54.247031558338996L-103.20281185439538,57.22845144633076L-110.25061594181652,62.59661017144555z" style="fill:rgb(83,212,212)"/><path d="M-107.07011617473866,61.80562801962717L-110.25061594181652,62.59661017144555L-107.33697197688124,67.00978944080445z" style="fill:rgb(127,37,217)"/><path d="M-30.600614900167074,24.886639830115186L-28.03806885534872,29.48413302684791L-27.42415922616955,25.402798607687647z" style="fill:rgb(246,149,167)"/><path d="M-94.35377797331203,50.45857046662413L-98.38677781911699,54.247031558338996L-106.32524869407251,64.04515796994627z" style="fill:rgb(83,212,212)"/><path d="M-107.33697197688124,67.00978944080445L-110.25061594181652,62.59661017144555L-111.48267309182158,65.3246252733194z" style="fill:rgb(241,128,184)"/><path d="M-27.42415922616955,25.402798607687647L-29.974747036813145,20.803296081833633L-30.600614900167074,24.886639830115186z" style="fill:rgb(246,149,167)"/><path d="M-111.48267309182158,65.3246252733194L-110.25061594181652,62.59661017144555L-113.3769983050179,59.76808056111252zM-98.38677781911699,54.247031558338996L-110.25061594181652,62.59661017144555L-107.07011617473866,61.80562801962717z" style="fill:rgb(83,212,212)"/><path d="M39.96185556192765,-5.788419451833997L37.70880695892165,-10.54490585503889L33.9895675905477,-12.373560645779886z" style="fill:rgb(41,42,168)"/><path d="M-98.38677781911699,54.247031558338996L-107.07011617473866,61.80562801962717L-106.32524869407251,64.04515796994627zM-111.48267309182158,65.3246252733194L-121.22958887676472,57.19819363916384L-133.3705984084424,86.2912276178162z" style="fill:rgb(83,212,212)"/><path d="M37.70880695892165,-10.54490585503889L39.96185556192765,-5.788419451833997L43.17973541673777,-3.467405520943138z" style="fill:rgb(31,49,156)"/><path d="M86.80206201538729,-2.7262300294621733L61.58319082955558,-38.451938750396415L58.01262975468299,-40.397345751858936z" style="fill:rgb(83,212,212)"/><path d="M-30.543147586026933,28.843792401373445L-27.971181478590537,33.44069560190256L-28.03806885534872,29.48413302684791zM-28.03806885534872,29.48413302684791L-30.600614900167074,24.886639830115186L-30.543147586026933,28.843792401373445z" style="fill:rgb(247,161,155)"/><path d="M43.17973541673777,-3.467405520943138L40.9328312057042,-8.231308407815185L37.70880695892165,-10.54490585503889z" style="fill:rgb(31,49,156)"/><path d="M-66.35803260726733,70.2668830503633L-26.75536594831846,12.54212042631167L-24.22829125562533,8.503876299928633zM86.80206201538729,-2.7262300294621733L65.73781987590982,-37.06345283206054L61.58319082955558,-38.451938750396415z" style="fill:rgb(83,212,212)"/><path d="M40.9328312057042,-8.231308407815185L43.17973541673777,-3.467405520943138L45.84323645353861,-0.6977713267578886z" style="fill:rgb(22,57,143)"/><path d="M20.06057756623155,-17.776429881430126L24.044776854086578,-16.371025788823893L91.4857163548714,-1.4657460025806084zM-91.47028513594857,46.21468717565375L-94.35377797331203,50.45857046662413L-71.60879556554757,71.21440251803142zM-109.05739785428406,66.22612537098438L-111.48267309182158,65.3246252733194L-133.3705984084424,86.2912276178162zM-66.35803260726733,70.2668830503633L-28.68352418811141,16.664926492892757L-26.75536594831846,12.54212042631167zM-106.32524869407251,64.04515796994627L-109.05739785428406,66.22612537098438L-133.3705984084424,86.2912276178162zM-71.72134778343585,39.671437993897094L-91.47028513594857,46.21468717565375L-66.35803260726733,70.2668830503633z" style="fill:rgb(83,212,212)"/><path d="M-29.795586895289972,32.60413195388457L-27.216961028864542,37.201890895753905L-27.971181478590537,33.44069560190256z" style="fill:rgb(245,172,142)"/><path d="M86.80206201538729,-2.7262300294621733L70.37572705838953,-36.2732230434989L65.73781987590982,-37.06345283206054z" style="fill:rgb(83,212,212)"/><path d="M-27.971181478590537,33.44069560190256L-30.543147586026933,28.843792401373445L-29.795586895289972,32.60413195388457z" style="fill:rgb(245,172,142)"/><path d="M-67.42601481994534,36.23883510827096L-71.72134778343585,39.671437993897094L-66.35803260726733,70.2668830503633z" style="fill:rgb(83,212,212)"/><path d="M45.84323645353861,-0.6977713267578886L43.599704246134124,-5.467694709199123L40.9328312057042,-8.231308407815185z" style="fill:rgb(22,57,143)"/><path d="M-66.35803260726733,70.2668830503633L-29.974747036813145,20.803296081833633L-28.68352418811141,16.664926492892757zM86.80206201538729,-2.7262300294621733L75.38111941650426,-36.107195571781745L70.37572705838953,-36.2732230434989z" style="fill:rgb(83,212,212)"/><path d="M43.599704246134124,-5.467694709199123L45.84323645353861,-0.6977713267578886L47.89878537345492,2.4767664534818397z" style="fill:rgb(15,66,131)"/><path d="M-94.35377797331203,50.45857046662413L-106.32524869407251,64.04515796994627L-71.60879556554757,71.21440251803142zM24.044776854086578,-16.371025788823893L33.9895675905477,-12.373560645779886L91.4857163548714,-1.4657460025806084zM86.80206201538729,-2.7262300294621733L80.62616643466293,-36.574610399944966L75.38111941650426,-36.107195571781745zM85.97457820021434,-37.667222676485835L80.62616643466293,-36.574610399944966L88.18168805801277,-7.002591000279393z" style="fill:rgb(83,212,212)"/><path d="M-28.363037322214733,36.09880657376468L-25.78069988997744,40.69887684100597L-27.216961028864542,37.201890895753905z" style="fill:rgb(241,183,130)"/><path d="M-66.35803260726733,70.2668830503633L-30.600614900167074,24.886639830115186L-29.974747036813145,20.803296081833633z" style="fill:rgb(83,212,212)"/><path d="M-27.216961028864542,37.201890895753905L-29.795586895289972,32.60413195388457L-28.363037322214733,36.09880657376468z" style="fill:rgb(241,183,130)"/><path d="M47.89878537345492,2.4767664534818397L45.65573283571189,-2.297631149486944L43.599704246134124,-5.467694709199123z" style="fill:rgb(15,66,131)"/><path d="M-66.35803260726733,70.2668830503633L-30.543147586026933,28.843792401373445L-30.600614900167074,24.886639830115186zM33.9895675905477,-12.373560645779886L37.70880695892165,-10.54490585503889L91.4857163548714,-1.4657460025806084z" style="fill:rgb(83,212,212)"/><path d="M-133.3705984084424,86.2912276178162L-130.31888174477717,90.64588278553549L-68.79511704257729,75.70728056171806z" style="fill:rgb(127,37,217)"/><path d="M150.50602462703534,-54.51970925261155L85.97457820021434,-37.667222676485835L126.10631523348862,-34.24576687838071zM-106.32524869407251,64.04515796994627L-133.3705984084424,86.2912276178162L-71.60879556554757,71.21440251803142zM-66.35803260726733,70.2668830503633L-29.795586895289972,32.60413195388457L-30.543147586026933,28.843792401373445zM-91.47028513594857,46.21468717565375L-71.60879556554757,71.21440251803142L-66.35803260726733,70.2668830503633zM125.32893445952531,-31.651268446887286L126.10631523348862,-34.24576687838071L85.97457820021434,-37.667222676485835zM128.30872975492366,-30.93177130544434L125.32893445952531,-31.651268446887286L85.97457820021434,-37.667222676485835zM-66.35803260726733,70.2668830503633L-28.363037322214733,36.09880657376468L-29.795586895289972,32.60413195388457zM20.06057756623155,-17.776429881430126L91.4857163548714,-1.4657460025806084L86.80206201538729,-2.7262300294621733zM120.59630909552432,-24.99405710423671L125.82940224204548,-27.551251695516164L85.97457820021434,-37.667222676485835z" style="fill:rgb(83,212,212)"/><path d="M-68.79511704257729,75.70728056171806L-71.60879556554757,71.21440251803142L-133.3705984084424,86.2912276178162z" style="fill:rgb(127,37,217)"/><path d="M116.21398955614148,-21.542699011710276L120.59630909552432,-24.99405710423671L85.97457820021434,-37.667222676485835zM85.97457820021434,-37.667222676485835L125.82940224204548,-27.551251695516164L131.4672550547337,-28.995853544280653zM128.30872975492366,-30.93177130544434L85.97457820021434,-37.667222676485835L137.02870617617813,-29.199774384824828zM-66.35803260726733,70.2668830503633L-26.262943740027158,39.26206141498025L-28.363037322214733,36.09880657376468z" style="fill:rgb(83,212,212)"/><path d="M127.99801537163133,-29.28163392832268L131.4350568640823,-30.163282402413646L129.5577387557436,-35.135612069842665z" style="fill:rgb(127,37,217)"/><path d="M85.97457820021434,-37.667222676485835L88.18168805801277,-7.002591000279393L93.69599975087785,-8.400996294825372zM150.50602462703534,-54.51970925261155L126.10631523348862,-34.24576687838071L129.5577387557436,-35.135612069842665zM86.80206201538729,-2.7262300294621733L88.18168805801277,-7.002591000279393L80.62616643466293,-36.574610399944966zM113.06006472501521,-17.48950296308268L116.21398955614148,-21.542699011710276L85.97457820021434,-37.667222676485835z" style="fill:rgb(83,212,212)"/><path d="M125.32893445952531,-31.651268446887286L127.2280843340449,-26.689015310849438L127.99801537163133,-29.28163392832268z" style="fill:rgb(241,128,184)"/><path d="M85.97457820021434,-37.667222676485835L131.4672550547337,-28.995853544280653L137.02870617617813,-29.199774384824828z" style="fill:rgb(83,212,212)"/><path d="M129.5577387557436,-35.135612069842665L131.4350568640823,-30.163282402413646L132.80249239936884,-28.115728060630165z" style="fill:rgb(13,70,126)"/><path d="M129.5577387557436,-35.135612069842665L126.10631523348862,-34.24576687838071L127.99801537163133,-29.28163392832268z" style="fill:rgb(127,37,217)"/><path d="M127.99801537163133,-29.28163392832268L126.10631523348862,-34.24576687838071L125.32893445952531,-31.651268446887286z" style="fill:rgb(241,128,184)"/><path d="M111.41417462099444,-13.1795340785379L113.06006472501521,-17.48950296308268L85.97457820021434,-37.667222676485835zM102.00220617980591,-6.976282171436381L85.97457820021434,-37.667222676485835L93.69599975087785,-8.400996294825372zM85.97457820021434,-37.667222676485835L102.83696207195072,-9.652336806040621L106.30957611908472,-10.532083733300219z" style="fill:rgb(83,212,212)"/><path d="M-71.60879556554757,71.21440251803142L-68.79511704257729,75.70728056171806L-63.56413621695332,74.77145290959288z" style="fill:rgb(118,35,214)"/><path d="M132.80249239936884,-28.115728060630165L130.9267239837103,-33.091276046107126L129.5577387557436,-35.135612069842665z" style="fill:rgb(13,70,126)"/><path d="M102.00220617980591,-6.976282171436381L102.83696207195072,-9.652336806040621L85.97457820021434,-37.667222676485835zM37.70880695892165,-10.54490585503889L40.9328312057042,-8.231308407815185L133.0326658548508,6.260156738914681zM111.43351265730045,-8.985061535317566L111.41417462099444,-13.1795340785379L85.97457820021434,-37.667222676485835zM-66.35803260726733,70.2668830503633L-61.25749379392883,70.01924140628653L-26.262943740027158,39.26206141498025z" style="fill:rgb(83,212,212)"/><path d="M-66.35803260726733,70.2668830503633L-63.56413621695332,74.77145290959288L-58.48116720835645,74.53485794725178z" style="fill:rgb(99,32,207)"/><path d="M120.59630909552432,-24.99405710423671L122.52484861987756,-20.043291968856952L127.73388939421082,-22.587992329433014z" style="fill:rgb(162,50,222)"/><path d="M-63.56413621695332,74.77145290959288L-66.35803260726733,70.2668830503633L-71.60879556554757,71.21440251803142z" style="fill:rgb(118,35,214)"/><path d="M116.21398955614148,-21.542699011710276L118.16503238824215,-16.60250700213814L122.52484861987756,-20.043291968856952z" style="fill:rgb(194,70,219)"/><path d="M113.13524141716947,-5.2762094181386185L85.97457820021434,-37.667222676485835L106.30957611908472,-10.532083733300219z" style="fill:rgb(83,212,212)"/><path d="M127.73388939421082,-22.587992329433014L133.34810382382605,-24.019203109081403L131.4672550547337,-28.995853544280653z" style="fill:rgb(127,37,217)"/><path d="M-61.25749379392883,70.01924140628653L-56.42587862802203,70.48180239370316L-26.262943740027158,39.26206141498025z" style="fill:rgb(83,212,212)"/><path d="M127.73388939421082,-22.587992329433014L125.82940224204548,-27.551251695516164L120.59630909552432,-24.99405710423671z" style="fill:rgb(162,50,222)"/><path d="M88.18168805801277,-7.002591000279393L90.2632148498447,-2.1294628752335787L95.75462760083538,-3.5148915997488026z" style="fill:rgb(127,37,217)"/><path d="M129.5577387557436,-35.135612069842665L130.9267239837103,-33.091276046107126L137.02870617617813,-29.199774384824828z" style="fill:rgb(83,212,212)"/><path d="M115.03015938426545,-12.55711903195391L118.16503238824215,-16.60250700213814L116.21398955614148,-21.542699011710276z" style="fill:rgb(221,95,207)"/><path d="M122.52484861987756,-20.043291968856952L120.59630909552432,-24.99405710423671L116.21398955614148,-21.542699011710276z" style="fill:rgb(194,70,219)"/><path d="M113.13524141716947,-5.2762094181386185L111.43351265730045,-8.985061535317566L85.97457820021434,-37.667222676485835z" style="fill:rgb(83,212,212)"/><path d="M-58.48116720835645,74.53485794725178L-61.25749379392883,70.01924140628653L-66.35803260726733,70.2668830503633z" style="fill:rgb(99,32,207)"/><path d="M131.4672550547337,-28.995853544280653L125.82940224204548,-27.551251695516164L127.73388939421082,-22.587992329433014z" style="fill:rgb(127,37,217)"/><path d="M-61.25749379392883,70.01924140628653L-58.48116720835645,74.53485794725178L-53.66452145385426,75.00754145191763z" style="fill:rgb(81,32,199)"/><path d="M131.4672550547337,-28.995853544280653L133.34810382382605,-24.019203109081403L138.8882467477336,-24.209978145196462z" style="fill:rgb(92,32,204)"/><path d="M130.9267239837103,-33.091276046107126L128.30872975492366,-30.93177130544434L137.02870617617813,-29.199774384824828z" style="fill:rgb(83,212,212)"/><path d="M86.80206201538729,-2.7262300294621733L88.89685706241961,2.14298232081123L90.2632148498447,-2.1294628752335787z" style="fill:rgb(241,128,184)"/><path d="M95.75462760083538,-3.5148915997488026L93.69599975087785,-8.400996294825372L88.18168805801277,-7.002591000279393z" style="fill:rgb(127,37,217)"/><path d="M90.2632148498447,-2.1294628752335787L88.18168805801277,-7.002591000279393L86.80206201538729,-2.7262300294621733z" style="fill:rgb(241,128,184)"/><path d="M93.69599975087785,-8.400996294825372L95.75462760083538,-3.5148915997488026L97.81579768771465,-0.09870746604656012z" style="fill:rgb(13,70,126)"/><path d="M116.21398955614148,-21.542699011710276L113.06006472501521,-17.48950296308268L115.03015938426545,-12.55711903195391z" style="fill:rgb(221,95,207)"/><path d="M138.8882467477336,-24.209978145196462L137.02870617617813,-29.199774384824828L131.4672550547337,-28.995853544280653z" style="fill:rgb(92,32,204)"/><path d="M-53.66452145385426,75.00754145191763L-56.42587862802203,70.48180239370316L-61.25749379392883,70.01924140628653z" style="fill:rgb(81,32,199)"/><path d="M-56.42587862802203,70.48180239370316L-53.66452145385426,75.00754145191763L-49.22850890264164,76.18425543011729z" style="fill:rgb(64,34,188)"/><path d="M129.5577387557436,-35.135612069842665L137.02870617617813,-29.199774384824828L142.03348043012753,-28.136500656820292zM175.7782776496701,-26.317224806749415L150.50602462703534,-54.51970925261155L129.5577387557436,-35.135612069842665z" style="fill:rgb(83,212,212)"/><path d="M111.41417462099444,-13.1795340785379L113.39823619990476,-8.251573088835686L115.03015938426545,-12.55711903195391zM115.03015938426545,-12.55711903195391L113.06006472501521,-17.48950296308268L111.41417462099444,-13.1795340785379z" style="fill:rgb(239,123,189)"/><path d="M138.8882467477336,-24.209978145196462L143.8758330145274,-23.134978980957012L142.03348043012753,-28.136500656820292z" style="fill:rgb(60,35,184)"/><path d="M104.859461245569,-4.744852892018519L108.31753454984508,-5.616401350919894L106.30957611908472,-10.532083733300219z" style="fill:rgb(127,37,217)"/><path d="M142.03348043012753,-28.136500656820292L137.02870617617813,-29.199774384824828L138.8882467477336,-24.209978145196462z" style="fill:rgb(60,35,184)"/><path d="M97.81579768771465,-0.09870746604656012L95.75833646889343,-4.988994716165149L93.69599975087785,-8.400996294825372z" style="fill:rgb(13,70,126)"/><path d="M102.00220617980591,-6.976282171436381L104.03278067897442,-2.0711989169804537L104.859461245569,-4.744852892018519z" style="fill:rgb(241,128,184)"/><path d="M106.30957611908472,-10.532083733300219L102.83696207195072,-9.652336806040621L104.859461245569,-4.744852892018519z" style="fill:rgb(127,37,217)"/><path d="M-49.22850890264164,76.18425543011729L-51.977846473219394,71.64959111948232L-56.42587862802203,70.48180239370316z" style="fill:rgb(64,34,188)"/><path d="M113.42514319817192,-4.057772432544935L113.39823619990476,-8.251573088835686L111.41417462099444,-13.1795340785379z" style="fill:rgb(246,151,164)"/><path d="M104.859461245569,-4.744852892018519L102.83696207195072,-9.652336806040621L102.00220617980591,-6.976282171436381z" style="fill:rgb(241,128,184)"/><path d="M108.31753454984508,-5.616401350919894L109.64138474641817,-3.4814206133769203L107.63445044564435,-8.399800971743808z" style="fill:rgb(13,70,126)"/><path d="M-51.977846473219394,71.64959111948232L-49.22850890264164,76.18425543011729L-45.28103570608879,78.044019778145z" style="fill:rgb(49,38,176)"/><path d="M37.70880695892165,-10.54490585503889L133.0326658548508,6.260156738914681L91.4857163548714,-1.4657460025806084z" style="fill:rgb(83,212,212)"/><path d="M107.63445044564435,-8.399800971743808L106.30957611908472,-10.532083733300219L108.31753454984508,-5.616401350919894z" style="fill:rgb(13,70,126)"/><path d="M104.96771060512154,-6.195900468408881L93.69599975087785,-8.400996294825372L95.75833646889343,-4.988994716165149zM104.96771060512154,-6.195900468408881L102.00220617980591,-6.976282171436381L93.69599975087785,-8.400996294825372zM154.23175235057863,-22.672621615083784L129.5577387557436,-35.135612069842665L142.03348043012753,-28.136500656820292z" style="fill:rgb(83,212,212)"/><path d="M143.8758330145274,-23.134978980957012L147.87090205642605,-20.875492099907287L146.0400764900851,-25.886216227517025zM146.0400764900851,-25.886216227517025L142.03348043012753,-28.136500656820292L143.8758330145274,-23.134978980957012z" style="fill:rgb(33,47,159)"/><path d="M111.41417462099444,-13.1795340785379L111.43351265730045,-8.985061535317566L113.42514319817192,-4.057772432544935z" style="fill:rgb(246,151,164)"/><path d="M-45.28103570608879,78.044019778145L-48.02160795071064,73.50188644293405L-51.977846473219394,71.64959111948232z" style="fill:rgb(49,38,176)"/><path d="M104.96771060512154,-6.195900468408881L95.75833646889343,-4.988994716165149L91.4857163548714,-1.4657460025806084z" style="fill:rgb(83,212,212)"/><path d="M-48.02160795071064,73.50188644293405L-45.28103570608879,78.044019778145L-41.92112559695276,80.54989745679774z" style="fill:rgb(36,45,162)"/><path d="M4.170925052964354,84.19604637885163L-23.525383570015464,42.03261593414191L-26.262943740027158,39.26206141498025z" style="fill:rgb(83,212,212)"/><path d="M146.0400764900851,-25.886216227517025L147.87090205642605,-20.875492099907287L150.50982146660135,-17.61700343296065z" style="fill:rgb(15,65,131)"/><path d="M129.5577387557436,-35.135612069842665L154.23175235057863,-22.672621615083784L157.79096162528828,-23.574306453420085zM116.38857738429584,-2.389108531590293L106.30957611908472,-10.532083733300219L107.63445044564435,-8.399800971743808z" style="fill:rgb(83,212,212)"/><path d="M-41.92112559695276,80.54989745679774L-44.65643849109055,76.00199097757347L-48.02160795071064,73.50188644293405z" style="fill:rgb(36,45,162)"/><path d="M4.170925052964354,84.19604637885163L-20.193055768191726,44.355084884209596L-23.525383570015464,42.03261593414191zM154.23175235057863,-22.672621615083784L142.03348043012753,-28.136500656820292L146.0400764900851,-25.886216227517025z" style="fill:rgb(83,212,212)"/><path d="M150.50982146660135,-17.61700343296065L148.68373919791793,-22.63349422190929L146.0400764900851,-25.886216227517025z" style="fill:rgb(15,65,131)"/><path d="M116.38857738429584,-2.389108531590293L107.63445044564435,-8.399800971743808L104.96771060512154,-6.195900468408881z" style="fill:rgb(83,212,212)"/><path d="M-44.65643849109055,76.00199097757347L-41.92112559695276,80.54989745679774L-39.2363676528364,83.6490869587565z" style="fill:rgb(25,54,148)"/><path d="M175.7782776496701,-26.317224806749415L129.5577387557436,-35.135612069842665L157.79096162528828,-23.574306453420085zM-56.42587862802203,70.48180239370316L4.170925052964354,84.19604637885163L-26.262943740027158,39.26206141498025zM116.38857738429584,-2.389108531590293L113.13524141716947,-5.2762094181386185L106.30957611908472,-10.532083733300219zM4.170925052964354,84.19604637885163L-16.321008851614398,46.181362962737836L-20.193055768191726,44.355084884209596z" style="fill:rgb(83,212,212)"/><path d="M156.03628871809914,-17.643103458019485L159.58017501330374,-18.53628199774087L157.79096162528828,-23.574306453420085z" style="fill:rgb(127,37,217)"/><path d="M155.306221009766,-14.963344783130319L156.03628871809914,-17.643103458019485L154.23175235057863,-22.672621615083784z" style="fill:rgb(241,128,184)"/><path d="M153.4944257887647,-19.990658613521195L146.0400764900851,-25.886216227517025L148.68373919791793,-22.63349422190929z" style="fill:rgb(83,212,212)"/><path d="M-39.2363676528364,83.6490869587565L-41.970119732984,79.09728984903721L-44.65643849109055,76.00199097757347z" style="fill:rgb(25,54,148)"/><path d="M153.4944257887647,-19.990658613521195L154.23175235057863,-22.672621615083784L146.0400764900851,-25.886216227517025zM4.170925052964354,84.19604637885163L-11.976013215705313,47.47198891611923L-16.321008851614398,46.181362962737836zM129.93314830489024,5.43350335288736L104.96771060512154,-6.195900468408881L91.4857163548714,-1.4657460025806084z" style="fill:rgb(83,212,212)"/><path d="M157.79096162528828,-23.574306453420085L154.23175235057863,-22.672621615083784L156.03628871809914,-17.643103458019485z" style="fill:rgb(127,37,217)"/><path d="M159.58017501330374,-18.53628199774087L161.05433914129335,-16.408647377202843L159.26745309751152,-21.449758336642226z" style="fill:rgb(13,70,126)"/><path d="M154.23175235057863,-22.672621615083784L153.4944257887647,-19.990658613521195L155.306221009766,-14.963344783130319z" style="fill:rgb(241,128,184)"/><path d="M159.26745309751152,-21.449758336642226L157.79096162528828,-23.574306453420085L159.58017501330374,-18.53628199774087z" style="fill:rgb(13,70,126)"/><path d="M148.68373919791793,-22.63349422190929L149.71170798761878,-18.65621244472117L149.71828306756674,-18.69706473829463zM153.4944257887647,-19.990658613521195L148.68373919791793,-22.63349422190929L149.71828306756674,-18.69706473829463zM4.170925052964354,84.19604637885163L-7.235572051690513,48.19731826889395L-11.976013215705313,47.47198891611923zM-56.42587862802203,70.48180239370316L-51.977846473219394,71.64959111948232L8.755640066123618,85.81512189510366zM129.93314830489024,5.43350335288736L116.38857738429584,-2.389108531590293L104.96771060512154,-6.195900468408881zM40.9328312057042,-8.231308407815185L43.599704246134124,-5.467694709199123L138.49940608265487,76.62445520358611zM4.170925052964354,84.19604637885163L-2.1865836675738914,48.338598026364494L-7.235572051690513,48.19731826889395zM153.4944257887647,-19.990658613521195L149.71828306756674,-18.69706473829463L150.07761925433618,-16.243173570857792z" style="fill:rgb(83,212,212)"/><path d="M149.0117062394035,-14.304856052864734L149.71828306756674,-18.69706473829463L149.71170798761878,-18.65621244472117z" style="fill:rgb(63,209,201)"/><path d="M149.0117062394035,-14.304856052864734L150.07761925433618,-16.243173570857792L149.71828306756674,-18.69706473829463zM175.7782776496701,-26.317224806749415L157.79096162528828,-23.574306453420085L159.26745309751152,-21.449758336642226zM4.170925052964354,84.19604637885163L3.076349368817268,47.88870002138837L-2.1865836675738914,48.338598026364494zM8.452923134317937,46.85265187417618L3.076349368817268,47.88870002138837L5.890113586862478,79.44709117041066zM-51.977846473219394,71.64959111948232L-48.02160795071064,73.50188644293405L8.755640066123618,85.81512189510366zM13.839389347545788,45.24776969259518L8.452923134317937,46.85265187417618L5.890113586862478,79.44709117041066zM43.599704246134124,-5.467694709199123L45.65573283571189,-2.297631149486944L138.49940608265487,76.62445520358611zM19.13098786177165,43.10345834720542L13.839389347545788,45.24776969259518L5.890113586862478,79.44709117041066zM24.22447630645631,40.4606513914931L19.13098786177165,43.10345834720542L5.890113586862478,79.44709117041066zM129.93314830489024,5.43350335288736L120.91927267072384,-0.5939024487191908L116.38857738429584,-2.389108531590293zM-48.02160795071064,73.50188644293405L-44.65643849109055,76.00199097757347L8.755640066123618,85.81512189510366zM133.0326658548508,6.260156738914681L129.93314830489024,5.43350335288736L91.4857163548714,-1.4657460025806084zM45.65573283571189,-2.297631149486944L47.05682911266173,1.227029317157311L138.49940608265487,76.62445520358611zM129.93314830489024,5.43350335288736L126.32870242894224,-0.06607527053268643L120.91927267072384,-0.5939024487191908zM-44.65643849109055,76.00199097757347L-41.970119732984,79.09728984903721L8.755640066123618,85.81512189510366z" style="fill:rgb(83,212,212)"/><path d="M132.66788092114118,7.634043761755526L136.23441137307242,6.751706002718147L134.31129770520633,1.774496635464531z" style="fill:rgb(127,37,217)"/><path d="M132.12763575952064,-0.8652173889771636L126.32870242894224,-0.06607527053268643L130.7292749289506,2.66533894090167zM47.05682911266173,1.227029317157311L47.769787722569156,5.046717135596178L138.49940608265487,76.62445520358611z" style="fill:rgb(83,212,212)"/><path d="M129.93314830489024,5.43350335288736L131.87966533587664,10.39943662012207L132.66788092114118,7.634043761755526z" style="fill:rgb(241,128,184)"/><path d="M134.31129770520633,1.774496635464531L136.23441137307242,6.751706002718147L137.66460160795205,8.971837829373015z" style="fill:rgb(13,70,126)"/><path d="M137.7826260698434,-2.925145460781913L132.12763575952064,-0.8652173889771636L130.7292749289506,2.66533894090167zM142.76984884623232,-6.057980798871286L137.7826260698434,-2.925145460781913L130.7292749289506,2.66533894090167z" style="fill:rgb(83,212,212)"/><path d="M134.31129770520633,1.774496635464531L130.7292749289506,2.66533894090167L132.66788092114118,7.634043761755526z" style="fill:rgb(127,37,217)"/><path d="M146.62929674353055,-9.972548872212194L142.76984884623232,-6.057980798871286L135.74327561022042,3.9921109180701224z" style="fill:rgb(83,212,212)"/><path d="M132.66788092114118,7.634043761755526L130.7292749289506,2.66533894090167L129.93314830489024,5.43350335288736z" style="fill:rgb(241,128,184)"/><path d="M129.93314830489024,5.43350335288736L130.7292749289506,2.66533894090167L126.32870242894224,-0.06607527053268643zM142.76984884623232,-6.057980798871286L130.7292749289506,2.66533894090167L134.31129770520633,1.774496635464531zM47.769787722569156,5.046717135596178L47.77346734717957,9.094940540154164L138.49940608265487,76.62445520358611zM142.76984884623232,-6.057980798871286L134.31129770520633,1.774496635464531L135.74327561022042,3.9921109180701224z" style="fill:rgb(83,212,212)"/><path d="M137.66460160795205,8.971837829373015L135.74327561022042,3.9921109180701224L134.31129770520633,1.774496635464531z" style="fill:rgb(13,70,126)"/><path d="M-56.42587862802203,70.48180239370316L8.755640066123618,85.81512189510366L4.170925052964354,84.19604637885163zM4.170925052964354,84.19604637885163L5.890113586862478,79.44709117041066L3.076349368817268,47.88870002138837zM47.77346734717957,9.094940540154164L47.05976656635624,13.299317446734605L138.49940608265487,76.62445520358611zM24.22447630645631,40.4606513914931L5.890113586862478,79.44709117041066L11.515746912775516,78.11149584859639zM24.22447630645631,40.4606513914931L11.515746912775516,78.11149584859639L13.30873172628351,82.0364091961707zM47.05976656635624,13.299317446734605L45.63438160168954,17.582844104050633L138.49940608265487,76.62445520358611zM45.63438160168954,17.582844104050633L43.51722890543475,21.865383195950162L138.49940608265487,76.62445520358611zM40.9328312057042,-8.231308407815185L138.49940608265487,76.62445520358611L133.0326658548508,6.260156738914681z" style="fill:rgb(83,212,212)"/><path d="M138.49940608265487,76.62445520358611L39.86126781302896,27.116448472420256L42.187033151845824,31.87121302854263z" style="fill:rgb(42,41,169)"/><path d="M5.890113586862478,79.44709117041066L8.454253754180703,84.1002040676443L14.056184171108844,82.77750535720716z" style="fill:rgb(127,37,217)"/><path d="M43.51722890543475,21.865383195950162L40.742535766346336,26.065345420782247L138.49940608265487,76.62445520358611zM40.742535766346336,26.065345420782247L39.86126781302896,27.116448472420256L138.49940608265487,76.62445520358611z" style="fill:rgb(83,212,212)"/><path d="M4.170925052964354,84.19604637885163L6.752184233969651,88.84203693441198L8.454253754180703,84.1002040676443z" style="fill:rgb(241,128,184)"/><path d="M14.056184171108844,82.77750535720716L11.515746912775516,78.11149584859639L5.890113586862478,79.44709117041066z" style="fill:rgb(127,37,217)"/><path d="M8.454253754180703,84.1002040676443L5.890113586862478,79.44709117041066L4.170925052964354,84.19604637885163z" style="fill:rgb(241,128,184)"/><path d="M9.29210532020864,154.86315958545202L33.473924908903086,33.84936417642306L33.42670690525846,33.89492215770287zM9.29210532020864,154.86315958545202L33.42670690525846,33.89492215770287L29.020640128982848,37.370856008036895z" style="fill:rgb(83,212,212)"/><path d="M140.533581675135,81.5615821561282L177.4924566172262,-21.236421204703905L175.7782776496701,-26.317224806749415z" style="fill:rgb(238,121,190)"/><path d="M9.29210532020864,154.86315958545202L29.020640128982848,37.370856008036895L24.22447630645631,40.4606513914931zM138.49940608265487,76.62445520358611L153.4944257887647,-19.990658613521195L150.07761925433618,-16.243173570857792zM138.49940608265487,76.62445520358611L156.607483176841,-19.228539788937486L153.4944257887647,-19.990658613521195zM138.49940608265487,76.62445520358611L159.26745309751152,-21.449758336642226L156.607483176841,-19.228539788937486zM138.49940608265487,76.62445520358611L150.07761925433618,-16.243173570857792L149.0117062394035,-14.304856052864734zM138.49940608265487,76.62445520358611L175.7782776496701,-26.317224806749415L159.26745309751152,-21.449758336642226zM138.49940608265487,76.62445520358611L149.0117062394035,-14.304856052864734L146.62929674353055,-9.972548872212194zM-41.970119732984,79.09728984903721L-40.03635076237348,82.71971665022421L9.29210532020864,154.86315958545202zM138.49940608265487,76.62445520358611L146.62929674353055,-9.972548872212194L135.74327561022042,3.9921109180701224zM-40.03635076237348,82.71971665022421L-38.91225630653306,86.78657456424354L9.29210532020864,154.86315958545202zM138.49940608265487,76.62445520358611L135.74327561022042,3.9921109180701224L133.0326658548508,6.260156738914681zM-38.91225630653306,86.78657456424354L-38.636086828351154,91.20193796979252L9.29210532020864,154.86315958545202zM9.29210532020864,154.86315958545202L24.22447630645631,40.4606513914931L13.30873172628351,82.0364091961707zM-41.970119732984,79.09728984903721L9.29210532020864,154.86315958545202L8.755640066123618,85.81512189510366z" style="fill:rgb(83,212,212)"/><path d="M42.187033151845824,31.87121302854263L140.533581675135,81.5615821561282L138.49940608265487,76.62445520358611z" style="fill:rgb(42,41,169)"/><path d="M9.29210532020864,154.86315958545202L13.30873172628351,82.0364091961707L8.755640066123618,85.81512189510366z" style="fill:rgb(83,212,212)"/><path d="M175.7782776496701,-26.317224806749415L138.49940608265487,76.62445520358611L140.533581675135,81.5615821561282z" style="fill:rgb(238,121,190)"/><path d="M-38.636086828351154,91.20193796979252L-40.57315042315744,147.97201175276817L9.29210532020864,154.86315958545202zM9.29210532020864,154.86315958545202L131.80563378059622,84.12157927041436L33.473924908903086,33.84936417642306z" style="fill:rgb(83,212,212)"/><path d="M-40.57315042315744,147.97201175276817L-37.67411773599421,152.46443132800653L12.013860140044743,159.44452264833092zM12.013860140044743,159.44452264833092L9.29210532020864,154.86315958545202L-40.57315042315744,147.97201175276817z" style="fill:rgb(81,32,199)"/><path d="M133.88107186839105,89.03695423743193L131.80563378059622,84.12157927041436L9.29210532020864,154.86315958545202zM9.29210532020864,154.86315958545202L12.013860140044743,159.44452264833092L133.88107186839105,89.03695423743193z" style="fill:rgb(173,56,222)"/></svg>
