<?xml version="1.0" encoding="UTF-8"?>
<!-- Generated by jsxcad -->
<!DOCTYPE svg PUBLIC "-//W3C//DTD SVG 1.1 Tiny//EN" "http://www.w3.org/Graphics/SVG/1.1/DTD/svg11-tiny.dtd">
<svg viewBox="-250 -250 500 500" width="500" height="500" xmlns="http://www.w3.org/2000/svg"><path d="M7.359563197089943,-93.87287753753787L-33.1002367234012,-71.03876802006491L-34.51183536963281,-29.668656621174534zM50.95392560847348,-52.48807574214028L48.82727065344756,-93.75029320351497L7.359563197089943,-93.87287753753787zM3.6012615802046613,-42.06944583797376L7.359563197089943,-93.87287753753787L-34.51183536963281,-29.668656621174534zM7.359563197089943,-93.87287753753787L5.892195017291396,-44.763465689770676L9.584033581724537,-45.75311533523365zM3.6012615802046613,-42.06944583797376L5.892195017291396,-44.763465689770676L7.359563197089943,-93.87287753753787zM7.359563197089943,-93.87287753753787L9.584033581724537,-45.75311533523365L11.914094012671862,-44.29354361123368z" style="fill:rgb(83,212,212)"/><path d="M50.86817957136657,-88.99480855837345L48.82727065344756,-93.75029320351497L50.95392560847348,-52.48807574214028z" style="fill:rgb(247,158,158)"/><path d="M53.92947408894816,-44.236167784631675L7.359563197089943,-93.87287753753787L11.914094012671862,-44.29354361123368zM51.819174503627195,-48.1297022264962L50.95392560847348,-52.48807574214028L7.359563197089943,-93.87287753753787z" style="fill:rgb(83,212,212)"/><path d="M5.892195017291396,-44.763465689770676L8.174090151711727,-40.08790606884791L11.8520930051669,-41.06905104404505z" style="fill:rgb(127,37,217)"/><path d="M3.6012615802046613,-42.06944583797376L5.896475911059525,-37.39844220296318L8.174090151711727,-40.08790606884791z" style="fill:rgb(221,95,207)"/><path d="M50.95392560847348,-52.48807574214028L53.074042672188675,-47.706707393901034L50.86817957136657,-88.99480855837345z" style="fill:rgb(247,158,158)"/><path d="M9.584033581724537,-45.75311533523365L11.8520930051669,-41.06905104404505L14.178091455684095,-39.603387460734545z" style="fill:rgb(33,47,159)"/><path d="M53.92947408894816,-44.236167784631675L51.819174503627195,-48.1297022264962L7.359563197089943,-93.87287753753787z" style="fill:rgb(83,212,212)"/><path d="M8.174090151711727,-40.08790606884791L5.892195017291396,-44.763465689770676L3.6012615802046613,-42.06944583797376z" style="fill:rgb(221,95,207)"/><path d="M11.8520930051669,-41.06905104404505L9.584033581724537,-45.75311533523365L5.892195017291396,-44.763465689770676z" style="fill:rgb(127,37,217)"/><path d="M7.782675018217313,-39.41447892782945L-34.51183536963281,-29.668656621174534L-35.272103377058215,-24.97379911538427zM4.43449857152057,-39.68607518742676L3.6012615802046613,-42.06944583797376L-34.51183536963281,-29.668656621174534z" style="fill:rgb(83,212,212)"/><path d="M4.43449857152057,-39.68607518742676L6.73253175471407,-35.01230445951544L5.896475911059525,-37.39844220296318zM5.896475911059525,-37.39844220296318L3.6012615802046613,-42.06944583797376L4.43449857152057,-39.68607518742676z" style="fill:rgb(244,177,137)"/><path d="M14.178091455684095,-39.603387460734545L11.914094012671862,-44.29354361123368L9.584033581724537,-45.75311533523365z" style="fill:rgb(33,47,159)"/><path d="M7.782675018217313,-39.41447892782945L4.43449857152057,-39.68607518742676L-34.51183536963281,-29.668656621174534zM7.782675018217313,-39.41447892782945L-35.272103377058215,-24.97379911538427L-37.224817989605974,-20.09901389446955zM7.782675018217313,-39.41447892782945L-37.224817989605974,-20.09901389446955L-40.30508093530496,-15.238526882118572zM-125.23146912345526,17.489565362848477L-106.56924639247393,25.742609038767604L-103.49215444008715,24.94927393378382zM-107.75296821818687,28.30811425243981L-106.56924639247393,25.742609038767604L-125.23146912345526,17.489565362848477zM-107.75296821818687,28.30811425243981L-125.23146912345526,17.489565362848477L-108.76520866994115,32.63604549858936z" style="fill:rgb(83,212,212)"/><path d="M-103.76851203920845,30.169689783591586L-100.70267213156829,29.383257419059515L-103.49215444008715,24.94927393378382z" style="fill:rgb(127,37,217)"/><path d="M-104.94167464410815,32.73251274285631L-103.76851203920845,30.169689783591586L-106.56924639247393,25.742609038767604z" style="fill:rgb(241,128,184)"/><path d="M-114.71244306944426,35.89508203908418L-108.76520866994115,32.63604549858936L-125.23146912345526,17.489565362848477zM-119.64034118613442,40.40349961226325L-114.71244306944426,35.89508203908418L-125.23146912345526,17.489565362848477z" style="fill:rgb(83,212,212)"/><path d="M-103.49215444008715,24.94927393378382L-106.56924639247393,25.742609038767604L-103.76851203920845,30.169689783591586z" style="fill:rgb(127,37,217)"/><path d="M-106.56924639247393,25.742609038767604L-107.75296821818687,28.30811425243981L-104.94167464410815,32.73251274285631z" style="fill:rgb(241,128,184)"/><path d="M-122.89865782082407,45.57856354210073L-119.64034118613442,40.40349961226325L-125.23146912345526,17.489565362848477zM-67.17406586621395,2.3277841970406956L-125.23146912345526,17.489565362848477L-73.16449259829878,33.60489040838878zM-132.35615584464563,52.25650685976887L-125.23146912345526,17.489565362848477L-146.55865911542523,55.2046815568513zM-125.23146912345526,17.489565362848477L-131.1112904856303,49.61578783245003L-128.01936977721982,48.83248738219883zM-132.35615584464563,52.25650685976887L-131.1112904856303,49.61578783245003L-125.23146912345526,17.489565362848477zM-73.16449259829878,33.60489040838878L-125.23146912345526,17.489565362848477L-103.49215444008715,24.94927393378382z" style="fill:rgb(83,212,212)"/><path d="M-111.85959350422918,40.30361991560164L-105.9389784350681,37.058015623970405L-108.76520866994115,32.63604549858936z" style="fill:rgb(170,54,222)"/><path d="M-125.23146912345526,17.489565362848477L-128.01936977721982,48.83248738219883L-127.342679463283,50.98937941952547z" style="fill:rgb(83,212,212)"/><path d="M53.074042672188675,-47.706707393901034L50.95392560847348,-52.48807574214028L51.819174503627195,-48.1297022264962zM51.819174503627195,-48.1297022264962L53.945483479713886,-43.34493903542954L53.074042672188675,-47.706707393901034z" style="fill:rgb(246,167,149)"/><path d="M-124.04044787220421,50.743151796197466L-122.89865782082407,45.57856354210073L-125.23146912345526,17.489565362848477z" style="fill:rgb(83,212,212)"/><path d="M-108.76520866994115,32.63604549858936L-105.9389784350681,37.058015623970405L-99.7688146862641,35.485197157438215z" style="fill:rgb(127,37,217)"/><path d="M-105.40160568657934,29.106083066625295L-107.75296821818687,28.30811425243981L-108.76520866994115,32.63604549858936zM-124.04044787220421,50.743151796197466L-125.23146912345526,17.489565362848477L-127.342679463283,50.98937941952547zM7.782675018217313,-39.41447892782945L-40.30508093530496,-15.238526882118572L-69.40807297587605,32.651987788275406z" style="fill:rgb(83,212,212)"/><path d="M-119.64034118613442,40.40349961226325L-116.7603443392464,44.80073847877838L-111.85959350422918,40.30361991560164z" style="fill:rgb(208,81,214)"/><path d="M-102.76358184373571,27.0246158476571L-105.40160568657934,29.106083066625295L-108.76520866994115,32.63604549858936z" style="fill:rgb(83,212,212)"/><path d="M-108.76520866994115,32.63604549858936L-114.71244306944426,35.89508203908418L-111.85959350422918,40.30361991560164z" style="fill:rgb(170,54,222)"/><path d="M-40.30508093530496,-15.238526882118572L-44.398637911465585,-10.590044465881787L-73.16449259829878,33.60489040838878z" style="fill:rgb(83,212,212)"/><path d="M-111.85959350422918,40.30361991560164L-114.71244306944426,35.89508203908418L-119.64034118613442,40.40349961226325z" style="fill:rgb(208,81,214)"/><path d="M-99.7688146862641,35.485197157438215L-102.57229313075361,31.0493398834217L-108.76520866994115,32.63604549858936z" style="fill:rgb(127,37,217)"/><path d="M-102.57229313075361,31.0493398834217L-99.7688146862641,35.485197157438215L-94.1538522872033,35.798115120854106z" style="fill:rgb(84,32,200)"/><path d="M-102.76358184373571,27.0246158476571L-108.76520866994115,32.63604549858936L-102.57229313075361,31.0493398834217zM-44.398637911465585,-10.590044465881787L-49.34550231700403,-6.345456580212028L-73.16449259829878,33.60489040838878z" style="fill:rgb(83,212,212)"/><path d="M-119.99445799143207,49.96800908899886L-116.7603443392464,44.80073847877838L-119.64034118613442,40.40349961226325z" style="fill:rgb(234,114,195)"/><path d="M-60.97213076671902,0.2498377306722172L-67.17406586621395,2.3277841970406956L-73.16449259829878,33.60489040838878zM-49.34550231700403,-6.345456580212028L-54.946457802358985,-2.681374406478889L-73.16449259829878,33.60489040838878zM57.22144104004114,-40.96454699478363L53.92947408894816,-44.236167784631675L11.914094012671862,-44.29354361123368zM-102.76358184373571,27.0246158476571L-102.57229313075361,31.0493398834217L-96.94129225522799,31.349723232279114zM-54.946457802358985,-2.681374406478889L-60.97213076671902,0.2498377306722172L-73.16449259829878,33.60489040838878zM0.48861352955576537,-14.367323317736531L4.161317415023367,-16.055871746451697L7.782675018217313,-39.41447892782945z" style="fill:rgb(83,212,212)"/><path d="M-94.1538522872033,35.798115120854106L-96.94129225522799,31.349723232279114L-102.57229313075361,31.0493398834217z" style="fill:rgb(84,32,200)"/><path d="M-2.957556004728852,-12.275559114534294L0.48861352955576537,-14.367323317736531L7.782675018217313,-39.41447892782945zM4.161317415023367,-16.055871746451697L7.954553154802382,-17.29217165884261L7.782675018217313,-39.41447892782945zM7.782675018217313,-39.41447892782945L-6.077359962618041,-9.840675668097047L-2.957556004728852,-12.275559114534294z" style="fill:rgb(83,212,212)"/><path d="M-119.64034118613442,40.40349961226325L-122.89865782082407,45.57856354210073L-119.99445799143207,49.96800908899886z" style="fill:rgb(234,114,195)"/><path d="M-128.17143780257368,53.98663369931487L-125.09084092061285,53.21021951338255L-128.01936977721982,48.83248738219883z" style="fill:rgb(127,37,217)"/><path d="M-129.40508627969956,56.62419923037289L-128.17143780257368,53.98663369931487L-131.1112904856303,49.61578783245003z" style="fill:rgb(241,128,184)"/><path d="M7.954553154802382,-17.29217165884261L11.758720986017067,-18.039483827886993L7.782675018217313,-39.41447892782945zM-85.38055490301103,38.03042560686301L-103.49215444008715,24.94927393378382L-102.76358184373571,27.0246158476571zM-102.76358184373571,27.0246158476571L-96.94129225522799,31.349723232279114L-92.61936306568172,33.5146488251942zM11.758720986017067,-18.039483827886993L15.46329626880527,-18.27437652331208L7.782675018217313,-39.41447892782945z" style="fill:rgb(83,212,212)"/><path d="M-121.11826307609194,55.1292773878595L-119.99445799143207,49.96800908899886L-122.89865782082407,45.57856354210073z" style="fill:rgb(246,149,166)"/><path d="M-128.01936977721982,48.83248738219883L-131.1112904856303,49.61578783245003L-128.17143780257368,53.98663369931487z" style="fill:rgb(127,37,217)"/><path d="M61.58319082955558,-38.451938750396415L57.22144104004114,-40.96454699478363L11.914094012671862,-44.29354361123368zM7.782675018217313,-39.41447892782945L-18.38463611467807,1.7167131999042418L-6.077359962618041,-9.840675668097047z" style="fill:rgb(83,212,212)"/><path d="M-94.1538522872033,35.798115120854106L-89.83912423959906,37.972476644740986L-92.61936306568172,33.5146488251942zM-92.61936306568172,33.5146488251942L-96.94129225522799,31.349723232279114L-94.1538522872033,35.798115120854106z" style="fill:rgb(46,40,173)"/><path d="M-131.1112904856303,49.61578783245003L-132.35615584464563,52.25650685976887L-129.40508627969956,56.62419923037289z" style="fill:rgb(241,128,184)"/><path d="M15.46329626880527,-18.27437652331208L18.95959520395141,-17.9875115983395L7.782675018217313,-39.41447892782945z" style="fill:rgb(83,212,212)"/><path d="M0.48861352955576537,-14.367323317736531L2.857180345955077,-9.69756795146091L6.514101599842462,-11.37773410288224z" style="fill:rgb(158,48,222)"/><path d="M-2.957556004728852,-12.275559114534294L-0.5730132584167619,-7.613616999422087L2.857180345955077,-9.69756795146091z" style="fill:rgb(178,58,222)"/><path d="M4.161317415023367,-16.055871746451697L6.514101599842462,-11.37773410288224L10.29217974627871,-12.605315216882929z" style="fill:rgb(137,40,220)"/><path d="M-130.0278405878179,53.11133412517564L-132.35615584464563,52.25650685976887L-146.55865911542523,55.2046815568513z" style="fill:rgb(83,212,212)"/><path d="M-6.077359962618041,-9.840675668097047L-3.6770883559321335,-5.185768303519654L-0.5730132584167619,-7.613616999422087z" style="fill:rgb(196,71,219)"/><path d="M-122.89865782082407,45.57856354210073L-124.04044787220421,50.743151796197466L-121.11826307609194,55.1292773878595z" style="fill:rgb(246,149,166)"/><path d="M7.782675018217313,-39.41447892782945L-22.71275581787065,6.484817386166131L-18.38463611467807,1.7167131999042418z" style="fill:rgb(83,212,212)"/><path d="M7.954553154802382,-17.29217165884261L10.29217974627871,-12.605315216882929L14.082229677014803,-13.343821172090138z" style="fill:rgb(117,35,214)"/><path d="M2.857180345955077,-9.69756795146091L0.48861352955576537,-14.367323317736531L-2.957556004728852,-12.275559114534294z" style="fill:rgb(178,58,222)"/><path d="M6.514101599842462,-11.37773410288224L4.161317415023367,-16.055871746451697L0.48861352955576537,-14.367323317736531z" style="fill:rgb(158,48,222)"/><path d="M-85.38055490301103,38.03042560686301L-102.76358184373571,27.0246158476571L-92.61936306568172,33.5146488251942z" style="fill:rgb(83,212,212)"/><path d="M-8.77960605687108,-7.132411235561771L-6.364293319403681,-2.4835715100903695L-3.6770883559321335,-5.185768303519654z" style="fill:rgb(212,85,213)"/><path d="M-0.5730132584167619,-7.613616999422087L-2.957556004728852,-12.275559114534294L-6.077359962618041,-9.840675668097047z" style="fill:rgb(196,71,219)"/><path d="M10.29217974627871,-12.605315216882929L7.954553154802382,-17.29217165884261L4.161317415023367,-16.055871746451697z" style="fill:rgb(137,40,220)"/><path d="M11.758720986017067,-18.039483827886993L14.082229677014803,-13.343821172090138L17.774117653542287,-13.570076130314952z" style="fill:rgb(96,32,206)"/><path d="M-119.95428561145692,59.593677741696204L-121.11826307609194,55.1292773878595L-124.04044787220421,50.743151796197466z" style="fill:rgb(242,181,132)"/><path d="M-40.30508093530496,-15.238526882118572L-73.16449259829878,33.60489040838878L-69.40807297587605,32.651987788275406zM7.782675018217313,-39.41447892782945L-26.194151042093726,11.549477677323518L-22.71275581787065,6.484817386166131z" style="fill:rgb(83,212,212)"/><path d="M-3.6770883559321335,-5.185768303519654L-6.077359962618041,-9.840675668097047L-8.77960605687108,-7.132411235561771z" style="fill:rgb(212,85,213)"/><path d="M-90.19939972273356,37.278270810703845L-92.61936306568172,33.5146488251942L-89.83912423959906,37.972476644740986z" style="fill:rgb(20,59,140)"/><path d="M14.082229677014803,-13.343821172090138L11.758720986017067,-18.039483827886993L7.954553154802382,-17.29217165884261z" style="fill:rgb(117,35,214)"/><path d="M-89.83912423959906,37.972476644740986L-87.41642338368015,41.74102302900604L-90.19939972273356,37.278270810703845z" style="fill:rgb(20,59,140)"/><path d="M-10.984087406878917,-4.228514068907636L-8.554852609683902,0.4153845243690707L-6.364293319403681,-2.4835715100903695z" style="fill:rgb(225,101,204)"/><path d="M-103.49215444008715,24.94927393378382L-85.38055490301103,38.03042560686301L-82.21595788865883,37.22871353974756z" style="fill:rgb(83,212,212)"/><path d="M-10.994303561385083,-4.209726744202565L-8.564991106406971,0.43414915986961006L-8.554852609683902,0.4153845243690707z" style="fill:rgb(236,117,193)"/><path d="M7.782675018217313,-39.41447892782945L-69.40807297587605,32.651987788275406L-67.20774558913564,34.38308176973594z" style="fill:rgb(83,212,212)"/><path d="M15.46329626880527,-18.27437652331208L17.774117653542287,-13.570076130314952L21.259522088118413,-13.275007889418536z" style="fill:rgb(76,32,196)"/><path d="M-13.330709878988293,-2.630569699753971L-10.890134983021873,2.007979510139947L-8.564991106406971,0.43414915986961006z" style="fill:rgb(185,63,221)"/><path d="M-6.364293319403681,-2.4835715100903695L-8.77960605687108,-7.132411235561771L-10.984087406878917,-4.228514068907636z" style="fill:rgb(225,101,204)"/><path d="M17.774117653542287,-13.570076130314952L15.46329626880527,-18.27437652331208L11.758720986017067,-18.039483827886993z" style="fill:rgb(96,32,206)"/><path d="M-122.88564430973254,55.205924486938116L-124.04044787220421,50.743151796197466L-127.342679463283,50.98937941952547zM-75.66629570966772,36.52392711202979L-73.16449259829878,33.60489040838878L-103.49215444008715,24.94927393378382z" style="fill:rgb(83,212,212)"/><path d="M-8.554852609683902,0.4153845243690707L-10.984087406878917,-4.228514068907636L-10.994303561385083,-4.209726744202565z" style="fill:rgb(236,117,193)"/><path d="M-18.38463611467807,1.7167131999042418L-15.917459448474842,6.3437340966827875L-10.890134983021873,2.007979510139947z" style="fill:rgb(202,76,217)"/><path d="M-8.564991106406971,0.43414915986961006L-10.994303561385083,-4.209726744202565L-13.330709878988293,-2.630569699753971z" style="fill:rgb(185,63,221)"/><path d="M-124.04044787220421,50.743151796197466L-122.88564430973254,55.205924486938116L-119.95428561145692,59.593677741696204z" style="fill:rgb(242,181,132)"/><path d="M7.782675018217313,-39.41447892782945L-67.20774558913564,34.38308176973594L-68.23139231344081,37.51026152574798zM-75.03265631889786,39.22674696223346L-103.49215444008715,24.94927393378382L-82.21595788865883,37.22871353974756zM-18.38463611467807,1.7167131999042418L-8.77960605687108,-7.132411235561771L-6.077359962618041,-9.840675668097047z" style="fill:rgb(83,212,212)"/><path d="M18.95959520395141,-17.9875115983395L21.259522088118413,-13.275007889418536L24.434757913438755,-12.464161353016673z" style="fill:rgb(58,35,183)"/><path d="M21.259522088118413,-13.275007889418536L18.95959520395141,-17.9875115983395L15.46329626880527,-18.27437652331208z" style="fill:rgb(76,32,196)"/><path d="M-10.890134983021873,2.007979510139947L-13.330709878988293,-2.630569699753971L-18.38463611467807,1.7167131999042418z" style="fill:rgb(202,76,217)"/><path d="M-13.330709878988293,-2.630569699753971L-10.984087406878917,-4.228514068907636L-8.77960605687108,-7.132411235561771zM87.68898945084428,-1.8404998842109628L11.914094012671862,-44.29354361123368L11.118292223119965,-41.4700219056452zM-75.03265631889786,39.22674696223346L-75.66629570966772,36.52392711202979L-103.49215444008715,24.94927393378382zM-13.330709878988293,-2.630569699753971L-10.994303561385083,-4.209726744202565L-10.984087406878917,-4.228514068907636zM-18.38463611467807,1.7167131999042418L-13.330709878988293,-2.630569699753971L-8.77960605687108,-7.132411235561771zM87.68898945084428,-1.8404998842109628L11.118292223119965,-41.4700219056452L7.782675018217313,-39.41447892782945z" style="fill:rgb(83,212,212)"/><path d="M-22.71275581787065,6.484817386166131L-20.220233044793325,11.101893645665482L-15.917459448474842,6.3437340966827875z" style="fill:rgb(217,91,210)"/><path d="M-86.5495594894811,40.67914391611559L-92.61936306568172,33.5146488251942L-90.19939972273356,37.278270810703845z" style="fill:rgb(83,212,212)"/><path d="M-82.61038121702677,42.50373838754149L-79.45769897297566,41.70916082022811L-82.21595788865883,37.22871353974756z" style="fill:rgb(127,37,217)"/><path d="M-15.917459448474842,6.3437340966827875L-18.38463611467807,1.7167131999042418L-22.71275581787065,6.484817386166131z" style="fill:rgb(217,91,210)"/><path d="M-83.76870218594793,45.14943246778777L-82.61038121702677,42.50373838754149L-85.38055490301103,38.03042560686301z" style="fill:rgb(241,128,184)"/><path d="M24.434757913438755,-12.464161353016673L22.143612597329764,-17.18417471861192L18.95959520395141,-17.9875115983395z" style="fill:rgb(58,35,183)"/><path d="M-86.5495594894811,40.67914391611559L-85.38055490301103,38.03042560686301L-92.61936306568172,33.5146488251942z" style="fill:rgb(83,212,212)"/><path d="M22.143612597329764,-17.18417471861192L24.434757913438755,-12.464161353016673L27.203657071874332,-11.15792465432763z" style="fill:rgb(42,41,169)"/><path d="M-23.678212391520805,16.15841264322814L-20.220233044793325,11.101893645665482L-22.71275581787065,6.484817386166131z" style="fill:rgb(229,106,201)"/><path d="M-82.21595788865883,37.22871353974756L-85.38055490301103,38.03042560686301L-82.61038121702677,42.50373838754149zM-73.16449259829878,33.60489040838878L-70.44390752605813,38.105975618781095L-66.70171809544783,37.16156869872801z" style="fill:rgb(127,37,217)"/><path d="M-85.38055490301103,38.03042560686301L-86.5495594894811,40.67914391611559L-83.76870218594793,45.14943246778777z" style="fill:rgb(241,128,184)"/><path d="M-75.66629570966772,36.52392711202979L-72.93026474416946,41.0190053988038L-70.44390752605813,38.105975618781095z" style="fill:rgb(221,95,207)"/><path d="M-86.5495594894811,40.67914391611559L-90.19939972273356,37.278270810703845L-90.03559804641895,42.15371778256021z" style="fill:rgb(83,212,212)"/><path d="M27.203657071874332,-11.15792465432763L24.91890704328541,-15.884510063629866L22.143612597329764,-17.18417471861192z" style="fill:rgb(42,41,169)"/><path d="M-130.0278405878179,53.11133412517564L-146.55865911542523,55.2046815568513L-133.3705984084424,86.2912276178162z" style="fill:rgb(83,212,212)"/><path d="M-69.40807297587605,32.651987788275406L-66.70171809544783,37.16156869872801L-64.50382076049392,38.897288121003065z" style="fill:rgb(33,47,159)"/><path d="M24.91890704328541,-15.884510063629866L27.203657071874332,-11.15792465432763L29.480426864011587,-9.391403590328114z" style="fill:rgb(29,50,153)"/><path d="M-70.44390752605813,38.105975618781095L-73.16449259829878,33.60489040838878L-75.66629570966772,36.52392711202979z" style="fill:rgb(221,95,207)"/><path d="M-66.70171809544783,37.16156869872801L-69.40807297587605,32.651987788275406L-73.16449259829878,33.60489040838878z" style="fill:rgb(127,37,217)"/><path d="M-22.71275581787065,6.484817386166131L-26.194151042093726,11.549477677323518L-23.678212391520805,16.15841264322814z" style="fill:rgb(229,106,201)"/><path d="M-118.59719732430462,59.259873692239644L-119.5584847308953,58.351143939425974L-122.88564430973254,55.205924486938116z" style="fill:rgb(151,242,176)"/><path d="M-127.342679463283,50.98937941952547L-130.0278405878179,53.11133412517564L-133.3705984084424,86.2912276178162z" style="fill:rgb(83,212,212)"/><path d="M-75.03265631889786,39.22674696223346L-72.29152058115203,43.72275071103995L-72.93026474416946,41.0190053988038z" style="fill:rgb(244,177,137)"/><path d="M-84.10113279541503,41.52053850965218L-86.5495594894811,40.67914391611559L-90.03559804641895,42.15371778256021z" style="fill:rgb(83,212,212)"/><path d="M27.199466521865933,-14.123399338795398L29.480426864011587,-9.391403590328114L29.491082509571978,-9.377848646469136z" style="fill:rgb(18,61,137)"/><path d="M-72.93026474416946,41.0190053988038L-75.66629570966772,36.52392711202979L-75.03265631889786,39.22674696223346z" style="fill:rgb(244,177,137)"/><path d="M-64.50382076049392,38.897288121003065L-67.20774558913564,34.38308176973594L-69.40807297587605,32.651987788275406z" style="fill:rgb(33,47,159)"/><path d="M27.210130842808997,-14.109869858622602L29.491082509571978,-9.377848646469136L31.88276510313385,-9.00983077695844z" style="fill:rgb(69,33,191)"/><path d="M29.480426864011587,-9.391403590328114L27.199466521865933,-14.123399338795398L24.91890704328541,-15.884510063629866z" style="fill:rgb(29,50,153)"/><path d="M22.143612597329764,-17.18417471861192L24.91890704328541,-15.884510063629866L29.60909961288464,-13.747452164477208z" style="fill:rgb(83,212,212)"/><path d="M-28.726946709776744,16.776884718047846L-26.190174651763716,21.379663835996706L-23.678212391520805,16.15841264322814z" style="fill:rgb(238,122,189)"/><path d="M-75.03265631889786,39.22674696223346L-82.21595788865883,37.22871353974756L-81.41797503441013,39.38216524586224zM-117.75979419256538,58.83960721702569L-119.5584847308953,58.351143939425974L-118.59719732430462,59.259873692239644z" style="fill:rgb(83,212,212)"/><path d="M-23.678212391520805,16.15841264322814L-26.194151042093726,11.549477677323518L-28.726946709776744,16.776884718047846z" style="fill:rgb(238,122,189)"/><path d="M-84.10113279541503,41.52053850965218L-90.03559804641895,42.15371778256021L-92.18162439711325,47.487466022002224z" style="fill:rgb(83,212,212)"/><path d="M29.491082509571978,-9.377848646469136L27.210130842808997,-14.109869858622602L27.199466521865933,-14.123399338795398z" style="fill:rgb(18,61,137)"/><path d="M-122.88564430973254,55.205924486938116L-127.342679463283,50.98937941952547L-133.3705984084424,86.2912276178162z" style="fill:rgb(83,212,212)"/><path d="M-119.5584847308953,58.351143939425974L-117.75979419256538,58.83960721702569L-114.48732994103051,59.72829328172966z" style="fill:rgb(135,252,152)"/><path d="M7.782675018217313,-39.41447892782945L-71.60879556554757,71.21440251803142L-26.194151042093726,11.549477677323518zM-114.48732994103051,59.72829328172966L-117.75979419256538,58.83960721702569L-118.59719732430462,59.259873692239644z" style="fill:rgb(83,212,212)"/><path d="M31.88276510313385,-9.00983077695844L29.60909961288464,-13.747452164477208L27.210130842808997,-14.109869858622602z" style="fill:rgb(69,33,191)"/><path d="M24.91890704328541,-15.884510063629866L27.199466521865933,-14.123399338795398L29.60909961288464,-13.747452164477208zM87.68898945084428,-1.8404998842109628L61.58319082955558,-38.451938750396415L11.914094012671862,-44.29354361123368zM-71.72134778343585,39.671437993897094L-81.41797503441013,39.38216524586224L-84.10113279541503,41.52053850965218z" style="fill:rgb(83,212,212)"/><path d="M29.60909961288464,-13.747452164477208L31.88276510313385,-9.00983077695844L37.092019010601234,-7.270909844451128z" style="fill:rgb(52,37,178)"/><path d="M18.95959520395141,-17.9875115983395L87.68898945084428,-1.8404998842109628L7.782675018217313,-39.41447892782945zM-71.72134778343585,39.671437993897094L-75.03265631889786,39.22674696223346L-81.41797503441013,39.38216524586224zM-71.72134778343585,39.671437993897094L-84.10113279541503,41.52053850965218L-92.18162439711325,47.487466022002224zM27.199466521865933,-14.123399338795398L27.210130842808997,-14.109869858622602L29.60909961288464,-13.747452164477208zM7.782675018217313,-39.41447892782945L-68.23139231344081,37.51026152574798L-71.60879556554757,71.21440251803142zM22.143612597329764,-17.18417471861192L29.60909961288464,-13.747452164477208L34.83231713513102,-12.020717942359829z" style="fill:rgb(83,212,212)"/><path d="M-30.2313375080376,22.026222323233355L-27.67694328421225,26.624981418334606L-26.190174651763716,21.379663835996706zM-26.190174651763716,21.379663835996706L-28.726946709776744,16.776884718047846L-30.2313375080376,22.026222323233355z" style="fill:rgb(244,138,176)"/><path d="M-111.48267309182158,65.3246252733194L-114.48732994103051,59.72829328172966L-118.59719732430462,59.259873692239644zM-118.59719732430462,59.259873692239644L-122.88564430973254,55.205924486938116L-133.3705984084424,86.2912276178162z" style="fill:rgb(83,212,212)"/><path d="M37.092019010601234,-7.270909844451128L34.83231713513102,-12.020717942359829L29.60909961288464,-13.747452164477208z" style="fill:rgb(52,37,178)"/><path d="M-107.33697197688124,67.00978944080445L-104.16848724621772,66.22592578905711L-107.07011617473866,61.80562801962717z" style="fill:rgb(127,37,217)"/><path d="M-108.35817197115264,59.12635016507762L-114.48732994103051,59.72829328172966L-110.25061594181652,62.59661017144555z" style="fill:rgb(83,212,212)"/><path d="M-111.48267309182158,65.3246252733194L-108.55766293484542,69.73426811343394L-107.33697197688124,67.00978944080445z" style="fill:rgb(241,128,184)"/><path d="M-96.36671019381342,52.54464461883223L-102.02179056718853,56.615700372513885L-110.25061594181652,62.59661017144555z" style="fill:rgb(83,212,212)"/><path d="M34.83231713513102,-12.020717942359829L37.092019010601234,-7.270909844451128L41.592839356509224,-4.717730573263187z" style="fill:rgb(37,44,163)"/><path d="M-102.02179056718853,56.615700372513885L-108.35817197115264,59.12635016507762L-110.25061594181652,62.59661017144555z" style="fill:rgb(83,212,212)"/><path d="M-107.07011617473866,61.80562801962717L-110.25061594181652,62.59661017144555L-107.33697197688124,67.00978944080445z" style="fill:rgb(127,37,217)"/><path d="M-111.48267309182158,65.3246252733194L-110.25061594181652,62.59661017144555L-114.48732994103051,59.72829328172966z" style="fill:rgb(83,212,212)"/><path d="M-107.33697197688124,67.00978944080445L-110.25061594181652,62.59661017144555L-111.48267309182158,65.3246252733194z" style="fill:rgb(241,128,184)"/><path d="M-96.36671019381342,52.54464461883223L-110.25061594181652,62.59661017144555L-107.07011617473866,61.80562801962717zM-96.36671019381342,52.54464461883223L-107.07011617473866,61.80562801962717L-106.32524869407251,64.04515796994627z" style="fill:rgb(83,212,212)"/><path d="M-27.67694328421225,26.624981418334606L-30.2313375080376,22.026222323233355L-30.652553564948906,27.152631798418337zM-30.652553564948906,27.152631798418337L-28.084335525632213,31.74961389568845L-27.67694328421225,26.624981418334606z" style="fill:rgb(247,154,162)"/><path d="M41.592839356509224,-4.717730573263187L39.34311702754483,-9.477988621254811L34.83231713513102,-12.020717942359829z" style="fill:rgb(37,44,163)"/><path d="M-111.48267309182158,65.3246252733194L-118.59719732430462,59.259873692239644L-133.3705984084424,86.2912276178162zM18.95959520395141,-17.9875115983395L22.143612597329764,-17.18417471861192L87.68898945084428,-1.8404998842109628z" style="fill:rgb(83,212,212)"/><path d="M43.005327834118226,-6.179137680368643L39.34311702754483,-9.477988621254811L41.592839356509224,-4.717730573263187zM41.592839356509224,-4.717730573263187L45.249417959950975,-1.4105417095566015L43.005327834118226,-6.179137680368643z" style="fill:rgb(25,53,148)"/><path d="M87.68898945084428,-1.8404998842109628L66.85627944715203,-36.80851977620463L61.58319082955558,-38.451938750396415zM-71.60879556554757,71.21440251803142L-28.726946709776744,16.776884718047846L-26.194151042093726,11.549477677323518z" style="fill:rgb(83,212,212)"/><path d="M-28.084335525632213,31.74961389568845L-30.652553564948906,27.152631798418337L-29.96362857451851,32.01061278479716zM-29.96362857451851,32.01061278479716L-27.385886626747237,36.60813412528221L-28.084335525632213,31.74961389568845z" style="fill:rgb(246,169,146)"/><path d="M-109.05739785428406,66.22612537098438L-111.48267309182158,65.3246252733194L-133.3705984084424,86.2912276178162zM-106.32524869407251,64.04515796994627L-109.05739785428406,66.22612537098438L-133.3705984084424,86.2912276178162zM-71.72134778343585,39.671437993897094L-92.18162439711325,47.487466022002224L-71.60879556554757,71.21440251803142zM-92.18162439711325,47.487466022002224L-96.36671019381342,52.54464461883223L-71.60879556554757,71.21440251803142zM-68.23139231344081,37.51026152574798L-71.72134778343585,39.671437993897094L-71.60879556554757,71.21440251803142zM87.68898945084428,-1.8404998842109628L72.84023620543682,-36.11120294322665L66.85627944715203,-36.80851977620463zM-71.60879556554757,71.21440251803142L-30.2313375080376,22.026222323233355L-28.726946709776744,16.776884718047846zM22.143612597329764,-17.18417471861192L34.83231713513102,-12.020717942359829L87.68898945084428,-1.8404998842109628z" style="fill:rgb(83,212,212)"/><path d="M43.005327834118226,-6.179137680368643L45.249417959950975,-1.4105417095566015L47.94546680300946,2.567715038239911z" style="fill:rgb(16,65,132)"/><path d="M86.53700233316411,-4.529442091601174L79.2997759203727,-36.3985196544499L72.84023620543682,-36.11120294322665zM-96.36671019381342,52.54464461883223L-106.32524869407251,64.04515796994627L-71.60879556554757,71.21440251803142z" style="fill:rgb(83,212,212)"/><path d="M-27.385886626747237,36.60813412528221L-29.96362857451851,32.01061278479716L-28.167752523186618,36.45789161995396zM-28.167752523186618,36.45789161995396L-25.585199418511525,41.05829644192921L-27.385886626747237,36.60813412528221z" style="fill:rgb(242,183,130)"/><path d="M86.53700233316411,-4.529442091601174L85.97457820021434,-37.667222676485835L79.2997759203727,-36.3985196544499zM-71.60879556554757,71.21440251803142L-30.652553564948906,27.152631798418337L-30.2313375080376,22.026222323233355z" style="fill:rgb(83,212,212)"/><path d="M47.94546680300946,2.567715038239911L45.702386258864905,-2.2067807004022533L43.005327834118226,-6.179137680368643z" style="fill:rgb(16,65,132)"/><path d="M-133.3705984084424,86.2912276178162L-130.31888174477717,90.64588278553549L-68.79511704257729,75.70728056171806z" style="fill:rgb(127,37,217)"/><path d="M34.83231713513102,-12.020717942359829L39.34311702754483,-9.477988621254811L87.68898945084428,-1.8404998842109628zM150.50602462703534,-54.51970925261155L85.97457820021434,-37.667222676485835L126.10631523348862,-34.24576687838071zM-106.32524869407251,64.04515796994627L-133.3705984084424,86.2912276178162L-71.60879556554757,71.21440251803142zM-71.60879556554757,71.21440251803142L-29.96362857451851,32.01061278479716L-30.652553564948906,27.152631798418337zM125.32893445952531,-31.651268446887286L126.10631523348862,-34.24576687838071L85.97457820021434,-37.667222676485835zM-71.60879556554757,71.21440251803142L-28.167752523186618,36.45789161995396L-29.96362857451851,32.01061278479716zM128.30872975492366,-30.93177130544434L125.32893445952531,-31.651268446887286L85.97457820021434,-37.667222676485835zM118.93125523401059,-23.86435433703356L125.18365575634083,-27.30469624408647L85.97457820021434,-37.667222676485835z" style="fill:rgb(83,212,212)"/><path d="M-68.79511704257729,75.70728056171806L-71.60879556554757,71.21440251803142L-133.3705984084424,86.2912276178162z" style="fill:rgb(127,37,217)"/><path d="M85.97457820021434,-37.667222676485835L125.18365575634083,-27.30469624408647L132.13494945685795,-29.085708210775817zM114.18951265004269,-19.210142254315876L118.93125523401059,-23.86435433703356L85.97457820021434,-37.667222676485835z" style="fill:rgb(83,212,212)"/><path d="M127.99801537163133,-29.28163392832268L131.4350568640823,-30.163282402413646L129.5577387557436,-35.135612069842665z" style="fill:rgb(127,37,217)"/><path d="M85.97457820021434,-37.667222676485835L88.87568818307369,-7.500411725848923L92.94489589727033,-8.532663235678493zM128.30872975492366,-30.93177130544434L85.97457820021434,-37.667222676485835L138.88260912935766,-28.967345054369563z" style="fill:rgb(83,212,212)"/><path d="M127.2280843340449,-26.689015310849438L127.99801537163133,-29.28163392832268L126.10631523348862,-34.24576687838071z" style="fill:rgb(241,128,184)"/><path d="M87.68898945084428,-1.8404998842109628L86.53700233316411,-4.529442091601174L72.84023620543682,-36.11120294322665zM86.53700233316411,-4.529442091601174L88.87568818307369,-7.500411725848923L85.97457820021434,-37.667222676485835zM150.50602462703534,-54.51970925261155L126.10631523348862,-34.24576687838071L129.5577387557436,-35.135612069842665z" style="fill:rgb(83,212,212)"/><path d="M129.5577387557436,-35.135612069842665L131.4350568640823,-30.163282402413646L132.80249239936884,-28.115728060630165z" style="fill:rgb(13,70,126)"/><path d="M129.5577387557436,-35.135612069842665L126.10631523348862,-34.24576687838071L127.99801537163133,-29.28163392832268z" style="fill:rgb(127,37,217)"/><path d="M85.97457820021434,-37.667222676485835L132.13494945685795,-29.085708210775817L138.88260912935766,-28.967345054369563zM111.58635645365419,-13.942479409484278L114.18951265004269,-19.210142254315876L85.97457820021434,-37.667222676485835z" style="fill:rgb(83,212,212)"/><path d="M126.10631523348862,-34.24576687838071L125.32893445952531,-31.651268446887286L127.2280843340449,-26.689015310849438z" style="fill:rgb(241,128,184)"/><path d="M102.00220617980591,-6.976282171436381L85.97457820021434,-37.667222676485835L92.94489589727033,-8.532663235678493zM-71.60879556554757,71.21440251803142L-65.06413166526492,70.13869921226222L-28.167752523186618,36.45789161995396zM85.97457820021434,-37.667222676485835L102.83696207195072,-9.652336806040621L106.30957611908472,-10.532083733300219z" style="fill:rgb(83,212,212)"/><path d="M132.80249239936884,-28.115728060630165L130.9267239837103,-33.091276046107126L129.5577387557436,-35.135612069842665z" style="fill:rgb(13,70,126)"/><path d="M102.00220617980591,-6.976282171436381L102.83696207195072,-9.652336806040621L85.97457820021434,-37.667222676485835z" style="fill:rgb(83,212,212)"/><path d="M-71.60879556554757,71.21440251803142L-68.79511704257729,75.70728056171806L-62.274850887685005,74.64610214830633z" style="fill:rgb(115,34,214)"/><path d="M-65.06413166526492,70.13869921226222L-58.800783966005575,70.16169134236277L-28.167752523186618,36.45789161995396zM111.48761394358196,-8.749942207087662L111.58635645365419,-13.942479409484278L85.97457820021434,-37.667222676485835z" style="fill:rgb(83,212,212)"/><path d="M118.93125523401059,-23.86435433703356L120.86801134661671,-18.91758804661552L127.09098977005617,-22.342974500553602z" style="fill:rgb(170,54,222)"/><path d="M-62.274850887685005,74.64610214830633L-65.06413166526492,70.13869921226222L-71.60879556554757,71.21440251803142z" style="fill:rgb(115,34,214)"/><path d="M125.18365575634083,-27.30469624408647L127.09098977005617,-22.342974500553602L134.0131335768323,-24.10747800713135z" style="fill:rgb(127,37,217)"/><path d="M-65.06413166526492,70.13869921226222L-62.274850887685005,74.64610214830633L-56.032285290856024,74.68250195354962z" style="fill:rgb(92,32,204)"/><path d="M113.94068636616738,-4.328130572405607L85.97457820021434,-37.667222676485835L106.30957611908472,-10.532083733300219z" style="fill:rgb(83,212,212)"/><path d="M88.87568818307369,-7.500411725848923L90.95371082476622,-2.625602015925741L95.00603511606917,-3.648277779769299z" style="fill:rgb(127,37,217)"/><path d="M-58.800783966005575,70.16169134236277L-53.047845720525004,71.29238884163877L-28.167752523186618,36.45789161995396z" style="fill:rgb(83,212,212)"/><path d="M114.18951265004269,-19.210142254315876L116.15228727286616,-14.274923332023352L120.86801134661671,-18.91758804661552z" style="fill:rgb(208,81,214)"/><path d="M127.09098977005617,-22.342974500553602L125.18365575634083,-27.30469624408647L118.93125523401059,-23.86435433703356z" style="fill:rgb(170,54,222)"/><path d="M86.53700233316411,-4.529442091601174L88.62929706132576,0.3394836828103077L90.95371082476622,-2.625602015925741z" style="fill:rgb(221,95,207)"/><path d="M120.86801134661671,-18.91758804661552L118.93125523401059,-23.86435433703356L114.18951265004269,-19.210142254315876z" style="fill:rgb(208,81,214)"/><path d="M113.94068636616738,-4.328130572405607L111.48761394358196,-8.749942207087662L85.97457820021434,-37.667222676485835z" style="fill:rgb(83,212,212)"/><path d="M134.0131335768323,-24.10747800713135L132.13494945685795,-29.085708210775817L125.18365575634083,-27.30469624408647z" style="fill:rgb(127,37,217)"/><path d="M132.13494945685795,-29.085708210775817L134.0131335768323,-24.10747800713135L140.73552046684742,-23.97318877936669z" style="fill:rgb(84,32,200)"/><path d="M92.94489589727033,-8.532663235678493L95.00603511606917,-3.648277779769299L97.75567759962124,-1.9584715137469966z" style="fill:rgb(33,47,159)"/><path d="M-56.032285290856024,74.68250195354962L-58.800783966005575,70.16169134236277L-65.06413166526492,70.13869921226222z" style="fill:rgb(92,32,204)"/><path d="M90.95371082476622,-2.625602015925741L88.87568818307369,-7.500411725848923L86.53700233316411,-4.529442091601174z" style="fill:rgb(221,95,207)"/><path d="M95.00603511606917,-3.648277779769299L92.94489589727033,-8.532663235678493L88.87568818307369,-7.500411725848923z" style="fill:rgb(127,37,217)"/><path d="M130.9267239837103,-33.091276046107126L128.30872975492366,-30.93177130544434L138.88260912935766,-28.967345054369563z" style="fill:rgb(83,212,212)"/><path d="M-58.800783966005575,70.16169134236277L-56.032285290856024,74.68250195354962L-50.29579261390438,75.8249485836458z" style="fill:rgb(71,33,192)"/><path d="M111.58635645365419,-13.942479409484278L113.56839633128519,-9.014003525052821L116.15228727286616,-14.274923332023352z" style="fill:rgb(234,114,195)"/><path d="M87.68898945084428,-1.8404998842109628L89.78222769044218,3.0305831769315077L88.62929706132576,0.3394836828103077z" style="fill:rgb(244,177,137)"/><path d="M116.15228727286616,-14.274923332023352L114.18951265004269,-19.210142254315876L111.58635645365419,-13.942479409484278z" style="fill:rgb(234,114,195)"/><path d="M88.62929706132576,0.3394836828103077L86.53700233316411,-4.529442091601174L87.68898945084428,-1.8404998842109628z" style="fill:rgb(244,177,137)"/><path d="M175.7782776496701,-26.317224806749415L150.50602462703534,-54.51970925261155L129.5577387557436,-35.135612069842665z" style="fill:rgb(83,212,212)"/><path d="M140.73552046684742,-23.97318877936669L138.88260912935766,-28.967345054369563L132.13494945685795,-29.085708210775817z" style="fill:rgb(84,32,200)"/><path d="M97.75567759962124,-1.9584715137469966L95.70150637070282,-6.848963424888323L92.94489589727033,-8.532663235678493z" style="fill:rgb(33,47,159)"/><path d="M104.859461245569,-4.744852892018519L108.31753454984508,-5.616401350919894L106.30957611908472,-10.532083733300219z" style="fill:rgb(127,37,217)"/><path d="M154.23175235057863,-22.672621615083784L129.5577387557436,-35.135612069842665L130.9267239837103,-33.091276046107126z" style="fill:rgb(83,212,212)"/><path d="M-50.29579261390438,75.8249485836458L-53.047845720525004,71.29238884163877L-58.800783966005575,70.16169134236277z" style="fill:rgb(71,33,192)"/><path d="M102.00220617980591,-6.976282171436381L104.03278067897442,-2.0711989169804537L104.859461245569,-4.744852892018519z" style="fill:rgb(241,128,184)"/><path d="M130.9267239837103,-33.091276046107126L138.88260912935766,-28.967345054369563L144.53673806977233,-26.947002774076296z" style="fill:rgb(83,212,212)"/><path d="M106.30957611908472,-10.532083733300219L108.31753454984508,-5.616401350919894L109.64138474641817,-3.4814206133769203z" style="fill:rgb(13,70,126)"/><path d="M113.47946906507563,-3.822572451046927L113.56839633128519,-9.014003525052821L111.58635645365419,-13.942479409484278z" style="fill:rgb(246,149,166)"/><path d="M106.30957611908472,-10.532083733300219L102.83696207195072,-9.652336806040621L104.859461245569,-4.744852892018519z" style="fill:rgb(127,37,217)"/><path d="M-53.047845720525004,71.29238884163877L-50.29579261390438,75.8249485836458L-45.28103570608879,78.044019778145z" style="fill:rgb(51,38,177)"/><path d="M104.859461245569,-4.744852892018519L102.83696207195072,-9.652336806040621L102.00220617980591,-6.976282171436381z" style="fill:rgb(241,128,184)"/><path d="M140.73552046684742,-23.97318877936669L146.37155245731407,-21.93969813729377L144.53673806977233,-26.947002774076296zM144.53673806977233,-26.947002774076296L138.88260912935766,-28.967345054369563L140.73552046684742,-23.97318877936669z" style="fill:rgb(46,40,173)"/><path d="M39.34311702754483,-9.477988621254811L133.0326658548508,6.260156738914681L87.68898945084428,-1.8404998842109628zM104.96771060512154,-6.195900468408881L92.94489589727033,-8.532663235678493L95.70150637070282,-6.848963424888323zM104.96771060512154,-6.195900468408881L102.00220617980591,-6.976282171436381L92.94489589727033,-8.532663235678493z" style="fill:rgb(83,212,212)"/><path d="M109.64138474641817,-3.4814206133769203L107.63445044564435,-8.399800971743808L106.30957611908472,-10.532083733300219z" style="fill:rgb(13,70,126)"/><path d="M104.96771060512154,-6.195900468408881L95.70150637070282,-6.848963424888323L95.05952135485808,-3.700655069473879z" style="fill:rgb(83,212,212)"/><path d="M111.58635645365419,-13.942479409484278L111.48761394358196,-8.749942207087662L113.47946906507563,-3.822572451046927z" style="fill:rgb(246,149,166)"/><path d="M-45.28103570608879,78.044019778145L-48.02160795071064,73.50188644293405L-53.047845720525004,71.29238884163877z" style="fill:rgb(51,38,177)"/><path d="M4.987648548458801,85.23026364506917L-25.300045704634233,40.35969921027464L-28.167752523186618,36.45789161995396zM154.23175235057863,-22.672621615083784L130.9267239837103,-33.091276046107126L144.53673806977233,-26.947002774076296zM104.96771060512154,-6.195900468408881L95.05952135485808,-3.700655069473879L91.4857163548714,-1.4657460025806084z" style="fill:rgb(83,212,212)"/><path d="M-48.02160795071064,73.50188644293405L-45.28103570608879,78.044019778145L-41.183506765794284,81.27148162360383z" style="fill:rgb(34,46,160)"/><path d="M148.32910175951434,-23.26915773148625L144.53673806977233,-26.947002774076296L146.37155245731407,-21.93969813729377zM146.37155245731407,-21.93969813729377L150.15549652576075,-18.253403317704105L148.32910175951434,-23.26915773148625z" style="fill:rgb(20,59,140)"/><path d="M113.94068636616738,-4.328130572405607L106.30957611908472,-10.532083733300219L107.63445044564435,-8.399800971743808zM129.5577387557436,-35.135612069842665L154.23175235057863,-22.672621615083784L157.79096162528828,-23.574306453420085zM4.987648548458801,85.23026364506917L-21.428456862163745,43.593324360195155L-25.300045704634233,40.35969921027464zM113.94068636616738,-4.328130572405607L107.63445044564435,-8.399800971743808L104.96771060512154,-6.195900468408881z" style="fill:rgb(83,212,212)"/><path d="M-41.183506765794284,81.27148162360383L-43.91807641078593,76.72241466488809L-48.02160795071064,73.50188644293405z" style="fill:rgb(34,46,160)"/><path d="M175.7782776496701,-26.317224806749415L129.5577387557436,-35.135612069842665L157.79096162528828,-23.574306453420085zM-53.047845720525004,71.29238884163877L4.987648548458801,85.23026364506917L-28.167752523186618,36.45789161995396z" style="fill:rgb(83,212,212)"/><path d="M-43.91807641078593,76.72241466488809L-41.183506765794284,81.27148162360383L-38.170782199865926,85.40043093198675z" style="fill:rgb(21,57,142)"/><path d="M4.987648548458801,85.23026364506917L-16.65354723310775,46.05277088876691L-21.428456862163745,43.593324360195155zM153.4944257887647,-19.990658613521195L144.53673806977233,-26.947002774076296L148.32910175951434,-23.26915773148625z" style="fill:rgb(83,212,212)"/><path d="M156.03628871809914,-17.643103458019485L159.58017501330374,-18.53628199774087L157.79096162528828,-23.574306453420085z" style="fill:rgb(127,37,217)"/><path d="M118.65080694162415,-1.2890392367631027L113.94068636616738,-4.328130572405607L104.96771060512154,-6.195900468408881z" style="fill:rgb(83,212,212)"/><path d="M155.306221009766,-14.963344783130319L156.03628871809914,-17.643103458019485L154.23175235057863,-22.672621615083784z" style="fill:rgb(241,128,184)"/><path d="M153.4944257887647,-19.990658613521195L154.23175235057863,-22.672621615083784L144.53673806977233,-26.947002774076296zM133.0326658548508,6.260156738914681L91.4857163548714,-1.4657460025806084L87.68898945084428,-1.8404998842109628zM129.93314830489024,5.43350335288736L104.96771060512154,-6.195900468408881L91.4857163548714,-1.4657460025806084z" style="fill:rgb(83,212,212)"/><path d="M157.79096162528828,-23.574306453420085L154.23175235057863,-22.672621615083784L156.03628871809914,-17.643103458019485z" style="fill:rgb(127,37,217)"/><path d="M4.987648548458801,85.23026364506917L-11.106981817077926,47.653297029769256L-16.65354723310775,46.05277088876691z" style="fill:rgb(83,212,212)"/><path d="M159.58017501330374,-18.53628199774087L161.05433914129335,-16.408647377202843L159.26745309751152,-21.449758336642226z" style="fill:rgb(13,70,126)"/><path d="M-38.170782199865926,85.40043093198675L-40.905179120069384,80.84745145739635L-43.91807641078593,76.72241466488809z" style="fill:rgb(21,57,142)"/><path d="M154.23175235057863,-22.672621615083784L153.4944257887647,-19.990658613521195L155.306221009766,-14.963344783130319z" style="fill:rgb(241,128,184)"/><path d="M159.26745309751152,-21.449758336642226L157.79096162528828,-23.574306453420085L159.58017501330374,-18.53628199774087z" style="fill:rgb(13,70,126)"/><path d="M153.4944257887647,-19.990658613521195L148.32910175951434,-23.26915773148625L149.71868915826806,-18.406900259484008zM4.049060217913412,82.15702485509783L-4.948523893935347,48.335464826675896L-11.106981817077926,47.653297029769256zM39.34311702754483,-9.477988621254811L43.005327834118226,-6.179137680368643L138.49940608265487,76.62445520358611zM4.049060217913412,82.15702485509783L1.6384589552662923,48.06852489222528L-4.948523893935347,48.335464826675896zM129.93314830489024,5.43350335288736L118.65080694162415,-1.2890392367631027L104.96771060512154,-6.195900468408881zM-53.047845720525004,71.29238884163877L-48.02160795071064,73.50188644293405L4.987648548458801,85.23026364506917zM175.7782776496701,-26.317224806749415L157.79096162528828,-23.574306453420085L159.26745309751152,-21.449758336642226zM8.452923134317937,46.85265187417618L1.6384589552662923,48.06852489222528L6.623613036593344,78.91721796462514zM43.005327834118226,-6.179137680368643L45.702386258864905,-2.2067807004022533L138.49940608265487,76.62445520358611zM15.283265506859411,44.719913269967L8.452923134317937,46.85265187417618L6.623613036593344,78.91721796462514zM21.915274169005016,41.73376574150006L15.283265506859411,44.719913269967L6.623613036593344,78.91721796462514zM-48.02160795071064,73.50188644293405L-43.91807641078593,76.72241466488809L4.987648548458801,85.23026364506917zM133.0326658548508,6.260156738914681L129.93314830489024,5.43350335288736L91.4857163548714,-1.4657460025806084zM45.702386258864905,-2.2067807004022533L47.34186592159215,2.33467341193817L138.49940608265487,76.62445520358611zM129.93314830489024,5.43350335288736L125.00163880146806,-0.0710684030171909L118.65080694162415,-1.2890392367631027z" style="fill:rgb(83,212,212)"/><path d="M132.66788092114118,7.634043761755526L136.23441137307242,6.751706002718147L134.31129770520633,1.774496635464531z" style="fill:rgb(127,37,217)"/><path d="M132.12763575952064,-0.8652173889771636L125.00163880146806,-0.0710684030171909L130.7292749289506,2.66533894090167zM-43.91807641078593,76.72241466488809L-40.905179120069384,80.84745145739635L4.987648548458801,85.23026364506917z" style="fill:rgb(83,212,212)"/><path d="M129.93314830489024,5.43350335288736L131.87966533587664,10.39943662012207L132.66788092114118,7.634043761755526z" style="fill:rgb(241,128,184)"/><path d="M144.7509137784051,-7.82369390389199L139.03462371937803,-3.5750446345760127L130.7292749289506,2.66533894090167z" style="fill:rgb(83,212,212)"/><path d="M134.31129770520633,1.774496635464531L136.23441137307242,6.751706002718147L137.66460160795205,8.971837829373015z" style="fill:rgb(13,70,126)"/><path d="M139.03462371937803,-3.5750446345760127L132.12763575952064,-0.8652173889771636L130.7292749289506,2.66533894090167z" style="fill:rgb(83,212,212)"/><path d="M134.31129770520633,1.774496635464531L130.7292749289506,2.66533894090167L132.66788092114118,7.634043761755526z" style="fill:rgb(127,37,217)"/><path d="M129.93314830489024,5.43350335288736L130.7292749289506,2.66533894090167L125.00163880146806,-0.0710684030171909zM47.34186592159215,2.33467341193817L47.85974853558922,7.320831800028115L138.49940608265487,76.62445520358611z" style="fill:rgb(83,212,212)"/><path d="M132.66788092114118,7.634043761755526L130.7292749289506,2.66533894090167L129.93314830489024,5.43350335288736z" style="fill:rgb(241,128,184)"/><path d="M144.7509137784051,-7.82369390389199L130.7292749289506,2.66533894090167L134.31129770520633,1.774496635464531zM144.7509137784051,-7.82369390389199L134.31129770520633,1.774496635464531L135.74327561022042,3.9921109180701224z" style="fill:rgb(83,212,212)"/><path d="M137.66460160795205,8.971837829373015L135.74327561022042,3.9921109180701224L134.31129770520633,1.774496635464531z" style="fill:rgb(13,70,126)"/><path d="M4.987648548458801,85.23026364506917L4.049060217913412,82.15702485509783L-11.106981817077926,47.653297029769256zM4.049060217913412,82.15702485509783L6.623613036593344,78.91721796462514L1.6384589552662923,48.06852489222528zM47.85974853558922,7.320831800028115L47.224172118382846,12.610076963260708L138.49940608265487,76.62445520358611zM21.915274169005016,41.73376574150006L6.623613036593344,78.91721796462514L10.774950492188987,77.93127213845585zM21.915274169005016,41.73376574150006L10.774950492188987,77.93127213845585L13.398970923576396,79.94248181922812zM47.224172118382846,12.610076963260708L45.438359463947165,18.04731499822774L138.49940608265487,76.62445520358611zM39.34311702754483,-9.477988621254811L138.49940608265487,76.62445520358611L133.0326658548508,6.260156738914681zM45.438359463947165,18.04731499822774L42.54236726712506,23.468686099630776L138.49940608265487,76.62445520358611z" style="fill:rgb(83,212,212)"/><path d="M6.623613036593344,78.91721796462514L9.183860716438014,83.57226533178431L13.317710924901291,82.59583682456177z" style="fill:rgb(127,37,217)"/><path d="M-40.905179120069384,80.84745145739635L8.755640066123618,85.81512189510366L4.987648548458801,85.23026364506917z" style="fill:rgb(83,212,212)"/><path d="M138.49940608265487,76.62445520358611L39.82140400424944,27.096438307368658L42.14726536808515,31.851120503536453z" style="fill:rgb(42,41,169)"/><path d="M4.049060217913412,82.15702485509783L6.626121196775952,86.8042736729751L9.183860716438014,83.57226533178431z" style="fill:rgb(221,95,207)"/><path d="M42.54236726712506,23.468686099630776L39.82140400424944,27.096438307368658L138.49940608265487,76.62445520358611z" style="fill:rgb(83,212,212)"/><path d="M10.774950492188987,77.93127213845585L13.317710924901291,82.59583682456177L15.936555467266377,84.61115780627736z" style="fill:rgb(33,47,159)"/><path d="M9.183860716438014,83.57226533178431L6.623613036593344,78.91721796462514L4.049060217913412,82.15702485509783z" style="fill:rgb(221,95,207)"/><path d="M13.317710924901291,82.59583682456177L10.774950492188987,77.93127213845585L6.623613036593344,78.91721796462514z" style="fill:rgb(127,37,217)"/><path d="M4.987648548458801,85.23026364506917L7.568252744333659,89.87719349882633L6.626121196775952,86.8042736729751zM6.626121196775952,86.8042736729751L4.049060217913412,82.15702485509783L4.987648548458801,85.23026364506917z" style="fill:rgb(244,177,137)"/><path d="M15.936555467266377,84.61115780627736L13.398970923576396,79.94248181922812L10.774950492188987,77.93127213845585z" style="fill:rgb(33,47,159)"/><path d="M9.29210532020864,154.86315958545202L33.454877470416235,33.83962556064585L28.140464043278147,37.98699720953185z" style="fill:rgb(83,212,212)"/><path d="M140.533581675135,81.5615821561282L177.4924566172262,-21.236421204703905L175.7782776496701,-26.317224806749415z" style="fill:rgb(238,121,190)"/><path d="M9.29210532020864,154.86315958545202L28.140464043278147,37.98699720953185L21.915274169005016,41.73376574150006zM138.49940608265487,76.62445520358611L153.4944257887647,-19.990658613521195L149.71868915826806,-18.406900259484008zM138.49940608265487,76.62445520358611L156.607483176841,-19.228539788937486L153.4944257887647,-19.990658613521195zM138.49940608265487,76.62445520358611L159.26745309751152,-21.449758336642226L156.607483176841,-19.228539788937486zM138.49940608265487,76.62445520358611L149.71868915826806,-18.406900259484008L148.479430734234,-13.010574553780545zM138.49940608265487,76.62445520358611L175.7782776496701,-26.317224806749415L159.26745309751152,-21.449758336642226zM138.49940608265487,76.62445520358611L148.479430734234,-13.010574553780545L144.7509137784051,-7.82369390389199zM-40.905179120069384,80.84745145739635L-39.11493873248049,85.73323237717622L9.29210532020864,154.86315958545202zM138.49940608265487,76.62445520358611L144.7509137784051,-7.82369390389199L135.74327561022042,3.9921109180701224zM138.49940608265487,76.62445520358611L135.74327561022042,3.9921109180701224L133.0326658548508,6.260156738914681zM-39.11493873248049,85.73323237717622L-38.636086828351154,91.20193796979252L9.29210532020864,154.86315958545202zM9.29210532020864,154.86315958545202L21.915274169005016,41.73376574150006L13.398970923576396,79.94248181922812zM-40.905179120069384,80.84745145739635L9.29210532020864,154.86315958545202L8.755640066123618,85.81512189510366z" style="fill:rgb(83,212,212)"/><path d="M42.14726536808515,31.851120503536453L140.533581675135,81.5615821561282L138.49940608265487,76.62445520358611z" style="fill:rgb(42,41,169)"/><path d="M9.29210532020864,154.86315958545202L13.398970923576396,79.94248181922812L12.507738766333706,83.45524459744551zM9.29210532020864,154.86315958545202L12.507738766333706,83.45524459744551L8.755640066123618,85.81512189510366z" style="fill:rgb(83,212,212)"/><path d="M175.7782776496701,-26.317224806749415L138.49940608265487,76.62445520358611L140.533581675135,81.5615821561282z" style="fill:rgb(238,121,190)"/><path d="M-38.636086828351154,91.20193796979252L-40.57315042315744,147.97201175276817L9.29210532020864,154.86315958545202zM9.29210532020864,154.86315958545202L131.80563378059622,84.12157927041436L33.454877470416235,33.83962556064585z" style="fill:rgb(83,212,212)"/><path d="M-40.57315042315744,147.97201175276817L-37.67411773599421,152.46443132800653L12.013860140044743,159.44452264833092zM12.013860140044743,159.44452264833092L9.29210532020864,154.86315958545202L-40.57315042315744,147.97201175276817z" style="fill:rgb(81,32,199)"/><path d="M133.88107186839105,89.03695423743193L131.80563378059622,84.12157927041436L9.29210532020864,154.86315958545202zM9.29210532020864,154.86315958545202L12.013860140044743,159.44452264833092L133.88107186839105,89.03695423743193z" style="fill:rgb(173,56,222)"/></svg>
